<svg width="74" height="73" viewBox="0 0 74 73" fill="none" xmlns="http://www.w3.org/2000/svg">
<path d="M37.1813 72.9145C57.2573 72.9145 73.5321 56.6397 73.5321 36.5638C73.5321 16.4878 57.2573 0.212982 37.1813 0.212982C17.1054 0.212982 0.830566 16.4878 0.830566 36.5638C0.830566 56.6397 17.1054 72.9145 37.1813 72.9145Z" fill="#CF9F66"/>
<path d="M37.2493 67.6884C54.4015 67.6884 68.3061 53.7837 68.3061 36.6315C68.3061 19.4793 54.4015 5.57462 37.2493 5.57462C20.097 5.57462 6.19238 19.4793 6.19238 36.6315C6.19238 53.7837 20.097 67.6884 37.2493 67.6884Z" fill="#89643D"/>
<path d="M33.667 59.0874C47.2265 59.0874 58.2187 48.0953 58.2187 34.5357C58.2187 20.9762 47.2265 9.98401 33.667 9.98401C20.1074 9.98401 9.11523 20.9762 9.11523 34.5357C9.11523 48.0953 20.1074 59.0874 33.667 59.0874Z" fill="#C45C00"/>
<path d="M7.34487 28.5074C7.34487 28.5074 14.1077 22.398 21.431 23.6836C28.7542 24.9692 29.846 32.1836 26.8763 34.9315C26.8763 34.9315 25.9067 34.8146 25.3928 33.2169C24.8788 31.6192 23.2903 28.1594 20.14 28.17C16.9897 28.1807 13.6229 28.6774 6.73658 34.1785C6.55698 32.2664 6.76384 30.3378 7.34487 28.5074Z" fill="#C98019"/>
<path d="M32.95 21.4205C32.95 21.4205 42.5882 15.0853 48.849 21.88C50.0973 24.1493 51.6008 26.2685 53.3301 28.1966C55.1775 29.8381 59.8379 31.2433 59.5722 36.9303C59.3066 42.6174 56.6583 44.5006 55.1735 44.6335C53.6886 44.7663 45.275 43.5391 43.3784 46.1953C41.4819 48.8516 42.377 55.3103 39.9651 58.3238C37.5533 61.3373 26.2602 57.0806 29.5261 48.7613C32.7919 40.4419 27.2178 35.7802 26.1765 33.5542C25.1353 31.3283 22.3994 25.7555 29.8594 23.1444C37.3195 20.5333 35.654 25.9985 33.6844 26.652C31.7148 27.3054 27.9376 27.7397 28.6628 31.7108C29.3879 35.6819 34.209 37.4749 33.8744 43.2655C33.5397 49.0561 31.1477 50.5383 32.2872 52.836C33.4268 55.1336 37.3115 57.2759 38.1429 54.7538C38.9743 52.2317 37.9783 44.8672 43.0079 41.9015C48.0375 38.9358 53.5107 42.284 55.1204 40.6956C56.7301 39.1071 56.4883 35.0351 53.249 32.7534C50.2979 30.5482 47.8804 27.7077 46.1754 24.442C44.5817 21.5719 38.9611 21.625 34.0895 24.5509C29.2179 27.4767 28.5313 24.086 32.95 21.4205Z" fill="#EB9800"/>
<path d="M29.4491 18.2662C29.4491 18.2662 25.6188 13.4982 29.7387 8.96002C33.8585 4.42181 46.8914 7.73549 45.6576 14.8808C44.4238 22.0261 45.9723 21.7937 47.9154 23.0793C49.8584 24.3649 53.2491 24.094 55.8403 25.6678C58.4315 27.2417 60.607 30.4969 57.0688 35.0019C55.4179 37.2268 53.0191 38.7809 50.3137 39.3782C47.6083 39.9756 44.7782 39.576 42.3439 38.2531C36.7445 35.5265 32.6991 33.4081 29.914 40.7859C27.1289 48.1636 25.7277 53.6607 21.5933 53.9981C17.4588 54.3354 16.484 52.8532 18.1242 51.0058C19.7645 49.1584 21.5773 51.0576 23.1897 48.6285C24.802 46.1993 24.7516 42.6785 28.3827 37.3978C32.0138 32.1172 37.0898 32.6817 42.1088 35.4428C43.0123 36.0125 44.0209 36.3953 45.0749 36.5684C46.1289 36.7416 47.2069 36.7016 48.2452 36.4508C49.2835 36.2001 50.2609 35.7437 51.1197 35.1086C51.9785 34.4735 52.7013 33.6726 53.2452 32.7534C55.3024 29.6442 54.5839 27.3519 46.0826 26.478C46.0826 26.478 40.0994 24.7514 41.0477 19.0976C41.9959 13.4438 40.3703 10.4077 36.8163 10.2921C33.2622 10.1766 30.3642 13.0812 31.9978 18.314C33.6314 23.5468 29.4491 18.2662 29.4491 18.2662Z" fill="#D68B00"/>
<path d="M57.2095 28.6641C57.2095 28.6641 58.7356 21.7113 52.8413 17.9527C46.9471 14.1941 41.6373 20.3195 38.912 25.9215C36.1867 31.5235 38.5627 36.5863 35.172 38.957C31.7813 41.3277 25.8326 38.5055 22.1563 39.0035C18.4801 39.5016 9.32001 45.3188 20.961 55.3899C32.602 65.4611 46.3534 54.1681 48.1531 51.4467C49.9527 48.7254 50.5224 45.7517 52.8745 43.6759C55.2266 41.6 50.7323 41.001 49.5742 42.3305C47.9217 44.3576 46.5378 46.5896 45.457 48.9711C44.174 51.7602 37.3036 55.1721 32.3603 55.2545C27.417 55.3368 20.5905 52.7762 19.6648 46.9962C18.7391 41.2162 27.1156 43.1247 28.9616 43.9256C30.8077 44.7264 41.8126 43.0689 41.8126 33.5702C41.8126 24.0714 47.647 20.953 51.5597 21.5798C55.4724 22.2067 54.0433 29.6482 52.917 30.7187C51.7908 31.7891 46.9259 35.9741 40.6983 31.0215L39.5149 34.2887C39.5149 34.2887 44.7371 39.6981 50.3511 37.5452C55.9651 35.3923 57.2095 28.6641 57.2095 28.6641Z" fill="#EBBA1D"/>
<path d="M23.9239 36.2264C23.9239 36.2264 15.7838 30.3189 22.3434 21.3514C28.9031 12.3839 41.0488 13.8223 41.8124 17.8903C42.5761 21.9584 39.7073 25.8232 43.1406 30.9232C46.5738 36.0232 53.577 35.4176 56.5546 42.9441C59.5323 50.4706 46.9921 59.7714 39.1668 52.6022C31.3415 45.433 37.8626 40.6358 39.9637 39.5135C42.0648 38.3913 42.9227 40.4233 41.7659 42.1698C40.6091 43.9163 35.63 47.6443 42.6717 51.5689C49.7134 55.4935 56.7591 47.0599 52.5277 42.6891C48.2963 38.3182 47.2591 40.0421 41.9559 34.4388C36.6527 28.8354 38.7192 23.8138 38.7365 21.7286C38.7538 19.6434 36.2702 16.4294 31.987 18.3113C27.7038 20.1933 17.942 27.9827 27.1061 35.8253C27.1207 35.828 27.393 37.4748 23.9239 36.2264Z" fill="#FFCA1F"/>
<path d="M58.7169 28.0438C58.7169 28.0438 50.3311 23.1949 44.8672 32.7135C39.4033 42.2322 56.0367 47.9245 57.1842 43.6546C58.3317 39.3847 56.819 41.0395 54.7856 41.3689C52.7523 41.6983 45.4888 41.9201 46.7465 34.0961C47.8422 27.3134 56.2041 28.591 58.0568 30.2738C58.1777 30.3946 58.3248 30.4859 58.4867 30.5404C58.6486 30.595 58.821 30.6115 58.9903 30.5884C59.1596 30.5654 59.3214 30.5036 59.4628 30.4078C59.6043 30.3119 59.7218 30.1847 59.806 30.036C60.049 29.5499 59.9042 28.8872 58.7169 28.0438Z" fill="#FFD85E"/>
<path d="M37.6952 46.7863C37.6952 46.7863 43.1857 43.7131 42.3928 38.8933C41.5999 34.0735 40.799 35.1188 40.9318 36.0392C41.0647 36.9596 42.2786 40.1789 40.4458 42.6333C39.5641 44.0676 38.3667 45.2818 36.9448 46.1834C35.031 47.6443 37.3061 47.0546 37.6952 46.7863Z" fill="#FFE38A"/>
<path d="M35.9092 15.4346C35.9092 15.4346 40.1964 14.8144 41.1513 17.646C42.1062 20.4775 41.5192 18.832 40.207 17.9647C38.8948 17.0974 33.1493 16.4453 35.9092 15.4346Z" fill="#FFD85E"/>
<path d="M42.7595 63.6548C54.7354 63.6548 64.4438 53.9465 64.4438 41.9706C64.4438 29.9946 54.7354 20.2863 42.7595 20.2863C30.7836 20.2863 21.0752 29.9946 21.0752 41.9706C21.0752 53.9465 30.7836 63.6548 42.7595 63.6548Z" fill="#D96600"/>
<path d="M53.3964 63.3162C53.3964 63.3162 57.236 56.2426 54.6156 50.2222C51.9953 44.2018 45.5724 44.7623 43.8286 47.882C43.8286 47.882 44.1314 48.6909 45.6096 48.8011C47.0878 48.9113 50.3909 49.5568 51.031 52.2635C51.6712 54.9702 51.9474 57.9625 48.6537 65.0135C50.3324 64.7715 51.9453 64.1943 53.3964 63.3162Z" fill="#C98019"/>
<path d="M54.164 39.8642C54.164 39.8642 57.6025 30.2764 50.4692 26.3173C48.2621 25.716 46.1309 24.8649 44.1167 23.7806C42.3251 22.5348 40.1523 18.828 35.3259 20.2398C30.4995 21.6516 29.4343 24.3065 29.6269 25.6094C29.8195 26.9123 32.6205 33.8743 30.7332 36.0538C28.846 38.2332 23.1164 38.8043 21.0299 41.4991C18.9435 44.1938 24.9399 53.006 31.4013 48.477C37.8626 43.9481 43.0237 47.7652 45.15 48.1981C47.2763 48.6311 52.6353 49.8198 53.3299 42.8777C54.0246 35.9356 49.6776 38.4949 49.5249 40.3224C49.3721 42.1499 49.7905 45.4821 46.2245 45.684C42.6585 45.8859 40.1257 42.118 35.2289 43.6055C30.3321 45.093 29.5445 47.457 27.3425 46.9497C25.1405 46.4424 22.4869 43.5577 24.4804 42.3212C26.4739 41.0847 33.0017 40.4113 34.4985 35.4787C35.9953 30.546 31.991 26.5391 33.0203 24.8324C34.0495 23.1258 37.5956 22.483 40.2267 24.7899C42.7315 26.8661 45.6716 28.3518 48.8289 29.1369C51.618 29.9099 52.7442 34.7469 51.2435 39.5335C49.7427 44.32 52.796 44.2098 54.164 39.8642Z" fill="#EB9800"/>
<path d="M57.6012 42.211C58.967 42.845 60.5134 42.9739 61.9652 42.5749C63.4171 42.1758 64.6804 41.2745 65.5301 40.0315C68.5715 35.5531 63.0226 25.0529 57.1457 27.5949C51.2687 30.137 51.1452 28.7584 49.6378 27.3572C48.1304 25.956 47.6562 22.9917 45.7716 21.0938C43.887 19.1959 40.6358 18.0032 37.504 21.9743C35.9378 23.8534 35.1022 26.2347 35.151 28.6805C35.1998 31.1263 36.1297 33.4723 37.7697 35.2874C41.2719 39.5295 43.9308 42.5629 38.1681 46.4849C32.4054 50.4068 27.9854 52.7496 28.5525 56.3688C29.1196 59.9879 30.5951 60.5178 31.8409 58.7262C33.0867 56.9346 31.0786 55.7685 32.8304 53.8852C34.5822 52.0019 37.6116 51.3099 41.3941 47.0958C45.1766 42.8817 43.636 38.6423 40.2254 34.9076C39.5489 34.25 39.0112 33.4634 38.6441 32.5944C38.2769 31.7254 38.0877 30.7915 38.0877 29.8481C38.0877 28.9047 38.2769 27.9709 38.6441 27.1018C39.0112 26.2328 39.5489 25.4462 40.2254 24.7886C42.4672 22.3781 44.5843 22.5189 47.0984 29.6349C47.0984 29.6349 49.8197 34.4162 54.4788 32.424C59.1379 30.4318 62.0797 31.2021 62.9164 34.2289C63.7531 37.2557 61.8672 40.3516 57.0315 40.0342C52.1958 39.7167 57.6012 42.211 57.6012 42.211Z" fill="#D68B00"/>
<path d="M42.912 20.5426C42.912 20.5426 48.5632 17.7907 53.0137 22.0699C57.4642 26.3492 53.3072 32.1783 49.0652 35.6806C44.8232 39.1828 39.9835 38.1934 38.65 41.5907C37.3166 44.9881 40.9756 49.5143 41.3063 52.7789C41.637 56.0434 38.5504 65.1092 27.4938 57.2095C16.4371 49.3098 23.2743 35.1626 25.236 33.0496C27.1976 30.9365 29.6334 29.8328 30.9283 27.3824C32.2232 24.9321 33.6682 28.6667 32.7678 29.9378C31.3701 31.7772 29.7413 33.4288 27.9214 34.8518C25.7964 36.5292 24.2903 43.1367 25.2453 47.3973C26.2002 51.6579 29.8153 56.9864 34.9685 56.5826C40.1216 56.1789 36.7468 49.3828 35.6764 47.9657C34.6059 46.5486 33.7413 36.7524 41.8973 34.7828C50.0533 32.8132 51.5222 27.154 50.1675 23.9267C48.8128 20.6993 42.73 23.4685 42.0407 24.6571C41.3514 25.8458 38.7709 30.8914 44.3145 35.2038L41.7565 36.8985C41.7565 36.8985 36.0296 33.5383 36.7096 28.2656C37.3896 22.993 42.912 20.5426 42.912 20.5426Z" fill="#EBBA1D"/>
<path d="M43.3293 50.6857C43.3293 50.6857 50.0907 56.4471 56.4259 48.9591C62.7611 41.4712 59.0091 31.3389 55.3634 31.5262C51.7177 31.7134 48.9884 34.9793 43.899 33.088C38.8097 31.1968 37.876 25.0609 30.7957 24.0568C23.7155 23.0527 18.3286 35.7563 26.1075 40.9891C33.8863 46.2219 36.6501 39.6251 37.1774 37.5851C37.7047 35.5451 35.7815 35.233 34.5211 36.589C33.2607 37.945 31.0946 42.9932 26.2642 37.7617C21.4338 32.5302 27.2125 24.7328 31.8423 27.4595C36.4722 30.1861 35.2078 31.4319 41.1179 34.8226C47.0281 38.2133 50.9115 35.3963 52.6979 34.9554C54.4842 34.5145 57.758 35.9741 57.0315 40.0408C56.305 44.1075 51.6407 54.0977 43.0079 47.8581C43.0079 47.8581 41.5389 47.9657 43.3293 50.6857Z" fill="#FFCA1F"/>
<path d="M66.1662 46.5287C64.0726 45.7829 62.2407 44.4448 60.8935 42.6771C58.0447 39.3953 54.3167 35.9263 46.7928 39.2559C39.269 42.5855 40.3448 51.1745 46.0438 54.7949C46.0438 54.7949 47.9177 55.2731 45.8685 52.9449C43.8192 50.6167 41.811 46.4304 45.7356 43.3399C49.6602 40.2493 53.371 40.1152 56.6409 42.9414C59.9107 45.7677 61.45 49.1013 65.3029 49.9446C65.7592 48.8553 66.0502 47.704 66.1662 46.5287Z" fill="#FFD03B"/>
<path d="M54.3591 61.2602C54.3591 61.2602 64.3134 58.7169 63.9216 46.2272C63.9216 46.2272 63.1924 39.6477 55.909 40.5654C48.6256 41.4831 45.9295 39.398 43.6013 36.917C41.2731 34.4361 36.6206 32.6378 32.1701 37.8759C27.7195 43.1141 32.2405 59.4407 43.661 56.6795C55.0816 53.9184 44.1843 63.5951 42.3754 63.3879C40.5665 63.1807 39.7869 62.7716 37.1386 60.5191C34.4903 58.2666 28.7781 51.2674 22.1932 51.8863C22.1932 51.8863 21.6115 52.399 23.3713 54.2464C25.131 56.0938 27.1644 53.4495 33.5606 59.7196C39.9569 65.9897 42.1682 68.2528 49.3892 61.057C56.6103 53.8613 49.6549 53.2941 48.0253 53.5717C46.3956 53.8493 40.2929 55.6529 36.8225 51.7934C33.3521 47.9338 32.9019 41.507 35.8158 39.0527C38.7297 36.5983 40.5625 37.4589 42.9027 40.2706C45.2428 43.0822 51.7413 44.5923 55.9515 43.2389C60.1617 41.8856 63.3757 47.72 59.3223 54.9105C55.2688 62.1009 45.0901 60.122 43.0076 59.875C41.2717 59.6652 35.1145 58.8563 32.3653 60.7051C32.1661 60.8472 32.0035 61.0348 31.8911 61.2522C31.7787 61.4696 31.7196 61.7107 31.7189 61.9555C31.7181 62.2002 31.7756 62.4417 31.8866 62.6598C31.9976 62.8779 32.159 63.0665 32.3574 63.2099C32.8439 63.6521 33.4856 63.8837 34.1424 63.8541C35.2819 63.6044 34.3668 61.7291 47.8154 62.2709C49.3978 62.333 50.981 62.1716 52.5183 61.7915C53.1292 61.6361 53.7654 61.4595 54.3591 61.2602Z" fill="#FFD85E"/>
<path d="M43.1406 19.1188C43.1406 19.1188 49.0428 25.3119 42.0037 31.9724C34.9646 38.633 26.6293 25.5403 30.0506 23.669C33.4718 21.7977 32.3721 23.4392 32.5103 25.2548C32.6484 27.0703 33.9712 33.3563 40.4219 30.647C46.0173 28.2988 43.1857 21.3846 41.3516 20.1441C41.2228 20.0654 41.1139 19.9581 41.0335 19.8304C40.953 19.7027 40.9031 19.5581 40.8877 19.408C40.8723 19.2579 40.8917 19.1062 40.9446 18.9648C40.9974 18.8234 41.0821 18.6961 41.1922 18.5929C41.5654 18.2888 42.1644 18.2741 43.1406 19.1188Z" fill="#FFD85E"/>
<path d="M31.4079 41.0555C31.4079 41.0555 32.906 35.7058 37.2078 35.3857C41.5096 35.0656 40.7791 35.9661 39.9623 36.0498C39.1455 36.1335 36.1293 35.751 34.4028 37.8335C33.3545 38.8883 32.5605 40.1683 32.0812 41.5761C31.2232 43.5192 31.2578 41.4433 31.4079 41.0555Z" fill="#FFE38A"/>
<path d="M58.6915 36.083C58.6915 36.083 58.3356 32.2739 55.7059 32.0415C53.0762 31.8091 54.6115 31.9711 55.6289 32.918C56.6462 33.865 58.4033 38.6595 58.6915 36.083Z" fill="#FFD85E"/>
<path d="M22.4219 9.98797C22.4219 9.98797 23.6903 12.5034 28.0611 14.7692C32.432 17.035 37.2398 20.2145 35.577 29.3786C33.9142 38.5427 24.1764 39.645 18.6806 34.3338C18.6806 34.3338 17.6553 32.3988 20.7631 34.0363C23.8709 35.6739 29.0121 36.7683 31.3682 31.6231C33.7243 26.478 32.8862 22.3608 28.9018 19.5146C24.9175 16.6684 20.8428 15.8609 18.8904 11.8447C18.8931 11.842 21.6968 9.92555 22.4219 9.98797Z" fill="#FFD03B"/>
<path d="M9.3503 26.9017C9.3503 26.9017 9.50303 15.2686 23.3527 12.3839C23.3527 12.3839 30.7902 11.4356 31.7199 19.6966C32.6496 27.9575 35.6591 30.3694 39.0113 32.2713C42.3635 34.1731 45.5776 38.8149 40.9955 45.1076C36.4135 51.4002 17.242 50.7667 17.242 37.4629C17.242 24.1591 9.49241 38.726 10.203 40.6624C10.9135 42.5988 11.5696 43.3478 14.7531 45.6627C17.9366 47.9777 27.1605 52.403 28.2296 59.8153C28.2296 59.8153 27.8192 60.5909 25.3183 59.1512C22.8175 57.7115 25.1855 54.7684 16.5833 49.3935C7.981 44.0185 4.89577 42.1897 10.9002 32.3297C16.9047 22.4697 19.3737 29.9723 19.5012 31.8383C19.6287 33.7043 19.2674 40.9014 24.4391 43.6945C29.6108 46.4875 36.8 45.2656 38.7244 41.4141C40.6489 37.5625 39.2132 35.7656 35.4984 33.9367C31.7837 32.1079 28.3983 25.3544 28.7622 20.3606C29.1261 15.3669 21.8559 13.3827 15.0201 19.7563C8.18421 26.13 13.069 36.7988 13.9018 39.0235C14.5951 40.8828 17.1225 47.4384 15.8183 50.9567C15.7147 51.2136 15.5514 51.4423 15.342 51.6237C15.1326 51.8051 14.883 51.9341 14.6139 52C14.3448 52.0659 14.0639 52.0669 13.7943 52.0028C13.5248 51.9387 13.2744 51.8114 13.0637 51.6313C12.4482 51.2132 12.0229 50.5687 11.8804 49.8384C11.8525 48.5182 14.1568 49.0269 9.98514 34.3697C9.49713 32.6445 9.25392 30.8593 9.26264 29.0665C9.2653 28.3546 9.28788 27.6016 9.3503 26.9017Z" fill="#FFE38C"/>
<path d="M29.2695 14.2592C29.2695 14.2592 31.4941 15.4732 31.9497 21.4417C32.125 23.7217 32.8819 25.9187 34.1482 27.8228C35.4145 29.7269 37.1478 31.2745 39.1827 32.3178C40.1423 32.8197 40.9861 33.5172 41.6596 34.3653C42.3332 35.2134 42.8215 36.1932 43.0932 37.2415C43.3648 38.2899 43.4138 39.3836 43.2369 40.452C43.06 41.5204 42.6611 42.5399 42.066 43.4448C42.066 43.4448 45.4554 36.2623 38.7776 32.671C32.0998 29.0798 31.5964 24.171 31.2923 21.3408C30.9881 18.5106 30.9377 16.5357 29.2695 14.2592Z" fill="#FFF4D1"/>
<path d="M54.3914 19.8905C53.6229 18.7327 52.4806 17.8734 51.155 17.4562C49.8295 17.0391 48.401 17.0891 47.1079 17.5981C47.1079 17.5981 45.6244 18.4747 47.5794 18.3406C48.7051 18.1335 49.8635 18.1904 50.9634 18.5068C52.0634 18.8232 53.075 19.3905 53.9185 20.1641C55.9426 22.1842 54.661 20.2278 54.3914 19.8905Z" fill="#FFD03B"/>
<path d="M40.7007 41.2029C40.7007 41.2029 42.3184 38.7751 41.0991 36.751C39.8799 34.727 40.4497 34.3763 41.1124 34.8226C41.738 35.4084 42.2204 36.1304 42.5223 36.9325C42.8243 37.7347 42.9376 38.5955 42.8536 39.4484C42.754 41.9719 41.1669 45.5193 38.4708 46.3959C35.7747 47.2724 37.4627 44.7769 40.7007 41.2029Z" fill="#FFF0C2"/>
<path d="M12.8474 29.7372C12.8474 29.7372 15.2752 26.972 16.8942 27.7145C17.5111 28.1131 18.0272 28.6495 18.4017 29.2814C18.7762 29.9133 18.9989 30.6236 19.0524 31.3562C19.1188 32.0309 19.318 35.0656 19.4508 35.8067C19.5836 36.5478 18.642 36.3473 18.5742 34.9979C18.5065 33.6485 18.5742 28.9284 16.6856 28.591C16.0038 28.4776 15.3037 28.5637 14.6696 28.8389C14.0355 29.1141 13.4945 29.5668 13.1117 30.1423C12.6455 30.817 12.5777 30.1423 12.8474 29.7372Z" fill="#FFF0C2"/>
<path opacity="0.51" d="M66.1333 34.0098C69.617 49.5077 54.0142 69.8691 37.3714 65.1384C22.098 60.7941 7.03174 54.5426 7.03174 38.6582C7.03174 22.7738 20.6955 6.61719 36.5825 6.61719C52.4696 6.61719 63.6431 22.9279 66.1333 34.0098Z" fill="#FFF276"/>
<path d="M51.8557 12.3454C51.8557 12.3454 50.0295 10.6016 48.9511 12.5114C47.8726 14.4213 49.9471 14.6696 50.9432 14.8356C50.9432 14.8356 49.7811 15.9977 51.3576 16.4958C52.9341 16.9938 55.2596 16.3298 57.9159 19.2344C60.5721 22.139 64.6389 30.2751 62.8964 34.8399C61.1539 39.4046 65.7186 43.3067 64.8886 46.2126C64.0585 49.1185 62.9787 53.4336 60.9042 55.0938C58.8296 56.7539 56.5041 59.2442 58.912 58.9121C58.912 58.9121 65.8846 52.5212 66.6311 39.8203C67.2396 35.8782 66.6011 31.8444 64.8049 28.2829C62.9217 24.9608 60.814 21.7712 58.4963 18.7363C57.9159 17.7402 57.2518 15.084 51.8557 12.3454Z" fill="#FFF2FF"/>
<path d="M21.143 59.1618C21.143 59.1618 19.1508 57.418 21.3927 56.5055C23.6345 55.5931 25.211 58.4977 25.211 59.4102C25.211 60.3226 27.0372 61.652 30.4398 62.4821C33.8425 63.3122 34.0922 62.0664 35.836 62.5645C37.5798 63.0625 40.3184 65.3867 43.057 64.8887C45.7956 64.3906 46.5434 65.3044 44.5512 65.6364C42.559 65.9684 30.5235 64.7227 21.143 59.1618Z" fill="#FFF2FF"/>
<path d="M44.1779 18.9024C45.1175 18.9024 45.8792 18.215 45.8792 17.367C45.8792 16.5191 45.1175 15.8317 44.1779 15.8317C43.2383 15.8317 42.4766 16.5191 42.4766 17.367C42.4766 18.215 43.2383 18.9024 44.1779 18.9024Z" fill="#FFF2FF"/>
<path d="M30.9312 28.7969C30.9784 30.2986 30.7161 31.794 30.1606 33.19C29.6052 34.586 28.7685 35.8528 27.7026 36.9117C26.6366 37.9705 25.3643 38.7987 23.9646 39.3448C22.5649 39.8909 21.0678 40.1432 19.5664 40.086C16.3713 40.0632 13.3117 38.7921 11.041 36.544C8.77041 34.296 7.46875 31.2492 7.41406 28.0545C7.41406 21.4882 13.0347 16.7269 19.6009 16.7269C26.1672 16.7269 30.9312 22.236 30.9312 28.7969Z" fill="#965030"/>
<path d="M19.5666 38.7472C25.3891 38.7472 30.1092 34.0271 30.1092 28.2046C30.1092 22.382 25.3891 17.6619 19.5666 17.6619C13.744 17.6619 9.02393 22.382 9.02393 28.2046C9.02393 34.0271 13.744 38.7472 19.5666 38.7472Z" fill="#FFB95C"/>
<path d="M19.5665 38.0738C24.8367 38.0738 29.1091 33.8015 29.1091 28.5313C29.1091 23.261 24.8367 18.9887 19.5665 18.9887C14.2963 18.9887 10.0239 23.261 10.0239 28.5313C10.0239 33.8015 14.2963 38.0738 19.5665 38.0738Z" fill="#FFE9CC"/>
<path d="M19.5666 37.5267C24.2677 37.5267 28.0786 33.7157 28.0786 29.0147C28.0786 24.3137 24.2677 20.5027 19.5666 20.5027C14.8656 20.5027 11.0547 24.3137 11.0547 29.0147C11.0547 33.7157 14.8656 37.5267 19.5666 37.5267Z" fill="url(#paint0_linear_14_2029)"/>
<path opacity="0.47" d="M10.7065 33.8438C10.7065 33.8438 15.529 23.2453 22.8748 18.4787C22.8748 18.4787 24.1644 18.0803 25.1738 19.7125C26.1832 21.3448 13.1171 29.9192 16.7628 31.2088C20.4085 32.4984 27.5857 22.7964 29.8847 26.7224C29.8847 26.7224 30.6138 28.4609 27.5857 30.9843C24.5576 33.5078 21.3594 37.775 21.1921 38.6715C20.374 38.7716 19.5495 38.8093 18.7258 38.7844C21.0508 35.4006 23.7814 32.3141 26.8565 29.5938C29.2113 27.9682 27.7544 26.9017 24.7315 29.3693C21.7087 31.837 15.1983 34.978 14.9167 31.3323C14.6351 27.6866 20.3009 22.8084 21.5347 21.9677C22.7686 21.127 22.0394 20.621 20.8614 21.6874C16.7421 25.3334 13.551 29.9086 11.5526 35.0338C11.2236 34.6727 10.9396 34.2731 10.7065 33.8438Z" fill="#FF9100"/>
<path d="M10.7065 33.8438C12.5348 30.1279 14.7935 26.6398 17.4361 23.4512C20.9503 19.6381 22.7818 18.2542 23.7168 18.5531C23.4755 18.4242 23.2257 18.3119 22.9691 18.217C22.5573 18.067 19.828 19.7125 16.4267 23.6756C14.033 26.6664 11.9998 29.9286 10.3691 33.3949L10.7065 33.8438Z" fill="#FFE9CC"/>
<path d="M7.82732 31.157C7.11136 28.5601 7.35614 25.7921 8.5167 23.3612C9.67726 20.9303 11.6757 18.9996 14.1452 17.9235C16.6061 16.6306 19.4571 16.2894 22.1536 16.9651C24.8501 17.6408 27.2033 19.2859 28.7639 21.5865C28.7639 21.5865 22.5947 13.7731 14.1452 18.148C11.7932 19.3025 9.89427 21.2095 8.74968 23.5663C7.60509 25.9231 7.28046 28.5946 7.82732 31.157Z" fill="#70270F"/>
<path d="M23.1762 8.09407C24.4503 7.29771 25.8746 6.77197 27.3606 6.54955C28.8465 6.32713 30.3624 6.41278 31.8138 6.80119C33.2653 7.18959 34.6213 7.87243 35.7976 8.80725C36.9739 9.74208 37.9453 10.9089 38.6515 12.2352C40.2405 15.0091 40.6814 18.2946 39.8801 21.3894C39.0787 24.4842 37.0986 27.1427 34.363 28.7969C28.6879 32.0999 21.7458 29.6376 18.4414 23.9638C15.137 18.2901 17.5077 11.3984 23.1762 8.09407Z" fill="#965030"/>
<path d="M28.3786 28.7597C34.2011 28.7597 38.9213 24.0396 38.9213 18.217C38.9213 12.3945 34.2011 7.67438 28.3786 7.67438C22.556 7.67438 17.8359 12.3945 17.8359 18.217C17.8359 24.0396 22.556 28.7597 28.3786 28.7597Z" fill="#FFB95C"/>
<path d="M28.6612 27.5949C33.9314 27.5949 38.2038 23.3226 38.2038 18.0523C38.2038 12.7821 33.9314 8.50977 28.6612 8.50977C23.391 8.50977 19.1187 12.7821 19.1187 18.0523C19.1187 23.3226 23.391 27.5949 28.6612 27.5949Z" fill="#FFE9CC"/>
<path d="M29.0784 26.3213C33.7794 26.3213 37.5903 22.5103 37.5903 17.8093C37.5903 13.1083 33.7794 9.29736 29.0784 9.29736C24.3773 9.29736 20.5664 13.1083 20.5664 17.8093C20.5664 22.5103 24.3773 26.3213 29.0784 26.3213Z" fill="url(#paint1_linear_14_2029)"/>
<path opacity="0.47" d="M37.7154 23.0342C37.7154 23.0342 26.1288 24.1989 18.3142 20.2451C18.0085 19.8836 17.8334 19.4298 17.8167 18.9567C17.8001 18.4837 17.943 18.0187 18.2225 17.6367C19.1203 15.946 33.1095 22.9213 32.3896 19.1215C31.6698 15.3217 19.6755 14.0016 21.9107 10.0385C21.9107 10.0385 23.0463 8.5337 26.7504 9.88175C30.4545 11.2298 35.7458 11.8474 36.6064 11.5406C37.1045 12.1977 37.552 12.8916 37.9452 13.6164C33.849 13.3116 29.8057 12.5056 25.9057 11.2165C23.3159 9.99995 23.1286 11.7956 26.7836 13.1715C30.4386 14.5474 36.4271 18.5889 33.4176 20.6648C30.4081 22.7407 23.3424 20.3009 21.9957 19.6581C20.649 19.0153 20.5786 19.8998 22.0913 20.3806C27.3148 22.106 32.8744 22.5613 38.3091 21.7087C38.1657 22.173 37.9663 22.6181 37.7154 23.0342Z" fill="#FF9100"/>
<path d="M37.7154 23.0341C33.5841 23.3234 29.4332 23.1264 25.3479 22.4471C20.2838 21.3288 18.1667 20.4416 17.9556 19.4841C17.9642 19.7576 17.9926 20.0301 18.0406 20.2995C18.1176 20.7299 20.9133 22.2612 26.0492 23.2068C29.8381 23.7705 33.6803 23.8859 37.4963 23.5508L37.7154 23.0341Z" fill="#FFE9CC"/>
<path d="M36.8372 26.8751C34.9533 28.7987 32.439 29.9785 29.7555 30.198C27.072 30.4176 24.3994 29.6622 22.2278 28.0704C19.8718 26.5946 18.1421 24.3025 17.3693 21.6319C16.5966 18.9614 16.835 16.0997 18.0389 13.5938C18.0389 13.5938 14.3906 22.8562 22.4217 27.9562C24.6018 29.407 27.2039 30.0886 29.8152 29.8927C32.4266 29.6969 34.8979 28.6349 36.8372 26.8751Z" fill="#70270F"/>
<path d="M49.573 25.037C48.6108 26.1911 47.4215 27.1348 46.079 27.8096C44.7365 28.4844 43.2696 28.8758 41.7694 28.9594C40.2692 29.0429 38.7678 28.817 37.3587 28.2955C35.9495 27.774 34.6627 26.9682 33.5784 25.9282C31.2048 23.7881 29.7622 20.8046 29.559 17.6151C29.3557 14.4256 30.4079 11.2832 32.4906 8.85909C36.8522 3.95167 44.2166 4.12565 49.1254 8.48589C54.0341 12.8461 53.9345 20.1282 49.573 25.037Z" fill="#965030"/>
<path d="M41.4738 27.5843C47.2964 27.5843 52.0165 22.8642 52.0165 17.0416C52.0165 11.2191 47.2964 6.49899 41.4738 6.49899C35.6513 6.49899 30.9312 11.2191 30.9312 17.0416C30.9312 22.8642 35.6513 27.5843 41.4738 27.5843Z" fill="#FFB95C"/>
<path d="M41.2574 26.8286C46.5276 26.8286 50.8 22.5562 50.8 17.286C50.8 12.0158 46.5276 7.74344 41.2574 7.74344C35.9872 7.74344 31.7148 12.0158 31.7148 17.286C31.7148 22.5562 35.9872 26.8286 41.2574 26.8286Z" fill="#FFE9CC"/>
<path d="M40.9358 26.1592C45.6368 26.1592 49.4477 22.3483 49.4477 17.6473C49.4477 12.9462 45.6368 9.13531 40.9358 9.13531C36.2348 9.13531 32.4238 12.9462 32.4238 17.6473C32.4238 22.3483 36.2348 26.1592 40.9358 26.1592Z" fill="url(#paint2_linear_14_2029)"/>
<path opacity="0.47" d="M31.1014 15.3828C31.1014 15.3828 41.7463 10.6627 50.4044 11.9789C50.8074 12.2269 51.1153 12.6033 51.2784 13.0476C51.4415 13.4918 51.4504 13.978 51.3035 14.4279C50.9781 16.3152 35.5108 14.0507 37.3795 17.4361C39.2481 20.8215 51.0592 18.3353 50.1693 22.7978C50.1693 22.7978 49.5597 24.5814 45.6192 24.4566C41.6786 24.3317 36.4551 25.3942 35.7379 25.9534C35.0594 25.4847 34.4178 24.9648 33.8188 24.3981C37.8057 23.4115 41.8984 22.9164 46.0056 22.9239C48.8465 23.2732 48.464 21.5081 44.562 21.3408C40.6599 21.1735 33.7099 19.2012 35.9212 16.2939C38.1325 13.3867 45.6072 13.5049 47.0881 13.6881C48.5689 13.8714 48.3591 13.0174 46.772 13.0321C41.2706 13.0217 35.8459 14.3225 30.9474 16.8265C30.9407 16.3408 30.9924 15.8561 31.1014 15.3828Z" fill="#FF9100"/>
<path d="M31.1011 15.3828C34.9359 13.8197 38.9411 12.7124 43.0343 12.0838C48.194 11.5671 50.4824 11.7491 50.9831 12.5938C50.8891 12.3368 50.7768 12.0869 50.6471 11.846C50.4386 11.4609 47.3069 10.8778 42.1312 11.5804C38.355 12.2259 34.6683 13.315 31.1476 14.825L31.1011 15.3828Z" fill="#FFE9CC"/>
<path d="M30.7373 11.4529C31.9265 9.03572 33.9478 7.12869 36.43 6.08202C38.9122 5.03536 41.6888 4.91934 44.2496 5.75526C46.9492 6.42152 49.3086 8.05934 50.8767 10.3556C52.4448 12.6519 53.1116 15.4455 52.7497 18.2024C52.7497 18.2024 53.3274 8.26409 44.1062 5.9226C41.5802 5.22231 38.8927 5.38617 36.4705 6.38816C34.0483 7.39015 32.0304 9.17279 30.7373 11.4529Z" fill="#70270F"/>
<path d="M64.922 38.8216C63.8807 41.113 61.9825 42.9048 59.6349 43.8125C57.2874 44.7202 54.6775 44.6713 52.3656 43.6765C50.0536 42.6817 48.2238 40.8201 47.2688 38.4913C46.3139 36.1626 46.31 33.5523 47.2579 31.2207C50.4521 23.9824 56.1564 20.9689 61.0359 23.0687C65.9154 25.1684 67.7376 32.2712 64.922 38.8216Z" fill="#FFF0DB"/>
<path d="M55.6954 43.4116C59.8287 43.4116 63.1794 40.0609 63.1794 35.9276C63.1794 31.7943 59.8287 28.4436 55.6954 28.4436C51.5621 28.4436 48.2114 31.7943 48.2114 35.9276C48.2114 40.0609 51.5621 43.4116 55.6954 43.4116Z" fill="#FFBC00"/>
<path d="M49.028 27.9655C51.074 26.4332 53.426 25.3597 55.9241 24.8179C58.4222 24.2761 61.0076 24.2788 63.5046 24.8258L64.227 25.6147C64.227 25.6147 57.2571 23.9426 48.1567 29.4238L49.028 27.9655Z" fill="#FFF8F0"/>
<path opacity="0.24" d="M55.633 41.2321C58.6132 41.2321 61.0292 38.8162 61.0292 35.836C61.0292 32.8557 58.6132 30.4398 55.633 30.4398C52.6528 30.4398 50.2368 32.8557 50.2368 35.836C50.2368 38.8162 52.6528 41.2321 55.633 41.2321Z" fill="#FFF276"/>
<path d="M55.7713 58.8723C53.4018 59.8163 50.7543 59.7803 48.4113 58.7723C46.0683 57.7643 44.2217 55.8669 43.2776 53.4973C42.3336 51.1278 42.3696 48.4804 43.3776 46.1373C44.3856 43.7943 46.283 41.9477 48.6526 41.0037C56.0276 38.1442 62.1994 40.0474 64.1584 44.9881C66.1174 49.9287 62.3987 56.2333 55.7713 58.8723Z" fill="#FFF8ED"/>
<path d="M51.294 57.7885C55.4273 57.7885 58.778 54.4378 58.778 50.3045C58.778 46.1713 55.4273 42.8206 51.294 42.8206C47.1608 42.8206 43.8101 46.1713 43.8101 50.3045C43.8101 54.4378 47.1608 57.7885 51.294 57.7885Z" fill="#FFBC00"/>
<path d="M52.2116 39.9531C54.7425 40.3164 57.1654 41.2207 59.3154 42.6045C61.4654 43.9883 63.2919 45.8191 64.6707 47.9723L64.6229 49.0348C64.6229 49.0348 60.8763 42.9255 50.5674 40.3648L52.2116 39.9531Z" fill="white"/>
<path d="M44.0276 64.4119C44.0276 64.4119 33.4319 54.3872 35.9513 44.3731C38.4708 34.3591 41.9079 44.247 39.7285 45.7371C37.549 47.2273 38.3672 51.2634 39.5957 53.7059C40.8242 56.1483 43.1112 59.272 44.794 59.45C46.4767 59.628 50.2645 66.9473 44.0276 64.4119Z" fill="#351207"/>
<path d="M47.7321 62.5206C47.7321 62.5206 37.3488 56.1563 37.6822 47.5421C38.0155 38.9278 42.5258 46.4131 41.0025 48.0056C39.4791 49.598 40.8431 52.7549 42.2655 54.5399C43.688 56.3249 46.0958 58.4805 47.501 58.3357C48.9062 58.191 53.2637 63.5181 47.7321 62.5206Z" fill="#4A190A"/>
<path d="M41.0875 64.0799C41.0875 64.0799 33.0311 57.4392 36.1588 51.8691C39.2866 46.2989 41.2495 52.2795 39.2467 52.9621C37.2439 53.6448 37.5454 56.0381 38.3516 57.5468C39.1577 59.0556 40.8059 61.0424 42.2231 61.2815C43.6402 61.5206 46.157 66.0481 41.0875 64.0799Z" fill="#6B240E"/>
<path d="M47.85 63.6575C47.85 63.6575 39.1813 54.9941 41.5294 46.6429C43.8775 38.2916 46.5338 46.6734 44.6691 47.8741C42.8044 49.0747 43.3981 52.484 44.3716 54.5652C45.3451 56.6463 47.1952 59.3198 48.6057 59.5084C50.0161 59.697 53.0283 65.9299 47.85 63.6575Z" fill="#6B240E"/>
<path d="M22.5547 35.6195C22.5547 35.6195 23.4844 34.0337 20.9981 34.5304C18.5119 35.0271 19.4469 36.0007 19.4469 36.0007C19.4469 36.0007 20.0313 33.711 18.5079 35.0271C17.5558 35.9986 17.0247 37.306 17.0297 38.6662C17.0297 38.6662 16.2687 35.8904 14.2646 38.0752C13.9848 38.3069 13.7584 38.5962 13.6008 38.9235C13.4432 39.2507 13.3581 39.6081 13.3513 39.9712C13.3444 40.3344 13.4161 40.6947 13.5614 41.0276C13.7066 41.3605 13.922 41.6582 14.1928 41.9002C14.1928 41.9002 13.5965 43.3877 12.9497 43.4275C12.3029 43.4674 12.9431 45.186 12.9431 45.186L12.6615 46.7266C12.6615 46.7266 12.9417 48.5793 14.3549 48.8011C15.768 49.0229 11.8633 49.2965 12.0001 50.282C12.1369 51.2674 14.3004 51.6685 14.3004 51.6685C14.3004 51.6685 12.2737 52.2516 14.2367 53.7351C14.8871 54.1731 15.6205 54.473 16.3915 54.6163C17.1625 54.7595 17.9547 54.743 18.7191 54.5678L17.7164 55.6609C17.7164 55.6609 19.3406 57.2427 19.8905 56.8642C20.4403 56.4857 20.7724 58.1471 21.6702 58.4752C22.568 58.8032 23.6624 57.2453 23.6624 57.2453C23.6624 57.2453 25.6931 59.2216 26.9588 59.296C28.2245 59.3703 28.4622 57.5415 28.4622 57.5415C28.4622 57.5415 29.1581 57.7859 30.2857 56.8774C31.4133 55.969 32.8185 57.5415 33.1996 54.7989C33.5808 52.0564 31.748 53.3114 31.748 53.3114C31.748 53.3114 34.2608 53.8161 34.1466 52.577C34.0324 51.3378 31.8356 50.5516 31.8356 50.5516C31.8356 50.5516 34.723 50.711 33.8438 48.6271C33.667 48.0715 33.3413 47.575 32.902 47.1917C32.4627 46.8084 31.9266 46.5529 31.3522 46.453C31.3522 46.453 31.5674 45.603 31.7028 44.911C31.8383 44.2191 29.8262 43.4687 29.8262 43.4687C29.8262 43.4687 30.3003 44.1713 29.4105 42.3677C28.7466 41.2183 27.6624 40.3717 26.3864 40.0063C26.3864 40.0063 27.6003 38.633 26.8459 37.5346C26.0915 36.4363 23.7261 37.1136 23.7261 37.1136C23.7261 37.1136 26.6148 34.4534 22.5547 35.6195Z" fill="#009C08"/>
<path d="M20.1732 36.8214C20.2011 36.9262 20.2079 37.0354 20.1935 37.1428C20.179 37.2502 20.1435 37.3537 20.089 37.4473C20.0344 37.541 19.962 37.6229 19.8757 37.6885C19.7894 37.7541 19.691 37.802 19.5862 37.8295C19.4814 37.8571 19.3721 37.8638 19.2647 37.8492C19.1573 37.8346 19.0538 37.7989 18.9602 37.7443C18.8666 37.6896 18.7846 37.6171 18.7191 37.5307C18.6535 37.4444 18.6056 37.346 18.5781 37.2411L17.9486 34.8505C17.921 34.7458 17.9143 34.6366 17.9289 34.5293C17.9436 34.4219 17.9792 34.3186 18.0339 34.2251C18.0886 34.1315 18.1611 34.0497 18.2474 33.9843C18.3338 33.9189 18.4322 33.8711 18.537 33.8438C18.6417 33.8161 18.7509 33.8094 18.8582 33.8239C18.9655 33.8384 19.069 33.874 19.1626 33.9285C19.2562 33.983 19.3381 34.0554 19.4038 34.1416C19.4694 34.2278 19.5174 34.3261 19.545 34.4308L20.1732 36.8214Z" fill="#00C40A"/>
<path d="M22.1468 37.3606C22.0233 37.5678 21.6063 37.5466 21.2171 37.3128C20.8266 37.0791 20.6088 36.7218 20.7323 36.516L21.4044 35.3897C21.5279 35.1825 21.9463 35.2038 22.3341 35.4375C22.7325 35.6713 22.9423 36.0285 22.8188 36.2344L22.1468 37.3606Z" fill="#00C40A"/>
<path d="M19.739 37.1109C19.8976 37.2139 20.0107 37.3737 20.0552 37.5574C20.0996 37.7412 20.072 37.935 19.9781 38.0991C19.8054 38.5214 19.4202 38.7631 19.1161 38.6383L17.4652 37.9609C17.3062 37.8584 17.1926 37.6986 17.1481 37.5147C17.1036 37.3307 17.1316 37.1367 17.2262 36.9728C17.3975 36.5505 17.784 36.3088 18.0881 36.4336L19.739 37.1109Z" fill="#1CFF28"/>
<path d="M14.1001 45.7756C14.2946 45.876 14.4413 46.0494 14.508 46.2578C14.5747 46.4662 14.556 46.6926 14.456 46.8873C14.4066 46.9836 14.3386 47.0693 14.256 47.1394C14.1734 47.2095 14.0778 47.2625 13.9747 47.2956C13.8716 47.3287 13.7629 47.3411 13.655 47.3321C13.5471 47.3231 13.442 47.2929 13.3457 47.2432L11.145 46.113C10.9504 46.0131 10.8034 45.84 10.7364 45.6318C10.6694 45.4236 10.6879 45.1973 10.7877 45.0027C10.8876 44.8081 11.0607 44.6611 11.2689 44.5941C11.4771 44.5271 11.7034 44.5455 11.898 44.6454L14.1001 45.7756Z" fill="#00C40A"/>
<path d="M15.8182 44.668C15.89 44.8991 15.5951 45.1992 15.1542 45.332C14.7199 45.4648 14.3095 45.3905 14.2378 45.1594L13.8486 43.9083C13.7769 43.6772 14.0718 43.377 14.5127 43.2442C14.9483 43.1114 15.3587 43.1871 15.4304 43.4169L15.8182 44.668Z" fill="#00C40A"/>
<path d="M14.024 46.2936C14.3202 46.1502 14.72 46.3666 14.9192 46.7757C15.0241 46.9332 15.0644 47.125 15.0318 47.3115C14.9992 47.4979 14.8961 47.6646 14.7439 47.7771L13.1395 48.5554C12.8447 48.6988 12.4436 48.4837 12.2457 48.0733C12.1409 47.9158 12.1006 47.7242 12.133 47.5379C12.1653 47.3516 12.268 47.1848 12.4197 47.0719L14.024 46.2936Z" fill="#1CFF28"/>
<path d="M19.5346 49.3974C19.5623 49.5022 19.569 49.6115 19.5543 49.7189C19.5397 49.8263 19.5041 49.9298 19.4494 50.0234C19.3948 50.117 19.3222 50.199 19.2359 50.2645C19.1495 50.3301 19.0511 50.378 18.9463 50.4055C18.7346 50.4609 18.5095 50.4301 18.3205 50.3198C18.1316 50.2095 17.9941 50.0287 17.9382 49.8171L17.31 47.4265C17.2824 47.3218 17.2756 47.2128 17.2902 47.1055C17.3047 46.9983 17.3403 46.8949 17.3948 46.8014C17.4493 46.7079 17.5218 46.6261 17.6079 46.5606C17.6941 46.4951 17.7924 46.4473 17.897 46.4198C18.1086 46.3643 18.3334 46.3949 18.5224 46.505C18.7113 46.615 18.849 46.7955 18.9051 47.0068L19.5346 49.3974Z" fill="#00C40A"/>
<path d="M21.5069 49.9367C21.3834 50.1439 20.9664 50.1226 20.5772 49.8889C20.1868 49.6551 19.9703 49.2978 20.0938 49.092L20.7658 47.9671C20.8894 47.7599 21.3064 47.7811 21.6955 48.0135C22.0873 48.2473 22.3038 48.6046 22.1803 48.8104L21.5069 49.9367Z" fill="#00C40A"/>
<path d="M19.1013 49.6883C19.2604 49.7908 19.374 49.9506 19.4185 50.1345C19.463 50.3185 19.435 50.5125 19.3404 50.6764C19.1677 51.0974 18.7826 51.3405 18.4784 51.2156L16.8276 50.5409C16.6688 50.4382 16.5554 50.2784 16.5109 50.0946C16.4665 49.9107 16.4942 49.7168 16.5885 49.5528C16.7612 49.1318 17.1463 48.8888 17.4505 49.0136L19.1013 49.6883Z" fill="#1CFF28"/>
<path d="M18.5211 41.094C18.5766 41.3055 18.546 41.5304 18.4359 41.7193C18.3259 41.9083 18.1454 42.0459 17.9341 42.102C17.8292 42.1297 17.72 42.1364 17.6126 42.1218C17.5052 42.1071 17.4017 42.0715 17.3081 42.0168C17.2144 41.9622 17.1325 41.8896 17.067 41.8033C17.0014 41.717 16.9535 41.6185 16.926 41.5137L16.2965 39.1231C16.241 38.9114 16.2719 38.6863 16.3822 38.4973C16.4925 38.3084 16.6733 38.1708 16.8848 38.115C16.9896 38.0874 17.0987 38.0807 17.2061 38.0954C17.3134 38.11 17.4168 38.1457 17.5103 38.2003C17.6038 38.255 17.6856 38.3275 17.751 38.4139C17.8165 38.5002 17.8642 38.5986 17.8916 38.7034L18.5211 41.094Z" fill="#00C40A"/>
<path d="M20.4946 41.6332C20.3711 41.8404 19.9527 41.8192 19.5649 41.5854C19.1731 41.3517 18.9566 40.9944 19.0801 40.7885L19.7522 39.6623C19.8757 39.4551 20.2927 39.4764 20.6818 39.7101C21.0803 39.9439 21.2901 40.3011 21.1666 40.507L20.4946 41.6332Z" fill="#00C40A"/>
<path d="M18.0871 41.3835C18.2456 41.4865 18.3588 41.6463 18.4032 41.83C18.4477 42.0138 18.4201 42.2076 18.3261 42.3717C18.1535 42.794 17.767 43.0357 17.4642 42.9109L15.812 42.2375C15.6534 42.1346 15.5403 41.9747 15.4961 41.7909C15.4518 41.607 15.4798 41.4132 15.5742 41.2494C15.7456 40.8271 16.1321 40.5853 16.4362 40.7102L18.0871 41.3835Z" fill="#1CFF28"/>
<path d="M29.052 42.3105C28.9157 42.4817 28.7171 42.5918 28.4997 42.6167C28.2824 42.6416 28.064 42.5793 27.8925 42.4434C27.8077 42.3761 27.7369 42.2928 27.6843 42.1981C27.6317 42.1035 27.5983 41.9994 27.5859 41.8918C27.5736 41.7843 27.5826 41.6753 27.6124 41.5712C27.6422 41.4671 27.6923 41.37 27.7597 41.2852L29.2897 39.3409C29.4258 39.1698 29.6242 39.0597 29.8413 39.0348C30.0585 39.0099 30.2766 39.0722 30.4479 39.208C30.6189 39.3441 30.729 39.5425 30.7539 39.7596C30.7788 39.9768 30.7165 40.1949 30.5807 40.3662L29.052 42.3105Z" fill="#00C40A"/>
<path d="M29.8101 44.2031C29.5698 44.2297 29.336 43.8844 29.2869 43.4315C29.2364 42.9786 29.3918 42.5895 29.6308 42.5642L30.9351 42.4221C31.1741 42.3956 31.4092 42.7409 31.4583 43.1938C31.5075 43.6467 31.3534 44.0358 31.1144 44.061L29.8101 44.2031Z" fill="#00C40A"/>
<path d="M28.5576 42.1379C28.6426 42.4553 28.3531 42.8019 27.9135 42.9241C27.7387 42.9967 27.5427 42.9994 27.366 42.9317C27.1893 42.864 27.0454 42.731 26.9639 42.5602L26.5057 40.8337C26.422 40.5176 26.7102 40.1696 27.1511 40.0487C27.3257 39.9761 27.5216 39.9732 27.6982 40.0406C27.8749 40.1081 28.019 40.2408 28.1007 40.4113L28.5576 42.1379Z" fill="#1CFF28"/>
<path d="M26.1794 49.5542C26.1205 49.6451 26.0443 49.7236 25.9552 49.7852C25.866 49.8467 25.7655 49.89 25.6596 49.9127C25.5536 49.9354 25.4443 49.937 25.3377 49.9174C25.2311 49.8978 25.1295 49.8574 25.0385 49.7985C24.9476 49.7396 24.8693 49.6633 24.8079 49.5741C24.7465 49.4848 24.7033 49.3844 24.6807 49.2784C24.6581 49.1725 24.6567 49.0632 24.6763 48.9566C24.696 48.8501 24.7365 48.7485 24.7955 48.6577L26.1409 46.5805C26.1998 46.4896 26.2761 46.4112 26.3653 46.3498C26.4546 46.2884 26.555 46.2452 26.661 46.2227C26.7669 46.2001 26.8762 46.1986 26.9828 46.2183C27.0893 46.238 27.1909 46.2785 27.2817 46.3374C27.3727 46.3962 27.4511 46.4722 27.5126 46.5613C27.5741 46.6504 27.6175 46.7507 27.6402 46.8565C27.6629 46.9624 27.6645 47.0716 27.6449 47.1781C27.6253 47.2846 27.585 47.3861 27.5261 47.477L26.1794 49.5542Z" fill="#00C40A"/>
<path d="M27.1102 51.375C26.8738 51.4228 26.6081 51.1001 26.5178 50.6538C26.4262 50.2076 26.5444 49.8065 26.7835 49.7573L28.0691 49.4917C28.3055 49.4439 28.5711 49.7666 28.6614 50.2129C28.7531 50.6591 28.6349 51.0602 28.3958 51.1081L27.1102 51.375Z" fill="#00C40A"/>
<path d="M25.6718 49.428C25.786 49.7361 25.5311 50.1133 25.1034 50.2713C24.9358 50.3594 24.7409 50.3799 24.5586 50.3288C24.3764 50.2777 24.2206 50.1587 24.1232 49.9964L23.5096 48.323C23.3968 48.0148 23.6518 47.6377 24.0794 47.4809C24.2466 47.3926 24.4413 47.3717 24.6234 47.4226C24.8055 47.4735 24.9611 47.5923 25.0582 47.7545L25.6718 49.428Z" fill="#1CFF28"/>
<path d="M28.1846 56.0912C28.2123 56.1959 28.219 56.3051 28.2045 56.4124C28.19 56.5198 28.1544 56.6232 28.0999 56.7168C28.0454 56.8104 27.973 56.8924 27.8868 56.958C27.8006 57.0236 27.7023 57.0716 27.5976 57.0992C27.4928 57.1269 27.3835 57.1336 27.2761 57.1189C27.1687 57.1043 27.0652 57.0687 26.9716 57.014C26.878 56.9594 26.7961 56.8868 26.7305 56.8005C26.6649 56.7141 26.6171 56.6157 26.5896 56.5109L25.96 54.1202C25.9046 53.9087 25.9355 53.6839 26.0458 53.4951C26.1561 53.3063 26.3369 53.1691 26.5484 53.1135C26.7599 53.058 26.9848 53.0887 27.1737 53.1987C27.3627 53.3088 27.5003 53.4892 27.5564 53.7006L28.1846 56.0912Z" fill="#00C40A"/>
<path d="M30.1581 56.6304C30.0346 56.8376 29.6176 56.8163 29.2285 56.5826C28.8367 56.3488 28.6202 55.9916 28.7437 55.7857L29.4157 54.6608C29.5392 54.4536 29.9576 54.4748 30.3454 54.7073C30.7439 54.941 30.9537 55.2983 30.8302 55.5041L30.1581 56.6304Z" fill="#00C40A"/>
<path d="M27.7502 56.382C27.9091 56.4848 28.0224 56.6446 28.0669 56.8284C28.1114 57.0123 28.0836 57.2062 27.9893 57.3702C27.8166 57.7912 27.4315 58.0342 27.1273 57.9094L25.4765 57.2347C25.3174 57.1322 25.2038 56.9724 25.1593 56.7884C25.1148 56.6045 25.1428 56.4105 25.2374 56.2466C25.4087 55.8256 25.7952 55.5825 26.0994 55.7074L27.7502 56.382Z" fill="#1CFF28"/>
<path d="M21.588 55.204C21.524 55.2914 21.4434 55.3654 21.3508 55.4216C21.2582 55.4778 21.1554 55.5152 21.0483 55.5316C20.9412 55.548 20.8319 55.5431 20.7267 55.5172C20.6215 55.4913 20.5225 55.4449 20.4352 55.3806C20.3478 55.3166 20.2739 55.236 20.2177 55.1434C20.1614 55.0508 20.1241 54.948 20.1076 54.8409C20.0912 54.7338 20.0961 54.6245 20.122 54.5193C20.1479 54.4141 20.1943 54.3151 20.2586 54.2278L21.7195 52.2356C21.849 52.0594 22.0432 51.9417 22.2594 51.9086C22.4755 51.8755 22.696 51.9296 22.8723 52.059C23.0486 52.1885 23.1663 52.3826 23.1994 52.5988C23.2325 52.815 23.1784 53.0355 23.049 53.2118L21.588 55.204Z" fill="#00C40A"/>
<path d="M22.4114 57.0767C22.1724 57.1112 21.9253 56.7725 21.8616 56.3223C21.7965 55.8707 21.9373 55.4776 22.1764 55.4431L23.4739 55.2571C23.713 55.2226 23.96 55.5599 24.0238 56.0115C24.0889 56.4617 23.9481 56.8562 23.709 56.8894L22.4114 57.0767Z" fill="#00C40A"/>
<path d="M21.0939 55.0486C21.1895 55.362 20.9132 55.7246 20.4763 55.8561C20.3042 55.9347 20.1084 55.9442 19.9295 55.8826C19.7506 55.8211 19.6021 55.6932 19.5147 55.5254L18.9994 53.8188C18.9051 53.504 19.1814 53.1427 19.617 53.0113C19.7891 52.9324 19.9849 52.9227 20.1639 52.9843C20.3429 53.0458 20.4914 53.1739 20.5786 53.342L21.0939 55.0486Z" fill="#1CFF28"/>
<path d="M14.6854 52.9541C14.7934 52.9462 14.902 52.9596 15.0048 52.9936C15.1077 53.0276 15.2029 53.0815 15.2849 53.1523C15.3669 53.2231 15.4342 53.3094 15.4829 53.4062C15.5315 53.503 15.5607 53.6084 15.5686 53.7165C15.5765 53.8245 15.5631 53.9331 15.5291 54.036C15.4951 54.1388 15.4412 54.234 15.3704 54.316C15.2996 54.398 15.2133 54.4653 15.1165 54.514C15.0197 54.5627 14.9143 54.5918 14.8062 54.5997L12.3386 54.7803C12.2305 54.7883 12.1219 54.7749 12.0191 54.7409C11.9162 54.7069 11.821 54.6529 11.739 54.5821C11.657 54.5113 11.5897 54.4251 11.5411 54.3283C11.4924 54.2315 11.4633 54.126 11.4554 54.018C11.4474 53.91 11.4608 53.8015 11.4948 53.6987C11.5288 53.5959 11.5828 53.5008 11.6536 53.4189C11.7244 53.337 11.8107 53.2699 11.9075 53.2213C12.0043 53.1728 12.1097 53.1438 12.2177 53.1361L14.6854 52.9541Z" fill="#00C40A"/>
<path d="M15.5767 51.1094C15.7573 51.2688 15.6603 51.6752 15.3589 52.0165C15.0574 52.3591 14.6669 52.5066 14.4863 52.3472L13.5021 51.4813C13.3202 51.3219 13.4185 50.9141 13.7186 50.5728C14.0201 50.2315 14.4106 50.0827 14.5925 50.2421L15.5767 51.1094Z" fill="#00C40A"/>
<path d="M14.8915 53.4349C15.0215 53.2977 15.1992 53.2155 15.388 53.2054C15.5768 53.1953 15.7622 53.2579 15.9062 53.3805C16.0777 53.4603 16.212 53.6029 16.2814 53.7788C16.3509 53.9548 16.3501 54.1507 16.2794 54.3261L15.3152 55.8269C15.1852 55.9641 15.0075 56.0462 14.8187 56.0564C14.6299 56.0665 14.4444 56.0039 14.3005 55.8813C14.128 55.8022 13.9924 55.6598 13.922 55.4835C13.8515 55.3072 13.8515 55.1106 13.922 54.9344L14.8915 53.4349Z" fill="#1CFF28"/>
<path d="M31.696 47.7798C31.5456 47.9385 31.3384 48.0312 31.1198 48.0374C30.9012 48.0436 30.6891 47.9629 30.5299 47.813C30.3712 47.6626 30.2785 47.4554 30.2723 47.2368C30.2661 47.0182 30.3468 46.8061 30.4967 46.6469L32.1967 44.8486C32.271 44.7697 32.3601 44.7062 32.459 44.6618C32.5579 44.6174 32.6645 44.593 32.7729 44.5899C32.8812 44.5868 32.9891 44.6052 33.0903 44.6438C33.1916 44.6825 33.2842 44.7409 33.3628 44.8154C33.5216 44.9658 33.6142 45.173 33.6204 45.3916C33.6266 45.6102 33.5459 45.8223 33.396 45.9815L31.696 47.7798Z" fill="#00C40A"/>
<path d="M32.2817 49.7387C32.04 49.7387 31.8382 49.3788 31.8289 48.9233C31.8209 48.4677 32.0095 48.0945 32.2512 48.0905L33.5621 48.0653C33.8025 48.0653 34.0057 48.4266 34.0136 48.8821C34.0229 49.3377 33.8343 49.7109 33.5926 49.7148L32.2817 49.7387Z" fill="#00C40A"/>
<path d="M31.2207 47.5633C31.2765 47.8874 30.9551 48.2114 30.5075 48.2885C30.0586 48.3655 29.6496 48.1649 29.5951 47.8422L29.2936 46.0838C29.2392 45.7597 29.5593 45.4356 30.0068 45.3586C30.4557 45.2829 30.8648 45.4821 30.9206 45.8062L31.2207 47.5633Z" fill="#1CFF28"/>
<path d="M32.582 53.2224C32.6096 53.3273 32.6163 53.4365 32.6017 53.5439C32.5871 53.6513 32.5514 53.7548 32.4968 53.8484C32.4421 53.9421 32.3696 54.024 32.2832 54.0895C32.1969 54.1551 32.0985 54.203 31.9936 54.2305C31.7819 54.2859 31.5569 54.2551 31.3679 54.1448C31.1789 54.0345 31.0414 53.8537 30.9856 53.6421L30.3574 51.2515C30.3297 51.1469 30.323 51.0378 30.3376 50.9305C30.3521 50.8233 30.3877 50.7199 30.4422 50.6264C30.4967 50.5329 30.5691 50.4511 30.6553 50.3856C30.7415 50.3201 30.8397 50.2723 30.9444 50.2448C31.1559 50.1893 31.3808 50.2199 31.5698 50.33C31.7587 50.44 31.8963 50.6205 31.9525 50.8318L32.582 53.2224Z" fill="#00C40A"/>
<path d="M34.5543 53.7656C34.4308 53.9728 34.0138 53.9516 33.6246 53.7178C33.2341 53.4841 33.0163 53.1268 33.1412 52.921L33.8132 51.796C33.9367 51.5888 34.3538 51.6101 34.7429 51.8425C35.1413 52.0763 35.3512 52.4335 35.2277 52.6394L34.5543 53.7656Z" fill="#00C40A"/>
<path d="M32.1462 53.5133C32.3053 53.6158 32.4189 53.7756 32.4634 53.9596C32.5079 54.1435 32.4799 54.3375 32.3853 54.5014C32.2126 54.9224 31.8275 55.1655 31.5233 55.0406L29.8725 54.366C29.7134 54.2634 29.5998 54.1037 29.5553 53.9197C29.5108 53.7358 29.5388 53.5417 29.6334 53.3778C29.8061 52.9568 30.1912 52.7138 30.4954 52.8386L32.1462 53.5133Z" fill="#1CFF28"/>
<path d="M21.9253 45.591C21.8843 45.6912 21.8241 45.7822 21.7479 45.8591C21.6717 45.9359 21.5811 45.997 21.4814 46.0388C21.3816 46.0806 21.2745 46.1023 21.1663 46.1028C21.0582 46.1032 20.9509 46.0823 20.8508 46.0412C20.7505 46.0003 20.6593 45.94 20.5823 45.8637C20.5053 45.7875 20.4441 45.6968 20.4022 45.5969C20.3602 45.497 20.3384 45.3898 20.3379 45.2815C20.3374 45.1731 20.3583 45.0658 20.3993 44.9655L21.3356 42.6758C21.4186 42.4734 21.5785 42.3123 21.7801 42.2276C21.9818 42.143 22.2088 42.1417 22.4114 42.2242C22.5117 42.2652 22.6029 42.3255 22.6799 42.4017C22.7569 42.478 22.8181 42.5687 22.8601 42.6686C22.902 42.7685 22.9238 42.8756 22.9243 42.984C22.9248 43.0923 22.904 43.1997 22.8629 43.3L21.9253 45.591Z" fill="#00C40A"/>
<path d="M23.1774 47.2073C22.9543 47.299 22.6342 47.0307 22.4616 46.6097C22.2889 46.1873 22.3287 45.7716 22.5545 45.68L23.7684 45.1846C23.9916 45.0943 24.313 45.3626 24.4843 45.7836C24.6569 46.2059 24.6171 46.6216 24.3913 46.7133L23.1774 47.2073Z" fill="#00C40A"/>
<path d="M21.4047 45.5605C21.4684 45.7371 21.4627 45.9313 21.3888 46.1039C21.3148 46.2764 21.1781 46.4145 21.0063 46.4902C20.8581 46.6077 20.6704 46.664 20.4819 46.6475C20.2934 46.6309 20.1184 46.5428 19.9929 46.4012L19.0792 44.8699C18.9105 44.5883 19.0925 44.1713 19.4776 43.9402C19.6257 43.8224 19.8133 43.7659 20.0018 43.7822C20.1902 43.7985 20.3653 43.8864 20.491 44.0278L21.4047 45.5605Z" fill="#1CFF28"/>
<path d="M23.9731 40.0302C23.8926 40.1026 23.7985 40.1584 23.6964 40.1944C23.5942 40.2304 23.486 40.246 23.3778 40.2402C23.2697 40.2344 23.1637 40.2074 23.066 40.1606C22.9683 40.1139 22.8808 40.0483 22.8084 39.9677C22.736 39.8872 22.6802 39.7931 22.6442 39.691C22.6081 39.5888 22.5926 39.4806 22.5983 39.3724C22.6041 39.2643 22.6312 39.1583 22.6779 39.0606C22.7247 38.9629 22.7902 38.8754 22.8708 38.803L24.7116 37.1481C24.7922 37.0757 24.8862 37.0199 24.9884 36.9839C25.0905 36.9479 25.1987 36.9323 25.3069 36.9381C25.4151 36.9439 25.521 36.9709 25.6187 37.0177C25.7164 37.0644 25.804 37.13 25.8764 37.2106C25.9487 37.2911 26.0045 37.3852 26.0406 37.4873C26.0766 37.5895 26.0922 37.6977 26.0864 37.8059C26.0806 37.914 26.0535 38.02 26.0068 38.1177C25.96 38.2154 25.8945 38.3029 25.8139 38.3753L23.9731 40.0302Z" fill="#00C40A"/>
<path d="M24.3968 42.0303C24.1564 42.0157 23.9838 41.6319 24.013 41.1803C24.0422 40.7248 24.26 40.3689 24.5004 40.3835L25.8099 40.4658C26.0503 40.4804 26.223 40.8642 26.1938 41.3158C26.1646 41.7714 25.9467 42.1273 25.705 42.1127L24.3968 42.0303Z" fill="#00C40A"/>
<path d="M23.5176 39.7752C23.5455 40.1019 23.2015 40.3994 22.7473 40.4392C22.2931 40.4791 21.9026 40.2467 21.8734 39.9199L21.718 38.1429C21.6888 37.8162 22.0341 37.5187 22.487 37.4788C22.9412 37.439 23.333 37.6714 23.3609 37.9995L23.5176 39.7752Z" fill="#1CFF28"/>
<path d="M28.9948 65.2074C28.9948 65.2074 28.1142 66.6299 30.388 66.2288C32.6617 65.8277 31.829 64.9232 31.829 64.9232C31.829 64.9232 31.2513 66.9924 32.6631 65.8277C33.5485 64.9635 34.058 63.7855 34.0815 62.5485C34.0815 62.5485 34.7164 65.0879 36.5837 63.1409C36.843 62.9361 37.0549 62.6777 37.205 62.3834C37.355 62.0891 37.4397 61.7658 37.4532 61.4357C37.4667 61.1056 37.4087 60.7765 37.2832 60.4709C37.1576 60.1653 36.9675 59.8904 36.7258 59.6652C36.7258 59.6652 37.2969 58.3238 37.8866 58.3012C38.4763 58.2786 37.9278 56.7074 37.9278 56.7074L38.2199 55.3076C38.2199 55.3076 38.0035 53.6182 36.7232 53.3885C35.4428 53.1587 38.9969 52.99 38.8933 52.0895C38.7897 51.1891 36.8294 50.7813 36.8294 50.7813C36.8294 50.7813 38.6888 50.2926 36.929 48.9034C36.3462 48.4924 35.6854 48.2052 34.9874 48.0595C34.2893 47.9138 33.5688 47.9126 32.8703 48.056L33.7999 47.0825C33.7999 47.0825 32.3549 45.6123 31.8476 45.9443C31.3403 46.2763 31.072 44.7596 30.2618 44.4449C29.4517 44.1301 28.4303 45.5233 28.4303 45.5233C28.4303 45.5233 26.6228 43.6852 25.4739 43.5909C24.3251 43.4966 24.0714 45.1567 24.0714 45.1567C24.0714 45.1567 23.4446 44.919 22.3993 45.7238C21.3541 46.5287 20.1096 45.0598 19.7085 47.554C19.3074 50.0482 20.9982 48.9366 20.9982 48.9366C20.9982 48.9366 18.7244 48.4266 18.8028 49.5555C18.8811 50.6844 20.8627 51.4441 20.8627 51.4441C20.8627 51.4441 18.237 51.2449 19.0033 53.156C19.1531 53.6645 19.4397 54.122 19.8318 54.4787C20.2238 54.8354 20.7063 55.0775 21.2266 55.1788C21.2266 55.1788 21.0141 55.9491 20.876 56.5746C20.7378 57.2002 22.5547 57.924 22.5547 57.924C22.5547 57.924 22.139 57.2759 22.9107 58.9334C23.4898 59.9914 24.4575 60.7829 25.6094 61.1407C25.6094 61.1407 24.4765 62.3652 25.1419 63.3799C25.8073 64.3946 27.9695 63.8249 27.9695 63.8249C27.9695 63.8249 25.2853 66.1849 28.9948 65.2074Z" fill="#009C08"/>
<path d="M31.1873 64.1622C31.1414 63.9687 31.174 63.7648 31.2781 63.5953C31.3821 63.4257 31.5491 63.3044 31.7425 63.2577C31.936 63.2118 32.1399 63.2444 32.3094 63.3485C32.4789 63.4525 32.6003 63.6195 32.6469 63.8129L33.1702 66.0016C33.2166 66.195 33.1843 66.3989 33.0805 66.5685C32.9766 66.7381 32.8097 66.8595 32.6164 66.9061C32.4229 66.9521 32.219 66.9194 32.0495 66.8154C31.8799 66.7113 31.7586 66.5443 31.7119 66.3509L31.1873 64.1622Z" fill="#00C40A"/>
<path d="M29.4063 63.6323C29.5232 63.4463 29.9017 63.4742 30.2523 63.6947C30.6042 63.9152 30.7942 64.2445 30.6773 64.4305L30.0438 65.4399C29.9269 65.6258 29.5484 65.5979 29.1964 65.3788C28.8458 65.1583 28.6559 64.8289 28.7728 64.643L29.4063 63.6323Z" fill="#00C40A"/>
<path d="M31.5859 63.9072C31.442 63.8119 31.3409 63.6643 31.304 63.4957C31.267 63.3271 31.2972 63.1508 31.388 63.0041C31.5527 62.6242 31.9086 62.4117 32.1849 62.5313L33.6724 63.1767C33.8149 63.2731 33.915 63.4206 33.9518 63.5887C33.9886 63.7568 33.9594 63.9327 33.8703 64.0799C33.7056 64.461 33.3496 64.6722 33.0734 64.5527L31.5859 63.9072Z" fill="#1CFF28"/>
<path d="M36.8987 56.143C36.7238 56.048 36.5938 55.8875 36.5373 55.6967C36.4807 55.506 36.5023 55.3005 36.5972 55.1256C36.6441 55.0391 36.7076 54.9627 36.784 54.9007C36.8605 54.8387 36.9484 54.7923 37.0427 54.7643C37.1371 54.7363 37.236 54.7272 37.3339 54.7375C37.4318 54.7477 37.5267 54.7772 37.6132 54.8242L39.5921 55.896C39.767 55.9909 39.897 56.1514 39.9535 56.3422C40.0101 56.533 39.9885 56.7384 39.8936 56.9133C39.8467 56.9998 39.7832 57.0763 39.7068 57.1383C39.6303 57.2003 39.5424 57.2466 39.4481 57.2746C39.3537 57.3026 39.2548 57.3117 39.1569 57.3015C39.059 57.2912 38.9641 57.2617 38.8776 57.2148L36.8987 56.143Z" fill="#00C40A"/>
<path d="M35.3046 57.1165C35.2448 56.9053 35.5184 56.641 35.9168 56.5268C36.3153 56.4126 36.6872 56.4923 36.7469 56.7035L37.0763 57.8496C37.1361 58.0608 36.8625 58.3238 36.464 58.438C36.0656 58.5522 35.6937 58.4739 35.634 58.2627L35.3046 57.1165Z" fill="#00C40A"/>
<path d="M36.9716 55.6742C36.7059 55.799 36.3407 55.5945 36.1747 55.2173C36.0825 55.0719 36.0497 54.8967 36.083 54.7279C36.1164 54.559 36.2134 54.4095 36.354 54.3102L37.8282 53.6355C38.0938 53.5106 38.4591 53.7152 38.6317 54.0924C38.7239 54.2377 38.7568 54.4129 38.7234 54.5817C38.69 54.7506 38.593 54.9002 38.4524 54.9995L36.9716 55.6742Z" fill="#1CFF28"/>
<path d="M32.0256 52.7403C31.9792 52.5469 32.0115 52.3431 32.1153 52.1735C32.2192 52.0039 32.3861 51.8825 32.5794 51.8359C32.7729 51.7899 32.9768 51.8225 33.1463 51.9266C33.3158 52.0306 33.4372 52.1976 33.4838 52.391L34.0085 54.5798C34.0544 54.7733 34.0218 54.9772 33.9177 55.1467C33.8137 55.3162 33.6467 55.4376 33.4533 55.4842C33.2598 55.5302 33.0559 55.4976 32.8864 55.3935C32.7169 55.2894 32.5955 55.1224 32.5488 54.9291L32.0256 52.7403Z" fill="#00C40A"/>
<path d="M30.2417 52.2104C30.3586 52.0245 30.7371 52.0524 31.0877 52.2728C31.4397 52.4933 31.6296 52.8227 31.5127 53.0086L30.8792 54.018C30.7623 54.2039 30.3838 54.176 30.0319 53.9569C29.6813 53.7364 29.4913 53.4071 29.6082 53.2211L30.2417 52.2104Z" fill="#00C40A"/>
<path d="M32.4267 52.4853C32.2828 52.39 32.1817 52.2424 32.1448 52.0738C32.1078 51.9053 32.138 51.7289 32.2288 51.5822C32.3935 51.2023 32.7494 50.9912 33.0257 51.1094L34.5145 51.7548C34.6567 51.8519 34.7563 51.9997 34.7928 52.1679C34.8294 52.3362 34.8001 52.512 34.7111 52.6593C34.5464 53.0391 34.1905 53.2503 33.9142 53.1321L32.4267 52.4853Z" fill="#1CFF28"/>
<path d="M32.7814 60.3106C32.7351 60.1173 32.7673 59.9134 32.8712 59.7438C32.975 59.5742 33.1419 59.4528 33.3353 59.4062C33.4311 59.3832 33.5305 59.3794 33.6278 59.3949C33.7252 59.4104 33.8185 59.4449 33.9025 59.4964C33.9864 59.548 34.0595 59.6156 34.1173 59.6953C34.1752 59.7751 34.2168 59.8655 34.2397 59.9613L34.7643 62.1501C34.8103 62.3436 34.7777 62.5475 34.6736 62.717C34.5695 62.8865 34.4025 63.0079 34.2092 63.0545C34.0156 63.1005 33.8118 63.0679 33.6422 62.9638C33.4727 62.8598 33.3513 62.6927 33.3047 62.4994L32.7814 60.3106Z" fill="#00C40A"/>
<path d="M30.9951 59.782C31.112 59.5961 31.4905 59.6227 31.8425 59.8431C32.1931 60.0636 32.383 60.393 32.2661 60.5789L31.6326 61.5883C31.5158 61.7742 31.1372 61.7463 30.7866 61.5272C30.4347 61.3067 30.2447 60.9774 30.3616 60.7914L30.9951 59.782Z" fill="#00C40A"/>
<path d="M33.1798 60.0556C33.0375 59.959 32.9376 59.8115 32.9008 59.6435C32.864 59.4755 32.893 59.2998 32.9819 59.1525C33.1479 58.7727 33.5025 58.5615 33.7787 58.6797L35.2662 59.3265C35.4083 59.4233 35.5079 59.5709 35.5444 59.7389C35.581 59.9069 35.5518 60.0825 35.4628 60.2296C35.2981 60.6095 34.9422 60.8206 34.6659 60.7024L33.1798 60.0556Z" fill="#1CFF28"/>
<path d="M23.2278 58.9931C23.2907 58.9163 23.3681 58.8527 23.4556 58.8059C23.5431 58.7592 23.639 58.7302 23.7378 58.7207C23.8366 58.7112 23.9363 58.7213 24.0311 58.7505C24.1259 58.7797 24.214 58.8274 24.2903 58.8909C24.3672 58.9537 24.4309 59.0311 24.4776 59.1187C24.5244 59.2062 24.5533 59.3022 24.5627 59.401C24.572 59.4999 24.5617 59.5996 24.5323 59.6944C24.5029 59.7892 24.455 59.8772 24.3913 59.9534L22.9529 61.6839C22.8264 61.8374 22.6442 61.9344 22.4462 61.9536C22.2482 61.9728 22.0507 61.9126 21.8971 61.7862C21.8201 61.7235 21.7563 61.6461 21.7095 61.5586C21.6626 61.4711 21.6336 61.3751 21.6241 61.2763C21.6145 61.1775 21.6247 61.0777 21.654 60.9829C21.6834 60.888 21.7312 60.7999 21.7948 60.7237L23.2278 58.9931Z" fill="#00C40A"/>
<path d="M22.5774 57.2507C22.7953 57.2321 23.0024 57.5508 23.0383 57.9639C23.0742 58.3769 22.9254 58.7262 22.7063 58.7461L21.5189 58.8484C21.2998 58.867 21.0939 58.5482 21.0581 58.1352C21.0222 57.7235 21.171 57.3728 21.3888 57.3542L22.5774 57.2507Z" fill="#00C40A"/>
<path d="M23.6743 59.1592C23.6039 58.8696 23.8735 58.5549 24.2759 58.4579C24.4363 58.3957 24.6144 58.3972 24.7737 58.4622C24.933 58.5271 25.0614 58.6506 25.1325 58.8072L25.5124 60.3837C25.5828 60.6732 25.3132 60.988 24.9107 61.0849C24.7504 61.1478 24.572 61.1467 24.4126 61.0816C24.2531 61.0166 24.1247 60.8927 24.0541 60.7357L23.6743 59.1592Z" fill="#1CFF28"/>
<path d="M25.9854 52.4641C26.0974 52.2997 26.2701 52.1864 26.4655 52.149C26.6609 52.1117 26.8632 52.1533 27.028 52.2649C27.1924 52.3769 27.3057 52.5495 27.343 52.745C27.3804 52.9404 27.3387 53.1427 27.2272 53.3074L25.9628 55.1668C25.8508 55.3312 25.6781 55.4445 25.4827 55.4819C25.2873 55.5192 25.085 55.4776 24.9202 55.366C24.7558 55.254 24.6425 55.0813 24.6052 54.8859C24.5678 54.6905 24.6095 54.4882 24.721 54.3234L25.9854 52.4641Z" fill="#00C40A"/>
<path d="M25.1763 50.7893C25.3914 50.7508 25.6265 51.0549 25.7009 51.4534C25.7739 51.8611 25.6584 52.2224 25.4432 52.2622L24.2692 52.4734C24.054 52.5132 23.8189 52.2077 23.7446 51.8093C23.6715 51.4016 23.7871 51.039 24.0022 51.0005L25.1763 50.7893Z" fill="#00C40A"/>
<path d="M26.4449 52.5889C26.348 52.306 26.587 51.9687 26.9762 51.8345C27.1298 51.7573 27.3072 51.7418 27.4719 51.7912C27.6366 51.8406 27.7762 51.9511 27.862 52.1002L28.3866 53.6355C28.4823 53.917 28.2432 54.2557 27.8554 54.3899C27.7019 54.467 27.5248 54.4825 27.3603 54.4331C27.1958 54.3837 27.0564 54.2732 26.9709 54.1242L26.4449 52.5889Z" fill="#1CFF28"/>
<path d="M24.2945 46.4795C24.2716 46.3837 24.2678 46.2843 24.2832 46.187C24.2987 46.0896 24.3332 45.9963 24.3848 45.9123C24.4363 45.8284 24.5039 45.7553 24.5837 45.6975C24.6635 45.6396 24.7539 45.598 24.8497 45.5751C25.0431 45.5292 25.2467 45.5618 25.4161 45.6659C25.5854 45.77 25.7065 45.937 25.7528 46.1302L26.2734 48.3203C26.3194 48.5139 26.2868 48.7177 26.1827 48.8872C26.0787 49.0568 25.9117 49.1782 25.7183 49.2248C25.5248 49.2707 25.3209 49.2381 25.1514 49.1341C24.9818 49.03 24.8605 48.863 24.8138 48.6696L24.2945 46.4795Z" fill="#00C40A"/>
<path d="M22.5108 45.951C22.6276 45.765 23.0061 45.7916 23.3581 46.012C23.7087 46.2325 23.8986 46.5619 23.7818 46.7478L23.1483 47.7572C23.0314 47.9431 22.6529 47.9166 22.3022 47.6961C21.9503 47.4756 21.7604 47.1463 21.8772 46.9603L22.5108 45.951Z" fill="#00C40A"/>
<path d="M24.6959 46.2245C24.5536 46.1279 24.4538 45.9804 24.4169 45.8124C24.3801 45.6444 24.4091 45.4687 24.498 45.3214C24.664 44.9416 25.0186 44.7304 25.2949 44.8486L26.7824 45.4954C26.9244 45.5922 27.024 45.7398 27.0605 45.9078C27.0971 46.0758 27.0679 46.2514 26.9789 46.3985C26.8142 46.7784 26.4583 46.9895 26.182 46.8713L24.6959 46.2245Z" fill="#1CFF28"/>
<path d="M30.2753 47.4199C30.3972 47.2629 30.5765 47.1608 30.7737 47.1359C30.9709 47.111 31.17 47.1654 31.3271 47.287C31.4841 47.409 31.5862 47.5883 31.6111 47.7855C31.636 47.9827 31.5816 48.1818 31.4599 48.3389L30.0893 50.1239C29.9673 50.2809 29.7881 50.383 29.5909 50.4079C29.3936 50.4328 29.1946 50.3784 29.0374 50.2567C28.8805 50.1347 28.7784 49.9555 28.7535 49.7583C28.7286 49.5611 28.7829 49.362 28.9046 49.2049L30.2753 47.4199Z" fill="#00C40A"/>
<path d="M29.5643 45.7013C29.7821 45.6747 29.9986 45.9868 30.0491 46.3985C30.0982 46.8089 29.9614 47.1635 29.7436 47.1954L28.5603 47.3388C28.3424 47.3654 28.126 47.0533 28.0755 46.6416C28.0264 46.2312 28.1618 45.8766 28.3796 45.8447L29.5643 45.7013Z" fill="#00C40A"/>
<path d="M30.7253 47.5713C30.6457 47.2844 30.9046 46.9603 31.3031 46.8501C31.4609 46.7803 31.6397 46.7747 31.8015 46.8344C31.9634 46.8942 32.0957 47.0146 32.1703 47.1702L32.6046 48.732C32.6843 49.0202 32.4267 49.343 32.0269 49.4545C31.8688 49.5223 31.6908 49.5269 31.5295 49.4673C31.3682 49.4078 31.2358 49.2887 31.1596 49.1345L30.7253 47.5713Z" fill="#1CFF28"/>
<path d="M36.5 49.6046C36.3014 49.6148 36.1069 49.5456 35.9592 49.4124C35.8115 49.2791 35.7228 49.0927 35.7125 48.8941C35.7073 48.7957 35.7216 48.6972 35.7545 48.6044C35.7874 48.5115 35.8383 48.426 35.9043 48.3529C35.9703 48.2797 36.0501 48.2203 36.1391 48.178C36.2281 48.1357 36.3246 48.1114 36.423 48.1065L38.6702 47.991C38.7687 47.986 38.8672 48.0004 38.96 48.0335C39.0529 48.0665 39.1384 48.1176 39.2115 48.1837C39.2846 48.2498 39.344 48.3297 39.3863 48.4188C39.4286 48.5078 39.4528 48.6044 39.4578 48.7028C39.4628 48.8011 39.4484 48.8994 39.4154 48.9922C39.3824 49.0849 39.3314 49.1702 39.2654 49.2432C39.1994 49.3162 39.1197 49.3755 39.0308 49.4177C38.9419 49.4599 38.8455 49.4841 38.7472 49.4891L36.5 49.6046Z" fill="#00C40A"/>
<path d="M35.658 51.2608C35.4973 51.112 35.5929 50.7442 35.8744 50.44C36.1547 50.1345 36.5133 50.0084 36.6713 50.1571L37.5492 50.9646C37.7099 51.1134 37.6143 51.4813 37.3327 51.7854C37.0525 52.0909 36.6939 52.2171 36.5359 52.0683L35.658 51.2608Z" fill="#00C40A"/>
<path d="M36.3275 49.1637C36.2061 49.2872 36.0417 49.3592 35.8685 49.3646C35.6954 49.37 35.5268 49.3085 35.3978 49.1929C35.2438 49.1162 35.1249 48.9835 35.0656 48.822C35.0064 48.6605 35.0112 48.4824 35.0791 48.3243L35.9862 46.9802C36.107 46.858 36.2701 46.7869 36.4419 46.7815C36.6136 46.776 36.7809 46.8367 36.9092 46.951C37.0637 47.0272 37.1831 47.1598 37.2427 47.3214C37.3022 47.4831 37.2974 47.6614 37.2293 47.8196L36.3275 49.1637Z" fill="#1CFF28"/>
<path d="M20.9346 53.9662C21.0038 53.8957 21.0862 53.8396 21.1771 53.8011C21.2681 53.7626 21.3657 53.7425 21.4645 53.7419C21.5632 53.7412 21.6611 53.7602 21.7525 53.7975C21.8439 53.8349 21.9271 53.8899 21.9971 53.9595C22.0671 54.0291 22.1227 54.1119 22.1606 54.2031C22.1986 54.2943 22.2181 54.392 22.2181 54.4908C22.2181 54.5895 22.1986 54.6873 22.1606 54.7785C22.1227 54.8696 22.0671 54.9524 21.9971 55.022L20.4166 56.6238C20.2757 56.7645 20.0846 56.8436 19.8854 56.8436C19.6862 56.8436 19.4951 56.7645 19.3541 56.6238C19.2838 56.5545 19.2279 56.472 19.1895 56.3811C19.1511 56.2902 19.131 56.1926 19.1304 56.0939C19.1298 55.9952 19.1486 55.8973 19.1859 55.8059C19.2231 55.7145 19.2781 55.6314 19.3475 55.5613L20.9346 53.9662Z" fill="#00C40A"/>
<path d="M20.4419 52.1719C20.661 52.1719 20.8403 52.5092 20.8403 52.9236C20.8403 53.3366 20.6597 53.6727 20.4419 53.6713H19.2466C19.0274 53.6713 18.8481 53.334 18.8481 52.9196C18.8481 52.5052 19.0288 52.1706 19.2466 52.1719H20.4419Z" fill="#00C40A"/>
<path d="M21.3593 54.172C21.3154 53.8772 21.6129 53.589 22.0233 53.5279C22.4337 53.4668 22.8016 53.6607 22.8454 53.9529L23.0832 55.5573C23.127 55.8521 22.8295 56.1403 22.4191 56.2014C22.0087 56.2625 21.6408 56.0686 21.597 55.7764L21.3593 54.172Z" fill="#1CFF28"/>
<path d="M20.2386 48.999C20.1926 48.8056 20.2253 48.602 20.3294 48.4326C20.4335 48.2633 20.6005 48.1422 20.7937 48.0959C20.8895 48.0727 20.9889 48.0687 21.0862 48.084C21.1835 48.0994 21.2768 48.1337 21.3608 48.1852C21.4449 48.2366 21.5179 48.3041 21.5758 48.3838C21.6337 48.4635 21.6753 48.5539 21.6982 48.6497L22.2215 50.8385C22.2446 50.9342 22.2486 51.0336 22.2333 51.1309C22.218 51.2282 22.1836 51.3216 22.1322 51.4056C22.0807 51.4896 22.0132 51.5626 21.9335 51.6205C21.8538 51.6784 21.7634 51.72 21.6676 51.7429C21.5718 51.766 21.4723 51.77 21.3749 51.7546C21.2776 51.7392 21.1842 51.7047 21.1001 51.6531C21.0161 51.6016 20.9431 51.5339 20.8853 51.454C20.8274 51.3742 20.786 51.2837 20.7632 51.1878L20.2386 48.999Z" fill="#00C40A"/>
<path d="M18.4561 48.4704C18.573 48.2845 18.9515 48.3124 19.3021 48.5315C19.654 48.752 19.844 49.0814 19.7271 49.2673L19.0936 50.2767C18.9767 50.4626 18.5969 50.436 18.2462 50.2156C17.8956 49.9951 17.7057 49.6657 17.8226 49.4798L18.4561 48.4704Z" fill="#00C40A"/>
<path d="M20.6394 48.7453C20.4972 48.6483 20.3976 48.5004 20.3611 48.3322C20.3245 48.164 20.3538 47.9882 20.4428 47.8409C20.6075 47.461 20.9634 47.2498 21.2397 47.368L22.7272 48.0148C22.8711 48.1102 22.9722 48.2577 23.0091 48.4263C23.0461 48.5949 23.0159 48.7712 22.9251 48.918C22.7604 49.2978 22.4045 49.509 22.1282 49.3908L20.6394 48.7453Z" fill="#1CFF28"/>
<path d="M29.773 56.1563C29.8124 56.0659 29.8692 55.9842 29.9402 55.9158C30.0112 55.8474 30.0949 55.7936 30.1867 55.7576C30.2785 55.7216 30.3764 55.704 30.475 55.7059C30.5735 55.7077 30.6708 55.729 30.7611 55.7684C30.8514 55.8077 30.9331 55.8644 31.0015 55.9352C31.0699 56.0061 31.1236 56.0898 31.1597 56.1814C31.1957 56.2731 31.2133 56.3709 31.2114 56.4694C31.2096 56.5679 31.1883 56.665 31.1489 56.7552L30.2578 58.8125C30.2185 58.9028 30.1618 58.9845 30.0909 59.0529C30.0201 59.1213 29.9364 59.175 29.8448 59.211C29.7531 59.2471 29.6553 59.2647 29.5568 59.2628C29.4583 59.261 29.3612 59.2397 29.271 59.2003C29.0886 59.121 28.9451 58.9725 28.8721 58.7875C28.7992 58.6024 28.8027 58.396 28.8818 58.2135L29.773 56.1563Z" fill="#00C40A"/>
<path d="M28.6639 54.6581C28.8684 54.5798 29.1553 54.8295 29.3027 55.2173C29.4501 55.6038 29.4037 55.981 29.1991 56.0593L28.0848 56.4856C27.8803 56.564 27.5948 56.313 27.446 55.9265C27.2986 55.54 27.3451 55.1628 27.5496 55.0845L28.6639 54.6581Z" fill="#00C40A"/>
<path d="M30.247 56.1921C30.0996 55.9265 30.2722 55.5559 30.6335 55.3514C30.7704 55.2471 30.9421 55.1994 31.1132 55.2182C31.2842 55.237 31.4415 55.3208 31.5525 55.4524L32.3494 56.8628C32.4968 57.1284 32.3242 57.499 31.9629 57.7022C31.8262 57.8067 31.6546 57.8546 31.4835 57.836C31.3124 57.8175 31.155 57.7339 31.0439 57.6026L30.247 56.1921Z" fill="#1CFF28"/>
<path d="M27.7995 61.1686C27.8744 61.1037 27.9613 61.0542 28.0553 61.0231C28.1494 60.992 28.2486 60.9797 28.3474 60.9871C28.4462 60.9946 28.5425 61.0214 28.6308 61.0663C28.7192 61.1111 28.7977 61.173 28.862 61.2483C28.9271 61.323 28.9767 61.41 29.008 61.504C29.0392 61.598 29.0515 61.6974 29.0441 61.7962C29.0367 61.895 29.0097 61.9914 28.9648 62.0797C28.9199 62.1681 28.8579 62.2466 28.7824 62.3108L27.0757 63.7717C27.0011 63.837 26.9142 63.8867 26.8201 63.9181C26.726 63.9494 26.6267 63.9617 26.5278 63.9543C26.4289 63.9469 26.3325 63.9199 26.2442 63.8749C26.1558 63.8298 26.0773 63.7677 26.0132 63.692C25.9481 63.6173 25.8985 63.5304 25.8673 63.4363C25.8361 63.3423 25.8238 63.243 25.8312 63.1442C25.8386 63.0453 25.8656 62.949 25.9105 62.8606C25.9554 62.7723 26.0174 62.6937 26.0929 62.6295L27.7995 61.1686Z" fill="#00C40A"/>
<path d="M27.454 59.3438C27.6731 59.3624 27.8219 59.7116 27.7873 60.1247C27.7515 60.5377 27.5456 60.8565 27.3265 60.8379L26.1391 60.737C25.92 60.7184 25.7712 60.3691 25.8071 59.956C25.8416 59.543 26.0475 59.2229 26.2666 59.2415L27.454 59.3438Z" fill="#00C40A"/>
<path d="M28.2099 61.409C28.1899 61.1115 28.5087 60.8472 28.9231 60.8206C29.3361 60.7941 29.6867 61.0132 29.7067 61.3107L29.8129 62.9297C29.8315 63.2272 29.5128 63.4902 29.0997 63.5181C28.6853 63.5446 28.3347 63.3255 28.3148 63.028L28.2099 61.409Z" fill="#1CFF28"/>
<path d="M35.5224 31.7626L34.3271 32.5595C34.1707 32.6647 34.0446 32.8091 33.9614 32.9782C33.8781 33.1474 33.8407 33.3354 33.8528 33.5235C33.8649 33.7116 33.9261 33.8933 34.0303 34.0504C34.1345 34.2075 34.278 34.3345 34.4466 34.4188L34.4798 34.4361C34.6492 34.5205 34.8378 34.5588 35.0267 34.5473C35.2155 34.5358 35.3981 34.4749 35.556 34.3707C35.7139 34.2664 35.8416 34.1225 35.9264 33.9533C36.0112 33.7842 36.0501 33.5957 36.0391 33.4068L35.9567 31.9724C35.9526 31.9239 35.936 31.8773 35.9084 31.8372C35.8808 31.7971 35.8432 31.7649 35.7994 31.7437C35.7556 31.7225 35.707 31.7131 35.6584 31.7164C35.6098 31.7198 35.563 31.7357 35.5224 31.7626Z" fill="white"/>
<path d="M34.7736 36.674L33.5783 37.4709C33.4222 37.5763 33.2964 37.7208 33.2134 37.8899C33.1305 38.059 33.0932 38.2468 33.1053 38.4348C33.1173 38.6228 33.1784 38.8043 33.2823 38.9614C33.3863 39.1185 33.5295 39.2456 33.6978 39.3303L33.7323 39.3475C33.9015 39.4319 34.0899 39.4703 34.2786 39.4589C34.4673 39.4475 34.6498 39.3867 34.8076 39.2826C34.9654 39.1784 35.093 39.0347 35.1777 38.8656C35.2624 38.6966 35.3012 38.5083 35.2902 38.3195L35.2079 36.8838C35.2042 36.8352 35.1877 36.7883 35.1602 36.7479C35.1327 36.7076 35.0951 36.6752 35.0511 36.6539C35.0071 36.6327 34.9584 36.6234 34.9097 36.6269C34.861 36.6304 34.814 36.6467 34.7736 36.674Z" fill="white"/>
<path d="M41.2735 35.3472L40.8923 36.7324C40.8432 36.9144 40.8425 37.1061 40.8904 37.2885C40.9384 37.4708 41.0332 37.6374 41.1655 37.7717C41.2978 37.906 41.4629 38.0034 41.6445 38.054C41.8261 38.1047 42.0178 38.107 42.2005 38.0606L42.2377 38.0513C42.421 38.0044 42.5887 37.9103 42.724 37.7782C42.8594 37.6461 42.9576 37.4807 43.0089 37.2987C43.0601 37.1166 43.0626 36.9243 43.0161 36.741C42.9696 36.5577 42.8756 36.3899 42.7438 36.2543L41.7437 35.2223C41.7092 35.1868 41.6658 35.1611 41.6181 35.1479C41.5703 35.1347 41.5199 35.1344 41.472 35.1471C41.4242 35.1598 41.3805 35.1851 41.3456 35.2202C41.3108 35.2554 41.2859 35.2992 41.2735 35.3472Z" fill="white"/>
<path d="M32.6765 32.6485L32.0377 33.9367C31.9539 34.1061 31.9161 34.2945 31.9279 34.4831C31.9398 34.6717 32.0009 34.8539 32.1052 35.0115C32.2096 35.169 32.3534 35.2965 32.5224 35.381C32.6914 35.4656 32.8796 35.5043 33.0683 35.4933H33.1055C33.2943 35.4824 33.4769 35.4221 33.635 35.3184C33.7932 35.2147 33.9213 35.0712 34.0064 34.9023C34.0916 34.7335 34.1309 34.5452 34.1203 34.3563C34.1097 34.1675 34.0497 33.9848 33.9462 33.8265L33.1612 32.6219C33.1344 32.5807 33.0971 32.5473 33.0532 32.525C33.0093 32.5028 32.9603 32.4925 32.9112 32.4952C32.8621 32.4979 32.8145 32.5134 32.7733 32.5404C32.7321 32.5673 32.6987 32.6045 32.6765 32.6485Z" fill="white"/>
<path d="M37.2107 31.157L36.2159 30.1197C36.0853 29.983 35.921 29.883 35.7395 29.8297C35.5581 29.7765 35.3658 29.7719 35.182 29.8165C34.9983 29.861 34.8294 29.9531 34.6924 30.0835C34.5555 30.2138 34.4552 30.378 34.4017 30.5593L34.391 30.5952C34.3374 30.7765 34.3323 30.9688 34.3763 31.1527C34.4203 31.3366 34.5118 31.5058 34.6417 31.6432C34.7716 31.7807 34.9354 31.8816 35.1165 31.9359C35.2977 31.9901 35.4899 31.9959 35.674 31.9525L37.0725 31.6231C37.1205 31.6118 37.1647 31.5879 37.2005 31.554C37.2364 31.5201 37.2626 31.4774 37.2766 31.4301C37.2906 31.3828 37.2919 31.3326 37.2803 31.2847C37.2688 31.2367 37.2447 31.1927 37.2107 31.157Z" fill="white"/>
<path d="M38.1059 39.4219L39.5244 39.1855C39.7111 39.155 39.8866 39.0759 40.0332 38.9563C40.1798 38.8366 40.2924 38.6805 40.3596 38.5036C40.4269 38.3267 40.4465 38.1352 40.4164 37.9484C40.3864 37.7616 40.3077 37.5859 40.1884 37.439L40.1645 37.4098C40.045 37.2634 39.8892 37.151 39.7126 37.0837C39.5361 37.0165 39.345 36.9967 39.1584 37.0264C38.9718 37.0561 38.7963 37.1343 38.6493 37.253C38.5024 37.3718 38.3892 37.5271 38.3211 37.7033L37.8031 39.0447C37.7857 39.0904 37.7805 39.1399 37.7881 39.1882C37.7957 39.2365 37.8158 39.282 37.8464 39.3201C37.877 39.3583 37.9171 39.3877 37.9626 39.4056C38.0081 39.4234 38.0575 39.4291 38.1059 39.4219Z" fill="white"/>
<path d="M39.5546 32.161L40.1921 33.4493C40.2758 33.6183 40.4023 33.7624 40.5591 33.8672C40.7158 33.9721 40.8973 34.0339 41.0855 34.0467C41.2737 34.0595 41.4619 34.0227 41.6314 33.94C41.8008 33.8573 41.9457 33.7316 42.0514 33.5755L42.0727 33.5449C42.1783 33.3881 42.241 33.2063 42.2543 33.0177C42.2676 32.8291 42.2311 32.6403 42.1486 32.4702C42.066 32.3001 41.9402 32.1546 41.7838 32.0484C41.6274 31.9422 41.4458 31.8789 41.2572 31.8649L39.8202 31.7586C39.7716 31.7562 39.7232 31.7666 39.6798 31.7886C39.6364 31.8106 39.5995 31.8435 39.5727 31.8841C39.5459 31.9247 39.5302 31.9716 39.527 32.0202C39.5238 32.0687 39.5333 32.1173 39.5546 32.161Z" fill="white"/>
<path d="M37.5507 33.8438L36.3554 34.6406C36.199 34.7459 36.0729 34.8902 35.9897 35.0594C35.9065 35.2285 35.869 35.4165 35.8811 35.6047C35.8932 35.7928 35.9544 35.9745 36.0586 36.1316C36.1628 36.2887 36.3064 36.4157 36.475 36.5L36.5082 36.5173C36.6776 36.6016 36.8661 36.64 37.055 36.6285C37.2439 36.617 37.4264 36.5561 37.5843 36.4518C37.7422 36.3476 37.87 36.2037 37.9548 36.0345C38.0395 35.8654 38.0784 35.6769 38.0674 35.488L37.985 34.0536C37.9809 34.0051 37.9643 33.9585 37.9367 33.9184C37.9091 33.8783 37.8716 33.8461 37.8277 33.8249C37.7839 33.8037 37.7353 33.7943 37.6867 33.7976C37.6382 33.8009 37.5913 33.8168 37.5507 33.8438Z" fill="white"/>
<path d="M38.686 29.4848L37.4907 30.2817C37.3343 30.3869 37.2082 30.5313 37.1249 30.7005C37.0417 30.8696 37.0043 31.0576 37.0164 31.2457C37.0285 31.4339 37.0897 31.6155 37.1939 31.7726C37.2981 31.9297 37.4416 32.0568 37.6102 32.1411L37.6434 32.157C37.8127 32.2413 38.0011 32.2796 38.1899 32.2682C38.3786 32.2568 38.5611 32.196 38.7189 32.0919C38.8768 31.9878 39.0046 31.8441 39.0895 31.6751C39.1744 31.5062 39.2134 31.3179 39.2026 31.1291L39.1203 29.6934C39.1156 29.6451 39.0986 29.599 39.0708 29.5592C39.0431 29.5195 39.0056 29.4877 38.9619 29.4667C38.9182 29.4457 38.8699 29.4364 38.8216 29.4396C38.7732 29.4427 38.7265 29.4583 38.686 29.4848Z" fill="white"/>
<path opacity="0.24" d="M51.1096 55.9252C54.0898 55.9252 56.5057 53.5092 56.5057 50.529C56.5057 47.5488 54.0898 45.1328 51.1096 45.1328C48.1293 45.1328 45.7134 47.5488 45.7134 50.529C45.7134 53.5092 48.1293 55.9252 51.1096 55.9252Z" fill="#FFF276"/>
<defs>
<linearGradient id="paint0_linear_14_2029" x1="14.7469" y1="21.8627" x2="24.0185" y2="35.6208" gradientUnits="userSpaceOnUse">
<stop offset="0.102" stop-color="#FFD59E"/>
<stop offset="0.301" stop-color="#FFB76C"/>
</linearGradient>
<linearGradient id="paint1_linear_14_2029" x1="25.3247" y1="25.5833" x2="32.548" y2="10.6523" gradientUnits="userSpaceOnUse">
<stop offset="0.102" stop-color="#FFD59E"/>
<stop offset="0.301" stop-color="#FFB76C"/>
</linearGradient>
<linearGradient id="paint2_linear_14_2029" x1="42.082" y1="9.09896" x2="39.8752" y2="25.5421" gradientUnits="userSpaceOnUse">
<stop offset="0.102" stop-color="#FFD59E"/>
<stop offset="0.301" stop-color="#FFB76C"/>
</linearGradient>
</defs>
</svg>
