<svg width="19" height="15" viewBox="0 0 19 15" fill="none" xmlns="http://www.w3.org/2000/svg">
<path d="M13.0174 0.77124L18.3066 6.30835C18.623 6.61421 18.7812 7.03081 18.7812 7.4896C18.7812 7.94839 18.623 8.35972 18.3066 8.67085L13.0174 14.2291C12.3898 14.8882 11.3668 14.8882 10.7393 14.2291C10.1117 13.5699 10.1117 12.5046 10.7393 11.8455L13.2811 9.18765H1.8377C0.941211 9.18765 0.21875 8.43355 0.21875 7.50015C0.21875 6.56675 0.941211 5.81265 1.83242 5.81265H13.2758L10.734 3.15483C10.1064 2.49566 10.1064 1.43042 10.734 0.77124C11.3668 0.112061 12.3846 0.112061 13.0174 0.77124Z" fill="black"/>
</svg>
