<svg width="125" height="125" viewBox="0 0 125 125" fill="none" xmlns="http://www.w3.org/2000/svg">
<path d="M31.9554 109.475H32.6912V113.143H42.502H62.5001H83.3477H83.3748H93.1583V109.475H93.0447C94.8138 109.475 96.1632 107.887 95.8709 106.143C95.8414 105.967 95.8094 105.786 95.7786 105.607L95.7798 105.609C95.7723 105.562 95.7623 105.513 95.7545 105.467C95.6854 105.066 95.6094 104.654 95.5328 104.239C95.0106 101.425 94.3072 98.3113 93.4026 94.967C93.3504 94.7739 93.2969 94.5793 93.2435 94.3845C93.1194 93.9326 92.992 93.477 92.8607 93.0173C92.7051 92.4756 92.5484 91.9324 92.3826 91.3799C92.3492 91.2681 92.3143 91.1548 92.2803 91.0425C92.0699 90.3481 91.8541 89.6484 91.6268 88.939C90.8858 86.6223 89.7242 84.4883 88.2247 82.627C87.1133 82.9277 81.5191 84.3723 74.5709 84.9775C72.6812 85.1421 70.6937 85.2454 68.6673 85.2454C61.0757 85.2454 52.9705 83.812 47.6597 78.8398C45.8004 80.0667 41.5411 82.5454 35.8602 83.8591C34.7989 85.4109 33.9556 87.1184 33.3731 88.9392C31.2957 95.4329 29.9266 101.382 29.1287 106.143C28.8367 107.887 30.1863 109.475 31.9554 109.475ZM73.3392 92.9651C73.3392 92.2693 73.9034 91.7053 74.5987 91.7053H81.4874H84.4781C85.1739 91.7053 85.7379 92.2695 85.7379 92.9651V94.5991C85.7379 94.9446 85.5982 95.2571 85.3729 95.4851C85.1444 95.7153 84.8282 95.8589 84.4781 95.8589H74.5987C73.9031 95.8589 73.3392 95.2947 73.3392 94.5991V92.9651ZM46.8506 104.34C49.9241 105.949 55.6109 107.458 62.0399 102.008C62.4586 101.654 63.0757 101.654 63.4947 102.008C69.9236 107.458 75.6102 105.949 78.6839 104.34C79.2381 104.05 79.8011 104.724 79.4063 105.209C73.5274 112.43 65.7908 108.608 63.4605 107.197C63.0345 106.938 62.5001 106.938 62.0743 107.197C59.7437 108.608 52.0074 112.43 46.1285 105.209C45.7332 104.724 46.2964 104.05 46.8506 104.34Z" fill="black"/>
<path d="M30.4222 79.7791C31.6813 80.4087 33.8077 81.0723 36.8126 80.6976C37.8082 80.4126 38.7477 80.094 39.6237 79.7591C43.2538 78.3704 45.788 76.7129 46.6437 76.1138C46.8453 75.9729 46.955 75.8897 46.963 75.8838C47.2567 75.658 47.6134 75.5662 47.9584 75.5994C48.2921 75.6316 48.6149 75.7806 48.8588 76.0435C54.121 81.7208 63.5726 82.7398 71.827 82.3084C77.9174 81.99 83.3551 80.8831 85.9769 80.2723C86.233 80.2127 86.4606 80.158 86.661 80.1092C86.6637 79.941 86.6451 79.7693 86.5839 79.5997C85.7304 77.2288 83.0748 72.9136 74.9098 71.3318C74.9098 71.3318 75.2948 68.8689 74.3505 66.6202C73.3532 67.1548 72.3112 67.6417 71.2282 68.0716C68.2946 69.2364 65.255 69.8145 62.2601 69.8145C58.3229 69.8145 54.4647 68.8103 51.0172 66.8367C51.0165 66.8406 51.0157 66.8438 51.015 66.8477C50.9513 66.8069 50.8859 66.7701 50.8214 66.7308C50.818 66.7288 50.8148 66.7271 50.8116 66.7256C50.6996 66.6597 50.5939 66.5943 50.4862 66.5286C48.1281 65.2078 45.3143 64.8196 42.6273 65.4939C40.2802 66.0828 37.4086 66.8543 35.5485 67.5325C34.7264 67.8321 34.4615 68.8572 35.0375 69.5159C35.6757 70.2461 36.6891 71.147 38.2123 71.896C37.4093 72.2269 36.639 72.6546 35.9232 73.1814C33.9742 74.6155 31.609 76.4175 30.1444 77.7498C29.4965 78.3387 29.6398 79.3877 30.4222 79.7791Z" fill="black"/>
<path d="M45.9822 41.9741C47.6882 41.2961 49.0535 40.3262 50.1426 39.2205C53.8718 35.4353 54.3909 30.1025 54.4202 29.7566C54.4734 29.1289 54.936 28.6111 55.5542 28.489C56.1755 28.3684 56.7966 28.6682 57.084 29.2283C57.3062 29.6555 61.3926 37.2275 72.3708 41.1465C74.3569 41.8555 76.5627 42.4475 79.0186 42.853C80.4524 43.0898 81.9778 43.2566 83.5815 43.3555C84.3867 41.8301 84.8447 40.093 84.8447 38.248V33.9333C84.8447 21.7405 74.9604 11.8562 62.7676 11.8562H62.7673C50.5747 11.8562 40.6904 21.7405 40.6904 33.9333V38.4624C40.6904 40.0559 41.0403 41.5671 41.6624 42.9272C43.3049 42.8113 44.7334 42.4702 45.9822 41.9741Z" fill="black"/>
<path d="M44.498 55.7488H46.5332C47.3728 58.9211 49.1326 61.7178 51.51 63.8386C51.7412 63.9875 51.9819 64.1382 52.239 64.2891C52.239 64.2891 52.2395 64.2893 52.24 64.2895C57.593 67.4285 64.1348 67.8506 70.1853 65.4473C71.0337 65.1103 71.8491 64.7319 72.6377 64.3252C72.9009 64.1895 73.158 64.0481 73.4136 63.905C75.8296 61.7761 77.6184 58.9546 78.467 55.7485H80.4644C83.1787 55.7485 85.3789 53.5483 85.3789 50.834V50.4045C85.3789 48.5815 84.384 46.9939 82.9097 46.1455C82.4656 46.1138 82.0264 46.0779 81.5945 46.0356C80.7117 45.949 79.8503 45.844 79.0183 45.7153C78.6948 45.6655 78.3794 45.6091 78.0635 45.5532C66.0569 43.4333 59.4727 37.1628 56.5161 33.4148C55.4033 37.1536 52.6428 42.8813 45.9822 44.9849C45.176 45.2395 44.3137 45.4416 43.3894 45.5801C43.3989 45.5908 43.408 45.602 43.4177 45.6128C41.2241 46.1057 39.584 48.0618 39.584 50.4043V50.8337C39.5837 53.5486 41.7837 55.7488 44.498 55.7488ZM68.0217 55.3616C68.3904 55.3616 68.6887 55.6602 68.6887 56.0286C68.6887 59.4465 65.9177 62.2175 62.4998 62.2175C59.0818 62.2175 56.3108 59.4465 56.3108 56.0286C56.3108 55.6602 56.6094 55.3616 56.9775 55.3616H68.0217ZM69.6526 46.7192C70.5405 46.7192 71.2603 47.439 71.2603 48.3267C71.2603 48.6521 71.1619 48.9541 70.9954 49.2073C70.708 49.6445 70.2148 49.9341 69.6526 49.9341C69.0903 49.9341 68.5972 49.6443 68.3098 49.2073C68.1433 48.9541 68.0452 48.6521 68.0452 48.3267C68.0452 47.4392 68.7646 46.7192 69.6526 46.7192ZM55.3474 46.7192C56.2351 46.7192 56.9548 47.439 56.9548 48.3267C56.9548 48.6521 56.8567 48.9541 56.6902 49.2073C56.4028 49.6445 55.9097 49.9341 55.3474 49.9341C54.7852 49.9341 54.292 49.6443 54.0046 49.2073C53.8381 48.9541 53.7397 48.6521 53.7397 48.3267C53.7397 47.4392 54.4595 46.7192 55.3474 46.7192Z" fill="black"/>
</svg>
