<svg width="55" height="55" viewBox="0 0 55 55" fill="none" xmlns="http://www.w3.org/2000/svg">
<circle cx="27.5" cy="27.5" r="27.5" fill="black"/>
<path d="M36.3543 21.6667C35.6252 20.7292 34.5835 20.2083 33.4377 20.2083H21.4585L21.2502 18.9583C21.146 18.5417 20.7293 18.125 20.2085 18.125H18.1252C17.5002 18.125 17.0835 18.5417 17.0835 19.1667C17.0835 19.7917 17.5002 20.2083 18.1252 20.2083H19.3752L19.5835 21.4583L20.8335 28.75L21.0418 30C21.2502 31.5625 22.6043 32.7083 24.1668 32.7083H34.1668C34.7918 32.7083 35.2085 32.2917 35.2085 31.6667C35.2085 31.0417 34.7918 30.625 34.1668 30.625H24.1668C23.646 30.625 23.1252 30.2083 23.021 29.6875V29.5833H32.8127C34.4793 29.5833 35.8335 28.5417 36.3543 26.9792L36.9793 24.8958C37.2918 23.75 36.9793 22.6042 36.3543 21.6667ZM34.896 24.2708L34.271 26.3542C34.0627 26.9792 33.4377 27.5 32.8127 27.5H22.6043L21.771 22.2917H33.4377C33.9585 22.2917 34.3752 22.5 34.6877 22.9167C35.0002 23.3333 35.1043 23.8542 34.896 24.2708Z" fill="white"/>
<path d="M23.8545 36.875C24.7174 36.875 25.417 36.1754 25.417 35.3125C25.417 34.4496 24.7174 33.75 23.8545 33.75C22.9915 33.75 22.292 34.4496 22.292 35.3125C22.292 36.1754 22.9915 36.875 23.8545 36.875Z" fill="white"/>
<path d="M32.1875 36.875C33.0504 36.875 33.75 36.1754 33.75 35.3125C33.75 34.4496 33.0504 33.75 32.1875 33.75C31.3246 33.75 30.625 34.4496 30.625 35.3125C30.625 36.1754 31.3246 36.875 32.1875 36.875Z" fill="white"/>
</svg>
