<svg width="125" height="125" viewBox="0 0 125 125" fill="none" xmlns="http://www.w3.org/2000/svg">
<path d="M63.3065 9.26561C54.5934 9.60201 46.1281 12.2588 38.7852 16.9614C31.4424 21.664 25.4883 28.2419 21.5382 36.0155C17.5881 43.7891 15.7853 52.4764 16.3159 61.1798C16.8465 69.8833 19.6913 78.2873 24.5565 85.5234C27.1977 89.3912 28.6629 93.9408 28.7753 98.623C29.0053 103.248 28.6893 107.884 27.8339 112.436C26.0858 118.955 32.9237 120.863 36.2635 117.514C39.6034 114.164 47.7128 105.906 56.4589 106.541C56.4589 106.541 62.076 107.178 65.205 107.178C71.7131 107.172 78.1549 105.869 84.1539 103.345C90.1528 100.822 95.5887 97.1278 100.144 92.4794C104.699 87.831 108.282 82.3214 110.683 76.2725C113.085 70.2237 114.257 63.7568 114.131 57.2498C114.005 50.7429 112.583 44.3263 109.949 38.3751C107.314 32.4238 103.521 27.0572 98.7888 22.5889C94.0569 18.1205 88.482 14.64 82.3897 12.3508C76.2975 10.0615 69.81 9.00937 63.3065 9.25584V9.26561Z" fill="#AF8756"/>
<path d="M65.0469 97.6445C86.915 97.6445 104.643 79.9169 104.643 58.0488C104.643 36.1807 86.915 18.4531 65.0469 18.4531C43.1788 18.4531 25.4512 36.1807 25.4512 58.0488C25.4512 79.9169 43.1788 97.6445 65.0469 97.6445Z" fill="#89643D"/>
<path d="M32.9824 116.014C34.7277 116.014 36.1426 114.599 36.1426 112.854C36.1426 111.108 34.7277 109.693 32.9824 109.693C31.2371 109.693 29.8223 111.108 29.8223 112.854C29.8223 114.599 31.2371 116.014 32.9824 116.014Z" fill="#89643D"/>
<path d="M35.5469 41.168C35.5469 41.168 34.8828 37.0469 37.873 36.7051C40.8633 36.3633 40.8652 37.7344 40.8652 37.7344C40.8652 37.7344 38.8711 32.9277 41.1973 31.2109C42.941 30.0324 44.8435 29.1077 46.8476 28.4648C46.8476 28.4648 44.5215 27.7773 46.8476 25.7188C49.1738 23.6602 53.1621 24.6875 53.1621 24.6875C53.0077 24.3742 52.9418 24.0247 52.9715 23.6767C53.0012 23.3287 53.1254 22.9954 53.3306 22.7128C53.5358 22.4302 53.8143 22.2089 54.1361 22.073C54.4578 21.9371 54.8105 21.8916 55.1562 21.9414C58.1484 21.9414 58.4766 25.375 58.4766 25.375C58.294 24.9983 58.1923 24.5876 58.1781 24.1692C58.1639 23.7509 58.2374 23.3342 58.394 22.946C58.5505 22.5578 58.7867 22.2066 59.0872 21.9152C59.3877 21.6238 59.7458 21.3985 60.1387 21.2539C61.1122 20.9167 62.1621 20.8663 63.1635 21.1087C64.1649 21.351 65.0755 21.876 65.7871 22.6211C65.7871 22.6211 67.4492 20.2168 68.7793 20.2168C70.1094 20.2168 73.4375 25.7188 73.4375 25.7188C74.7432 24.9534 76.2472 24.5944 77.7578 24.6875C79.7519 25.0313 80.0859 26.748 79.0879 28.4648C80.2521 28.0873 81.4878 27.9838 82.6986 28.1623C83.9094 28.3409 85.0626 28.7967 86.0684 29.4941C87.8773 30.7805 89.172 32.6661 89.7226 34.8164C90.1745 34.6547 90.654 34.5842 91.1333 34.609C91.6126 34.6337 92.0823 34.7533 92.5151 34.9607C92.9479 35.1681 93.3353 35.4593 93.6549 35.8174C93.9745 36.1755 94.2199 36.5933 94.3769 37.0469C95.3243 39.352 95.9398 41.7798 96.2051 44.2578C96.2051 44.2578 104.846 51.8105 103.018 59.8828C103.508 60.7994 103.792 61.8121 103.849 62.8499C103.906 63.8878 103.736 64.9256 103.35 65.8906C103.35 65.8906 104.521 69.1523 102.52 70.6973C100.518 72.2422 101.855 70.5254 101.855 70.5254C101.855 70.5254 101.687 75.332 98.8633 77.3906C96.0391 79.4492 91.0508 78.4219 91.0508 78.4219C91.0508 78.4219 93.3769 84.0859 90.8848 86.6602C90.5421 86.9986 90.1339 87.2636 89.6853 87.4389C89.2367 87.6142 88.757 87.6961 88.2756 87.6796C87.7942 87.6632 87.3213 87.5487 86.8857 87.3432C86.4501 87.1377 86.061 86.8454 85.7422 86.4844C85.7422 86.4844 86.9141 87 85.2441 87.8516C84.0425 88.3973 82.7414 88.6899 81.4219 88.7109L78.7637 91.6289C78.7637 91.6289 78.5976 91.9727 76.6035 91.6289C76.6035 91.6289 76.4375 94.2031 71.1191 94.375C70.4666 94.8815 69.6867 95.1977 68.8657 95.2887C68.0446 95.3797 67.2144 95.2419 66.4668 94.8906C66.4668 94.8906 63.6406 96.7793 59.6523 94.0312C59.6523 94.0312 51.6758 96.0918 50.6797 89.7344C50.6797 89.7344 46.8574 90.9355 46.0254 87.8457C46.0254 87.8457 43.5332 88.3613 43.0351 86.8164C43.0351 86.8164 38.2168 84.9277 39.5449 80.6367C39.5449 80.6367 36.8867 82.0039 36.8867 79.0918C35.3427 78.8097 33.9717 77.9315 33.0698 76.6469C32.1679 75.3624 31.8074 73.7746 32.0664 72.2266L32.8984 68.4492C32.8984 68.4492 30.0723 68.2773 30.4062 66.7324C30.5152 66.3008 30.7779 65.9238 31.145 65.6721C31.5122 65.4204 31.9585 65.3113 32.4004 65.3652C32.4004 65.3652 28.0781 62.4473 31.0703 59.1855L33.0644 58.8418C32.4961 57.8733 32.2105 56.7649 32.2398 55.6423C32.2691 54.5197 32.6123 53.4278 33.2305 52.4902C33.2305 52.4902 28.7344 45.459 35.5469 41.168Z" fill="url(#paint0_linear_19_2990)"/>
<path d="M46.123 44.215C44.8242 44.2267 43.7793 44.1251 42.8144 45.1681C41.9843 46.0665 41.5449 47.4161 43.0722 47.9025C42.1894 48.7091 40.6621 49.0743 40.1953 50.2462C39.6093 51.7364 40.9433 52.256 41.664 53.2364C40.3476 53.8048 37.9531 54.8712 37.4043 56.297C37.26 56.9345 37.2507 57.5951 37.3769 58.2364C37.7265 59.5431 38.3711 59.213 39.1211 60.0314C38.1015 61.1466 36.2734 63.0294 36.582 64.7286C36.9179 66.5997 39.5371 66.7345 40.8164 66.1915C40.8886 67.7892 41.8769 67.586 42.8222 68.0489C44.3984 68.8302 44.6699 69.1935 45.4453 67.4239C45.5527 67.1837 45.5605 66.2364 45.6699 66.1427C46.2363 65.6525 48.0566 66.5743 48.7949 66.7872C49.8281 67.0821 52 67.9845 53.1152 67.4025C54.3906 66.7384 53.8867 65.0782 54.539 64.2443C55.6152 62.8771 58.7207 63.754 60.4375 62.6564C62.2988 61.4669 64.2656 56.9728 60.7519 57.2267C61.8359 56.2501 61.8066 54.6017 60.0937 54.3653C61.2109 50.7618 57.125 50.8048 54.8691 51.1993C55.1847 49.5373 54.9573 47.8179 54.2207 46.295C53.5507 45.0782 52.7031 44.8829 51.8339 44.2013C51.4598 43.7626 50.9969 43.4084 50.4757 43.1619C49.9545 42.9155 49.3869 42.7824 48.8105 42.7716C47.8578 42.6559 46.8921 42.7115 45.9589 42.9357" fill="#FFF887"/>
<path d="M41.8844 73.047C41.697 73.6143 41.6442 74.2174 41.7303 74.8087C41.8164 75.3999 42.039 75.963 42.3805 76.4532C43.1618 77.3985 44.4332 78.0157 45.1149 76.5704C45.7946 77.547 45.945 79.1095 47.0504 79.7403C48.4469 80.5216 49.1422 79.2735 50.2125 78.6935C50.6032 80.0743 51.3278 82.5997 52.6637 83.3302C53.2756 83.5605 53.9289 83.6603 54.5817 83.6232C55.9254 83.4532 55.6774 82.7696 56.5973 82.1407C57.5739 83.3009 59.1793 85.3693 60.9059 85.2989C62.8043 85.2208 63.2946 82.6446 62.9313 81.3048C64.5231 81.4493 64.4567 80.4435 65.0446 79.5685C66.0211 78.1134 66.4313 77.8946 64.7848 76.8849C64.5582 76.7482 63.6227 76.6095 63.5446 76.4943C63.1344 75.8653 64.2985 74.1876 64.611 73.4806C65.0426 72.504 66.2321 70.465 65.8102 69.2833C65.3258 67.9278 63.611 68.2013 62.8805 67.4415C61.6637 66.1876 62.9625 63.2325 62.111 61.3868C61.1871 59.379 57.0016 56.8185 56.775 60.3321C55.9606 59.1271 54.318 58.9298 53.8454 60.5958C50.4254 58.9962 49.9137 63.0509 49.9957 65.34C48.3921 64.8008 46.6576 64.7919 45.0485 65.3146C43.7516 65.8126 43.443 66.6251 42.65 67.3927C41.6911 68.3185 41.1793 68.4435 40.8219 70.1935C40.5768 71.1215 40.4995 72.0859 40.5934 73.0411" fill="#FFF887"/>
<path d="M74.963 65.7247C74.7751 66.2922 74.7219 66.8956 74.8077 67.4872C74.8934 68.0787 75.1158 68.6422 75.4571 69.1329C76.2384 70.0782 77.5099 70.6954 78.2013 69.2501C78.881 70.2267 79.0313 71.7892 80.1368 72.42C81.5333 73.2013 82.2306 71.9513 83.2989 71.3732C83.6895 72.754 84.4141 75.2696 85.7501 76.0099C86.3626 76.2405 87.0166 76.3403 87.67 76.3028C89.0118 76.1329 88.7638 75.4493 89.6856 74.8185C90.6505 75.9806 92.2657 78.0489 93.9923 77.9786C95.8907 77.9005 96.3809 75.3243 96.0177 73.9825C97.6095 74.129 97.5431 73.1232 98.1309 72.2482C99.1075 70.7911 99.5177 70.5743 97.8712 69.5646C97.6446 69.4259 96.7091 69.2892 96.6309 69.1739C96.2227 68.545 97.3849 66.8673 97.6974 66.1583C98.1309 65.1818 99.3184 63.1446 98.8966 61.961C98.4122 60.6075 96.6974 60.881 95.9669 60.1212C94.752 58.8673 96.0509 55.9122 95.1974 54.0665C94.2735 52.0587 90.088 49.4982 89.8614 53.0118C89.047 51.8068 87.4044 51.6095 86.9317 53.2755C83.5138 51.6759 83.0001 55.7306 83.0821 58.0177C81.4781 57.4801 79.7439 57.4719 78.1349 57.9943C76.838 58.4903 76.5294 59.3048 75.7364 60.0724C74.7774 60.9982 74.2657 61.1212 73.9083 62.8732C73.6641 63.8007 73.5867 64.7642 73.6798 65.7189" fill="#FFD757"/>
<path d="M46.7575 58.049C46.7575 58.049 43.736 55.3459 45.6442 53.1193C45.8138 52.8278 46.0638 52.5912 46.3642 52.4378C46.6646 52.2845 47.0028 52.2208 47.3384 52.2543C47.674 52.2879 47.9929 52.4173 48.257 52.6271C48.5211 52.8369 48.7192 53.1183 48.8278 53.4377C48.848 53.1777 48.925 52.9253 49.0532 52.6982C49.1815 52.4711 49.3579 52.2749 49.5702 52.1234C49.7824 51.9718 50.0253 51.8686 50.2817 51.821C50.5381 51.7734 50.8018 51.7826 51.0543 51.8478C53.1207 52.1662 52.0075 54.7111 52.0075 54.7111C52.0075 54.7111 54.7106 55.0275 54.0758 56.6193C53.574 57.6621 52.7323 58.5031 51.6891 59.0041C51.6891 59.0041 53.9157 62.5021 51.5309 63.301C50.8313 63.4968 50.0856 63.4457 49.4193 63.1561C48.753 62.8665 48.2068 62.3562 47.8727 61.7111C47.8727 61.7111 43.4176 61.3888 46.7575 58.049Z" fill="#FFFAAB"/>
<path d="M54.6309 72.0449C55.6405 72.0449 56.459 71.2614 56.459 70.2949C56.459 69.3284 55.6405 68.5449 54.6309 68.5449C53.6212 68.5449 52.8027 69.3284 52.8027 70.2949C52.8027 71.2614 53.6212 72.0449 54.6309 72.0449Z" fill="#FFFAAB"/>
<path d="M52.7207 73.793C53.7304 73.793 54.5488 73.0812 54.5488 72.2031C54.5488 71.3251 53.7304 70.6133 52.7207 70.6133C51.7111 70.6133 50.8926 71.3251 50.8926 72.2031C50.8926 73.0812 51.7111 73.793 52.7207 73.793Z" fill="#FFFAAB"/>
<path d="M56.1797 75.9395C57.5194 75.9395 58.6055 74.8718 58.6055 73.5547C58.6055 72.2376 57.5194 71.1699 56.1797 71.1699C54.84 71.1699 53.7539 72.2376 53.7539 73.5547C53.7539 74.8718 54.84 75.9395 56.1797 75.9395Z" fill="#FFFAAB"/>
<path d="M58.0879 72.4414C59.4276 72.4414 60.5137 71.3737 60.5137 70.0566C60.5137 68.7396 59.4276 67.6719 58.0879 67.6719C56.7482 67.6719 55.6621 68.7396 55.6621 70.0566C55.6621 71.3737 56.7482 72.4414 58.0879 72.4414Z" fill="#FFFAAB"/>
<path d="M53.3748 70.1345C53.3738 70.2715 53.3458 70.4069 53.2924 70.5331C53.2391 70.6592 53.1614 70.7736 53.0638 70.8698C52.9662 70.9659 52.8507 71.0418 52.7237 71.0933C52.5968 71.1448 52.461 71.1707 52.324 71.1697C52.1859 71.1751 52.0482 71.1521 51.9193 71.1022C51.7904 71.0523 51.6731 70.9765 51.5747 70.8795C51.4762 70.7825 51.3986 70.6663 51.3468 70.5382C51.295 70.4101 51.2699 70.2727 51.2732 70.1345C51.3514 69.3162 51.8592 68.7674 52.324 69.1013C52.7889 69.4353 53.3748 69.5642 53.3748 70.1345Z" fill="#FFFAAB"/>
<path d="M56.0215 70.0566C57.1595 70.0566 58.082 69.149 58.082 68.0293C58.082 66.9096 57.1595 66.002 56.0215 66.002C54.8835 66.002 53.9609 66.9096 53.9609 68.0293C53.9609 69.149 54.8835 70.0566 56.0215 70.0566Z" fill="#FFD85E"/>
<path d="M90.4902 66.6367C91.4999 66.6367 92.3184 65.8532 92.3184 64.8867C92.3184 63.9202 91.4999 63.1367 90.4902 63.1367C89.4806 63.1367 88.6621 63.9202 88.6621 64.8867C88.6621 65.8532 89.4806 66.6367 90.4902 66.6367Z" fill="#FFD85E"/>
<path d="M88.582 68.3867C89.5917 68.3867 90.4102 67.6749 90.4102 66.7969C90.4102 65.9188 89.5917 65.207 88.582 65.207C87.5724 65.207 86.7539 65.9188 86.7539 66.7969C86.7539 67.6749 87.5724 68.3867 88.582 68.3867Z" fill="#FFE699"/>
<path d="M92.0391 70.5332C93.3788 70.5332 94.4648 69.4655 94.4648 68.1484C94.4648 66.8314 93.3788 65.7637 92.0391 65.7637C90.6993 65.7637 89.6133 66.8314 89.6133 68.1484C89.6133 69.4655 90.6993 70.5332 92.0391 70.5332Z" fill="#FFE699"/>
<path d="M93.9492 67.0332C95.2889 67.0332 96.375 65.9655 96.375 64.6484C96.375 63.3314 95.2889 62.2637 93.9492 62.2637C92.6095 62.2637 91.5234 63.3314 91.5234 64.6484C91.5234 65.9655 92.6095 67.0332 93.9492 67.0332Z" fill="#FFE699"/>
<path d="M88.1836 65.7617C88.7639 65.7617 89.2344 65.2991 89.2344 64.7285C89.2344 64.1579 88.7639 63.6953 88.1836 63.6953C87.6033 63.6953 87.1328 64.1579 87.1328 64.7285C87.1328 65.2991 87.6033 65.7617 88.1836 65.7617Z" fill="#FFD85E"/>
<path d="M91.8809 64.6484C93.0189 64.6484 93.9414 63.7408 93.9414 62.6211C93.9414 61.5014 93.0189 60.5938 91.8809 60.5938C90.7429 60.5938 89.8203 61.5014 89.8203 62.6211C89.8203 63.7408 90.7429 64.6484 91.8809 64.6484Z" fill="#FFD85E"/>
<path d="M59.5605 41.9883C60.5702 41.9883 61.3887 41.1698 61.3887 40.1602C61.3887 39.1505 60.5702 38.332 59.5605 38.332C58.5509 38.332 57.7324 39.1505 57.7324 40.1602C57.7324 41.1698 58.5509 41.9883 59.5605 41.9883Z" fill="#FFD03B"/>
<path d="M72.2012 50.8926C73.1677 50.8926 73.9512 50.0741 73.9512 49.0645C73.9512 48.0548 73.1677 47.2363 72.2012 47.2363C71.2347 47.2363 70.4512 48.0548 70.4512 49.0645C70.4512 50.0741 71.2347 50.8926 72.2012 50.8926Z" fill="#FFD03B"/>
<path d="M61.0703 91.127C61.9484 91.127 62.6602 90.3793 62.6602 89.457C62.6602 88.5348 61.9484 87.7871 61.0703 87.7871C60.1923 87.7871 59.4805 88.5348 59.4805 89.457C59.4805 90.3793 60.1923 91.127 61.0703 91.127Z" fill="#FFD03B"/>
<path d="M81.3457 83.0176C82.4438 83.0176 83.334 82.1274 83.334 81.0293C83.334 79.9312 82.4438 79.041 81.3457 79.041C80.2476 79.041 79.3574 79.9312 79.3574 81.0293C79.3574 82.1274 80.2476 83.0176 81.3457 83.0176Z" fill="#FFD03B"/>
<path d="M37.1367 72.3613C37.8832 72.3613 38.4883 71.7562 38.4883 71.0098C38.4883 70.2633 37.8832 69.6582 37.1367 69.6582C36.3903 69.6582 35.7852 70.2633 35.7852 71.0098C35.7852 71.7562 36.3903 72.3613 37.1367 72.3613Z" fill="#FFF887"/>
<path d="M49.9395 37.377C50.7301 37.377 51.3711 36.736 51.3711 35.9453C51.3711 35.1546 50.7301 34.5137 49.9395 34.5137C49.1488 34.5137 48.5078 35.1546 48.5078 35.9453C48.5078 36.736 49.1488 37.377 49.9395 37.377Z" fill="#FFD03B"/>
<path d="M68.1465 72.5195C69.771 72.5195 71.0879 71.2026 71.0879 69.5781C71.0879 67.9536 69.771 66.6367 68.1465 66.6367C66.522 66.6367 65.2051 67.9536 65.2051 69.5781C65.2051 71.2026 66.522 72.5195 68.1465 72.5195Z" fill="#FFD03B"/>
<path d="M64.9668 76.0195C65.9764 76.0195 66.7949 75.2011 66.7949 74.1914C66.7949 73.1818 65.9764 72.3633 64.9668 72.3633C63.9572 72.3633 63.1387 73.1818 63.1387 74.1914C63.1387 75.2011 63.9572 76.0195 64.9668 76.0195Z" fill="#FFF887"/>
<path d="M65.8418 73.1563C66.7198 73.1563 67.4316 72.4445 67.4316 71.5664C67.4316 70.6884 66.7198 69.9766 65.8418 69.9766C64.9637 69.9766 64.252 70.6884 64.252 71.5664C64.252 72.4445 64.9637 73.1563 65.8418 73.1563Z" fill="#FFF887"/>
<path d="M74.4277 78.4062C75.3942 78.4062 76.1777 77.6227 76.1777 76.6562C76.1777 75.6898 75.3942 74.9062 74.4277 74.9062C73.4612 74.9062 72.6777 75.6898 72.6777 76.6562C72.6777 77.6227 73.4612 78.4062 74.4277 78.4062Z" fill="#FFD03B"/>
<path d="M63.2168 66.4785C64.3149 66.4785 65.2051 65.5883 65.2051 64.4902C65.2051 63.3921 64.3149 62.502 63.2168 62.502C62.1187 62.502 61.2285 63.3921 61.2285 64.4902C61.2285 65.5883 62.1187 66.4785 63.2168 66.4785Z" fill="#FFF887"/>
<path d="M60.9902 36.1035C61.5609 36.1035 62.0234 35.6409 62.0234 35.0703C62.0234 34.4997 61.5609 34.0371 60.9902 34.0371C60.4196 34.0371 59.957 34.4997 59.957 35.0703C59.957 35.6409 60.4196 36.1035 60.9902 36.1035Z" fill="#FFD85E"/>
<path d="M37.373 61.8613C38.3374 61.8613 39.1191 61.0796 39.1191 60.1152C39.1191 59.1509 38.3374 58.3691 37.373 58.3691C36.4087 58.3691 35.627 59.1509 35.627 60.1152C35.627 61.0796 36.4087 61.8613 37.373 61.8613Z" fill="#FFF887"/>
<path d="M88.3418 57.2559C88.825 57.2559 89.2168 56.8641 89.2168 56.3809C89.2168 55.8976 88.825 55.5059 88.3418 55.5059C87.8585 55.5059 87.4668 55.8976 87.4668 56.3809C87.4668 56.8641 87.8585 57.2559 88.3418 57.2559Z" fill="#FFD85E"/>
<path d="M60.5937 62.502C61.0328 62.502 61.3887 62.1461 61.3887 61.707C61.3887 61.268 61.0328 60.9121 60.5937 60.9121C60.1547 60.9121 59.7988 61.268 59.7988 61.707C59.7988 62.1461 60.1547 62.502 60.5937 62.502Z" fill="#FFF887"/>
<path d="M74.666 57.4141C75.2366 57.4141 75.6992 56.9515 75.6992 56.3809C75.6992 55.8102 75.2366 55.3477 74.666 55.3477C74.0954 55.3477 73.6328 55.8102 73.6328 56.3809C73.6328 56.9515 74.0954 57.4141 74.666 57.4141Z" fill="#FFD85E"/>
<path d="M67.2715 90.9688C67.799 90.9688 68.2266 90.5412 68.2266 90.0137C68.2266 89.4862 67.799 89.0586 67.2715 89.0586C66.744 89.0586 66.3164 89.4862 66.3164 90.0137C66.3164 90.5412 66.744 90.9688 67.2715 90.9688Z" fill="#FFD85E"/>
<path d="M45.5664 84.2871C46.137 84.2871 46.5996 83.8245 46.5996 83.2539C46.5996 82.6833 46.137 82.2207 45.5664 82.2207C44.9958 82.2207 44.5332 82.6833 44.5332 83.2539C44.5332 83.8245 44.9958 84.2871 45.5664 84.2871Z" fill="#FFD85E"/>
<path d="M67.0332 44.375C67.5164 44.375 67.9082 43.9832 67.9082 43.5C67.9082 43.0168 67.5164 42.625 67.0332 42.625C66.55 42.625 66.1582 43.0168 66.1582 43.5C66.1582 43.9832 66.55 44.375 67.0332 44.375Z" fill="#FFD85E"/>
<path d="M38.0918 46.918C38.575 46.918 38.9668 46.5262 38.9668 46.043C38.9668 45.5597 38.575 45.168 38.0918 45.168C37.6085 45.168 37.2168 45.5597 37.2168 46.043C37.2168 46.5262 37.6085 46.918 38.0918 46.918Z" fill="#FFD85E"/>
<path d="M67.3516 62.6602C67.7464 62.6602 68.0664 62.3401 68.0664 61.9453C68.0664 61.5505 67.7464 61.2305 67.3516 61.2305C66.9568 61.2305 66.6367 61.5505 66.6367 61.9453C66.6367 62.3401 66.9568 62.6602 67.3516 62.6602Z" fill="#FFD85E"/>
<path d="M59.4314 45.7031C59.4097 46.2339 59.2811 46.7548 59.0534 47.2347C58.8258 47.7147 58.5037 48.1438 58.1064 48.4964C57.7091 48.849 57.2448 49.1179 56.7412 49.287C56.2376 49.4561 55.7051 49.5219 55.1756 49.4805C54.6596 49.5167 54.1417 49.4455 53.6546 49.2715C53.1675 49.0975 52.7218 48.8244 52.3456 48.4695C51.9694 48.1145 51.6708 47.6855 51.4687 47.2093C51.2667 46.7332 51.1655 46.2203 51.1716 45.7031C51.1716 45.1601 51.2786 44.6225 51.4864 44.1208C51.6942 43.6192 51.9987 43.1634 52.3827 42.7794C52.7666 42.3955 53.2225 42.0909 53.7241 41.8831C54.2258 41.6753 54.7634 41.5684 55.3064 41.5684C55.8494 41.5684 56.3871 41.6753 56.8887 41.8831C57.3904 42.0909 57.8462 42.3955 58.2301 42.7794C58.6141 43.1634 58.9186 43.6192 59.1264 44.1208C59.3342 44.6225 59.4412 45.1601 59.4412 45.7031H59.4314Z" fill="url(#paint1_linear_19_2990)"/>
<path opacity="0.5" d="M56.2988 47.6113C57.6483 47.6113 58.7422 46.5174 58.7422 45.168C58.7422 43.8185 57.6483 42.7246 56.2988 42.7246C54.9494 42.7246 53.8555 43.8185 53.8555 45.168C53.8555 46.5174 54.9494 47.6113 56.2988 47.6113Z" fill="#56FF4A"/>
<path d="M42.8613 71.1699C44.8817 71.1699 46.5195 69.5321 46.5195 67.5117C46.5195 65.4914 44.8817 63.8535 42.8613 63.8535C40.841 63.8535 39.2031 65.4914 39.2031 67.5117C39.2031 69.5321 40.841 71.1699 42.8613 71.1699Z" fill="url(#paint2_linear_19_2990)"/>
<path opacity="0.5" d="M43.748 69.2031C44.9421 69.2031 45.9102 68.2351 45.9102 67.041C45.9102 65.8469 44.9421 64.8789 43.748 64.8789C42.5539 64.8789 41.5859 65.8469 41.5859 67.041C41.5859 68.2351 42.5539 69.2031 43.748 69.2031Z" fill="#56FF4A"/>
<path d="M79.6758 84.4473C82.0467 84.4473 83.9688 82.5252 83.9688 80.1543C83.9688 77.7834 82.0467 75.8613 79.6758 75.8613C77.3048 75.8613 75.3828 77.7834 75.3828 80.1543C75.3828 82.5252 77.3048 84.4473 79.6758 84.4473Z" fill="url(#paint3_linear_19_2990)"/>
<path opacity="0.5" d="M80.7168 82.1387C82.118 82.1387 83.2539 81.0028 83.2539 79.6016C83.2539 78.2004 82.118 77.0645 80.7168 77.0645C79.3156 77.0645 78.1797 78.2004 78.1797 79.6016C78.1797 81.0028 79.3156 82.1387 80.7168 82.1387Z" fill="#56FF4A"/>
<path d="M81.8223 58.8457C84.1058 58.8457 85.957 56.9945 85.957 54.7109C85.957 52.4274 84.1058 50.5762 81.8223 50.5762C79.5387 50.5762 77.6875 52.4274 77.6875 54.7109C77.6875 56.9945 79.5387 58.8457 81.8223 58.8457Z" fill="url(#paint4_linear_19_2990)"/>
<path opacity="0.5" d="M82.8242 56.6211C84.1736 56.6211 85.2676 55.5272 85.2676 54.1777C85.2676 52.8283 84.1736 51.7344 82.8242 51.7344C81.4748 51.7344 80.3809 52.8283 80.3809 54.1777C80.3809 55.5272 81.4748 56.6211 82.8242 56.6211Z" fill="#56FF4A"/>
<path d="M69.8965 70.6914C71.741 70.6914 73.2363 69.1961 73.2363 67.3516C73.2363 65.507 71.741 64.0117 69.8965 64.0117C68.0519 64.0117 66.5566 65.507 66.5566 67.3516C66.5566 69.1961 68.0519 70.6914 69.8965 70.6914Z" fill="#21FF2D"/>
<path d="M70.7051 68.8945C71.7945 68.8945 72.6777 68.0113 72.6777 66.9219C72.6777 65.8324 71.7945 64.9492 70.7051 64.9492C69.6156 64.9492 68.7324 65.8324 68.7324 66.9219C68.7324 68.0113 69.6156 68.8945 70.7051 68.8945Z" fill="#56FF4A"/>
<path d="M44.0547 48.1895H40.3984C39.1687 48.1895 38.1719 49.1863 38.1719 50.416V54.0723C38.1719 55.302 39.1687 56.2988 40.3984 56.2988H44.0547C45.2844 56.2988 46.2812 55.302 46.2812 54.0723V50.416C46.2812 49.1863 45.2844 48.1895 44.0547 48.1895Z" fill="#FF5900"/>
<path d="M44.1055 54.2324H42.0977C41.751 54.2079 41.428 54.0473 41.199 53.7858C40.97 53.5243 40.8536 53.1829 40.8751 52.8359V50.541C40.8536 50.1941 40.97 49.8527 41.199 49.5912C41.428 49.3296 41.751 49.1691 42.0977 49.1445H44.1055C44.4519 49.1696 44.7744 49.3303 45.003 49.5918C45.2316 49.8533 45.3477 50.1944 45.3263 50.541V52.8359C45.3477 53.1826 45.2316 53.5237 45.003 53.7852C44.7744 54.0466 44.4519 54.2074 44.1055 54.2324Z" fill="#FF9500"/>
<path d="M63.7228 79.7337L60.6613 81.7325C59.6316 82.4047 59.3418 83.7844 60.0141 84.8141L62.0128 87.8757C62.6851 88.9053 64.0648 89.1951 65.0944 88.5229L68.156 86.5241C69.1857 85.8519 69.4754 84.4722 68.8032 83.4425L66.8044 80.3809C66.1322 79.3513 64.7525 79.0615 63.7228 79.7337Z" fill="#FF5900"/>
<path d="M67.0699 84.7656L65.3883 85.8632C65.0844 86.0321 64.7261 86.0741 64.3914 85.9801C64.0567 85.8861 63.7727 85.6637 63.6012 85.3613L62.3453 83.4394C62.1376 83.1607 62.0483 82.8112 62.097 82.467C62.1456 82.1228 62.3282 81.8117 62.6051 81.6015L64.2867 80.5039C64.5906 80.335 64.9489 80.293 65.2836 80.387C65.6183 80.481 65.9023 80.7034 66.0739 81.0058L67.3297 82.9277C67.5375 83.2064 67.6267 83.5559 67.5781 83.9001C67.5294 84.2443 67.3468 84.5554 67.0699 84.7656Z" fill="#FF9500"/>
<path d="M88.3778 60.2088L87.3872 62.4103C87.0539 63.151 87.3842 64.0217 88.1249 64.3549L90.3263 65.3455C91.0671 65.6788 91.9377 65.3485 92.271 64.6078L93.2616 62.4064C93.5949 61.6656 93.2646 60.795 92.5239 60.4617L90.3224 59.4711C89.5817 59.1378 88.711 59.4681 88.3778 60.2088Z" fill="#FF5900"/>
<path d="M92.0271 61.8147L91.4841 63.0237C91.3748 63.2252 91.1906 63.3756 90.9714 63.4424C90.7521 63.5093 90.5154 63.4873 90.3122 63.3811L88.9314 62.76C88.7165 62.6788 88.5425 62.5161 88.447 62.3073C88.3515 62.0984 88.3424 61.8603 88.4216 61.6448L88.9646 60.4358C89.0739 60.2343 89.258 60.0839 89.4773 60.017C89.6965 59.9501 89.9333 59.9721 90.1364 60.0783L91.5173 60.6994C91.7321 60.7806 91.9062 60.9433 92.0016 61.1522C92.0971 61.361 92.1062 61.5991 92.0271 61.8147Z" fill="#FF9500"/>
<path d="M57.016 32.1172L55.703 34.9862C55.2619 35.9501 55.6857 37.089 56.6495 37.5301L59.5185 38.8431C60.4824 39.2842 61.6213 38.8605 62.0624 37.8966L63.3754 35.0276C63.8165 34.0637 63.3928 32.9248 62.4289 32.4837L59.5599 31.1707C58.596 30.7296 57.4571 31.1534 57.016 32.1172Z" fill="#FF5900"/>
<path d="M60.3201 37.2247L58.7439 36.504C58.4806 36.3602 58.2847 36.1182 58.1991 35.8306C58.1135 35.543 58.1451 35.2332 58.2869 34.9688L59.1111 33.17C59.2188 32.8899 59.4327 32.6637 59.7062 32.5404C59.9798 32.4172 60.291 32.4069 60.5721 32.5118L62.1463 33.2325C62.4097 33.3763 62.6055 33.6183 62.6911 33.9059C62.7767 34.1935 62.7452 34.5033 62.6033 34.7677L61.7791 36.5684C61.6719 36.8483 61.4583 37.0744 61.1849 37.1974C60.9116 37.3204 60.6007 37.3302 60.3201 37.2247Z" fill="#FF9500"/>
<path d="M56.7754 60.2754H53.1191C51.8894 60.2754 50.8926 61.2723 50.8926 62.502V66.1582C50.8926 67.3879 51.8894 68.3848 53.1191 68.3848H56.7754C58.0051 68.3848 59.002 67.3879 59.002 66.1582V62.502C59.002 61.2723 58.0051 60.2754 56.7754 60.2754Z" fill="#FFE9CC"/>
<path d="M56.836 66.3184H54.8184C54.4717 66.2938 54.1487 66.1333 53.9197 65.8717C53.6907 65.6102 53.5743 65.2688 53.5958 64.9219V62.6269C53.5743 62.28 53.6907 61.9386 53.9197 61.6771C54.1487 61.4156 54.4717 61.255 54.8184 61.2305H56.836C57.1828 61.255 57.5058 61.4156 57.7347 61.6771C57.9637 61.9386 58.0801 62.28 58.0587 62.6269V64.9219C58.0801 65.2688 57.9637 65.6102 57.7347 65.8717C57.5058 66.1333 57.1828 66.2938 56.836 66.3184Z" fill="#FFF4E6"/>
<path d="M67.3581 44.3694L65.2782 46.4493C64.5796 47.148 64.5796 48.2807 65.2782 48.9794L67.3581 51.0593C68.0568 51.758 69.1896 51.758 69.8882 51.0593L71.9681 48.9794C72.6668 48.2807 72.6668 47.148 71.9681 46.4493L69.8882 44.3694C69.1896 43.6707 68.0568 43.6707 67.3581 44.3694Z" fill="#FFE9CC"/>
<path d="M68.5548 49.9104L67.4122 48.7697C67.2295 48.5585 67.1375 48.2838 67.1562 48.0051C67.1748 47.7265 67.3026 47.4664 67.5118 47.2815L68.8165 45.9768C68.9079 45.8716 69.0193 45.7855 69.1441 45.7235C69.2689 45.6616 69.4048 45.6249 69.5438 45.6156C69.6829 45.6064 69.8224 45.6247 69.9544 45.6696C70.0863 45.7145 70.2081 45.785 70.3126 45.8772L71.4552 47.0178C71.638 47.2293 71.7301 47.5044 71.7114 47.7834C71.6928 48.0623 71.5649 48.3227 71.3556 48.508L70.0509 49.8127C69.9592 49.9175 69.8477 50.0032 69.7228 50.0649C69.5979 50.1265 69.4621 50.163 69.3231 50.172C69.1841 50.1811 69.0447 50.1627 68.9129 50.1178C68.781 50.0729 68.6594 50.0024 68.5548 49.9104Z" fill="#FFF4E6"/>
<path d="M45.0512 76.2862L42.2419 77.1578C41.2982 77.4506 40.7706 78.453 41.0633 79.3967L41.935 82.206C42.2277 83.1497 43.2301 83.6774 44.1738 83.3846L46.9831 82.5129C47.9268 82.2202 48.4545 81.2178 48.1617 80.2741L47.2901 77.4648C46.9973 76.5211 45.9949 75.9934 45.0512 76.2862Z" fill="#FFE9CC"/>
<path d="M46.5271 80.9139L44.9861 81.3924C44.7139 81.456 44.4277 81.4096 44.1897 81.2633C43.9516 81.117 43.7808 80.8827 43.7146 80.6112L43.1677 78.8534C43.0676 78.5917 43.0751 78.3011 43.1885 78.0449C43.3019 77.7888 43.5121 77.5879 43.7732 77.4862L45.3142 77.0077C45.5863 76.9436 45.8728 76.9898 46.111 77.1361C46.3492 77.2825 46.5199 77.5172 46.5857 77.7889L47.1325 79.5467C47.2327 79.8084 47.2252 80.099 47.1117 80.3552C46.9983 80.6113 46.7881 80.8122 46.5271 80.9139Z" fill="#FFF4E6"/>
<path d="M91.4863 69.6056L88.677 70.4772C87.7333 70.77 87.2056 71.7723 87.4984 72.716L88.37 75.5253C88.6628 76.469 89.6652 76.9967 90.6089 76.7039L93.4182 75.8323C94.3619 75.5395 94.8895 74.5371 94.5967 73.5934L93.7251 70.7841C93.4323 69.8404 92.43 69.3128 91.4863 69.6056Z" fill="#FFE9CC"/>
<path d="M92.9688 74.2363L91.4258 74.7148C91.1537 74.7784 90.8675 74.7319 90.6294 74.5857C90.3913 74.4394 90.2206 74.205 90.1543 73.9336L89.6075 72.1757C89.5069 71.9139 89.5144 71.6228 89.6283 71.3665C89.7422 71.1101 89.9531 70.9095 90.2149 70.8086L91.7559 70.33C92.028 70.2665 92.3142 70.3129 92.5523 70.4592C92.7904 70.6055 92.9611 70.8398 93.0274 71.1113L93.5743 72.8691C93.6738 73.1308 93.6661 73.4212 93.5527 73.6772C93.4393 73.9332 93.2295 74.1342 92.9688 74.2363Z" fill="#FFF4E6"/>
<path d="M48.6659 48.1895C48.6659 48.1895 49.621 47.3945 48.8261 45.0098C48.0312 42.625 46.5995 42.4707 47.5527 40.7129C48.5058 38.9551 47.7128 36.5781 45.9628 36.5781C44.2128 36.5781 40.7148 39.2813 42.7831 41.1895C42.7831 41.1895 41.1933 42.4609 41.9882 43.8926C42.7831 45.3242 44.5273 44.5293 44.5273 44.5293C44.504 45.064 44.6438 45.5931 44.9281 46.0465C45.2124 46.4999 45.6277 46.8563 46.1191 47.0684C47.871 47.873 46.4394 48.5078 48.6659 48.1895Z" fill="#EAFF4D"/>
<path d="M46.1621 40.0996C46.8535 40.0996 47.4141 39.5522 47.4141 38.877C47.4141 38.2017 46.8535 37.6543 46.1621 37.6543C45.4707 37.6543 44.9102 38.2017 44.9102 38.877C44.9102 39.5522 45.4707 40.0996 46.1621 40.0996Z" fill="#F3FF99"/>
<path d="M58.2675 91.8418C58.2675 91.8418 59.2226 91.0469 58.4257 88.6621C57.6288 86.2773 56.2011 86.123 57.1542 84.3652C58.1073 82.6074 57.3124 80.2305 55.5644 80.2305C53.8163 80.2305 50.3163 82.9355 52.3827 84.8437C52.3827 84.8437 50.7929 86.1152 51.5878 87.5469C52.3827 88.9785 54.1269 88.1816 54.1269 88.1816C54.1038 88.716 54.2434 89.2449 54.5272 89.6982C54.8111 90.1516 55.2259 90.5081 55.7167 90.7207C57.4726 91.5234 56.0409 92.1602 58.2675 91.8418Z" fill="#EAFF4D"/>
<path d="M55.7637 83.752C56.4551 83.752 57.0156 83.2046 57.0156 82.5293C57.0156 81.854 56.4551 81.3066 55.7637 81.3066C55.0722 81.3066 54.5117 81.854 54.5117 82.5293C54.5117 83.2046 55.0722 83.752 55.7637 83.752Z" fill="#F3FF99"/>
<path d="M77.111 63.0391C77.111 63.0391 78.0661 62.2441 77.2712 59.8594C76.4763 57.4746 75.0446 57.3203 75.9977 55.5625C76.9509 53.8047 76.1579 51.4277 74.4079 51.4277C72.6579 51.4277 69.1599 54.1309 71.2282 56.041C71.2282 56.041 69.6364 57.3125 70.4333 58.7441C71.2302 60.1758 72.9723 59.3789 72.9723 59.3789C72.9494 59.9135 73.0893 60.4425 73.3735 60.8959C73.6578 61.3493 74.0729 61.7057 74.5641 61.918C76.3161 62.7207 74.8845 63.3574 77.111 63.0391Z" fill="#EAFF4D"/>
<path d="M74.6074 54.9492C75.2989 54.9492 75.8594 54.4018 75.8594 53.7266C75.8594 53.0513 75.2989 52.5039 74.6074 52.5039C73.916 52.5039 73.3555 53.0513 73.3555 53.7266C73.3555 54.4018 73.916 54.9492 74.6074 54.9492Z" fill="#F3FF99"/>
<path d="M47.5448 60.8847C47.5748 61.0064 47.5804 61.1329 47.5614 61.2568C47.5423 61.3807 47.499 61.4996 47.4338 61.6067C47.3686 61.7137 47.283 61.8069 47.1817 61.8808C47.0804 61.9546 46.9655 62.0077 46.8436 62.037C46.7219 62.0668 46.5955 62.0722 46.4717 62.053C46.3479 62.0339 46.2291 61.9905 46.1221 61.9254C46.015 61.8602 45.9219 61.7746 45.848 61.6735C45.7741 61.5723 45.7208 61.4576 45.6913 61.3359L45.0174 58.5527C44.9877 58.431 44.9823 58.3046 45.0015 58.1808C45.0206 58.057 45.064 57.9381 45.1291 57.8311C45.1942 57.7241 45.2798 57.631 45.381 57.557C45.4821 57.4831 45.5969 57.4299 45.7186 57.4003C45.9646 57.3414 46.2239 57.3823 46.4399 57.5141C46.6558 57.6459 46.8108 57.8577 46.871 58.1034L47.5448 60.8847Z" fill="#00C40A"/>
<path d="M57.2265 77.7987C57.1647 78.0442 57.008 78.2551 56.7909 78.3851C56.5737 78.5151 56.3138 78.5536 56.0683 78.4921C55.8232 78.4299 55.6128 78.273 55.4832 78.0559C55.3535 77.8388 55.3153 77.5792 55.3769 77.3339L56.0761 74.5566C56.1383 74.3115 56.2952 74.101 56.5123 73.9714C56.7294 73.8418 56.989 73.8036 57.2343 73.8652C57.3558 73.8957 57.4701 73.9499 57.5706 74.0247C57.6711 74.0995 57.7559 74.1933 57.8201 74.3009C57.8843 74.4085 57.9267 74.5277 57.9448 74.6516C57.9629 74.7756 57.9564 74.9019 57.9257 75.0234L57.2265 77.7987Z" fill="#00C40A"/>
<path d="M79.6872 72.373C79.5944 72.6087 79.4119 72.7979 79.1797 72.8989C78.9475 73 78.6846 73.0048 78.4489 72.9121C78.2137 72.8193 78.0249 72.6371 77.9238 72.4053C77.8228 72.1736 77.8178 71.9112 77.9098 71.6757L78.9567 69.0117C79.0024 68.8948 79.0708 68.7881 79.1578 68.6978C79.2448 68.6074 79.3489 68.5351 79.4639 68.485C79.579 68.4349 79.7028 68.408 79.8282 68.4059C79.9537 68.4038 80.0783 68.4264 80.195 68.4726C80.4302 68.5654 80.619 68.7476 80.7201 68.9794C80.8211 69.2111 80.8261 69.4735 80.7341 69.7089L79.6872 72.373Z" fill="#00C40A"/>
<path d="M68.2694 42.717C68.3769 42.946 68.3891 43.2082 68.3034 43.4463C68.2177 43.6843 68.0411 43.8786 67.8124 43.9865C67.6991 44.0401 67.5765 44.0708 67.4514 44.0769C67.3262 44.083 67.2012 44.0644 67.0833 44.0221C66.9654 43.9798 66.8569 43.9147 66.7642 43.8305C66.6715 43.7464 66.5962 43.6447 66.5428 43.5314L65.3221 40.9416C65.2683 40.8284 65.2374 40.7057 65.2312 40.5805C65.2249 40.4554 65.2435 40.3302 65.2858 40.2122C65.3281 40.0943 65.3932 39.9858 65.4776 39.8931C65.5619 39.8004 65.6637 39.7253 65.7772 39.6721C65.8904 39.6185 66.0131 39.5878 66.1382 39.5817C66.2633 39.5756 66.3884 39.5942 66.5063 39.6365C66.6242 39.6787 66.7326 39.7438 66.8253 39.828C66.9181 39.9122 66.9933 40.0138 67.0467 40.1271L68.2694 42.717Z" fill="#00C40A"/>
<path d="M64.0153 54.8029C64.1228 55.0319 64.135 55.2942 64.0493 55.5322C63.9637 55.7702 63.7871 55.9645 63.5583 56.0724C63.4451 56.126 63.3224 56.1567 63.1973 56.1628C63.0722 56.1689 62.9471 56.1503 62.8292 56.108C62.7113 56.0658 62.6029 56.0007 62.5101 55.9165C62.4174 55.8323 62.3422 55.7306 62.2888 55.6174L61.068 53.0275C61.0145 52.9143 60.9838 52.7916 60.9777 52.6665C60.9716 52.5414 60.9902 52.4163 61.0325 52.2984C61.0747 52.1805 61.1398 52.0721 61.224 51.9794C61.3082 51.8866 61.4098 51.8114 61.5231 51.758C61.6364 51.7044 61.759 51.6737 61.8841 51.6676C62.0092 51.6615 62.1343 51.6801 62.2522 51.7224C62.3701 51.7647 62.4785 51.8298 62.5713 51.9139C62.664 51.9981 62.7392 52.0998 62.7927 52.2131L64.0153 54.8029Z" fill="#00C40A"/>
<path d="M51.3008 36.535C51.1917 36.7632 50.9968 36.939 50.7585 37.0239C50.5203 37.1088 50.2581 37.0959 50.0293 36.9881C49.8011 36.8791 49.6253 36.6841 49.5404 36.4459C49.4555 36.2076 49.4684 35.9454 49.5762 35.7166L50.8027 33.1307C50.8563 33.0173 50.9318 32.9157 51.0247 32.8315C51.1177 32.7474 51.2263 32.6824 51.3444 32.6403C51.4626 32.5982 51.5878 32.5798 51.713 32.5862C51.8383 32.5926 51.961 32.6237 52.0742 32.6776C52.1875 32.731 52.2891 32.8062 52.3733 32.899C52.4574 32.9918 52.5224 33.1002 52.5645 33.2182C52.6066 33.3362 52.625 33.4613 52.6186 33.5864C52.6122 33.7114 52.5812 33.834 52.5273 33.9471L51.3008 36.535Z" fill="#00C40A"/>
<path d="M75.4802 86.0234C75.6 86.06 75.7114 86.1199 75.808 86.1996C75.9046 86.2794 75.9845 86.3774 76.0431 86.4881C76.1017 86.5988 76.1379 86.72 76.1495 86.8447C76.1612 86.9694 76.1481 87.0952 76.111 87.2148C76.0744 87.3347 76.0146 87.4461 75.9349 87.5428C75.8552 87.6395 75.7572 87.7195 75.6465 87.7783C75.5359 87.8371 75.4147 87.8734 75.29 87.8853C75.1652 87.8973 75.0394 87.8844 74.9196 87.8477L72.1852 87.0059C72.0654 86.9693 71.954 86.9094 71.8574 86.8297C71.7608 86.75 71.6809 86.6519 71.6223 86.5412C71.5637 86.4305 71.5275 86.3093 71.5158 86.1846C71.5042 86.0599 71.5173 85.9341 71.5544 85.8145C71.591 85.6946 71.6508 85.5832 71.7305 85.4865C71.8102 85.3898 71.9082 85.3098 72.0189 85.251C72.1295 85.1922 72.2507 85.1559 72.3754 85.144C72.5002 85.1321 72.626 85.1449 72.7458 85.1816L75.4802 86.0234Z" fill="#00C40A"/>
<path d="M92.5427 55.2911C92.4926 55.4059 92.4204 55.5098 92.3302 55.5967C92.2399 55.6836 92.1334 55.7518 92.0168 55.7975C91.9002 55.8433 91.7756 55.8655 91.6504 55.8631C91.5251 55.8606 91.4016 55.8335 91.2868 55.7833C91.1717 55.7336 91.0674 55.6616 90.9802 55.5715C90.8929 55.4814 90.8244 55.3749 90.7785 55.2582C90.7325 55.1414 90.7101 55.0168 90.7126 54.8914C90.715 54.766 90.7423 54.6423 90.7927 54.5274L91.9353 51.9044C91.9852 51.7894 92.0572 51.6853 92.1474 51.5982C92.2376 51.5111 92.344 51.4427 92.4607 51.3968C92.5773 51.3509 92.7019 51.3284 92.8273 51.3307C92.9526 51.333 93.0762 51.3601 93.1911 51.4102C93.4231 51.5114 93.6053 51.7005 93.698 51.9359C93.7906 52.1714 93.7861 52.434 93.6853 52.6661L92.5427 55.2911Z" fill="#00C40A"/>
<path d="M96.5762 30.7011C96.5762 30.7011 97.0177 27.5878 94.67 27.3808C94.2284 27.4057 93.7987 27.5335 93.4151 27.7539C93.0316 27.9743 92.7049 28.2813 92.461 28.6503C92.461 28.6503 91.2618 26.8066 89.6661 27.2284C89.5603 26.4138 89.2115 25.6499 88.6653 25.0364C88.119 24.4229 87.4005 23.9882 86.6036 23.789C86.6036 23.789 85.9376 20.7245 83.672 21.3476C82.4356 21.6874 82.0372 23.3007 82.0372 23.3007C82.0372 23.3007 80.0841 21.8398 78.7052 23.1054C78.3956 22.2415 77.8085 21.5046 77.0357 21.0099C76.2628 20.5151 75.3478 20.2905 74.4337 20.371C74.4337 20.371 72.795 17.6894 70.8575 19.0312C70.5328 19.3314 70.2828 19.7034 70.1275 20.1175C69.9721 20.5316 69.9158 20.9762 69.963 21.4159C69.963 21.4159 67.129 20.5214 66.5333 22.9062C65.9376 25.2909 66.6817 25.5898 66.6817 25.5898C66.6817 25.5898 64.2969 26.9316 65.1915 28.7148C66.086 30.498 66.9805 30.8007 66.9805 30.8007C66.9805 30.8007 64.4415 32.5898 65.9376 34.5292C67.4337 36.4687 68.3223 36.4667 68.3223 36.4667C68.2688 37.4811 68.5876 38.4802 69.2188 39.2761C69.85 40.072 70.7502 40.61 71.7501 40.789C71.7501 40.789 73.3907 43.7714 75.7755 43.914C76.4449 43.9756 77.12 43.9147 77.7677 43.7343C78.1477 44.9109 78.9727 45.8922 80.0665 46.4687C80.5059 46.6584 80.9642 46.8011 81.4337 46.8945C81.4748 47.9503 81.8966 48.9555 82.6212 49.7245C82.906 50.1047 83.2673 50.421 83.6818 50.6531C84.0962 50.8852 84.5547 51.0281 85.0276 51.0724C85.5006 51.1167 85.9776 51.0616 86.4279 50.9105C86.8783 50.7595 87.2921 50.5158 87.6427 50.1952C88.8477 49.2901 89.8558 48.1491 90.6055 46.8417C90.6055 46.8417 91.4649 46.9706 93.043 45.7597C93.4967 45.4147 93.854 44.9588 94.0805 44.4358C94.3069 43.9128 94.3949 43.3403 94.336 42.7734C94.9549 42.7747 95.5645 42.6223 96.11 42.3298C96.6554 42.0373 97.1197 41.6139 97.461 41.0976C97.8225 40.4328 98.0212 39.6918 98.0409 38.9354C98.0606 38.179 97.9007 37.4287 97.5743 36.746C98.2113 35.8015 98.4627 34.6491 98.2772 33.5251C98.0916 32.4011 97.483 31.3907 96.5762 30.7011Z" fill="#ED9B00"/>
<path d="M75.3907 16.8633C75.3907 16.8633 73.6329 14 71.5743 15.4316C71.2288 15.7516 70.9626 16.1476 70.7969 16.5883C70.6311 17.0291 70.5703 17.5024 70.6192 17.9707C70.6192 17.9707 67.5977 17.0156 66.963 19.5605C66.3282 22.1054 67.1212 22.4219 67.1212 22.4219C67.1212 22.4219 64.5821 23.8535 65.5313 25.7617C66.4805 27.6699 67.4395 27.9883 67.4395 27.9883C67.4395 27.9883 64.7364 29.8965 66.3262 31.9648C67.9161 34.0332 68.8653 34.0312 68.8653 34.0312C68.8083 35.1133 69.1484 36.179 69.8216 37.0281C70.4949 37.8772 71.4549 38.4513 72.5215 38.6426C72.5215 38.6426 74.2794 41.8242 76.8184 41.9824C77.3109 42.1015 77.8228 42.1164 78.3213 42.0259C78.8197 41.9355 79.2938 41.7417 79.713 41.4572C80.1322 41.1727 80.4872 40.8036 80.7553 40.3737C81.0234 39.9438 81.1985 39.4625 81.2696 38.9609C81.6463 37.3978 81.7008 35.7743 81.4298 34.1894C81.4298 34.1894 82.2247 33.7129 82.7012 31.6504C82.8417 31.0586 82.8278 30.4408 82.6609 29.856C82.494 29.2711 82.1797 28.739 81.7481 28.3105C82.257 27.8911 82.654 27.352 82.9035 26.7416C83.153 26.1311 83.2473 25.4683 83.1778 24.8125C83.0242 24.0199 82.6848 23.275 82.1874 22.639C81.69 22.0031 81.0488 21.4942 80.3165 21.1543C80.1987 19.9453 79.6228 18.8271 78.7069 18.0292C77.791 17.2313 76.6044 16.8141 75.3907 16.8633Z" fill="url(#paint5_linear_19_2990)"/>
<path d="M88.3632 20.5213C88.3632 20.5213 87.6601 17.2401 85.2382 17.9061C83.9179 18.2674 83.4941 19.9901 83.4941 19.9901C83.4941 19.9901 80.955 18.0897 79.5175 20.2792C78.08 22.4686 78.7187 23.0331 78.7187 23.0331C78.7187 23.0331 75.8437 23.5409 76.1132 25.6581C76.1234 26.6683 76.5011 27.6403 77.1757 28.3924C77.1757 28.3924 73.9902 29.2967 74.8046 31.7733C75.6191 34.2499 76.5195 34.5663 76.5195 34.5663C76.1081 35.5687 76.0766 36.6868 76.4308 37.7109C76.785 38.7349 77.5005 39.5946 78.4433 40.1288C78.4433 40.1288 79.041 43.7088 81.3886 44.701C81.8133 44.9773 82.291 45.1617 82.7912 45.2424C83.2914 45.323 83.8029 45.2982 84.2929 45.1694C84.7829 45.0407 85.2405 44.8109 85.6364 44.4948C86.0323 44.1786 86.3577 43.7832 86.5917 43.3338C87.4636 41.9831 88.0523 40.4695 88.3222 38.8846C88.3222 38.8846 89.2304 38.6893 90.3652 36.9061C90.6922 36.3935 90.8819 35.8053 90.9161 35.1982C90.9503 34.5912 90.8278 33.9855 90.5605 33.4393C91.18 33.212 91.7335 32.8348 92.1714 32.3412C92.6094 31.8477 92.9182 31.2533 93.0703 30.6112C93.1868 29.8125 93.1125 28.9975 92.8535 28.233C92.5945 27.4684 92.1581 26.7761 91.58 26.2128C91.873 25.0327 91.7029 23.7852 91.1046 22.7267C90.5063 21.6682 89.5253 20.879 88.3632 20.5213Z" fill="url(#paint6_linear_19_2990)"/>
<path d="M98.9999 27.8847C98.9999 27.8847 99.4725 24.5644 96.9667 24.3515C96.4976 24.38 96.0416 24.5174 95.6348 24.7526C95.228 24.9879 94.8816 25.3146 94.6229 25.707C94.6229 25.707 92.8983 23.0468 90.789 24.6054C88.6796 26.164 89.0897 26.914 89.0897 26.914C89.0897 26.914 86.2167 26.3984 85.7382 28.4765C85.4005 29.4274 85.4199 30.4686 85.7929 31.4062C85.7929 31.4062 82.4921 31.1562 82.4042 33.7636C82.3163 36.3711 83.0507 36.9765 83.0507 36.9765C82.3182 37.7757 81.9025 38.8146 81.8817 39.8985C81.8608 40.9823 82.2362 42.0365 82.9374 42.8632C82.9374 42.8632 82.2616 46.4296 84.1229 48.1699C84.4268 48.5755 84.8122 48.913 85.2543 49.1607C85.6964 49.4085 86.1855 49.561 86.69 49.6084C87.1946 49.6559 87.7035 49.5973 88.1841 49.4363C88.6646 49.2753 89.1062 49.0156 89.4804 48.6738C90.7647 47.7075 91.8392 46.4901 92.6386 45.0957C92.6386 45.0957 93.5565 45.2343 95.2401 43.9433C95.7251 43.5763 96.1076 43.0907 96.3508 42.5331C96.594 41.9756 96.6897 41.3649 96.6288 40.7597C97.2887 40.7606 97.9384 40.5978 98.5199 40.2859C99.1014 39.974 99.5965 39.5228 99.9608 38.9726C100.346 38.2632 100.558 37.4726 100.578 36.6656C100.599 35.8587 100.428 35.0583 100.08 34.33C100.758 33.3211 101.023 32.0911 100.822 30.8925C100.621 29.6939 99.9694 28.6176 98.9999 27.8847Z" fill="url(#paint7_linear_19_2990)"/>
<defs>
<linearGradient id="paint0_linear_19_2990" x1="44.7519" y1="85.791" x2="78.9316" y2="43.3105" gradientUnits="userSpaceOnUse">
<stop offset="0.043" stop-color="#FFF566"/>
<stop offset="1" stop-color="#FFCA1F"/>
</linearGradient>
<linearGradient id="paint1_linear_19_2990" x1="51.1619" y1="45.5234" x2="59.4314" y2="45.5234" gradientUnits="userSpaceOnUse">
<stop offset="0.065" stop-color="#00C40A"/>
<stop offset="1" stop-color="#21FF2D"/>
</linearGradient>
<linearGradient id="paint2_linear_19_2990" x1="39.2051" y1="67.5117" x2="46.5195" y2="67.5117" gradientUnits="userSpaceOnUse">
<stop offset="0.065" stop-color="#00C40A"/>
<stop offset="1" stop-color="#00950A"/>
</linearGradient>
<linearGradient id="paint3_linear_19_2990" x1="75.3828" y1="80.1543" x2="83.9688" y2="80.1543" gradientUnits="userSpaceOnUse">
<stop offset="0.065" stop-color="#00C40A"/>
<stop offset="1" stop-color="#21FF2D"/>
</linearGradient>
<linearGradient id="paint4_linear_19_2990" x1="77.6875" y1="54.7109" x2="85.957" y2="54.7109" gradientUnits="userSpaceOnUse">
<stop offset="0.065" stop-color="#00C40A"/>
<stop offset="1" stop-color="#21FF2D"/>
</linearGradient>
<linearGradient id="paint5_linear_19_2990" x1="71.5391" y1="20.2187" x2="78.0489" y2="36.6582" gradientUnits="userSpaceOnUse">
<stop offset="0.065" stop-color="#00C40A"/>
<stop offset="1" stop-color="#00950A"/>
</linearGradient>
<linearGradient id="paint6_linear_19_2990" x1="83.6386" y1="44.7928" x2="84.1269" y2="21.1913" gradientUnits="userSpaceOnUse">
<stop offset="0.065" stop-color="#00C40A"/>
<stop offset="1" stop-color="#21FF2D"/>
</linearGradient>
<linearGradient id="paint7_linear_19_2990" x1="96.2558" y1="25.914" x2="85.6776" y2="47.2363" gradientUnits="userSpaceOnUse">
<stop stop-color="#56FF4A"/>
<stop offset="1" stop-color="#21FF2D"/>
</linearGradient>
</defs>
</svg>
