<svg width="67" height="123" viewBox="0 0 67 123" fill="none" xmlns="http://www.w3.org/2000/svg">
<path d="M9.82031 84.9629L8.10938 57.5938H58.8906L57.1797 84.9629L55.9609 104.469L55.2129 116.432C55.084 118.49 53.3769 120.094 51.3144 120.094H15.6855C13.623 120.094 11.916 118.49 11.7871 116.432L11.0391 104.469L9.82031 84.9629Z" fill="#FCD770"/>
<path d="M8.35352 61.5H58.6465L58.8906 57.5938H8.10938L8.35352 61.5Z" fill="#FFC729"/>
<path d="M28.3887 30.25L33.5859 5.99414C33.9727 4.19336 35.5645 2.90625 37.4062 2.90625H58.8906V10.7188H40.5645L36.3789 30.25L35.4531 32.2031H27.6406L28.3887 30.25Z" fill="#CF9E76"/>
<path d="M36.3789 30.25L37.2148 26.3516C37.1484 26.3516 37.084 26.3438 37.0195 26.3438H29.9805C29.7246 26.3438 29.4727 26.3711 29.2168 26.377L28.3887 30.25L27.6406 32.2031H35.4531L36.3789 30.25Z" fill="#B27946"/>
<path d="M60.8438 49.7812C58.5723 38.4238 48.6016 30.25 37.0195 30.25H29.9805C18.3984 30.25 8.42773 38.4238 6.15625 49.7812H60.8438Z" fill="#E6E9ED"/>
<path d="M4.20312 49.7812H62.7969C63.875 49.7812 64.75 50.6562 64.75 51.7344V55.6406C64.75 56.7188 63.875 57.5938 62.7969 57.5938H4.20312C3.125 57.5938 2.25 56.7188 2.25 55.6406V51.7344C2.25 50.6562 3.125 49.7812 4.20312 49.7812Z" fill="#E6E9ED"/>
<path d="M33.5 104.469C43.2081 104.469 51.0781 96.5988 51.0781 86.8906C51.0781 77.1825 43.2081 69.3125 33.5 69.3125C23.7919 69.3125 15.9219 77.1825 15.9219 86.8906C15.9219 96.5988 23.7919 104.469 33.5 104.469Z" fill="#FFEAA7"/>
<path d="M6.15625 49.7812H60.8438C60.5742 48.4297 60.1875 47.127 59.709 45.875H7.29101C6.8125 47.127 6.42578 48.4297 6.15625 49.7812Z" fill="#CCD1D9"/>
<path d="M31.5469 104.469H56.9375C59.0957 104.469 60.8438 102.721 60.8438 100.562V88.8438C60.8438 86.6855 59.0957 84.9375 56.9375 84.9375H41.3125L33.5 92.75L31.5469 94.7031V104.469Z" fill="#DFB28B"/>
<path d="M35.8555 90.3945L33.5 92.75L31.5469 94.7031V104.469H48.5195L35.8555 90.3945Z" fill="#CF9E76"/>
<path d="M43.2656 104.469L25.6875 84.9375H10.0625C7.9043 84.9375 6.15625 86.6855 6.15625 88.8438V100.562C6.15625 102.721 7.9043 104.469 10.0625 104.469H43.2656Z" fill="#DFB28B"/>
<path d="M62.7969 47.8281H62.3711C59.4961 36.9902 49.9551 29.1289 38.7773 28.375L42.1445 12.6719H60.8438V0.953125H37.4062C34.6602 0.953125 32.25 2.90234 31.6758 5.58594L26.7617 28.5195C16.2207 29.8301 7.37695 37.4648 4.62695 47.8281H4.20312C2.04883 47.8281 0.296875 49.5801 0.296875 51.7344V55.6406C0.296875 57.7949 2.04883 59.5469 4.20312 59.5469H6.27539L7.76953 83.4531C5.67578 84.3477 4.20312 86.4258 4.20312 88.8438V100.562C4.20312 103.498 6.37891 105.912 9.19922 106.334L9.83789 116.551C10.0273 119.635 12.5977 122.047 15.6855 122.047H51.3144C54.4023 122.047 56.9707 119.635 57.1621 116.555L57.8008 106.336C60.6211 105.912 62.7969 103.498 62.7969 100.562V88.8438C62.7969 86.4258 61.3242 84.3477 59.2305 83.4531L60.7246 59.5469H62.7969C64.9512 59.5469 66.7031 57.7949 66.7031 55.6406V51.7344C66.7031 49.5801 64.9512 47.8281 62.7969 47.8281ZM35.4941 6.40234C35.6875 5.50977 36.4902 4.85938 37.4062 4.85938H56.9375V8.76562H38.9863L34.8027 28.2969H30.8047L35.4941 6.40234ZM29.9805 32.2031H37.0195C46.8184 32.2031 55.4102 38.6484 58.3125 47.8281H8.6875C11.5898 38.6484 20.1836 32.2031 29.9805 32.2031ZM8.10938 100.562V88.8438C8.10938 87.7656 8.98438 86.8906 10.0625 86.8906H24.8184L38.8809 102.516H10.0625C8.98438 102.516 8.10938 101.641 8.10938 100.562ZM18.0527 82.9844C19.1426 76.3711 25.6445 71.2656 33.5 71.2656C41.3555 71.2656 47.8574 76.3711 48.9473 82.9844H40.5039L33.1641 90.3242L26.5566 82.9844H18.0527ZM51.3144 118.141H15.6855C14.6562 118.141 13.7988 117.338 13.7363 116.309L13.1172 106.422H53.8809L53.2637 116.311C53.2012 117.338 52.3437 118.141 51.3144 118.141ZM58.8906 100.562C58.8906 101.641 58.0156 102.516 56.9375 102.516H44.1348L35.7793 93.2324L42.1211 86.8906H56.9375C58.0156 86.8906 58.8906 87.7656 58.8906 88.8438V100.562ZM55.3457 82.9844H52.9023C51.8184 74.209 43.5332 67.3594 33.5 67.3594C23.4668 67.3594 15.1816 74.209 14.0977 82.9844H11.6543L10.1895 59.5469H56.8125L55.3457 82.9844ZM62.7969 55.6406H60.9688H6.03125H4.20312L4.20117 51.7344H62.7969V55.6406Z" fill="black"/>
</svg>
