<svg width="45" height="45" viewBox="0 0 45 45" fill="none" xmlns="http://www.w3.org/2000/svg">
<g clip-path="url(#clip0_19_3172)">
<path fill-rule="evenodd" clip-rule="evenodd" d="M22.414 44.9998L22.4342 44.9999H22.4272L22.414 44.9998ZM22.5728 44.9999H22.5658L22.586 44.9998L22.5728 44.9999ZM22.3453 44.9995L22.367 44.9996H22.3545L22.3453 44.9995ZM22.6455 44.9996H22.633L22.6547 44.9995L22.6455 44.9996ZM22.279 44.9989L22.2935 44.999L22.2819 44.9989H22.279ZM22.7181 44.9989L22.7065 44.999L22.721 44.9989H22.7181ZM22.7907 44.9981L22.7856 44.9982L22.8052 44.998L22.7907 44.9981ZM22.1948 44.998L22.2144 44.9982L22.2093 44.9981L22.1948 44.998ZM22.8632 44.9971L22.8513 44.9973L22.8755 44.9969L22.8632 44.9971ZM22.1245 44.9969L22.1487 44.9973L22.1368 44.9971L22.1245 44.9969ZM22.9356 44.9959L22.9196 44.9961L22.9419 44.9957L22.9356 44.9959ZM22.0581 44.9957L22.0804 44.9961L22.0644 44.9959L22.0581 44.9957ZM21.9757 44.994L21.9955 44.9945L21.992 44.9944L21.9757 44.994ZM23.008 44.9944L23.0045 44.9945L23.0243 44.994L23.008 44.9944ZM21.9035 44.9922L21.9306 44.9929L21.9197 44.9926L21.9035 44.9922ZM23.0803 44.9926L23.0694 44.9929L23.0965 44.9922L23.0803 44.9926ZM23.1527 44.9907L23.135 44.9912L23.1628 44.9904L23.1527 44.9907ZM21.8372 44.9904L21.865 44.9912L21.8473 44.9907L21.8372 44.9904ZM21.7739 44.9885L21.7937 44.9891L21.7751 44.9885L21.758 44.988L21.7739 44.9885ZM23.2249 44.9885L23.2063 44.9891L23.2261 44.9885L23.242 44.988L23.2249 44.9885ZM23.2971 44.9861L23.2872 44.9865L23.3176 44.9854L23.2971 44.9861ZM21.6824 44.9854L21.7128 44.9865L21.7029 44.9861L21.6824 44.9854ZM21.6166 44.9829L21.6484 44.9841L21.6308 44.9835L21.6166 44.9829ZM23.3692 44.9835L23.3516 44.9841L23.3834 44.9829L23.3692 44.9835ZM21.552 44.9803L21.5831 44.9816L21.5588 44.9807L21.552 44.9803ZM23.4412 44.9807L23.4169 44.9816L23.448 44.9803L23.4412 44.9807ZM21.4615 44.9764L21.4949 44.9778L21.4867 44.9776L21.4615 44.9764ZM23.5133 44.9776L23.5051 44.9778L23.5385 44.9764L23.5133 44.9776ZM21.3965 44.9734L21.4312 44.9749L21.4148 44.9742L21.3965 44.9734ZM23.5852 44.9742L23.5688 44.9749L23.6035 44.9734L23.5852 44.9742ZM21.3325 44.9701L21.3674 44.9719L21.3429 44.9707L21.3325 44.9701ZM23.6571 44.9707L23.6326 44.9719L23.6674 44.9701L23.6571 44.9707ZM23.729 44.9669L23.6972 44.9686L23.7254 44.9671L23.7586 44.9653L23.729 44.9669ZM21.2746 44.9671L21.3028 44.9686L21.271 44.9669L21.2414 44.9653L21.2746 44.9671ZM23.8007 44.9629L23.7866 44.9637L23.8223 44.9617L23.8007 44.9629ZM21.1777 44.9617L21.2134 44.9637L21.1993 44.9629L21.1777 44.9617ZM21.1142 44.9579L21.1498 44.96L21.1276 44.9588L21.1142 44.9579ZM23.8724 44.9588L23.8502 44.96L23.8858 44.9579L23.8724 44.9588ZM21.0537 44.9541L21.0858 44.9561L21.0559 44.9543L21.0258 44.9524L21.0537 44.9541ZM23.9441 44.9543L23.9142 44.9561L23.9463 44.9541L23.9742 44.9524L23.9441 44.9543ZM24.0157 44.9496L24.0049 44.9503L24.039 44.9481L24.0157 44.9496ZM20.961 44.9481L20.995 44.9503L20.9843 44.9496L20.961 44.9481ZM20.8977 44.9437L20.9311 44.946L20.9128 44.9448L20.8977 44.9437ZM24.0872 44.9448L24.0689 44.946L24.1023 44.9437L24.0872 44.9448ZM20.8345 44.9392L20.8651 44.9414L20.8413 44.9397L20.8345 44.9392ZM24.1587 44.9397L24.1349 44.9414L24.1655 44.9392L24.1587 44.9397ZM20.7495 44.9328L20.7764 44.9348L20.7699 44.9343L20.7495 44.9328ZM24.2301 44.9343L24.2236 44.9348L24.2505 44.9328L24.2301 44.9343ZM24.3014 44.9288L24.2886 44.9298L24.3159 44.9276L24.3014 44.9288ZM20.6841 44.9276L20.7114 44.9298L20.6986 44.9288L20.6841 44.9276ZM20.6204 44.9224L20.6436 44.9243L20.6272 44.923L20.6204 44.9224ZM24.3728 44.923L24.3564 44.9243L24.3796 44.9224L24.3728 44.923ZM20.5502 44.9165L20.5572 44.9171L20.556 44.917L20.5502 44.9165ZM24.444 44.917L24.4428 44.9171L24.4498 44.9165L24.444 44.917ZM24.5152 44.9108L24.5088 44.9113L24.5247 44.9099L24.5152 44.9108ZM20.4753 44.9099L20.4912 44.9113L20.4848 44.9108L20.4753 44.9099ZM20.4093 44.9039L20.4212 44.9051L20.4138 44.9044L20.4093 44.9039ZM24.5862 44.9044L24.5788 44.9051L24.5907 44.9039L24.5862 44.9044ZM18.9844 44.7264C8.23368 43.0366 0 33.7222 0 22.5C0 10.0819 10.0819 0 22.5 0C34.9181 0 45 10.0819 45 22.5C45 33.7222 36.7663 43.0366 26.0156 44.7264V29.0039H31.2583L32.2559 22.5H26.0156V18.2794C26.0156 16.5001 26.8873 14.7656 29.6823 14.7656H32.5195V9.22851C32.5195 9.22851 29.9447 8.78906 27.483 8.78906C22.3435 8.78906 18.9844 11.9039 18.9844 17.543V22.5H13.2715V29.0039H18.9844V44.7264Z" fill="black"/>
</g>
<defs>
<clipPath id="clip0_19_3172">
<rect width="45" height="45" fill="white"/>
</clipPath>
</defs>
</svg>
