<svg width="122" height="109" viewBox="0 0 122 109" fill="none" xmlns="http://www.w3.org/2000/svg">
<path d="M61.4844 108.508C91.188 108.508 115.268 84.4283 115.268 54.7246C115.268 25.021 91.188 0.941406 61.4844 0.941406C31.7807 0.941406 7.70117 25.021 7.70117 54.7246C7.70117 84.4283 31.7807 108.508 61.4844 108.508Z" fill="#AF8756"/>
<path d="M61.6094 100.736C86.9864 100.736 107.559 80.1642 107.559 54.7871C107.559 29.4101 86.9864 8.83789 61.6094 8.83789C36.2323 8.83789 15.6602 29.4101 15.6602 54.7871C15.6602 80.1642 36.2323 100.736 61.6094 100.736Z" fill="#89643D"/>
<path d="M10.7775 44.2559C10.7775 44.2559 1.10954 43.1856 0.953289 54.0782C0.775555 66.7559 11.8478 64.9708 11.8478 64.9708L10.7775 44.2559Z" fill="#AF8756"/>
<path d="M111.891 66.2483C111.891 66.2483 121.559 67.3186 121.711 56.428C121.891 43.7483 110.818 45.5334 110.818 45.5334L111.891 66.2483Z" fill="#AF8756"/>
<path d="M70.6113 52.748C71.2154 52.748 71.7051 52.2584 71.7051 51.6543C71.7051 51.0502 71.2154 50.5605 70.6113 50.5605C70.0073 50.5605 69.5176 51.0502 69.5176 51.6543C69.5176 52.2584 70.0073 52.748 70.6113 52.748Z" fill="#FFD7A3"/>
<path d="M26.2814 49.3359C26.2814 49.3359 24.2482 45.418 27.1388 44.082C30.0294 42.7461 30.4845 44.125 30.4845 44.125C30.4845 44.125 26.8888 39.959 28.6564 37.4629C30.0181 35.7023 31.6226 34.1439 33.422 32.834C33.422 32.834 30.8576 32.9141 32.5119 30.0742C34.1661 27.2344 38.5138 26.9492 38.5138 26.9492C38.2549 26.6857 38.0729 26.3565 37.9874 25.9971C37.9018 25.6378 37.916 25.2619 38.0283 24.91C38.1406 24.5581 38.3469 24.2435 38.6249 24.0002C38.9028 23.7569 39.2419 23.5941 39.6056 23.5293C42.6115 22.5391 44.0822 25.873 44.0822 25.873C43.7743 25.5553 43.5364 25.1765 43.3837 24.7612C43.231 24.346 43.1669 23.9033 43.1956 23.4618C43.2243 23.0202 43.3451 22.5896 43.5503 22.1976C43.7555 21.8055 44.0404 21.4608 44.3869 21.1855C45.2541 20.5252 46.2926 20.1278 47.3791 20.0406C48.4656 19.9533 49.5543 20.1799 50.5158 20.6934C50.5158 20.6934 51.3888 17.7285 52.7247 17.2891C54.0607 16.8496 59.2169 21.2637 59.2169 21.2637C60.2755 20.0636 61.6672 19.2056 63.215 18.7988C65.3322 18.4824 66.2345 20.0977 65.8009 22.1504C66.845 21.3854 68.0518 20.872 69.327 20.6504C70.6023 20.4289 71.9115 20.5051 73.1525 20.873C75.3958 21.566 77.3214 23.0308 78.588 25.0078C78.9881 24.6954 79.4462 24.4656 79.9358 24.3316C80.4254 24.1976 80.9367 24.162 81.4401 24.2271C81.9435 24.2921 82.429 24.4564 82.8685 24.7105C83.3079 24.9645 83.6926 25.3032 84.0001 25.707C85.7147 27.7101 87.137 29.9458 88.2247 32.3477C88.2247 32.3477 99.4064 37.0723 100.242 45.7812C101.038 46.5393 101.659 47.4623 102.061 48.4857C102.462 49.5091 102.635 50.6079 102.567 51.7051C102.567 51.7051 104.817 54.5957 103.324 56.8066C101.832 59.0176 102.6 56.8555 102.6 56.8555C102.6 56.8555 104.026 61.7383 101.871 64.7422C99.7169 67.7461 94.3673 68.3672 94.3673 68.3672C94.3673 68.3672 98.5802 73.2852 96.9298 76.6973C96.6986 77.1525 96.3768 77.5556 95.984 77.8818C95.5912 78.208 95.1358 78.4504 94.6458 78.594C94.1559 78.7376 93.6417 78.7794 93.135 78.7169C92.6283 78.6544 92.1397 78.4889 91.6993 78.2305C91.6993 78.2305 93.0372 78.3633 91.6525 79.7754C90.6258 80.7209 89.416 81.4455 88.0978 81.9043L86.3946 85.7148C86.3946 85.7148 86.3419 86.1055 84.2247 86.4316C84.2247 86.4316 84.9122 89.0723 79.6271 91.0059C79.1402 91.7291 78.4632 92.3039 77.6706 92.6671C76.878 93.0303 76.0006 93.1678 75.1349 93.0644C75.1349 93.0644 72.922 95.8984 68.006 94.4609C68.006 94.4609 60.6779 99.1719 57.5724 93.123C57.5724 93.123 54.131 95.5957 52.2736 92.7676C52.2736 92.7676 49.9298 94.1113 48.9279 92.7246C48.9279 92.7246 43.4591 92.4238 43.3751 87.6738C43.3751 87.6738 41.1603 89.9336 40.1935 87.0019C40.1935 87.0019 34.7911 88.0195 33.0783 81.7031L32.6622 77.6348C32.6622 77.6348 29.7677 78.3984 29.59 76.7363C29.5546 76.2662 29.6923 75.7994 29.9772 75.4238C30.2622 75.0483 30.6746 74.7898 31.1368 74.6973C31.1368 74.6973 25.8322 73.1973 27.756 68.9297L29.6447 67.9238C28.7527 67.1397 28.0983 66.1213 27.7559 64.9841C27.4134 63.8469 27.3965 62.6365 27.7072 61.4902C27.7072 61.4902 20.8595 55.9023 26.2814 49.3359Z" fill="#FFE9CC"/>
<path d="M37.9121 48.8924C36.6133 49.3338 35.5293 49.5779 34.9043 50.9471C34.3691 52.119 34.375 53.6248 36.0762 53.6072C35.457 54.7108 34.043 55.5799 33.9648 56.9276C33.8672 58.6209 35.3828 58.6971 36.4316 59.4432C35.2969 60.451 33.248 62.3143 33.166 63.9354C33.2321 64.6223 33.4417 65.2877 33.7813 65.8885C34.5625 67.0858 35.0996 66.5311 36.125 67.1131C35.4727 68.5701 34.2578 71.0662 35.1289 72.6736C36.0859 74.4412 38.7617 73.7088 39.8652 72.7401C40.4668 74.3201 41.3926 73.7889 42.4961 73.9412C44.334 74.1932 44.7305 74.4783 44.9238 72.4451C44.9492 72.1658 44.6445 71.2147 44.7285 71.0779C45.1348 70.3983 47.2676 70.7225 48.0879 70.6873C49.2227 70.6404 51.7031 70.826 52.6309 69.8748C53.6934 68.785 52.6309 67.283 53.0215 66.2303C53.6465 64.492 57.0566 64.3514 58.418 62.6815C59.8945 60.8709 60.3809 55.7029 56.9375 57.1229C57.7031 55.7889 57.1328 54.1365 55.3262 54.4666C55.2559 50.4764 51.166 51.8748 49.0312 53.0174C48.797 51.2441 47.9986 49.5931 46.7539 48.3084C45.6777 47.3065 44.7617 47.3924 43.6641 46.9959C43.1426 46.6779 42.5592 46.4748 41.953 46.4C41.3468 46.3252 40.7316 46.3806 40.1484 46.5623C39.153 46.7607 38.2011 47.1358 37.3379 47.6697" fill="#FFF7ED"/>
<path d="M43.2051 79.2481C43.4668 80.5938 43.5606 81.7012 44.8301 82.5059C45.9239 83.1973 47.4122 83.3965 47.627 81.7129C48.6348 82.4786 49.3028 83.9981 50.6211 84.252C52.2852 84.5801 52.5743 83.0801 53.4493 82.1524C54.293 83.4122 55.8614 85.6973 57.4473 85.9981C58.1384 86.0263 58.8277 85.9092 59.4708 85.6543C60.7637 85.0411 60.2891 84.4356 61.0059 83.5059C62.3594 84.3516 64.668 85.8946 66.377 85.252C68.2579 84.543 67.8985 81.793 67.0899 80.5645C68.7364 80.1836 68.336 79.1973 68.6368 78.1211C69.1387 76.334 69.4747 75.9727 67.4864 75.5118C67.2129 75.4493 66.2286 75.6211 66.1192 75.5254C65.5001 75.0293 66.1192 72.959 66.1915 72.1426C66.3008 71.0118 66.8223 68.5801 65.9961 67.5313C65.0625 66.3301 63.4317 67.1739 62.4395 66.6543C60.8028 65.7989 61.129 62.3985 59.6602 60.8243C58.0665 59.1133 53.0196 57.9278 53.9512 61.5333C52.7325 60.5919 51.0215 60.9473 51.1016 62.7657C47.1387 62.293 47.9649 66.5352 48.8067 68.8047C47.0176 68.7958 45.273 69.3621 43.8301 70.42C42.6915 71.3497 42.6583 72.2676 42.1094 73.3008C41.7242 73.7739 41.4439 74.3235 41.287 74.913C41.1301 75.5026 41.1002 76.1188 41.1993 76.7208C41.262 77.732 41.5041 78.724 41.9141 79.6504" fill="#FFF7ED"/>
<path d="M74.0004 60.9454C74.2602 62.2911 74.3539 63.3985 75.6254 64.2032C76.7172 64.8946 78.2055 65.0938 78.4203 63.4102C79.4301 64.1758 80.098 65.6954 81.4144 65.9493C83.0785 66.2774 83.3676 64.7774 84.2445 63.8497C85.0883 65.1094 86.6547 67.3946 88.2426 67.6954C88.9337 67.7234 89.6229 67.6063 90.266 67.3516C91.559 66.7383 91.0824 66.1329 91.7992 65.2032C93.1527 66.0489 95.4613 67.5918 97.1723 66.9493C99.0531 66.2403 98.6918 63.4903 97.8832 62.2618C99.5316 61.8809 99.1293 60.8946 99.432 59.8184C99.932 58.0313 100.27 57.67 98.2797 57.209C98.0082 57.1465 97.0219 57.3184 96.9125 57.2227C96.2953 56.7266 96.9125 54.6563 96.9848 53.8399C97.0941 52.709 97.6156 50.2754 96.7992 49.2286C95.8637 48.0274 94.2328 48.8711 93.2406 48.3516C91.6059 47.4961 91.9301 44.0958 90.4613 42.5215C88.8695 40.8106 83.8207 39.6251 84.7523 43.2305C83.5355 42.2891 81.8226 42.6446 81.9027 44.4629C77.9398 43.9903 78.7777 48.2325 79.6098 50.502C77.8204 50.4933 76.0754 51.0588 74.6312 52.1153C73.4926 53.0469 73.4594 53.9649 72.9105 54.9981C72.5257 55.4714 72.2457 56.021 72.0892 56.6105C71.9326 57.2001 71.903 57.8162 72.0023 58.418C72.0651 59.4292 72.3071 60.4212 72.7172 61.3477" fill="#FFF7ED"/>
<path d="M43.1408 62.578C43.1408 62.578 39.2111 60.8631 40.3908 57.994C40.4676 57.6476 40.6416 57.3303 40.8923 57.0793C41.1431 56.8284 41.4602 56.6541 41.8065 56.577C42.1528 56.4999 42.5139 56.5232 42.8475 56.6441C43.181 56.765 43.4732 56.9785 43.6896 57.2596C43.6237 56.9918 43.6172 56.7128 43.6707 56.4423C43.7242 56.1717 43.8364 55.9162 43.9993 55.6937C44.1623 55.4712 44.372 55.2871 44.6138 55.1544C44.8555 55.0217 45.1234 54.9436 45.3986 54.9256C47.5803 54.5604 47.3049 57.4842 47.3049 57.4842C47.3049 57.4842 50.1271 56.8983 50.0139 58.7166C49.856 59.93 49.2898 61.0535 48.4084 61.9022C48.4084 61.9022 51.8029 64.6776 49.6721 66.2674C49.0335 66.695 48.2672 66.8895 47.5021 66.8184C46.7369 66.7473 46.0196 66.4147 45.4709 65.8768C45.4709 65.8768 40.885 67.037 43.1408 62.578Z" fill="white"/>
<path d="M55.6752 74.024C56.6894 73.6895 57.2521 72.6319 56.9321 71.6618C56.6121 70.6917 55.5306 70.1765 54.5165 70.511C53.5023 70.8455 52.9396 71.9031 53.2596 72.8732C53.5795 73.8433 54.6611 74.3586 55.6752 74.024Z" fill="white"/>
<path d="M54.3376 76.414C55.3517 76.0795 55.938 75.0933 55.6471 74.2113C55.3562 73.3293 54.2982 72.8855 53.284 73.22C52.2699 73.5545 51.6836 74.5407 51.9745 75.4227C52.2654 76.3047 53.3234 76.7485 54.3376 76.414Z" fill="white"/>
<path d="M58.5231 77.4256C59.8682 76.9819 60.6046 75.5494 60.1681 74.2259C59.7315 72.9023 58.2873 72.1891 56.9422 72.6327C55.5972 73.0764 54.8607 74.509 55.2973 75.8325C55.7339 77.156 57.1781 77.8693 58.5231 77.4256Z" fill="white"/>
<path d="M59.2819 73.2796C60.627 72.836 61.3634 71.4034 60.9269 70.0799C60.4903 68.7563 59.046 68.0431 57.701 68.4867C56.356 68.9304 55.6195 70.363 56.0561 71.6865C56.4926 73.01 57.9369 73.7233 59.2819 73.2796Z" fill="white"/>
<path d="M53.7834 72.5234C53.8277 72.6613 53.8445 72.8066 53.8327 72.9509C53.8209 73.0952 53.7807 73.2358 53.7145 73.3646C53.6483 73.4934 53.5573 73.6079 53.4468 73.7015C53.3363 73.7951 53.2084 73.866 53.0705 73.9102C52.9337 73.9613 52.7879 73.9839 52.642 73.9766C52.4961 73.9693 52.3533 73.9322 52.2223 73.8676C52.0913 73.8031 51.9749 73.7123 51.8802 73.6011C51.7856 73.4898 51.7148 73.3604 51.672 73.2207C51.4767 72.3711 51.797 71.6582 52.3849 71.834C52.9728 72.0098 53.5939 71.9512 53.7834 72.5234Z" fill="white"/>
<path d="M89.8993 56.7135C90.9135 56.379 91.4762 55.3214 91.1562 54.3513C90.8363 53.3812 89.7547 52.8659 88.7406 53.2005C87.7264 53.535 87.1637 54.5926 87.4837 55.5627C87.8037 56.5328 88.8852 57.048 89.8993 56.7135Z" fill="white"/>
<path d="M88.5632 59.103C89.5773 58.7685 90.1636 57.7823 89.8727 56.9003C89.5817 56.0183 88.5238 55.5744 87.5096 55.909C86.4955 56.2435 85.9092 57.2297 86.2001 58.1117C86.491 58.9937 87.549 59.4375 88.5632 59.103Z" fill="white"/>
<path d="M92.7492 60.1146C94.0942 59.6709 94.8307 58.2383 94.3941 56.9148C93.9576 55.5913 92.5133 54.878 91.1683 55.3217C89.8233 55.7653 89.0868 57.1979 89.5234 58.5214C89.9599 59.845 91.4042 60.5582 92.7492 60.1146Z" fill="white"/>
<path d="M93.508 55.9686C94.853 55.5249 95.5895 54.0923 95.1529 52.7688C94.7164 51.4453 93.2721 50.732 91.9271 51.1757C90.5821 51.6193 89.8456 53.0519 90.2822 54.3754C90.7187 55.699 92.163 56.4122 93.508 55.9686Z" fill="white"/>
<path d="M87.2958 56.6014C87.8787 56.4091 88.1978 55.7882 88.0086 55.2145C87.8194 54.6409 87.1935 54.3317 86.6106 54.524C86.0277 54.7162 85.7086 55.3371 85.8978 55.9108C86.087 56.4844 86.7129 56.7936 87.2958 56.6014Z" fill="white"/>
<path d="M90.6411 54.2561C91.7843 53.8791 92.4103 52.6615 92.0393 51.5368C91.6683 50.412 90.4408 49.8059 89.2975 50.1829C88.1543 50.56 87.5283 51.7775 87.8993 52.9023C88.2703 54.0271 89.4978 54.6332 90.6411 54.2561Z" fill="white"/>
<path d="M50.0645 42.3027C51.1323 42.3027 51.998 41.437 51.998 40.3691C51.998 39.3012 51.1323 38.4355 50.0645 38.4355C48.9966 38.4355 48.1309 39.3012 48.1309 40.3691C48.1309 41.437 48.9966 42.3027 50.0645 42.3027Z" fill="#FFD7A3"/>
<path d="M66.3175 46.9609C67.2876 46.6409 67.8029 45.5593 67.4683 44.5452C67.1338 43.531 66.0762 42.9683 65.1061 43.2883C64.136 43.6083 63.6208 44.6898 63.9553 45.704C64.2898 46.7181 65.3474 47.2808 66.3175 46.9609Z" fill="#FFD7A3"/>
<path d="M68.4663 91.0562C69.3483 90.7653 69.8157 89.7788 69.5103 88.8527C69.2048 87.9267 68.2422 87.4118 67.3602 87.7027C66.4782 87.9936 66.0108 88.9802 66.3163 89.9063C66.6217 90.8323 67.5843 91.3472 68.4663 91.0562Z" fill="#FFD7A3"/>
<path d="M85.4844 76.3008C86.645 76.3008 87.5859 75.3599 87.5859 74.1992C87.5859 73.0386 86.645 72.0977 85.4844 72.0977C84.3237 72.0977 83.3828 73.0386 83.3828 74.1992C83.3828 75.3599 84.3237 76.3008 85.4844 76.3008Z" fill="#FFD7A3"/>
<path d="M37.7637 80.2109C38.5533 80.2109 39.1934 79.5708 39.1934 78.7812C39.1934 77.9917 38.5533 77.3516 37.7637 77.3516C36.9741 77.3516 36.334 77.9917 36.334 78.7812C36.334 79.5708 36.9741 80.2109 37.7637 80.2109Z" fill="#FFD7A3"/>
<path d="M39.0059 40.8359C39.8418 40.8359 40.5195 40.1582 40.5195 39.3223C40.5195 38.4863 39.8418 37.8086 39.0059 37.8086C38.1699 37.8086 37.4922 38.4863 37.4922 39.3223C37.4922 40.1582 38.1699 40.8359 39.0059 40.8359Z" fill="#FFD7A3"/>
<path d="M68.4355 70.1816C70.1539 70.1816 71.5469 68.7887 71.5469 67.0703C71.5469 65.352 70.1539 63.959 68.4355 63.959C66.7172 63.959 65.3242 65.352 65.3242 67.0703C65.3242 68.7887 66.7172 70.1816 68.4355 70.1816Z" fill="#FFD7A3"/>
<path d="M66.7676 74.6895C67.8355 74.6895 68.7012 73.8238 68.7012 72.7559C68.7012 71.688 67.8355 70.8223 66.7676 70.8223C65.6997 70.8223 64.834 71.688 64.834 72.7559C64.834 73.8238 65.6997 74.6895 66.7676 74.6895Z" fill="#FFD7A3"/>
<path d="M66.7773 71.5137C67.7061 71.5137 68.459 70.7608 68.459 69.832C68.459 68.9033 67.7061 68.1504 66.7773 68.1504C65.8486 68.1504 65.0957 68.9033 65.0957 69.832C65.0957 70.7608 65.8486 71.5137 66.7773 71.5137Z" fill="#FFD7A3"/>
<path d="M77.0879 73.9473C78.1094 73.9473 78.9375 73.1192 78.9375 72.0977C78.9375 71.0761 78.1094 70.248 77.0879 70.248C76.0664 70.248 75.2383 71.0761 75.2383 72.0977C75.2383 73.1192 76.0664 73.9473 77.0879 73.9473Z" fill="#FFD7A3"/>
<path d="M61.7969 65.6953C62.9575 65.6953 63.8984 64.7544 63.8984 63.5937C63.8984 62.4331 62.9575 61.4922 61.7969 61.4922C60.6362 61.4922 59.6953 62.4331 59.6953 63.5937C59.6953 64.7544 60.6362 65.6953 61.7969 65.6953Z" fill="#FFD7A3"/>
<path d="M49.8164 35.877C50.4205 35.877 50.9102 35.3873 50.9102 34.7832C50.9102 34.1791 50.4205 33.6895 49.8164 33.6895C49.2123 33.6895 48.7227 34.1791 48.7227 34.7832C48.7227 35.3873 49.2123 35.877 49.8164 35.877Z" fill="#FFD7A3"/>
<path d="M34.3906 69.6074C35.4111 69.6074 36.2383 68.7802 36.2383 67.7598C36.2383 66.7393 35.4111 65.9121 34.3906 65.9121C33.3702 65.9121 32.543 66.7393 32.543 67.7598C32.543 68.7802 33.3702 69.6074 34.3906 69.6074Z" fill="#FFD7A3"/>
<path d="M84.3457 48.0508C84.857 48.0508 85.2715 47.6363 85.2715 47.125C85.2715 46.6137 84.857 46.1992 84.3457 46.1992C83.8344 46.1992 83.4199 46.6137 83.4199 47.125C83.4199 47.6363 83.8344 48.0508 84.3457 48.0508Z" fill="white"/>
<path d="M58.2402 62.5098C58.7051 62.5098 59.082 62.1329 59.082 61.668C59.082 61.2031 58.7051 60.8262 58.2402 60.8262C57.7753 60.8262 57.3984 61.2031 57.3984 61.668C57.3984 62.1329 57.7753 62.5098 58.2402 62.5098Z" fill="#FFD7A3"/>
<path d="M74.3262 88.8945C74.8839 88.8945 75.3359 88.4424 75.3359 87.8848C75.3359 87.3271 74.8839 86.875 74.3262 86.875C73.7685 86.875 73.3164 87.3271 73.3164 87.8848C73.3164 88.4424 73.7685 88.8945 74.3262 88.8945Z" fill="#FFD7A3"/>
<path d="M50.2852 89.3809C50.8892 89.3809 51.3789 88.8912 51.3789 88.2871C51.3789 87.6831 50.8892 87.1934 50.2852 87.1934C49.6811 87.1934 49.1914 87.6831 49.1914 88.2871C49.1914 88.8912 49.6811 89.3809 50.2852 89.3809Z" fill="#FFD7A3"/>
<path d="M58.6777 42.1719C59.189 42.1719 59.6035 41.7574 59.6035 41.2461C59.6035 40.7348 59.189 40.3203 58.6777 40.3203C58.1664 40.3203 57.752 40.7348 57.752 41.2461C57.752 41.7574 58.1664 42.1719 58.6777 42.1719Z" fill="#FFD7A3"/>
<path d="M30.4512 54.3164C30.9625 54.3164 31.377 53.9019 31.377 53.3906C31.377 52.8793 30.9625 52.4648 30.4512 52.4648C29.9399 52.4648 29.5254 52.8793 29.5254 53.3906C29.5254 53.9019 29.9399 54.3164 30.4512 54.3164Z" fill="#FFD7A3"/>
<path d="M65.1074 60.4238C65.5249 60.4238 65.8633 60.0854 65.8633 59.668C65.8633 59.2505 65.5249 58.9121 65.1074 58.9121C64.69 58.9121 64.3516 59.2505 64.3516 59.668C64.3516 60.0854 64.69 60.4238 65.1074 60.4238Z" fill="#FFD7A3"/>
<path d="M60.6367 71.5706H60.5976C60.3401 71.53 60.077 71.5406 59.8236 71.6018C59.5702 71.663 59.3313 71.7736 59.1206 71.9273C58.91 72.0809 58.7318 72.2747 58.5961 72.4973C58.4604 72.72 58.37 72.9672 58.33 73.2249L55.2324 95.3811C55.1921 95.6386 55.2029 95.9016 55.2642 96.1549C55.3255 96.4082 55.4361 96.647 55.5898 96.8576C55.7434 97.0682 55.937 97.2464 56.1595 97.3822C56.3821 97.5179 56.6291 97.6085 56.8867 97.6487L57.0546 97.676C57.3146 97.7164 57.5799 97.7047 57.8353 97.6417C58.0907 97.5787 58.331 97.4656 58.5423 97.309C58.7536 97.1524 58.9317 96.9554 59.0663 96.7293C59.2008 96.5033 59.2892 96.2528 59.3261 95.9924L62.2949 73.8088C62.3678 73.2927 62.2348 72.7687 61.9245 72.3498C61.6142 71.931 61.1516 71.6511 60.6367 71.5706Z" fill="#FF5900"/>
<path d="M60.7855 72.8846H60.7601C60.4426 72.8351 60.1184 72.9137 59.8588 73.103C59.5992 73.2923 59.4253 73.5769 59.3753 73.8943L56.8128 92.6248C56.7633 92.9425 56.8418 93.2669 57.0311 93.5268C57.2204 93.7868 57.505 93.9611 57.8226 94.0115L57.9261 94.0271C58.085 94.0518 58.2472 94.0446 58.4033 94.006C58.5594 93.9675 58.7063 93.8983 58.8355 93.8026C58.9646 93.7069 59.0735 93.5864 59.1558 93.4483C59.2381 93.3101 59.2921 93.157 59.3148 92.9979L61.7952 74.2479C61.8391 73.9336 61.7578 73.6148 61.569 73.3598C61.3802 73.1049 61.0988 72.9342 60.7855 72.8846Z" fill="#FF8800"/>
<path d="M66.5784 71.3633H66.5393C66.2797 71.3873 66.0274 71.4622 65.7968 71.5838C65.5662 71.7054 65.3618 71.8712 65.1952 72.0718C65.0287 72.2724 64.9034 72.5039 64.8264 72.753C64.7493 73.002 64.7222 73.2638 64.7464 73.5234L67.1839 95.7715C67.2079 96.031 67.2828 96.2832 67.4044 96.5138C67.526 96.7443 67.6919 96.9486 67.8925 97.1149C68.0932 97.2813 68.3247 97.4064 68.5737 97.4832C68.8228 97.56 69.0845 97.587 69.344 97.5625L69.5139 97.5469C69.7758 97.5222 70.0302 97.4458 70.2623 97.3221C70.4945 97.1984 70.6997 97.0298 70.8661 96.8261C71.0326 96.6224 71.1569 96.3877 71.2319 96.1356C71.3069 95.8835 71.3311 95.6189 71.303 95.3574L68.7268 73.125C68.6706 72.6086 68.4141 72.1348 68.0124 71.8054C67.6107 71.476 67.0958 71.3173 66.5784 71.3633Z" fill="#FF5900"/>
<path d="M67.0375 72.6014H67.0121C66.8537 72.6161 66.6997 72.6619 66.559 72.7361C66.4183 72.8103 66.2936 72.9116 66.1921 73.034C66.0905 73.1564 66.014 73.2977 65.9671 73.4497C65.9201 73.6016 65.9035 73.7614 65.9183 73.9198L68.0394 92.7089C68.0541 92.8675 68.1 93.0217 68.1743 93.1626C68.2486 93.3036 68.35 93.4285 68.4726 93.5303C68.5952 93.632 68.7366 93.7086 68.8889 93.7557C69.0411 93.8027 69.2011 93.8194 69.3597 93.8046L69.4633 93.7948C69.6233 93.7797 69.7787 93.733 69.9205 93.6573C70.0624 93.5817 70.1878 93.4787 70.2895 93.3542C70.3912 93.2298 70.4673 93.0864 70.5132 92.9324C70.5591 92.7783 70.574 92.6167 70.557 92.4569L68.3558 73.6776C68.3213 73.3611 68.1637 73.0708 67.9171 72.8695C67.6704 72.6682 67.3545 72.5719 67.0375 72.6014Z" fill="#FF8800"/>
<path d="M71.3183 69.9959H71.2793C70.7587 70.0731 70.2901 70.354 69.9765 70.7766C69.663 71.1993 69.5302 71.7293 69.6074 72.2499L73.2461 94.3436C73.3233 94.8642 73.6041 95.3328 74.0268 95.6463C74.4495 95.9599 74.9794 96.0926 75.5 96.0155L75.6699 95.9901C75.93 95.9516 76.1798 95.8617 76.4049 95.7258C76.63 95.5899 76.8258 95.4106 76.981 95.1983C77.1362 94.9861 77.2477 94.7451 77.309 94.4894C77.3702 94.2337 77.38 93.9684 77.3379 93.7088L73.5683 71.6385C73.4847 71.1238 73.2016 70.6629 72.7805 70.3554C72.3593 70.048 71.834 69.9188 71.3183 69.9959Z" fill="#FF5900"/>
<path d="M71.8515 71.2069H71.8281C71.512 71.2542 71.2274 71.4244 71.0362 71.6804C70.8449 71.9364 70.7624 72.2575 70.8066 72.574L73.9316 91.2225C73.9785 91.5387 74.1485 91.8236 74.4046 92.015C74.6608 92.2064 74.9822 92.2887 75.2988 92.244L75.4023 92.2283C75.5613 92.2048 75.714 92.1499 75.8516 92.0668C75.9892 91.9837 76.1089 91.8741 76.2038 91.7444C76.2986 91.6146 76.3668 91.4673 76.4042 91.311C76.4416 91.1547 76.4476 90.9925 76.4218 90.8338L73.2187 72.2108C73.1672 71.8979 72.9953 71.6177 72.7398 71.4301C72.4842 71.2424 72.1654 71.1623 71.8515 71.2069Z" fill="#FF8800"/>
<path d="M74.2675 68.4082L74.2304 68.4199C73.7296 68.5811 73.3133 68.9346 73.073 69.4027C72.8327 69.8708 72.7882 70.4151 72.9492 70.916L80.1503 92.1035C80.2299 92.3517 80.3577 92.5817 80.5262 92.7804C80.6948 92.9791 80.9009 93.1427 81.1327 93.2617C81.3646 93.3807 81.6176 93.4528 81.8773 93.4739C82.1371 93.4951 82.3984 93.4648 82.6464 93.3848L82.8105 93.334C83.0608 93.2531 83.2926 93.1234 83.4923 92.9523C83.6921 92.7811 83.8558 92.572 83.9741 92.3371C84.0924 92.1021 84.1628 91.846 84.1814 91.5837C84.1999 91.3213 84.1661 91.0578 84.082 90.8086L76.7558 69.6602C76.589 69.1662 76.2343 68.7579 75.7686 68.5235C75.3029 68.2892 74.7636 68.2478 74.2675 68.4082Z" fill="#FF5900"/>
<path d="M74.9924 69.5139H74.9689C74.8174 69.5626 74.677 69.6408 74.5557 69.7439C74.4344 69.8469 74.3346 69.9729 74.262 70.1146C74.1895 70.2563 74.1456 70.4109 74.1328 70.5695C74.12 70.7282 74.1387 70.8878 74.1877 71.0393L80.3263 88.924C80.4253 89.2298 80.6414 89.4837 80.9274 89.6302C81.2134 89.7767 81.5458 89.8037 81.8517 89.7053L81.9513 89.6721C82.1045 89.6232 82.2464 89.5444 82.3688 89.4402C82.4912 89.336 82.5917 89.2084 82.6644 89.0651C82.7371 88.9217 82.7806 88.7652 82.7923 88.6049C82.804 88.4446 82.7837 88.2835 82.7326 88.1311L76.5178 70.2697C76.4137 69.9687 76.1954 69.7207 75.9099 69.5792C75.6245 69.4378 75.2949 69.4143 74.9924 69.5139Z" fill="#FF8800"/>
<path d="M63.6994 72.1174H63.6584C63.1337 72.0798 62.6156 72.252 62.2178 72.5963C61.8201 72.9406 61.5753 73.4287 61.5373 73.9533L60.2873 96.2971C60.2497 96.822 60.4219 97.3403 60.7661 97.7384C61.1103 98.1364 61.5984 98.3816 62.1233 98.4201L62.2951 98.4318C62.5575 98.4509 62.821 98.4176 63.0703 98.3338C63.3196 98.2501 63.5498 98.1175 63.7474 97.9439C63.9449 97.7703 64.106 97.5592 64.2212 97.3227C64.3364 97.0862 64.4033 96.8292 64.4182 96.5666L65.5373 74.215C65.5685 73.6939 65.393 73.1815 65.049 72.7889C64.705 72.3963 64.2201 72.155 63.6994 72.1174Z" fill="#FF8800"/>
<path d="M63.9551 73.4139H63.9317C63.7729 73.4022 63.6134 73.4219 63.4622 73.472C63.311 73.522 63.1712 73.6014 63.0508 73.7055C62.9303 73.8096 62.8315 73.9365 62.7602 74.0788C62.6888 74.2212 62.6462 74.3762 62.6348 74.535L61.6348 93.4178C61.6123 93.7386 61.7178 94.0553 61.9283 94.2984C62.1388 94.5415 62.4372 94.6912 62.7579 94.7147H62.8614C63.0218 94.7264 63.183 94.706 63.3355 94.6548C63.488 94.6035 63.6288 94.5225 63.7496 94.4164C63.8705 94.3102 63.9691 94.1811 64.0396 94.0365C64.11 93.8919 64.1511 93.7347 64.1602 93.5741L65.0782 74.6874C65.0949 74.3704 64.9866 74.0594 64.7767 73.8214C64.5667 73.5833 64.2718 73.437 63.9551 73.4139Z" fill="#FFB700"/>
<path d="M77.125 66.6738L77.0918 66.6973C76.6691 66.9696 76.3714 67.3982 76.2638 67.8893C76.1562 68.3805 76.2474 68.8943 76.5175 69.3184L88.5917 85.7129C88.9028 86.1081 89.3576 86.3641 89.8569 86.4248C90.3561 86.4856 90.8591 86.3462 91.2558 86.0371L91.3945 85.9394C91.6057 85.8035 91.7878 85.627 91.9303 85.4202C92.0729 85.2134 92.173 84.9804 92.225 84.7347C92.2769 84.4889 92.2796 84.2353 92.2329 83.9885C92.1863 83.7418 92.0912 83.5067 91.9531 83.2969L79.7734 66.9766C79.4591 66.59 79.0059 66.3419 78.5109 66.2853C78.0159 66.2287 77.5184 66.3682 77.125 66.6738Z" fill="#FF5900"/>
<path d="M78.0841 67.418L78.0626 67.4317C77.8065 67.5999 77.6265 67.8618 77.5611 68.1612C77.4958 68.4605 77.5503 68.7736 77.713 69.0333L87.9591 82.8536C88.151 83.0923 88.4287 83.2463 88.7327 83.2829C89.0368 83.3194 89.3431 83.2354 89.586 83.0489L89.672 82.9883C89.8011 82.9056 89.9126 82.7979 89.9999 82.6717C90.0871 82.5455 90.1484 82.4033 90.1802 82.2532C90.212 82.1031 90.2137 81.9481 90.1851 81.7974C90.1565 81.6467 90.0983 81.5031 90.0138 81.375L79.7013 67.6016C79.508 67.3675 79.2314 67.2175 78.9297 67.1833C78.6281 67.149 78.3249 67.2332 78.0841 67.418Z" fill="#FF8800"/>
<path d="M77.7971 64.9688L77.7717 65C77.4385 65.3763 77.2677 65.869 77.2966 66.3707C77.3255 66.8724 77.5518 67.3423 77.926 67.6778L93.9826 80.2012C94.3884 80.498 94.8953 80.6216 95.3922 80.5451C95.8891 80.4686 96.3353 80.1981 96.633 79.793L96.7404 79.6602C96.9075 79.4726 97.0356 79.2538 97.1173 79.0162C97.1989 78.7787 97.2326 78.5274 97.2162 78.2767C97.1999 78.0261 97.1338 77.7812 97.022 77.5564C96.9101 77.3315 96.7547 77.1311 96.5646 76.9668L80.4279 64.545C80.0211 64.2575 79.5178 64.1408 79.026 64.22C78.5342 64.2993 78.093 64.5681 77.7971 64.9688Z" fill="#FF5900"/>
<path d="M78.9179 65.4374L78.9023 65.455C78.701 65.6861 78.5984 65.9869 78.6163 66.2928C78.6341 66.5988 78.7712 66.8856 78.998 67.0917L92.5976 77.6386C92.8468 77.8173 93.1561 77.8912 93.4592 77.8445C93.7622 77.7977 94.0349 77.634 94.2187 77.3886L94.2851 77.3085C94.4879 77.0753 94.5904 76.7715 94.5703 76.4631C94.5501 76.1548 94.409 75.8668 94.1777 75.662L80.5253 65.1874C80.2771 65.0129 79.971 64.9414 79.6712 64.988C79.3714 65.0347 79.1014 65.1957 78.9179 65.4374Z" fill="#FF8800"/>
<path d="M67.6192 70.3809H67.5801C67.0617 70.4724 66.6009 70.7659 66.2988 71.1969C65.9966 71.6279 65.8779 72.1613 65.9688 72.6797L70.211 94.6524C70.256 94.9091 70.3512 95.1544 70.4912 95.3743C70.6311 95.5942 70.8131 95.7843 71.0266 95.9338C71.2401 96.0833 71.481 96.1892 71.7355 96.2455C71.99 96.3018 72.2531 96.3073 72.5098 96.2618L72.6778 96.2325C72.9369 96.1872 73.1844 96.0907 73.4059 95.9488C73.6274 95.8069 73.8184 95.6223 73.9678 95.4057C74.1173 95.1892 74.2221 94.9452 74.2763 94.6877C74.3304 94.4303 74.3328 94.1647 74.2832 93.9063L69.9121 71.9629C69.8148 71.4507 69.5195 70.9974 69.0904 70.7013C68.6612 70.4052 68.1326 70.2901 67.6192 70.3809Z" fill="#FF8800"/>
<path d="M68.1836 71.576H68.1601C67.8448 71.6335 67.5651 71.8135 67.3822 72.0767C67.1992 72.3398 67.1278 72.6647 67.1836 72.9803L70.8242 91.535C70.8817 91.8503 71.0618 92.1299 71.3249 92.3129C71.588 92.4959 71.9129 92.5673 72.2285 92.5115L72.332 92.492C72.49 92.4638 72.6409 92.4046 72.7758 92.3176C72.9107 92.2306 73.0269 92.1177 73.1178 91.9854C73.2087 91.8531 73.2723 91.704 73.3051 91.5469C73.3378 91.3898 73.339 91.2277 73.3086 91.0701L69.5976 72.5311C69.5357 72.2175 69.3523 71.9411 69.0874 71.7621C68.8225 71.5832 68.4976 71.5163 68.1836 71.576Z" fill="#FFB700"/>
<path d="M74.6937 67.6424L74.6605 67.6638C74.4366 67.7972 74.2411 67.9733 74.0852 68.1822C73.9294 68.3912 73.8162 68.6287 73.7522 68.8814C73.6882 69.134 73.6746 69.3968 73.7121 69.6547C73.7497 69.9126 73.8377 70.1606 73.9711 70.3845L85.7406 89.4177C85.8739 89.6417 86.0501 89.8372 86.2591 89.993C86.468 90.1488 86.7057 90.2619 86.9584 90.3257C87.2111 90.3896 87.4739 90.403 87.7318 90.3651C87.9897 90.3273 88.2376 90.239 88.4613 90.1052L88.6078 90.0193C88.8337 89.8845 89.0305 89.7061 89.1869 89.4946C89.3432 89.2831 89.4561 89.0426 89.5187 88.7871C89.5814 88.5316 89.5928 88.2663 89.552 88.0064C89.5113 87.7465 89.4194 87.4973 89.2816 87.2732L77.3988 68.3064C77.1255 67.8627 76.6885 67.5443 76.1823 67.42C75.6762 67.2958 75.1415 67.3756 74.6937 67.6424Z" fill="#FF8800"/>
<path d="M75.6465 68.5625L75.6251 68.5742C75.3491 68.7391 75.1499 69.0067 75.0711 69.3184C74.9924 69.63 75.0406 69.9602 75.2051 70.2363L85.1973 86.2891C85.3622 86.565 85.6298 86.7643 85.9415 86.843C86.2531 86.9217 86.5833 86.8735 86.8594 86.709L86.9493 86.6563C87.0874 86.574 87.2077 86.4651 87.3034 86.3359C87.399 86.2067 87.468 86.0597 87.5063 85.9036C87.5447 85.7475 87.5516 85.5853 87.5267 85.4265C87.5019 85.2677 87.4456 85.1154 87.3614 84.9785L77.2989 68.9629C77.1309 68.6929 76.8637 68.4996 76.5546 68.4247C76.2456 68.3499 75.9195 68.3993 75.6465 68.5625Z" fill="#FFB700"/>
<path d="M72.8285 71.8516L72.7914 71.8634C72.2888 72.0203 71.8691 72.3703 71.6244 72.8365C71.3798 73.3027 71.3302 73.847 71.4867 74.3497L74.141 82.8634C74.2979 83.3659 74.6479 83.7857 75.1141 84.0303C75.5803 84.275 76.1246 84.3245 76.6273 84.1681L76.7894 84.1173C77.0407 84.039 77.2738 83.9115 77.4753 83.7423C77.6768 83.5731 77.8426 83.3654 77.9631 83.1315C78.0836 82.8976 78.1564 82.6421 78.1772 82.3797C78.198 82.1174 78.1665 81.8536 78.0844 81.6036L75.3051 73.129C75.1425 72.6337 74.7917 72.2222 74.3283 71.9832C73.865 71.7442 73.3263 71.697 72.8285 71.8516Z" fill="#FF8800"/>
<path d="M73.5412 72.965H73.5177C73.2109 73.0612 72.9547 73.2752 72.8057 73.5602C72.6566 73.8451 72.6268 74.1776 72.7228 74.4845L74.3439 79.6857C74.3913 79.8376 74.4682 79.9786 74.5701 80.1008C74.672 80.2229 74.797 80.3238 74.938 80.3976C75.0789 80.4715 75.233 80.5168 75.3915 80.531C75.5499 80.5453 75.7096 80.5281 75.8615 80.4806L75.9611 80.4494C76.1137 80.4007 76.2552 80.3222 76.3773 80.2184C76.4993 80.1147 76.5996 79.9877 76.6723 79.8449C76.745 79.7022 76.7886 79.5464 76.8006 79.3866C76.8126 79.2268 76.7928 79.0663 76.7423 78.9142L75.0451 73.7384C74.9444 73.4391 74.731 73.1908 74.4501 73.0464C74.1693 72.902 73.8432 72.8728 73.5412 72.965Z" fill="#FFAA00"/>
<path d="M54.1252 82.9376L54.0861 82.9279C53.5738 82.8078 53.0348 82.8961 52.5876 83.1733C52.1404 83.4506 51.8216 83.8941 51.7014 84.4064L49.6603 93.088C49.6006 93.3417 49.5913 93.6047 49.6332 93.8619C49.675 94.1191 49.7671 94.3656 49.9043 94.5872C50.0414 94.8089 50.2208 95.0013 50.4323 95.1536C50.6438 95.3059 50.8832 95.415 51.1369 95.4747L51.3049 95.5138C51.5611 95.5738 51.8266 95.5822 52.0861 95.5387C52.3456 95.4951 52.5938 95.4005 52.8164 95.2602C53.039 95.1199 53.2315 94.9368 53.3828 94.7215C53.534 94.5062 53.641 94.263 53.6974 94.006L55.6096 85.2951C55.7214 84.7859 55.6283 84.2532 55.3506 83.8121C55.0728 83.371 54.6327 83.0569 54.1252 82.9376Z" fill="#FF8800"/>
<path d="M54.1741 84.2598H54.1507C53.9957 84.223 53.835 84.2171 53.6778 84.2426C53.5206 84.2681 53.37 84.3244 53.2346 84.4082C53.0992 84.492 52.9817 84.6018 52.8889 84.7312C52.7961 84.8606 52.7297 85.007 52.6936 85.1621L51.4456 90.4649C51.3723 90.778 51.4261 91.1074 51.5952 91.3809C51.7644 91.6543 52.035 91.8496 52.3479 91.9239L52.4495 91.9473C52.606 91.9839 52.7682 91.9891 52.9267 91.9626C53.0853 91.9361 53.237 91.8784 53.373 91.7928C53.5091 91.7073 53.6268 91.5955 53.7194 91.4642C53.812 91.3328 53.8776 91.1843 53.9124 91.0274L55.0842 85.7051C55.1543 85.3928 55.0979 85.0655 54.9274 84.7947C54.7568 84.5238 54.486 84.3315 54.1741 84.2598Z" fill="#FFAA00"/>
<path d="M88.1057 68.6896L88.094 68.7286C88.0061 68.9748 87.9678 69.2359 87.9811 69.497C87.9945 69.758 88.0593 70.0139 88.1718 70.2498C88.2843 70.4857 88.4423 70.6971 88.6368 70.8718C88.8312 71.0465 89.0583 71.181 89.3049 71.2677L97.717 74.2267C97.9633 74.3145 98.2246 74.3527 98.4857 74.3392C98.7468 74.3258 99.0027 74.2608 99.2387 74.1481C99.4746 74.0354 99.686 73.8771 99.8606 73.6825C100.035 73.4878 100.17 73.2606 100.256 73.0138L100.313 72.8517C100.4 72.6036 100.437 72.3407 100.422 72.0781C100.407 71.8156 100.34 71.5587 100.224 71.3224C100.109 71.0861 99.9477 70.8751 99.7499 70.7017C99.5521 70.5284 99.3219 70.3961 99.0725 70.3126L90.6018 67.4688C90.1087 67.3056 89.5713 67.3419 89.1048 67.5701C88.6382 67.7983 88.2795 68.2001 88.1057 68.6896Z" fill="#FF8800"/>
<path d="M89.4298 68.7853V68.8068C89.3229 69.1101 89.3408 69.4434 89.4797 69.7335C89.6185 70.0236 89.8668 70.2466 90.17 70.3537L95.3087 72.1642C95.612 72.2711 95.9453 72.2532 96.2354 72.1144C96.5255 71.9755 96.7486 71.7272 96.8556 71.424L96.8888 71.3244C96.9422 71.173 96.965 71.0125 96.9558 70.8522C96.9467 70.692 96.9057 70.5351 96.8354 70.3908C96.7651 70.2465 96.6667 70.1176 96.5461 70.0116C96.4255 69.9057 96.2851 69.8248 96.1329 69.7736L90.9669 68.0373C90.6638 67.9338 90.3321 67.9543 90.0442 68.0945C89.7562 68.2346 89.5354 68.4829 89.4298 68.7853Z" fill="#FFAA00"/>
<path d="M105.369 59.6854C105.369 59.6854 89.4924 68.5174 78.5432 61.7713C67.594 55.0252 80.6233 54.6503 81.5764 57.7967C82.5295 60.9432 87.6311 61.4842 90.9924 60.9432C94.3537 60.4022 98.9201 58.8534 99.7639 56.9198C100.608 54.9862 110.719 53.2284 105.369 59.6854Z" fill="#351207"/>
<path d="M104.512 54.5782C104.512 54.5782 93.0624 64.5274 82.955 60.9024C72.8476 57.2774 83.4277 54.7266 84.748 57.1329C86.0683 59.5391 90.33 59.1036 92.9824 58.0821C95.6347 57.0606 99.0995 55.0079 99.455 53.2852C99.8105 51.5626 107.768 48.3829 104.512 54.5782Z" fill="#4A190A"/>
<path d="M103.883 63.0548C103.883 63.0548 92.9769 70.1349 87.5335 64.3341C82.0901 58.5333 89.928 58.4415 89.9886 61.0763C90.0491 63.7111 93.0042 64.2501 95.098 63.8575C97.1917 63.465 100.176 62.2521 100.985 60.6564C101.793 59.0607 108.112 57.7716 103.883 63.0548Z" fill="#6B240E"/>
<path d="M105.904 54.8635C105.904 54.8635 92.3673 61.9143 83.3262 55.9982C74.2852 50.0822 85.2384 50.0647 85.9669 52.7287C86.6954 55.3928 90.9669 55.965 93.8028 55.5881C96.6388 55.2111 100.508 54.0158 101.26 52.4123C102.012 50.8088 110.545 49.5647 105.904 54.8635Z" fill="#6B240E"/>
<path d="M102.135 45.9259C102.135 45.9259 84.789 40.5216 75.4472 49.3615C66.1054 58.2013 78.9375 55.9064 79.2285 52.633C79.5195 49.3595 84.4043 47.7872 87.8047 47.631C91.205 47.4747 95.9922 48.0587 97.2109 49.7794C98.4297 51.5001 108.689 51.1564 102.135 45.9259Z" fill="#351207"/>
<path d="M100.838 51.3554C100.838 51.3554 88.7149 46.6503 84.5704 53.4413C80.4258 60.2324 88.1192 58.7148 87.6387 56.1288C87.1583 53.5429 89.9434 52.4062 92.0743 52.3652C94.2051 52.3241 97.3653 52.9003 98.4903 54.2949C99.6153 55.6894 106.065 55.6718 100.838 51.3554Z" fill="#963314"/>
<path d="M70.6603 24.8733C70.6603 24.8733 65.7032 12.4924 55.8692 13.1076C46.0353 13.7229 47.756 19.594 48.1778 20.9533C49.2482 24.3947 54.1153 27.799 56.2071 29.8498C58.2989 31.9006 57.3966 36.6467 60.2696 38.9592C63.1427 41.2717 75.6349 38.9807 70.6603 24.8733Z" fill="#E8786F"/>
<path d="M48.5881 15.8848C48.5881 15.8848 50.4123 14.1387 50.9885 14.127C49.9023 14.9044 49.1672 16.0794 48.9429 17.3962C48.7187 18.713 49.0236 20.0651 49.7912 21.1582C52.6506 25.1016 56.9924 27.7637 58.6271 30.0488C60.2619 32.334 58.5334 38.0566 64.3615 39.6602C63.7599 39.8654 63.1217 39.9406 62.4889 39.8808C61.8561 39.821 61.2431 39.6277 60.6906 39.3135C60.1381 38.9993 59.6585 38.5714 59.2836 38.0581C58.9087 37.5448 58.647 36.9579 58.5158 36.3359C57.3752 31.5703 57.2482 30.3066 54.0607 28.0937C50.8732 25.8809 45.006 20.2363 48.5881 15.8848Z" fill="#E86358"/>
<path d="M48.0117 17.2852C48.0117 17.2852 56.9629 18.9668 60.1016 22.1289C63.2402 25.291 64.1797 32.8711 67.7734 38.4531C68.1444 38.264 68.4902 38.0291 68.8027 37.7539C67.6601 35.9558 66.7832 34.002 66.1992 31.9531C64.8203 27.7793 63.7246 21.748 56.5352 19.3164C49.3457 16.8848 49.2949 16.0645 49.2949 16.0645L48.0117 17.2852Z" fill="#E86358"/>
<path d="M57.5527 13.1328C57.5527 13.1328 63.8437 16.4805 65.8809 21.5527C67.918 26.625 67.3223 32.1133 70.7227 35.4473L71.1016 34.623C71.1016 34.623 67.9453 30.252 68.5312 27.6563C69.1172 25.0605 68.3086 18.207 59.1562 13.334L57.5527 13.1328Z" fill="#E86358"/>
<path opacity="0.53" d="M61.3047 22.1172C63.3771 24.415 64.8179 27.2112 65.4863 30.2324C65.9888 32.965 67.1261 35.5414 68.8066 37.7539L69.0625 37.4043C67.5874 35.172 66.5115 32.7003 65.8828 30.0996C65.2428 27.0203 63.6394 24.2246 61.3047 22.1172Z" fill="#FFE399"/>
<path d="M53.7366 26.0683C53.7366 26.0683 43.3069 17.7558 35.0628 23.1543C26.8186 28.5527 31.2171 32.8027 32.2561 33.7754C34.889 36.2383 40.803 36.791 43.635 37.539C46.4671 38.2871 48.0276 42.8613 51.6682 43.4512C55.3089 44.041 65.0354 35.8711 53.7366 26.0683Z" fill="#E8786F"/>
<path d="M30.1076 29.168C30.1076 29.168 30.8303 26.75 31.3264 26.459C30.7665 27.6724 30.7087 29.0579 31.1656 30.3138C31.6225 31.5696 32.5571 32.5941 33.7658 33.1641C38.2014 35.1777 43.2912 35.3438 45.842 36.5234C48.3928 37.7031 49.715 43.5234 55.5783 42.043C55.156 42.5189 54.6373 42.8997 54.0567 43.1602C53.4761 43.4206 52.8468 43.5547 52.2105 43.5536C51.5741 43.5525 50.9453 43.4162 50.3656 43.1537C49.7859 42.8913 49.2685 42.5087 48.8479 42.0312C45.5002 38.4531 44.7639 37.416 40.8986 37.0684C37.0334 36.7207 29.1447 34.7207 30.1076 29.168Z" fill="#E86358"/>
<path d="M30.2988 30.6718C30.2988 30.6718 38.9102 27.7069 43.2031 28.9042C47.4961 30.1015 52.0605 36.2323 57.9414 39.3026C58.1706 38.9541 58.355 38.5781 58.4902 38.1835C56.6072 37.1862 54.8784 35.9218 53.3574 34.4296C50.0957 31.4843 46.1621 26.7831 38.709 28.2226C31.2559 29.662 30.8086 28.9765 30.8086 28.9765L30.2988 30.6718Z" fill="#E86358"/>
<path d="M36.5391 22.3435C36.5391 22.3435 43.6621 22.1482 47.9395 25.5466C52.2168 28.9451 54.4141 34.0115 59.0176 35.2283L58.9414 34.324C58.9414 34.324 54.041 32.0818 53.2617 29.5408C52.4824 26.9998 48.3945 21.4373 38.0273 21.7283L36.5391 22.3435Z" fill="#E86358"/>
<path opacity="0.53" d="M44.2461 28.2949C47.1837 29.2678 49.8184 30.9867 51.8926 33.2832C53.6784 35.4095 55.9382 37.0873 58.4902 38.1816L58.5391 37.7539C56.1534 36.5418 53.9964 34.9247 52.1641 32.9746C50.0879 30.6144 47.315 28.9755 44.2461 28.2949Z" fill="#FFE399"/>
<path d="M39.5217 35.4904C39.5217 35.4904 26.3049 33.715 22.0021 42.5803C17.6994 51.4455 23.6584 52.8342 25.049 53.1271C28.5646 53.8889 33.9318 51.3264 36.7463 50.5139C39.5607 49.7014 43.2482 52.8225 46.676 51.4592C50.1037 50.0959 54.2521 38.0939 39.5217 35.4904Z" fill="#E8786F"/>
<path d="M20.8379 50.2852C20.5558 49.3283 20.4402 48.33 20.4961 47.334C20.6409 48.6606 21.3032 49.8764 22.3393 50.7175C23.3753 51.5586 24.7013 51.957 26.0293 51.8262C30.8691 51.2754 35.3223 48.8047 38.1152 48.5059C40.9082 48.207 45.0352 52.5234 49.3047 48.2422C49.1868 48.8676 48.9374 49.4608 48.573 49.9825C48.2086 50.5043 47.7375 50.9426 47.1909 51.2686C46.6443 51.5945 46.0346 51.8006 45.4024 51.8731C44.7701 51.9457 44.1297 51.8831 43.5234 51.6895C38.8145 50.3379 37.6504 49.8262 34.1484 51.5137C30.6465 53.2012 22.8652 55.5449 20.8379 50.2852Z" fill="#E86358"/>
<path d="M21.7754 51.4764C21.7754 51.4764 27.6348 44.5096 31.9316 43.3318C36.2285 42.1541 43.2969 45.0701 49.918 44.6834C49.9354 44.2673 49.9006 43.8506 49.8145 43.4432C47.6866 43.5541 45.5538 43.3567 43.4824 42.8572C39.1719 42.0037 33.3809 39.992 27.7285 45.0545C22.0762 50.117 21.3359 49.7576 21.3359 49.7576L21.7754 51.4764Z" fill="#E86358"/>
<path d="M22.8535 41.1269C22.8535 41.1269 28.8633 37.2968 34.2812 38.0195C39.6992 38.7422 44.1855 41.957 48.7578 40.6367L48.2285 39.9004C48.2285 39.9004 42.873 40.4863 40.8984 38.7129C38.9238 36.9394 32.5605 34.2597 23.8145 39.8339L22.8535 41.1269Z" fill="#E86358"/>
<path opacity="0.53" d="M32.5234 42.2733C35.5439 41.601 38.6871 41.7228 41.6465 42.6268C44.2704 43.5345 47.0707 43.8141 49.8223 43.4432L49.6445 43.0526C46.9755 43.2389 44.2943 42.96 41.7207 42.2284C38.7279 41.2668 35.5067 41.2826 32.5234 42.2733Z" fill="#FFE399"/>
<path d="M77.4906 42.1718C77.4906 42.1718 69.557 37.4101 72.1195 31.5507C74.682 25.6913 71.9984 25.203 73.0961 22.5175C74.1938 19.8319 87.2563 17.8788 90.7973 25.0819C94.3383 32.2851 93.4828 32.5273 98.1215 34.8476C102.76 37.1679 106.911 43.1483 95.9242 43.2694C84.9379 43.3905 84.2055 47.787 77.4906 42.1718Z" fill="#730F00"/>
<path d="M72.2426 34.8479C71.963 33.4212 72.1557 31.9424 72.7914 30.635C73.5381 28.6294 73.8095 26.478 73.5844 24.3498C73.7074 23.0061 74.8051 21.0529 76.6371 22.5178C78.4691 23.9826 76.2699 30.2092 76.2699 34.4807C76.2699 38.7522 81.5199 41.5607 84.5707 41.5607C87.6215 41.5607 93.3598 40.7072 93.9711 41.8049C94.5824 42.9025 85.4262 44.3693 83.7777 44.4904C81.1195 44.6877 73.5844 41.0725 72.2426 34.8479Z" fill="#540B00"/>
<path d="M97.5099 38.0214C97.5099 38.0214 88.965 39.7304 88.1115 36.5566C87.258 33.3828 88.1115 31.3066 87.1349 28.0117C86.1584 24.7167 88.5998 23.9824 89.6974 25.6914C90.7951 27.4003 91.7736 32.7714 94.9474 33.9921C98.1213 35.2128 101.051 37.7773 97.5099 38.0214Z" fill="#9C1400"/>
<path d="M64.1855 71.4297C73.8322 71.4297 81.6523 63.9602 81.6523 54.7461C81.6523 45.532 73.8322 38.0625 64.1855 38.0625C54.5389 38.0625 46.7188 45.532 46.7188 54.7461C46.7188 63.9602 54.5389 71.4297 64.1855 71.4297Z" fill="url(#paint0_radial_19_2814)"/>
<path d="M70.5647 54.7459C70.6253 50.7888 67.219 46.7595 64.2913 44.8181L64.1858 44.7498C60.637 42.4529 63.7952 35.0369 73.598 42.1677C83.4007 49.2986 81.4651 60.7224 76.887 65.1228C72.8284 69.0134 70.4339 63.4842 70.5647 54.7459Z" fill="#FFC95C"/>
<path d="M49.1464 56.3436C48.8781 55.3167 48.9912 54.2272 49.4648 53.2772C49.7441 52.7675 50.0996 52.496 50.4882 53.1542C51.371 54.6542 51.7499 59.1464 54.5585 62.996C57.3671 66.8456 54.2187 65.7772 52.5234 62.996C50.9667 61.0251 49.8186 58.7636 49.1464 56.3436Z" fill="#FFB870"/>
<path d="M71.5743 44.7501C71.3307 44.4372 71.21 44.0458 71.2352 43.65C71.2604 43.2542 71.4297 42.8813 71.711 42.6017C72.7364 41.5744 75.5294 43.5607 74.9845 45.1134C74.4395 46.6662 72.8868 47.1173 71.5743 44.7501Z" fill="#FFEDDB"/>
<path d="M40.2112 49.4629C40.2112 49.4629 42.0042 47.5976 38.4339 47.4687C34.8636 47.3398 35.8323 48.9766 35.8323 48.9766C35.8323 48.9766 37.3772 46.0332 34.8655 47.3398C33.2489 48.3584 32.0976 49.9719 31.6605 51.832C31.6605 51.832 31.5218 47.7871 28.0687 50.1269C27.6106 50.3529 27.2068 50.6752 26.8849 51.0717C26.563 51.4682 26.3306 51.9295 26.2035 52.4242C26.0765 52.9189 26.0578 53.4352 26.1488 53.9377C26.2398 54.4403 26.4383 54.9172 26.7308 55.3359C26.7308 55.3359 25.4319 57.1797 24.5335 57.0234C23.6351 56.8672 23.9476 59.4258 23.9476 59.4258L23.053 61.4473C23.053 61.4473 22.8362 64.0742 24.6976 64.834C26.5589 65.5937 21.1292 64.7051 20.9866 66.0976C20.844 67.4902 23.6937 68.7578 23.6937 68.7578C23.6937 68.7578 20.7308 68.8965 22.9339 71.5644C23.6816 72.3741 24.5872 73.022 25.595 73.4681C26.6027 73.9142 27.6912 74.1491 28.7933 74.1582L27.0667 75.3301C27.0667 75.3301 28.7776 78.0215 29.6526 77.6836C30.5276 77.3457 30.4339 79.7246 31.5647 80.4629C32.6956 81.2012 34.6897 79.4258 34.6897 79.4258C34.6897 79.4258 36.8265 82.7891 38.5335 83.3027C40.2405 83.8164 41.1605 81.3887 41.1605 81.3887C41.1605 81.3887 42.0335 81.9492 43.8714 81.0703C45.7093 80.1914 47.1214 82.8086 48.5335 79.1738C49.9456 75.539 47.0296 76.666 47.0296 76.666C47.0296 76.666 50.303 78.1738 50.5452 76.4394C50.7874 74.7051 48.0413 72.9238 48.0413 72.9238C48.0413 72.9238 51.9476 74.0742 51.4144 70.9375C51.3533 70.1196 51.0687 69.3342 50.5917 68.667C50.1146 67.9999 49.4635 67.4766 48.7093 67.1543C48.7093 67.1543 49.2796 66.0605 49.6858 65.1562C50.0921 64.2519 47.5843 62.5762 47.5843 62.5762C47.5843 62.5762 48.0042 63.6914 47.3733 60.9336C46.8379 59.1455 45.6284 57.6355 44.0003 56.7226C44.0003 56.7226 46.1077 55.2383 45.4319 53.4883C44.7562 51.7383 41.2991 51.9004 41.2991 51.9004C41.2991 51.9004 46.1292 49.1836 40.2112 49.4629Z" fill="#009C08"/>
<path d="M36.5472 50.3338C36.5511 50.4861 36.5249 50.6376 36.4702 50.7798C36.4154 50.9219 36.3332 51.0519 36.2281 51.1622C36.1231 51.2725 35.9973 51.361 35.858 51.4226C35.7187 51.4842 35.5686 51.5178 35.4163 51.5213C35.2641 51.5252 35.1125 51.499 34.9704 51.4443C34.8283 51.3895 34.6983 51.3073 34.588 51.2022C34.4777 51.0972 34.3892 50.9714 34.3276 50.8321C34.2659 50.6928 34.2324 50.5427 34.2288 50.3905L34.1429 46.912C34.1393 46.7596 34.1657 46.608 34.2207 46.4659C34.2756 46.3237 34.3581 46.1938 34.4633 46.0835C34.5685 45.9732 34.6944 45.8847 34.8338 45.8231C34.9732 45.7615 35.1234 45.728 35.2757 45.7245C35.5831 45.7171 35.8808 45.8321 36.1035 46.0441C36.3262 46.2562 36.4555 46.5479 36.4632 46.8553L36.5472 50.3338Z" fill="#00C40A"/>
<path d="M39.0723 51.7109C38.8359 51.9551 38.2715 51.791 37.8125 51.3437C37.3516 50.8984 37.1719 50.3379 37.4082 50.0957L38.6934 48.7715C38.9297 48.5293 39.4941 48.6933 39.9531 49.1406C40.4121 49.5859 40.5938 50.1445 40.3574 50.3886L39.0723 51.7109Z" fill="#00C40A"/>
<path d="M35.8577 50.5939C36.0412 50.7867 36.1434 51.0426 36.1434 51.3087C36.1434 51.5748 36.0412 51.8308 35.8577 52.0236C35.734 52.259 35.5245 52.4379 35.2724 52.523C35.0204 52.6081 34.7453 52.5929 34.5042 52.4806L32.4632 51.0236C32.2802 50.8305 32.1782 50.5747 32.1782 50.3087C32.1782 50.0427 32.2802 49.7869 32.4632 49.5939C32.5869 49.3584 32.7965 49.1795 33.0485 49.0944C33.3005 49.0093 33.5756 49.0245 33.8167 49.1368L35.8577 50.5939Z" fill="#1CFF28"/>
<path d="M25.3302 60.6153C25.5615 60.8172 25.7044 61.1017 25.7281 61.4077C25.7519 61.7138 25.6546 62.017 25.4571 62.2521C25.2571 62.4855 24.9725 62.63 24.666 62.6538C24.3595 62.6776 24.0561 62.5788 23.8224 62.379L21.1778 60.1192C21.0618 60.0203 20.9664 59.8995 20.8972 59.7636C20.8279 59.6278 20.7861 59.4796 20.7741 59.3276C20.7621 59.1756 20.7802 59.0227 20.8274 58.8777C20.8745 58.7327 20.9498 58.5984 21.0489 58.4825C21.2507 58.2512 21.5353 58.1083 21.8413 58.0846C22.1474 58.0608 22.4506 58.1581 22.6856 58.3556L25.3302 60.6153Z" fill="#00C40A"/>
<path d="M28.0413 59.6583C28.0648 59.9962 27.5648 60.3068 26.9261 60.3497C26.2874 60.3927 25.7542 60.1544 25.7269 59.8165L25.6019 57.9767C25.5784 57.6368 26.0784 57.3282 26.7171 57.2833C27.3558 57.2404 27.889 57.4786 27.9163 57.8185L28.0413 59.6583Z" fill="#00C40A"/>
<path d="M25.0586 61.2986C25.5097 61.199 25.9883 61.6248 26.1269 62.2498C26.2186 62.4995 26.2112 62.7749 26.1062 63.0193C26.0013 63.2638 25.8067 63.4588 25.5625 63.5643L23.1152 64.1092C22.664 64.2088 22.1875 63.783 22.0469 63.158C21.9082 62.533 22.1601 61.9432 22.6113 61.8436L25.0586 61.2986Z" fill="#1CFF28"/>
<path d="M31.5922 67.3339C31.597 67.6411 31.4809 67.9378 31.269 68.1603C31.0572 68.3828 30.7664 68.5131 30.4594 68.5233C30.307 68.527 30.1554 68.5005 30.0133 68.4456C29.8711 68.3906 29.7412 68.3082 29.6309 68.203C29.5206 68.0978 29.4322 67.9719 29.3706 67.8325C29.3089 67.6931 29.2754 67.5429 29.2719 67.3905L29.1879 63.912C29.184 63.7597 29.2102 63.6082 29.2649 63.466C29.3197 63.3239 29.4019 63.194 29.507 63.0837C29.612 62.9734 29.7378 62.8849 29.8771 62.8232C30.0164 62.7616 30.1665 62.728 30.3187 62.7245C30.471 62.7206 30.6225 62.7468 30.7647 62.8015C30.9068 62.8563 31.0368 62.9385 31.1471 63.0436C31.2574 63.1486 31.3459 63.2744 31.4075 63.4137C31.4691 63.553 31.5027 63.7031 31.5062 63.8554L31.5922 67.3339Z" fill="#00C40A"/>
<path d="M34.1154 68.7127C33.879 68.9549 33.3146 68.7908 32.8556 68.3436C32.3966 67.8983 32.215 67.3397 32.4513 67.0955L33.7365 65.7733C33.9728 65.5291 34.5372 65.6932 34.9962 66.1405C35.4572 66.5858 35.6368 67.1463 35.4005 67.3885L34.1154 68.7127Z" fill="#00C40A"/>
<path d="M30.9024 67.5859C31.0854 67.779 31.1874 68.0348 31.1874 68.3008C31.1874 68.5668 31.0854 68.8226 30.9024 69.0156C30.7784 69.2508 30.5689 69.4294 30.3171 69.5148C30.0653 69.6002 29.7904 69.5858 29.5489 69.4746L27.5157 68.0215C27.3323 67.8287 27.23 67.5728 27.23 67.3066C27.23 67.0405 27.3323 66.7846 27.5157 66.5918C27.6398 66.3567 27.8492 66.178 28.101 66.0926C28.3528 66.0073 28.6277 66.0216 28.8692 66.1328L30.9024 67.5859Z" fill="#1CFF28"/>
<path d="M32.9008 55.6444C32.9044 55.7967 32.878 55.9483 32.823 56.0905C32.768 56.2326 32.6856 56.3626 32.5804 56.4728C32.4752 56.5831 32.3493 56.6716 32.2099 56.7332C32.0705 56.7948 31.9203 56.8283 31.768 56.8319C31.6157 56.8358 31.4641 56.8096 31.322 56.7548C31.1799 56.7001 31.0499 56.6178 30.9396 56.5128C30.8293 56.4077 30.7408 56.282 30.6792 56.1427C30.6176 56.0034 30.584 55.8533 30.5805 55.701L30.4965 52.2225C30.4926 52.0701 30.5187 51.9185 30.5735 51.7762C30.6282 51.634 30.7104 51.5039 30.8154 51.3935C30.9205 51.283 31.0462 51.1943 31.1855 51.1325C31.3248 51.0706 31.475 51.0368 31.6273 51.033C31.7797 51.0294 31.9313 51.0558 32.0734 51.1108C32.2156 51.1658 32.3455 51.2482 32.4558 51.3534C32.5661 51.4586 32.6545 51.5845 32.7161 51.7239C32.7777 51.8633 32.8113 52.0135 32.8148 52.1659L32.9008 55.6444Z" fill="#00C40A"/>
<path d="M35.424 57.0214C35.1876 57.2636 34.6232 57.0995 34.1642 56.6542C33.7052 56.207 33.5236 55.6484 33.7599 55.4042L35.0451 54.082C35.2814 53.8378 35.8458 54.0038 36.3048 54.4491C36.7658 54.8964 36.9454 55.455 36.7091 55.6991L35.424 57.0214Z" fill="#00C40A"/>
<path d="M32.2032 55.9004C32.3862 56.0934 32.4882 56.3493 32.4882 56.6152C32.4882 56.8812 32.3862 57.1371 32.2032 57.3301C32.0784 57.565 31.8685 57.7433 31.6164 57.8283C31.3643 57.9133 31.0893 57.8985 30.8477 57.7871L28.8087 56.3301C28.6252 56.1373 28.5229 55.8813 28.5229 55.6152C28.5229 55.3491 28.6252 55.0932 28.8087 54.9004C28.9327 54.6653 29.1422 54.4866 29.394 54.4012C29.6458 54.3159 29.9207 54.3302 30.1622 54.4414L32.2032 55.9004Z" fill="#1CFF28"/>
<path d="M46.9142 60.7244C46.7944 60.8189 46.6571 60.8887 46.5102 60.93C46.3634 60.9713 46.2098 60.9832 46.0583 60.9651C45.9068 60.9469 45.7604 60.8991 45.6274 60.8243C45.4944 60.7495 45.3775 60.6492 45.2834 60.5291C45.189 60.4095 45.1192 60.2723 45.0779 60.1256C45.0367 59.9789 45.0248 59.8255 45.0429 59.6741C45.061 59.5228 45.1089 59.3766 45.1837 59.2438C45.2584 59.1109 45.3587 58.9942 45.4787 58.9002L48.2033 56.7362C48.3231 56.6417 48.4604 56.5719 48.6073 56.5306C48.7542 56.4893 48.9078 56.4774 49.0592 56.4955C49.2107 56.5137 49.3571 56.5615 49.4901 56.6363C49.6231 56.7111 49.74 56.8114 49.8342 56.9315C49.9285 57.0512 49.9983 57.1883 50.0396 57.335C50.0809 57.4817 50.0928 57.6351 50.0746 57.7865C50.0565 57.9378 50.0086 58.0841 49.9339 58.2169C49.8591 58.3497 49.7588 58.4664 49.6388 58.5604L46.9142 60.7244Z" fill="#00C40A"/>
<path d="M47.3363 63.5686C46.9984 63.5276 46.7914 62.9826 46.8695 62.342C46.9496 61.7073 47.2875 61.2248 47.6234 61.2678L49.4535 61.4963C49.7894 61.5373 49.9984 62.0822 49.9183 62.7229C49.8402 63.3576 49.5023 63.8401 49.1664 63.7971L47.3363 63.5686Z" fill="#00C40A"/>
<path d="M46.2951 60.3283C46.3068 60.7892 45.7971 61.1779 45.1564 61.1954C44.5158 61.2111 43.9846 60.8517 43.9748 60.3907L43.9084 57.8829C43.8967 57.422 44.4064 57.0333 45.0471 57.0177C45.6857 57.0001 46.2189 57.3595 46.2287 57.8224L46.2951 60.3283Z" fill="#1CFF28"/>
<path d="M40.6331 69.705C40.5232 69.8104 40.3937 69.8931 40.2519 69.9484C40.11 70.0037 39.9587 70.0304 39.8065 70.0272C39.6543 70.0239 39.5042 69.9907 39.3649 69.9294C39.2256 69.8681 39.0997 69.7799 38.9944 69.6699C38.889 69.5599 38.8063 69.4301 38.751 69.2881C38.6957 69.1461 38.6689 68.9946 38.6721 68.8423C38.6754 68.6899 38.7087 68.5397 38.77 68.4002C38.8313 68.2607 38.9195 68.1347 39.0296 68.0293L41.5433 65.6328C41.7671 65.4229 42.0644 65.3093 42.3712 65.3162C42.6779 65.3232 42.9697 65.4501 43.1839 65.6699C43.2891 65.7799 43.3717 65.9095 43.4268 66.0514C43.4819 66.1933 43.5085 66.3447 43.505 66.4969C43.5016 66.6491 43.4682 66.7991 43.4067 66.9384C43.3452 67.0777 43.2569 67.2034 43.1468 67.3085L40.6331 69.705Z" fill="#00C40A"/>
<path d="M41.3168 72.5002C40.9769 72.4885 40.7191 71.9611 40.7309 71.3283C40.7523 70.6877 41.0434 70.1779 41.3832 70.1897L43.225 70.2482C43.5648 70.258 43.8227 70.7853 43.8109 71.4201C43.7894 72.0607 43.4984 72.5705 43.1605 72.5607L41.3168 72.5002Z" fill="#00C40A"/>
<path d="M39.9809 69.3689C40.0356 69.8259 39.5649 70.2595 38.9281 70.3357C38.2914 70.4119 37.7328 70.1013 37.6781 69.6443L37.3793 67.1541C37.3246 66.6951 37.7973 66.2615 38.432 66.1775C39.0688 66.1013 39.6293 66.4119 39.684 66.8709L39.9809 69.3689Z" fill="#1CFF28"/>
<path d="M41.2562 79.3046C41.2601 79.4568 41.234 79.6084 41.1792 79.7505C41.1244 79.8927 41.0422 80.0226 40.9371 80.1329C40.8321 80.2432 40.7063 80.3317 40.567 80.3934C40.4277 80.455 40.2777 80.4885 40.1254 80.4921C39.9731 80.496 39.8216 80.4698 39.6794 80.415C39.5373 80.3603 39.4073 80.278 39.297 80.173C39.1867 80.0679 39.0982 79.9422 39.0366 79.8029C38.975 79.6636 38.9414 79.5135 38.9379 79.3612L38.8539 75.8827C38.85 75.7304 38.8762 75.5789 38.9309 75.4368C38.9857 75.2946 39.0679 75.1647 39.173 75.0544C39.278 74.9441 39.4038 74.8556 39.5431 74.7939C39.6824 74.7323 39.8325 74.6987 39.9848 74.6952C40.137 74.6913 40.2886 74.7175 40.4307 74.7722C40.5728 74.827 40.7028 74.9093 40.8131 75.0143C40.9234 75.1193 41.0119 75.2451 41.0735 75.3844C41.1352 75.5237 41.1687 75.6738 41.1723 75.8261L41.2562 79.3046Z" fill="#00C40A"/>
<path d="M43.7814 80.6719C43.5451 80.916 42.9806 80.752 42.5216 80.3047C42.0626 79.8594 41.881 79.2989 42.1173 79.0567L43.4025 77.7325C43.6388 77.4903 44.2033 77.6543 44.6622 78.0996C45.1212 78.5469 45.3029 79.1055 45.0665 79.3496L43.7814 80.6719Z" fill="#00C40A"/>
<path d="M40.5684 79.5569C40.751 79.7501 40.8527 80.0059 40.8527 80.2717C40.8527 80.5376 40.751 80.7933 40.5684 80.9866C40.4444 81.2222 40.2344 81.4011 39.9821 81.4862C39.7297 81.5712 39.4544 81.556 39.213 81.4436L37.1719 79.9866C36.9894 79.7933 36.8877 79.5376 36.8877 79.2717C36.8877 79.0059 36.9894 78.7501 37.1719 78.5569C37.296 78.3213 37.5059 78.1424 37.7583 78.0573C38.0106 77.9722 38.286 77.9874 38.5274 78.0999L40.5684 79.5569Z" fill="#1CFF28"/>
<path d="M32.5177 75.9452C32.4018 76.0442 32.2676 76.1193 32.1227 76.1662C31.9778 76.2132 31.825 76.2311 31.6731 76.219C31.5213 76.2068 31.3733 76.1648 31.2377 76.0954C31.1021 76.026 30.9815 75.9305 30.8829 75.8144C30.784 75.6985 30.7089 75.5643 30.6619 75.4194C30.6149 75.2745 30.597 75.1217 30.6092 74.9699C30.6213 74.818 30.6633 74.67 30.7327 74.5344C30.8022 74.3988 30.8977 74.2783 31.0138 74.1796L33.6641 71.9238C33.8986 71.7247 34.2025 71.6269 34.509 71.6518C34.8156 71.6767 35.0997 71.8223 35.2989 72.0566C35.3978 72.1724 35.4729 72.3067 35.5199 72.4516C35.5669 72.5965 35.5848 72.7493 35.5727 72.9011C35.5605 73.053 35.5185 73.2009 35.4491 73.3365C35.3796 73.4721 35.2842 73.5927 35.1681 73.6913L32.5177 75.9452Z" fill="#00C40A"/>
<path d="M33.0371 78.7753C32.6972 78.7441 32.4707 78.2031 32.5292 77.5644C32.5859 76.9257 32.9062 76.4335 33.246 76.4648L35.082 76.6308C35.4199 76.6601 35.6464 77.2031 35.5898 77.8417C35.5312 78.4785 35.2109 78.9707 34.873 78.9414L33.0371 78.7753Z" fill="#00C40A"/>
<path d="M31.8849 75.5704C31.9142 76.0314 31.4181 76.4376 30.7774 76.4747C30.1388 76.5138 29.6056 76.172 29.5704 75.711L29.4181 73.2091C29.3907 72.7482 29.8868 72.3419 30.5255 72.3048C31.1642 72.2657 31.6974 72.6075 31.7345 73.0685L31.8849 75.5704Z" fill="#1CFF28"/>
<path d="M23.8048 70.629C23.9552 70.653 24.0993 70.7064 24.229 70.7862C24.3587 70.8659 24.4714 70.9705 24.5607 71.0938C24.6499 71.2172 24.714 71.3569 24.7492 71.5051C24.7844 71.6532 24.79 71.8068 24.7657 71.9572C24.7418 72.1075 24.6884 72.2517 24.6086 72.3814C24.5288 72.5111 24.4243 72.6238 24.3009 72.713C24.1776 72.8023 24.0378 72.8663 23.8897 72.9015C23.7416 72.9367 23.5879 72.9423 23.4376 72.9181L20.0021 72.3654C19.8517 72.3414 19.7076 72.288 19.5779 72.2082C19.4482 72.1285 19.3355 72.0239 19.2462 71.9005C19.157 71.7772 19.0929 71.6374 19.0577 71.4893C19.0225 71.3412 19.0169 71.1875 19.0411 71.0372C19.0651 70.8869 19.1185 70.7427 19.1983 70.613C19.278 70.4833 19.3826 70.3706 19.506 70.2814C19.6293 70.1921 19.7691 70.1281 19.9172 70.0929C20.0653 70.0577 20.2189 70.0521 20.3693 70.0763L23.8048 70.629Z" fill="#00C40A"/>
<path d="M25.6192 68.3985C25.8145 68.6739 25.5508 69.1993 25.0332 69.5704C24.5098 69.9395 23.9277 70.0157 23.7305 69.7383L22.666 68.2325C22.4707 67.9571 22.7344 67.4317 23.252 67.0606C23.7734 66.6915 24.3574 66.6153 24.5527 66.8926L25.6192 68.3985Z" fill="#00C40A"/>
<path d="M23.9277 71.3514C24.1506 71.2059 24.4208 71.1513 24.6827 71.1989C24.9446 71.2465 25.1784 71.3926 25.3359 71.6072C25.5434 71.7734 25.6794 72.0129 25.7157 72.2763C25.752 72.5397 25.686 72.807 25.5312 73.0232L23.7265 74.7635C23.5039 74.9088 23.234 74.9633 22.9724 74.9157C22.7108 74.8681 22.4774 74.7221 22.3202 74.5076C22.1127 74.3414 21.9767 74.1019 21.9404 73.8385C21.9041 73.5751 21.9701 73.3078 22.1249 73.0916L23.9277 71.3514Z" fill="#1CFF28"/>
<path d="M48.7579 69.0664C48.5009 69.235 48.1875 69.2948 47.8865 69.2325C47.5855 69.1703 47.3215 68.9911 47.1524 68.7344C46.9863 68.4763 46.928 68.1634 46.9901 67.8628C47.0521 67.5623 47.2297 67.298 47.4845 67.127L50.3927 65.2168C50.651 65.0508 50.9641 64.9928 51.2647 65.0553C51.5653 65.1177 51.8293 65.2957 52.0001 65.5508C52.1686 65.808 52.228 66.1216 52.1654 66.4226C52.1027 66.7237 51.9232 66.9875 51.6661 67.1563L48.7579 69.0664Z" fill="#00C40A"/>
<path d="M48.924 71.9373C48.592 71.8651 48.4338 71.3006 48.5686 70.6736C48.7053 70.0486 49.0842 69.5994 49.4162 69.6717L51.217 70.0623C51.549 70.1346 51.7072 70.701 51.5725 71.326C51.4358 71.9529 51.0568 72.4022 50.7248 72.3299L48.924 71.9373Z" fill="#00C40A"/>
<path d="M48.178 68.6171C48.1487 69.0781 47.6057 69.4179 46.9671 69.3769C46.3264 69.3359 45.8323 68.9296 45.8616 68.4687L46.0217 65.9667C46.051 65.5058 46.5921 65.166 47.2327 65.207C47.8714 65.246 48.3655 65.6542 48.3362 66.1132L48.178 68.6171Z" fill="#1CFF28"/>
<path d="M48.2032 76.8028C48.2071 76.9551 48.181 77.1067 48.1262 77.2488C48.0714 77.3909 47.9892 77.5209 47.8841 77.6312C47.7791 77.7415 47.6533 77.83 47.514 77.8916C47.3747 77.9533 47.2247 77.9868 47.0724 77.9904C46.765 77.9977 46.4673 77.8827 46.2446 77.6707C46.0219 77.4586 45.8926 77.1669 45.8849 76.8595L45.7989 73.379C45.7947 73.0722 45.9109 72.7759 46.1228 72.5539C46.3346 72.3318 46.6251 72.2017 46.9318 72.1915C47.2386 72.1873 47.5349 72.3035 47.7569 72.5154C47.979 72.7272 48.1091 73.0176 48.1193 73.3243L48.2032 76.8028Z" fill="#00C40A"/>
<path d="M50.7285 78.1796C50.4922 78.4218 49.9277 78.2577 49.4688 77.8124C49.0078 77.3652 48.8281 76.8066 49.0645 76.5624L50.3496 75.2402C50.5859 74.996 51.1504 75.162 51.6094 75.6073C52.0684 76.0546 52.25 76.6132 52.0137 76.8573L50.7285 78.1796Z" fill="#00C40A"/>
<path d="M47.514 77.0566C47.6974 77.2494 47.7997 77.5054 47.7997 77.7715C47.7997 78.0376 47.6974 78.2935 47.514 78.4863C47.3899 78.7215 47.1804 78.9001 46.9287 78.9855C46.6769 79.0709 46.402 79.0565 46.1605 78.9453L44.1175 77.4883C43.9345 77.2953 43.8325 77.0394 43.8325 76.7734C43.8325 76.5075 43.9345 76.2516 44.1175 76.0586C44.2416 75.8235 44.451 75.6448 44.7028 75.5594C44.9546 75.4741 45.2295 75.4884 45.471 75.5996L47.514 77.0566Z" fill="#1CFF28"/>
<path d="M36.1098 62.8984C35.9286 63.1461 35.6576 63.3129 35.3549 63.3629C35.0521 63.413 34.7418 63.3422 34.4906 63.166C34.3667 63.0773 34.2615 62.965 34.181 62.8356C34.1005 62.7062 34.0462 62.5622 34.0214 62.4118C33.9965 62.2615 34.0016 62.1077 34.0362 61.9593C34.0708 61.8108 34.1343 61.6707 34.223 61.5468L36.2484 58.7168C36.4276 58.4671 36.6985 58.2986 37.0017 58.2485C37.3049 58.1983 37.6156 58.2705 37.8656 58.4492C38.1136 58.63 38.2808 58.9009 38.3312 59.2037C38.3816 59.5064 38.3112 59.8169 38.1352 60.0683L36.1098 62.8984Z" fill="#00C40A"/>
<path d="M37.2816 65.5197C36.9456 65.5724 36.5941 65.1017 36.5003 64.4689C36.4007 63.8361 36.5941 63.2814 36.9281 63.2286L38.7503 62.9454C39.0863 62.8927 39.4378 63.3634 39.5316 63.9962C39.6292 64.629 39.4378 65.1837 39.1019 65.2365L37.2816 65.5197Z" fill="#00C40A"/>
<path d="M35.3946 62.6915C35.5333 63.131 35.1505 63.6447 34.5391 63.8361C34.2976 63.9528 34.0203 63.9714 33.7654 63.888C33.5105 63.8046 33.2978 63.6257 33.1719 63.3888L32.42 60.9962C32.2813 60.5548 32.6641 60.0431 33.2735 59.8497C33.5154 59.7342 33.7925 59.7164 34.0472 59.8001C34.3019 59.8837 34.5145 60.0625 34.6407 60.299L35.3946 62.6915Z" fill="#1CFF28"/>
<path d="M40.705 55.9569C40.5713 56.0299 40.4245 56.0758 40.2729 56.092C40.1214 56.1083 39.9682 56.0945 39.822 56.0515C39.6759 56.0085 39.5396 55.9372 39.421 55.8415C39.3024 55.7459 39.2038 55.6278 39.1308 55.494C38.9865 55.2232 38.9542 54.9067 39.0408 54.6124C39.1273 54.318 39.3258 54.0694 39.5937 53.9198L42.6503 52.2538C42.9192 52.1095 43.2342 52.0772 43.5268 52.1639C43.8193 52.2506 44.0659 52.4492 44.2128 52.7167C44.2858 52.8504 44.3317 52.9972 44.348 53.1487C44.3642 53.3002 44.3505 53.4535 44.3075 53.5996C44.2645 53.7458 44.1931 53.8821 44.0975 54.0007C44.0018 54.1193 43.8837 54.2179 43.75 54.2909L40.705 55.9569Z" fill="#00C40A"/>
<path d="M40.635 58.8321C40.3108 58.7325 40.1995 58.1563 40.387 57.543C40.5725 56.9298 40.9866 56.5138 41.3128 56.6134L43.0706 57.1505C43.3948 57.2501 43.5061 57.8263 43.3186 58.4395C43.1331 59.0528 42.719 59.4688 42.3928 59.3692L40.635 58.8321Z" fill="#00C40A"/>
<path d="M40.1641 55.4611C40.0957 55.9181 39.5274 56.213 38.8946 56.1193C38.2598 56.0275 37.8008 55.5822 37.8672 55.1251L38.2305 52.6427C38.2969 52.1876 38.8653 51.8927 39.5 51.9845C40.1329 52.0763 40.5938 52.5236 40.5254 52.9787L40.1641 55.4611Z" fill="#1CFF28"/>
<path d="M39.4083 92.0372C39.4083 92.0372 37.7403 93.6973 40.9825 93.8868C44.2247 94.0762 43.379 92.5684 43.379 92.5684C43.379 92.5684 41.9161 95.213 44.2247 94.0762C45.7173 93.1809 46.7967 91.7331 47.2286 90.0469C47.2286 90.0469 47.2754 93.7286 50.461 91.67C50.8822 91.4738 51.2561 91.1889 51.557 90.8348C51.8579 90.4806 52.0787 90.0657 52.2043 89.6183C52.3298 89.1709 52.3572 88.7016 52.2846 88.2426C52.2119 87.7836 52.0409 87.3458 51.7833 86.9591C51.7833 86.9591 53.0001 85.3106 53.8145 85.4708C54.629 85.6309 54.3907 83.2969 54.3907 83.2969L55.2442 81.4766C55.2442 81.4766 55.4942 79.0938 53.8165 78.3653C52.1387 77.6368 57.0587 78.5606 57.2071 77.2911C57.3555 76.0216 54.8086 74.8321 54.8086 74.8321C54.8086 74.8321 57.504 74.7657 55.5547 72.293C54.8912 71.5423 54.081 70.9354 53.1741 70.5094C52.2672 70.0835 51.2828 69.8477 50.2813 69.8165L51.8751 68.7872C51.8751 68.7872 50.3672 66.3106 49.5665 66.6094C48.7657 66.9083 48.8907 64.7384 47.8829 64.043C46.8751 63.3477 45.0274 64.9239 45.0274 64.9239C45.0274 64.9239 43.1504 61.8243 41.6094 61.3223C40.0684 60.8204 39.1837 63.0098 39.1837 63.0098C39.1837 63.0098 38.4024 62.4805 36.711 63.2423C35.0196 64.004 33.7813 61.5977 32.4337 64.8751C31.086 68.1524 33.752 67.1837 33.752 67.1837C33.752 67.1837 30.8047 65.7481 30.545 67.3184C30.2852 68.8887 32.752 70.5723 32.752 70.5723C32.752 70.5723 29.2247 69.4473 29.6446 72.3087C29.6832 73.0538 29.9258 73.7741 30.3461 74.3906C30.7663 75.0072 31.3479 75.4964 32.0274 75.8048C32.0274 75.8048 31.4864 76.7813 31.0958 77.5997C30.7051 78.418 32.9532 79.9903 32.9532 79.9903C32.9532 79.9903 32.5938 78.9669 33.1114 81.4864C33.5607 83.1263 34.6303 84.5271 36.0938 85.3927C36.0938 85.3927 34.1407 86.6993 34.7266 88.3048C35.3126 89.9102 38.4532 89.8302 38.4532 89.8302C38.4532 89.8302 34.0137 92.1719 39.4083 92.0372Z" fill="#009C08"/>
<path d="M42.75 91.3184C42.7495 91.18 42.7763 91.0428 42.8288 90.9147C42.8814 90.7867 42.9587 90.6703 43.0563 90.5721C43.1539 90.474 43.2699 90.396 43.3976 90.3428C43.5254 90.2895 43.6624 90.262 43.8008 90.2617C44.0807 90.2612 44.3494 90.3718 44.5478 90.5691C44.7463 90.7665 44.8583 91.0346 44.8594 91.3145V94.4785C44.8599 94.6171 44.833 94.7544 44.7804 94.8826C44.7277 95.0108 44.6502 95.1273 44.5524 95.2254C44.4546 95.3236 44.3384 95.4015 44.2104 95.4546C44.0824 95.5078 43.9452 95.5352 43.8066 95.5352C43.6681 95.5354 43.5309 95.5084 43.4029 95.4556C43.2748 95.4029 43.1584 95.3254 43.0603 95.2276C42.9622 95.1299 42.8843 95.0137 42.831 94.8859C42.7778 94.758 42.7503 94.6209 42.75 94.4824V91.3184Z" fill="#00C40A"/>
<path d="M40.4805 90.0157C40.7012 89.7989 41.211 89.961 41.6192 90.3751C42.0274 90.7911 42.1817 91.3028 41.961 91.5196L40.7676 92.6915C40.5469 92.9083 40.0372 92.7481 39.629 92.3321C39.2188 91.918 39.0665 91.4044 39.2872 91.1876L40.4805 90.0157Z" fill="#00C40A"/>
<path d="M43.3809 91.0995C43.2177 90.9212 43.1291 90.6871 43.1335 90.4454C43.1378 90.2037 43.2348 89.9729 43.4044 89.8007C43.5215 89.5889 43.7156 89.4302 43.9464 89.3575C44.1773 89.2848 44.4272 89.3036 44.6446 89.41L46.4708 90.7772C46.6341 90.9558 46.7228 91.1903 46.7184 91.4323C46.714 91.6743 46.617 91.9054 46.4473 92.078C46.3302 92.2898 46.1361 92.4484 45.9053 92.5211C45.6744 92.5938 45.4245 92.575 45.2071 92.4686L43.3809 91.0995Z" fill="#1CFF28"/>
<path d="M53.1563 82.1975C53.0529 82.1052 52.9686 81.9935 52.9084 81.8686C52.8482 81.7437 52.8132 81.6082 52.8054 81.4698C52.7976 81.3314 52.8171 81.1928 52.8629 81.062C52.9088 80.9311 52.9799 80.8106 53.0723 80.7073C53.259 80.4988 53.5207 80.3729 53.8001 80.3571C54.0795 80.3414 54.3537 80.4371 54.5626 80.6233L56.9219 82.7327C57.1301 82.9196 57.2557 83.1814 57.2711 83.4608C57.2864 83.7402 57.1904 84.0142 57.004 84.2229C56.8177 84.4312 56.5563 84.5571 56.2772 84.5729C55.9982 84.5886 55.7243 84.4929 55.5157 84.3069L53.1563 82.1975Z" fill="#00C40A"/>
<path d="M50.6702 83.0154C50.6565 82.7069 51.1175 82.4295 51.6995 82.408C52.2855 82.3807 52.764 82.6033 52.7776 82.9178L52.8558 84.5936C52.8694 84.9022 52.4105 85.1795 51.8284 85.199C51.2425 85.2264 50.762 85.0037 50.7483 84.6893L50.6702 83.0154Z" fill="#00C40A"/>
<path d="M53.4141 81.5801C53.004 81.6621 52.5782 81.2656 52.4629 80.6953C52.3497 80.1231 52.5919 79.5938 53.002 79.5117L55.2383 79.0664C55.6504 78.9844 56.0762 79.3809 56.1915 79.9512C56.3047 80.5234 56.0626 81.0527 55.6524 81.1348L53.4141 81.5801Z" fill="#1CFF28"/>
<path d="M47.5977 75.9609C47.5977 75.6814 47.7084 75.4132 47.9058 75.2152C48.1031 75.0171 48.3708 74.9053 48.6504 74.9043C48.7889 74.904 48.9261 74.9311 49.0542 74.9838C49.1822 75.0366 49.2986 75.1141 49.3967 75.2118C49.4949 75.3096 49.5728 75.4257 49.626 75.5536C49.6792 75.6814 49.7068 75.8185 49.707 75.957V79.1211C49.7073 79.2596 49.6803 79.3968 49.6275 79.5249C49.5747 79.6529 49.4973 79.7693 49.3995 79.8675C49.3017 79.9656 49.1856 80.0435 49.0578 80.0967C48.9299 80.1499 48.7928 80.1775 48.6543 80.1777C48.5157 80.1783 48.3784 80.1514 48.2502 80.0987C48.1221 80.0461 48.0055 79.9686 47.9074 79.8708C47.8092 79.773 47.7313 79.6567 47.6782 79.5288C47.625 79.4008 47.5977 79.2636 47.5977 79.125V75.9609Z" fill="#00C40A"/>
<path d="M45.3304 74.6581C45.5511 74.4413 46.0608 74.6015 46.469 75.0175C46.8772 75.4335 47.0315 75.9452 46.8108 76.162L45.6155 77.3339C45.3968 77.5507 44.887 77.3906 44.4768 76.9745C44.0686 76.5605 43.9163 76.0468 44.135 75.83L45.3304 74.6581Z" fill="#00C40A"/>
<path d="M48.2308 75.7424C48.0671 75.5644 47.9782 75.3302 47.9826 75.0883C47.9869 74.8465 48.0842 74.6156 48.2542 74.4436C48.3717 74.2322 48.5658 74.0738 48.7965 74.0012C49.0272 73.9285 49.277 73.9471 49.4944 74.053L51.3206 75.4202C51.4835 75.599 51.5719 75.8334 51.5675 76.0752C51.5632 76.3171 51.4664 76.5481 51.2972 76.7209C51.1793 76.9325 50.9849 77.0909 50.7538 77.1635C50.5228 77.2362 50.2727 77.2176 50.055 77.1116L48.2308 75.7424Z" fill="#1CFF28"/>
<path d="M46.1719 86.5645C46.1716 86.426 46.1986 86.2888 46.2514 86.1607C46.3042 86.0326 46.3817 85.9162 46.4794 85.8181C46.5772 85.72 46.6933 85.6421 46.8211 85.5889C46.949 85.5356 47.0861 85.5081 47.2246 85.5078C47.3633 85.5073 47.5007 85.5341 47.629 85.5868C47.7573 85.6394 47.8739 85.7169 47.9722 85.8147C48.0705 85.9124 48.1486 86.0286 48.202 86.1566C48.2554 86.2846 48.2829 86.4219 48.2832 86.5606V89.7246C48.2835 89.8631 48.2564 90.0003 48.2037 90.1284C48.1509 90.2564 48.0734 90.3728 47.9757 90.471C47.8779 90.5691 47.7618 90.647 47.6339 90.7002C47.5061 90.7535 47.369 90.781 47.2305 90.7813C47.0919 90.7818 46.9546 90.7549 46.8264 90.7022C46.6982 90.6496 46.5817 90.5721 46.4835 90.4743C46.3854 90.3765 46.3075 90.2603 46.2543 90.1323C46.2012 90.0043 46.1738 89.8671 46.1738 89.7285L46.1719 86.5645Z" fill="#00C40A"/>
<path d="M43.9046 85.2617C44.1253 85.0449 44.635 85.205 45.0432 85.621C45.4514 86.0351 45.6057 86.5488 45.385 86.7636L44.1897 87.9355C43.971 88.1523 43.4612 87.9902 43.0511 87.5761C42.6429 87.1601 42.4905 86.6484 42.7093 86.4316L43.9046 85.2617Z" fill="#00C40A"/>
<path d="M46.8047 86.3455C46.6415 86.1672 46.5529 85.933 46.5573 85.6914C46.5616 85.4497 46.6586 85.2189 46.8282 85.0466C46.9457 84.8352 47.1398 84.6769 47.3705 84.6042C47.6012 84.5316 47.851 84.5501 48.0684 84.656L49.8946 86.0232C50.058 86.2018 50.1466 86.4362 50.1422 86.6783C50.1379 86.9203 50.0408 87.1514 49.8711 87.324C49.7536 87.5354 49.5596 87.6937 49.3289 87.7664C49.0982 87.8391 48.8484 87.8205 48.6309 87.7146L46.8047 86.3455Z" fill="#1CFF28"/>
<path d="M33.5332 81.6621C33.7554 81.4925 34.0357 81.4178 34.3128 81.4544C34.5899 81.491 34.8412 81.6359 35.0117 81.8574C35.1813 82.0796 35.256 82.3599 35.2194 82.637C35.1828 82.9141 35.0379 83.1654 34.8164 83.3359L32.2949 85.2481C32.073 85.4182 31.7925 85.4932 31.5152 85.4565C31.238 85.4199 30.9866 85.2747 30.8164 85.0527C30.6468 84.8306 30.5721 84.5503 30.6087 84.2731C30.6453 83.996 30.7902 83.7447 31.0117 83.5742L33.5332 81.6621Z" fill="#00C40A"/>
<path d="M33.207 79.0682C33.5117 79.1131 33.6914 79.617 33.5977 80.1932C33.5137 80.7791 33.207 81.199 32.8906 81.1541L31.2324 80.91C30.9277 80.865 30.7481 80.3611 30.8418 79.7849C30.9258 79.2088 31.2324 78.7771 31.5469 78.8221L33.207 79.0682Z" fill="#00C40A"/>
<path d="M34.0879 82.0391C34.0879 81.6191 34.5566 81.2773 35.1406 81.2754C35.7266 81.2754 36.1953 81.6094 36.1973 82.0293V84.3105C36.1973 84.7305 35.7285 85.0723 35.1465 85.0762C34.5605 85.0762 34.0898 84.7402 34.0879 84.3203V82.0391Z" fill="#1CFF28"/>
<path d="M39.4298 73.6232C39.5321 73.5297 39.6517 73.4572 39.7819 73.41C39.9121 73.3627 40.0503 73.3416 40.1887 73.3477C40.3271 73.3539 40.4629 73.3873 40.5884 73.4459C40.7139 73.5046 40.8266 73.5874 40.9201 73.6896C41.0139 73.7916 41.0868 73.9111 41.1343 74.0412C41.1819 74.1714 41.2033 74.3097 41.1973 74.4481C41.1913 74.5866 41.1581 74.7225 41.0994 74.8481C41.0408 74.9736 40.9579 75.0864 40.8556 75.1799L38.5119 77.3166C38.4097 77.4101 38.2901 77.4825 38.1598 77.5298C38.0296 77.5771 37.8914 77.5982 37.753 77.5921C37.6146 77.5859 37.4788 77.5525 37.3533 77.4939C37.2278 77.4352 37.1151 77.3524 37.0216 77.2502C36.9281 77.148 36.8557 77.0283 36.8084 76.8981C36.7611 76.7679 36.74 76.6297 36.7462 76.4913C36.7523 76.3529 36.7857 76.2171 36.8444 76.0916C36.903 75.9661 36.9858 75.8534 37.088 75.7599L39.4298 73.6232Z" fill="#00C40A"/>
<path d="M38.8594 71.0702C39.1679 71.0858 39.3926 71.5702 39.3613 72.1522C39.3301 72.7382 39.0547 73.1933 38.7461 73.1757L37.0722 73.0858C36.7636 73.0683 36.539 72.5839 36.5703 72.0019C36.6015 71.4159 36.8769 70.9628 37.1855 70.9784L38.8594 71.0702Z" fill="#00C40A"/>
<path d="M40.0159 73.9436C39.9749 73.5256 40.4065 73.1408 40.9924 73.0842C41.5784 73.0295 42.0745 73.3225 42.1155 73.7405L42.3362 76.01C42.3753 76.428 41.9456 76.8127 41.3596 76.8674C40.7737 76.924 40.2756 76.6311 40.2366 76.2131L40.0159 73.9436Z" fill="#1CFF28"/>
<path d="M39.0508 64.8867C39.0505 64.7482 39.0776 64.611 39.1303 64.483C39.1831 64.3549 39.2606 64.2385 39.3583 64.1404C39.4561 64.0423 39.5722 63.9644 39.7001 63.9111C39.8279 63.8579 39.965 63.8303 40.1035 63.8301C40.2421 63.8296 40.3794 63.8564 40.5076 63.9091C40.6358 63.9618 40.7523 64.0392 40.8504 64.137C40.9486 64.2348 41.0265 64.3511 41.0797 64.4791C41.1328 64.607 41.1602 64.7442 41.1602 64.8828V68.0469C41.1602 68.3264 41.0494 68.5946 40.8521 68.7927C40.6547 68.9907 40.387 69.1025 40.1074 69.1035C39.9689 69.1038 39.8317 69.0768 39.7037 69.024C39.5756 68.9712 39.4592 68.8937 39.3611 68.796C39.263 68.6982 39.1851 68.5821 39.1318 68.4543C39.0786 68.3264 39.051 68.1893 39.0508 68.0508V64.8867Z" fill="#00C40A"/>
<path d="M36.7835 63.5839C37.0042 63.3671 37.5139 63.5273 37.9221 63.9433C38.3304 64.3574 38.4847 64.8691 38.2639 65.0859L37.0686 66.2577C36.8499 66.4745 36.3401 66.3124 35.93 65.8984C35.5218 65.4824 35.3694 64.9706 35.5882 64.7538L36.7835 63.5839Z" fill="#00C40A"/>
<path d="M39.6836 64.6677C39.5198 64.4893 39.4308 64.2548 39.4352 64.0127C39.4396 63.7705 39.5369 63.5393 39.707 63.3669C39.8245 63.1555 40.0186 62.9972 40.2493 62.9245C40.48 62.8519 40.7298 62.8704 40.9473 62.9763L42.7734 64.3435C42.9362 64.522 43.0245 64.756 43.0202 64.9976C43.0158 65.2391 42.9191 65.4698 42.75 65.6423C42.6325 65.8538 42.4384 66.0121 42.2077 66.0848C41.977 66.1574 41.7272 66.1389 41.5098 66.033L39.6836 64.6677Z" fill="#1CFF28"/>
<path d="M46.9296 68.1131C47.1468 67.9369 47.4251 67.8539 47.7033 67.8825C47.9816 67.911 48.2371 68.0488 48.414 68.2655C48.5014 68.373 48.5668 68.4968 48.6063 68.6296C48.6459 68.7624 48.6589 68.9018 48.6445 69.0396C48.6302 69.1775 48.5888 69.3112 48.5228 69.433C48.4568 69.5549 48.3674 69.6625 48.2597 69.7498L45.8046 71.7459C45.6975 71.8336 45.574 71.8993 45.4414 71.9391C45.3087 71.9789 45.1695 71.9922 45.0317 71.978C44.894 71.9638 44.7604 71.9226 44.6386 71.8566C44.5168 71.7906 44.4093 71.7012 44.3222 71.5936C44.2345 71.4862 44.1688 71.3626 44.1289 71.2298C44.089 71.097 44.0758 70.9577 44.09 70.8197C44.1041 70.6818 44.1454 70.548 44.2114 70.4261C44.2774 70.3042 44.3668 70.1965 44.4746 70.1092L46.9296 68.1131Z" fill="#00C40A"/>
<path d="M46.5157 65.5313C46.8224 65.5645 47.0177 66.0625 46.9513 66.6406C46.8868 67.2266 46.5841 67.6621 46.2774 67.6172L44.6114 67.4219C44.3048 67.3867 44.1095 66.8887 44.1739 66.3106C44.2403 65.7246 44.5411 65.291 44.8477 65.334L46.5157 65.5313Z" fill="#00C40A"/>
<path d="M47.4965 68.4668C47.4809 68.0469 47.9398 67.6856 48.5219 67.6661C49.1078 67.6446 49.5883 67.9668 49.6059 68.3868L49.6918 70.6641C49.7094 71.084 49.2504 71.4453 48.6684 71.4649C48.0824 71.4864 47.6 71.1661 47.5844 70.7461L47.4965 68.4668Z" fill="#1CFF28"/>
<path d="M54.7464 73.1229C54.6101 73.0982 54.4801 73.0469 54.3636 72.9718C54.2472 72.8968 54.1468 72.7995 54.068 72.6855C53.9893 72.5716 53.9338 72.4432 53.9048 72.3078C53.8757 72.1724 53.8737 72.0326 53.8988 71.8963C53.9237 71.76 53.9752 71.6299 54.0505 71.5134C54.1257 71.397 54.2232 71.2966 54.3373 71.2178C54.4514 71.1391 54.5799 71.0837 54.7154 71.0546C54.851 71.0256 54.9909 71.0236 55.1273 71.0487L58.2386 71.621C58.375 71.6459 58.5051 71.6974 58.6215 71.7727C58.7379 71.8479 58.8384 71.9454 58.9171 72.0595C58.9958 72.1736 59.0513 72.3021 59.0803 72.4376C59.1094 72.5732 59.1114 72.7131 59.0863 72.8495C59.0355 73.1245 58.8775 73.3681 58.6471 73.5267C58.4168 73.6853 58.1328 73.7459 57.8577 73.6952L54.7464 73.1229Z" fill="#00C40A"/>
<path d="M53.0491 75.1152C52.8773 74.8593 53.1292 74.3886 53.6116 74.0624C54.094 73.7363 54.6253 73.6718 54.7991 73.9355L55.7366 75.3241C55.9085 75.58 55.6585 76.0527 55.1761 76.3788C54.6917 76.705 54.1605 76.7695 53.9886 76.5058L53.0491 75.1152Z" fill="#00C40A"/>
<path d="M54.6467 72.4688C54.4412 72.5966 54.1945 72.6409 53.9573 72.5926C53.7201 72.5443 53.5105 72.4071 53.3713 72.209C53.1853 72.0544 53.0657 71.8344 53.037 71.5943C53.0083 71.3541 53.0727 71.1121 53.217 70.918L54.8928 69.3711C55.0987 69.244 55.3454 69.2002 55.5824 69.2489C55.8195 69.2975 56.029 69.4349 56.1682 69.6329C56.3542 69.7875 56.4738 70.0075 56.5025 70.2476C56.5312 70.4878 56.4668 70.7298 56.3225 70.9239L54.6467 72.4688Z" fill="#1CFF28"/>
<path d="M32.0238 74.0411C32.2611 73.8927 32.5476 73.8445 32.8204 73.9072C33.0932 73.9698 33.3301 74.1381 33.4789 74.3751C33.6271 74.6127 33.675 74.8993 33.612 75.1722C33.549 75.445 33.3803 75.6817 33.143 75.8302L30.4594 77.5079C30.2221 77.656 29.9358 77.7039 29.6632 77.6409C29.3907 77.5779 29.1544 77.4092 29.0063 77.172C28.8581 76.9347 28.8103 76.6484 28.8733 76.3759C28.9363 76.1033 29.105 75.867 29.3422 75.7189L32.0238 74.0411Z" fill="#00C40A"/>
<path d="M31.9317 71.426C32.2325 71.4983 32.3653 72.0119 32.2286 72.5822C32.0919 73.1486 31.7384 73.549 31.4376 73.4768L29.8087 73.0861C29.5079 73.0139 29.3751 72.5002 29.5118 71.9299C29.6485 71.3635 30.002 70.9533 30.3028 71.0354L31.9317 71.426Z" fill="#00C40A"/>
<path d="M32.5432 74.4607C32.5803 74.0427 33.0784 73.7439 33.6604 73.7947C34.2464 73.8435 34.6819 74.2224 34.637 74.6423L34.4417 76.9138C34.4046 77.3318 33.9046 77.6306 33.3245 77.5818C32.7385 77.531 32.303 77.1521 32.3479 76.7341L32.5432 74.4607Z" fill="#1CFF28"/>
<path d="M32.6855 67.0176C32.6853 66.8791 32.7123 66.7419 32.7651 66.6138C32.8178 66.4858 32.8953 66.3694 32.9931 66.2712C33.0908 66.1731 33.207 66.0952 33.3348 66.042C33.4627 65.9887 33.5998 65.9612 33.7383 65.9609C34.0178 65.9609 34.286 66.0717 34.4841 66.269C34.6821 66.4664 34.7939 66.7341 34.7949 67.0137V70.1777C34.7954 70.3164 34.7686 70.4538 34.716 70.5821C34.6633 70.7104 34.5859 70.827 34.4881 70.9253C34.3903 71.0237 34.2741 71.1017 34.1461 71.1551C34.0181 71.2085 33.8809 71.2361 33.7422 71.2363C33.4626 71.2363 33.1945 71.1255 32.9964 70.9282C32.7984 70.7309 32.6866 70.4632 32.6855 70.1836V67.0176Z" fill="#00C40A"/>
<path d="M30.4161 65.7149C30.6368 65.4981 31.1465 65.6602 31.5547 66.0743C31.9649 66.4903 32.1173 67.002 31.8965 67.2188L30.7032 68.3907C30.4825 68.6075 29.9727 68.4473 29.5645 68.0313C29.1544 67.6172 29.002 67.1055 29.2227 66.8887L30.4161 65.7149Z" fill="#00C40A"/>
<path d="M33.3166 66.8046C33.1533 66.626 33.0646 66.3915 33.069 66.1495C33.0734 65.9075 33.1704 65.6764 33.3401 65.5038C33.4572 65.292 33.6513 65.1334 33.8821 65.0607C34.113 64.988 34.3629 65.0068 34.5803 65.1132L36.4065 66.4804C36.5699 66.6589 36.6585 66.8934 36.6541 67.1354C36.6498 67.3774 36.5527 67.6085 36.383 67.7811C36.2659 67.9929 36.0718 68.1516 35.841 68.2243C35.6101 68.297 35.3602 68.2782 35.1428 68.1718L33.3166 66.8046Z" fill="#1CFF28"/>
<path d="M43.4102 79.9021C43.4931 79.7912 43.5971 79.6977 43.7162 79.6269C43.8353 79.5562 43.9672 79.5096 44.1043 79.4898C44.2415 79.47 44.3811 79.4775 44.5154 79.5117C44.6496 79.5459 44.7758 79.6062 44.8867 79.6892C44.9975 79.7723 45.0909 79.8765 45.1614 79.9956C45.232 80.1148 45.2784 80.2467 45.298 80.3838C45.3176 80.5209 45.31 80.6606 45.2756 80.7947C45.2412 80.9289 45.1808 81.055 45.0977 81.1658L43.1992 83.7049C43.0314 83.9286 42.7815 84.0766 42.5046 84.1161C42.2277 84.1557 41.9464 84.0836 41.7227 83.9158C41.6119 83.8327 41.5185 83.7286 41.4479 83.6094C41.3774 83.4902 41.331 83.3583 41.3114 83.2212C41.2918 83.0841 41.2994 82.9445 41.3338 82.8103C41.3682 82.6761 41.4286 82.55 41.5117 82.4392L43.4102 79.9021Z" fill="#00C40A"/>
<path d="M42.3828 77.4959C42.6875 77.4548 42.998 77.8865 43.0762 78.4724C43.1523 79.0584 42.9668 79.5506 42.6602 79.5916L40.998 79.8123C40.6914 79.8533 40.3828 79.4216 40.3047 78.8357C40.2285 78.2498 40.4141 77.7576 40.7207 77.7166L42.3828 77.4959Z" fill="#00C40A"/>
<path d="M44.0451 80.1072C43.9279 79.7029 44.2873 79.2459 44.8459 79.0818C45.0673 78.984 45.3177 78.9746 45.5458 79.0556C45.7739 79.1366 45.9624 79.3018 46.0725 79.5174L46.7092 81.7068C46.8264 82.1111 46.467 82.5701 45.9084 82.7322C45.687 82.8301 45.4366 82.8395 45.2085 82.7585C44.9804 82.6775 44.7919 82.5122 44.6818 82.2967L44.0451 80.1072Z" fill="#1CFF28"/>
<path d="M39.0822 86.1228C39.2053 86.0591 39.3398 86.0203 39.4779 86.0086C39.616 85.997 39.755 86.0126 39.8871 86.0547C40.0191 86.0968 40.1416 86.1645 40.2474 86.2539C40.3533 86.3433 40.4405 86.4528 40.5041 86.5759C40.5678 86.699 40.6066 86.8335 40.6183 86.9716C40.6299 87.1097 40.6143 87.2487 40.5722 87.3808C40.5301 87.5128 40.4624 87.6353 40.373 87.7412C40.2836 87.8471 40.1741 87.9343 40.051 87.9978L37.2385 89.4509C37.1155 89.5146 36.9812 89.5533 36.8433 89.565C36.7053 89.5767 36.5664 89.561 36.4345 89.5189C36.3026 89.4768 36.1803 89.4091 36.0746 89.3197C35.9689 89.2303 35.8819 89.1209 35.8185 88.9978C35.7548 88.8748 35.7159 88.7405 35.704 88.6025C35.6922 88.4645 35.7077 88.3255 35.7496 88.1934C35.7915 88.0614 35.859 87.9389 35.9482 87.8329C36.0375 87.727 36.1467 87.6397 36.2697 87.5759L39.0822 86.1228Z" fill="#00C40A"/>
<path d="M39.2032 83.5097C39.4961 83.6074 39.5938 84.1328 39.3985 84.6816C39.2168 85.2343 38.8301 85.6054 38.5372 85.5078L36.9454 84.9844C36.6524 84.8867 36.5547 84.3613 36.7501 83.8125C36.9317 83.2597 37.3165 82.8886 37.6114 82.9863L39.2032 83.5097Z" fill="#00C40A"/>
<path d="M39.5645 86.5838C39.6348 86.1697 40.1504 85.9138 40.7364 86.0115C41.3223 86.1072 41.7129 86.5213 41.6504 86.9353L41.2715 89.1853C41.2012 89.5994 40.6856 89.8553 40.0997 89.7596C39.5254 89.6619 39.1231 89.2478 39.1856 88.8338L39.5645 86.5838Z" fill="#1CFF28"/>
<defs>
<radialGradient id="paint0_radial_19_2814" cx="0" cy="0" r="1" gradientUnits="userSpaceOnUse" gradientTransform="translate(64.4669 51.2869) rotate(111.894) scale(18.9003 20.3662)">
<stop stop-color="#FFB640"/>
<stop offset="0.855" stop-color="#FF9224"/>
<stop offset="1" stop-color="#FFB152"/>
</radialGradient>
</defs>
</svg>
