<svg width="45" height="45" viewBox="0 0 45 45" fill="none" xmlns="http://www.w3.org/2000/svg">
<g clip-path="url(#clip0_19_3174)">
<path fill-rule="evenodd" clip-rule="evenodd" d="M22.5 0C34.9181 0 45 10.0819 45 22.5C45 34.9181 34.9181 45 22.5 45C10.0819 45 0 34.9181 0 22.5C0 10.0819 10.0819 0 22.5 0ZM22.5 8.4375C18.6809 8.4375 18.202 8.45367 16.702 8.52214C15.2053 8.59043 14.183 8.82817 13.2884 9.17578C12.3637 9.53517 11.5795 10.016 10.7977 10.7978C10.0159 11.5796 9.53508 12.3638 9.17569 13.2885C8.82809 14.183 8.59043 15.2053 8.52205 16.702C8.45367 18.202 8.4375 18.6809 8.4375 22.5C8.4375 26.3191 8.45367 26.798 8.52205 28.298C8.59043 29.7947 8.82809 30.817 9.17569 31.7115C9.53508 32.6362 10.0159 33.4204 10.7977 34.2023C11.5795 34.9841 12.3637 35.4649 13.2884 35.8243C14.183 36.1718 15.2053 36.4096 16.702 36.4779C18.202 36.5463 18.6809 36.5625 22.5 36.5625C26.3191 36.5625 26.798 36.5463 28.298 36.4779C29.7947 36.4096 30.817 36.1718 31.7115 35.8243C32.6362 35.4649 33.4204 34.9841 34.2023 34.2023C34.9841 33.4204 35.4649 32.6362 35.8243 31.7115C36.1718 30.817 36.4096 29.7947 36.4779 28.298C36.5463 26.798 36.5625 26.3191 36.5625 22.5C36.5625 18.6809 36.5463 18.202 36.4779 16.702C36.4096 15.2053 36.1718 14.183 35.8243 13.2885C35.4649 12.3638 34.9841 11.5796 34.2023 10.7978C33.4204 10.016 32.6362 9.53517 31.7115 9.17578C30.817 8.82817 29.7947 8.59043 28.298 8.52214C26.798 8.45367 26.3191 8.4375 22.5 8.4375ZM22.5 10.9713C26.2549 10.9713 26.6996 10.9856 28.1825 11.0533C29.5536 11.1159 30.2981 11.3449 30.7936 11.5375C31.4501 11.7925 31.9185 12.0974 32.4105 12.5895C32.9027 13.0815 33.2075 13.55 33.4625 14.2064C33.6551 14.7019 33.8842 15.4464 33.9467 16.8175C34.0144 18.3004 34.0287 18.7451 34.0287 22.5C34.0287 26.2549 34.0144 26.6996 33.9467 28.1825C33.8842 29.5536 33.6551 30.2981 33.4625 30.7936C33.2075 31.4501 32.9027 31.9185 32.4105 32.4105C31.9185 32.9027 31.4501 33.2075 30.7936 33.4625C30.2981 33.6551 29.5536 33.8842 28.1825 33.9467C26.6999 34.0144 26.2551 34.0287 22.5 34.0287C18.7449 34.0287 18.3002 34.0144 16.8175 33.9467C15.4464 33.8842 14.7019 33.6551 14.2064 33.4625C13.5499 33.2075 13.0815 32.9027 12.5894 32.4105C12.0973 31.9185 11.7925 31.4501 11.5375 30.7936C11.3449 30.2981 11.1158 29.5536 11.0532 28.1825C10.9855 26.6996 10.9713 26.2549 10.9713 22.5C10.9713 18.7451 10.9855 18.3004 11.0532 16.8175C11.1158 15.4464 11.3449 14.7019 11.5375 14.2064C11.7925 13.55 12.0973 13.0815 12.5894 12.5895C13.0815 12.0974 13.5499 11.7925 14.2064 11.5375C14.7019 11.3449 15.4464 11.1159 16.8175 11.0533C18.3004 10.9856 18.7451 10.9713 22.5 10.9713ZM22.5 15.2787C18.5118 15.2787 15.2787 18.5118 15.2787 22.5C15.2787 26.4882 18.5118 29.7213 22.5 29.7213C26.4882 29.7213 29.7213 26.4882 29.7213 22.5C29.7213 18.5118 26.4882 15.2787 22.5 15.2787ZM22.5 27.1875C19.9112 27.1875 17.8125 25.0888 17.8125 22.5C17.8125 19.9112 19.9112 17.8125 22.5 17.8125C25.0888 17.8125 27.1875 19.9112 27.1875 22.5C27.1875 25.0888 25.0888 27.1875 22.5 27.1875ZM31.6942 14.9934C31.6942 15.9254 30.9386 16.6808 30.0066 16.6808C29.0747 16.6808 28.3192 15.9254 28.3192 14.9934C28.3192 14.0614 29.0747 13.3059 30.0066 13.3059C30.9386 13.3059 31.6942 14.0614 31.6942 14.9934Z" fill="black"/>
</g>
<defs>
<clipPath id="clip0_19_3174">
<rect width="45" height="45" fill="white"/>
</clipPath>
</defs>
</svg>
