<svg width="216" height="85" viewBox="0 0 216 85" fill="none" xmlns="http://www.w3.org/2000/svg">
<path d="M43.1813 78.9145C63.2573 78.9145 79.5321 62.6397 79.5321 42.5637C79.5321 22.4877 63.2573 6.21289 43.1813 6.21289C23.1054 6.21289 6.83057 22.4877 6.83057 42.5637C6.83057 62.6397 23.1054 78.9145 43.1813 78.9145Z" fill="#CF9F66"/>
<path d="M43.2493 73.6885C60.4015 73.6885 74.3061 59.7838 74.3061 42.6316C74.3061 25.4793 60.4015 11.5747 43.2493 11.5747C26.097 11.5747 12.1924 25.4793 12.1924 42.6316C12.1924 59.7838 26.097 73.6885 43.2493 73.6885Z" fill="#89643D"/>
<path d="M39.667 65.0873C53.2265 65.0873 64.2187 54.0951 64.2187 40.5356C64.2187 26.9761 53.2265 15.9839 39.667 15.9839C26.1074 15.9839 15.1152 26.9761 15.1152 40.5356C15.1152 54.0951 26.1074 65.0873 39.667 65.0873Z" fill="#C45C00"/>
<path d="M13.3449 34.5074C13.3449 34.5074 20.1077 28.398 27.431 29.6836C34.7542 30.9692 35.846 38.1836 32.8763 40.9315C32.8763 40.9315 31.9067 40.8146 31.3928 39.2169C30.8788 37.6192 29.2903 34.1594 26.14 34.17C22.9897 34.1807 19.6229 34.6774 12.7366 40.1785C12.557 38.2664 12.7638 36.3378 13.3449 34.5074Z" fill="#C98019"/>
<path d="M38.95 27.4206C38.95 27.4206 48.5882 21.0854 54.849 27.8801C56.0973 30.1494 57.6008 32.2686 59.3301 34.1967C61.1775 35.8382 65.8379 37.2434 65.5722 42.9304C65.3066 48.6175 62.6583 50.5007 61.1735 50.6335C59.6886 50.7664 51.275 49.5392 49.3784 52.1954C47.4819 54.8517 48.377 61.3103 45.9651 64.3239C43.5533 67.3374 32.2602 63.0807 35.5261 54.7614C38.7919 46.442 33.2178 41.7803 32.1765 39.5543C31.1353 37.3284 28.3994 31.7556 35.8594 29.1445C43.3195 26.5334 41.654 31.9986 39.6844 32.6521C37.7148 33.3055 33.9376 33.7398 34.6628 37.7109C35.3879 41.682 40.209 43.475 39.8744 49.2656C39.5397 55.0562 37.1477 56.5384 38.2872 58.836C39.4268 61.1337 43.3115 63.276 44.1429 60.7539C44.9743 58.2318 43.9783 50.8673 49.0079 47.9016C54.0375 44.9359 59.5107 48.2841 61.1204 46.6957C62.7301 45.1072 62.4883 41.0352 59.249 38.7535C56.2979 36.5483 53.8804 33.7078 52.1754 30.4421C50.5817 27.572 44.9611 27.6251 40.0895 30.551C35.2179 33.4768 34.5313 30.0861 38.95 27.4206Z" fill="#EB9800"/>
<path d="M35.4491 24.2659C35.4491 24.2659 31.6188 19.498 35.7387 14.9598C39.8585 10.4216 52.8914 13.7352 51.6576 20.8806C50.4238 28.0259 51.9723 27.7934 53.9154 29.0791C55.8584 30.3647 59.2491 30.0938 61.8403 31.6676C64.4315 33.2414 66.607 36.4966 63.0688 41.0016C61.4179 43.2266 59.0191 44.7806 56.3137 45.378C53.6083 45.9753 50.7782 45.5758 48.3439 44.2529C42.7445 41.5263 38.6991 39.4079 35.914 46.7856C33.1289 54.1634 31.7277 59.6605 27.5933 59.9978C23.4588 60.3352 22.484 58.853 24.1242 57.0056C25.7645 55.1581 27.5773 57.0574 29.1897 54.6282C30.802 52.1991 30.7516 48.6782 34.3827 43.3976C38.0138 38.117 43.0898 38.6814 48.1088 41.4426C49.0123 42.0123 50.0209 42.395 51.0749 42.5682C52.1289 42.7413 53.2069 42.7013 54.2452 42.4506C55.2835 42.1998 56.2609 41.7434 57.1197 41.1083C57.9785 40.4733 58.7013 39.6724 59.2452 38.7531C61.3024 35.644 60.5839 33.3516 52.0826 32.4777C52.0826 32.4777 46.0994 30.7512 47.0477 25.0974C47.9959 19.4435 46.3703 16.4074 42.8163 16.2919C39.2622 16.1763 36.3642 19.0809 37.9978 24.3138C39.6314 29.5466 35.4491 24.2659 35.4491 24.2659Z" fill="#D68B00"/>
<path d="M63.2095 34.6638C63.2095 34.6638 64.7356 27.7111 58.8413 23.9525C52.9471 20.1939 47.6373 26.3192 44.912 31.9212C42.1867 37.5233 44.5627 42.5861 41.172 44.9568C37.7813 47.3275 31.8326 44.5052 28.1563 45.0033C24.4801 45.5013 15.32 51.3185 26.961 61.3897C38.602 71.4609 52.3534 60.1678 54.1531 57.4465C55.9527 54.7252 56.5224 51.7515 58.8745 49.6756C61.2266 47.5998 56.7323 47.0008 55.5742 48.3302C53.9217 50.3573 52.5378 52.5893 51.457 54.9709C50.174 57.7599 43.3036 61.1719 38.3603 61.2542C33.417 61.3366 26.5905 58.7759 25.6648 52.9959C24.7391 47.2159 33.1156 49.1244 34.9616 49.9253C36.8077 50.7262 47.8126 49.0687 47.8126 39.5699C47.8126 30.0712 53.647 26.9527 57.5597 27.5796C61.4724 28.2065 60.0433 35.648 58.917 36.7184C57.7908 37.7889 52.9259 41.9738 46.6983 37.0212L45.5149 40.2884C45.5149 40.2884 50.7371 45.6979 56.3511 43.545C61.9651 41.3921 63.2095 34.6638 63.2095 34.6638Z" fill="#EBBA1D"/>
<path d="M29.9239 42.2264C29.9239 42.2264 21.7838 36.3189 28.3434 27.3514C34.9031 18.3839 47.0488 19.8223 47.8124 23.8903C48.5761 27.9584 45.7073 31.8232 49.1406 36.9232C52.5738 42.0232 59.577 41.4176 62.5546 48.9441C65.5323 56.4706 52.9921 65.7714 45.1668 58.6022C37.3415 51.433 43.8626 46.6358 45.9637 45.5135C48.0648 44.3913 48.9227 46.4233 47.7659 48.1698C46.6091 49.9163 41.63 53.6443 48.6717 57.5689C55.7134 61.4935 62.7591 53.0599 58.5277 48.6891C54.2963 44.3182 53.2591 46.0421 47.9559 40.4388C42.6527 34.8354 44.7192 29.8138 44.7365 27.7286C44.7538 25.6434 42.2702 22.4294 37.987 24.3113C33.7038 26.1933 23.942 33.9827 33.1061 41.8253C33.1207 41.828 33.393 43.4748 29.9239 42.2264Z" fill="#FFCA1F"/>
<path d="M64.7169 34.0436C64.7169 34.0436 56.3311 29.1946 50.8672 38.7133C45.4033 48.2319 62.0367 53.9243 63.1842 49.6543C64.3317 45.3844 62.819 47.0393 60.7856 47.3686C58.7523 47.698 51.4888 47.9198 52.7465 40.0958C53.8422 33.3131 62.2041 34.5908 64.0568 36.2735C64.1777 36.3943 64.3248 36.4856 64.4867 36.5402C64.6486 36.5948 64.821 36.6112 64.9903 36.5882C65.1596 36.5652 65.3214 36.5033 65.4628 36.4075C65.6043 36.3117 65.7218 36.1844 65.806 36.0358C66.049 35.5497 65.9042 34.8869 64.7169 34.0436Z" fill="#FFD85E"/>
<path d="M43.6952 52.7863C43.6952 52.7863 49.1857 49.713 48.3928 44.8933C47.5999 40.0735 46.799 41.1187 46.9318 42.0391C47.0647 42.9595 48.2786 46.1789 46.4458 48.6333C45.5641 50.0676 44.3667 51.2818 42.9448 52.1833C41.031 53.6443 43.3061 53.0546 43.6952 52.7863Z" fill="#FFE38A"/>
<path d="M41.9092 21.4345C41.9092 21.4345 46.1964 20.8143 47.1513 23.6458C48.1062 26.4774 47.5192 24.8319 46.207 23.9646C44.8948 23.0973 39.1493 22.4452 41.9092 21.4345Z" fill="#FFD85E"/>
<path d="M48.7595 69.6547C60.7354 69.6547 70.4438 59.9463 70.4438 47.9704C70.4438 35.9945 60.7354 26.2861 48.7595 26.2861C36.7836 26.2861 27.0752 35.9945 27.0752 47.9704C27.0752 59.9463 36.7836 69.6547 48.7595 69.6547Z" fill="#D96600"/>
<path d="M59.3964 69.3159C59.3964 69.3159 63.236 62.2423 60.6156 56.2219C57.9953 50.2015 51.5724 50.762 49.8286 53.8818C49.8286 53.8818 50.1314 54.6906 51.6096 54.8008C53.0878 54.9111 56.3909 55.5565 57.031 58.2632C57.6712 60.97 57.9474 63.9622 54.6537 71.0132C56.3324 70.7713 57.9453 70.194 59.3964 69.3159Z" fill="#C98019"/>
<path d="M60.164 45.864C60.164 45.864 63.6025 36.2763 56.4692 32.3171C54.2621 31.7159 52.1309 30.8648 50.1167 29.7804C48.3251 28.5346 46.1523 24.8278 41.3259 26.2396C36.4995 27.6514 35.4343 30.3063 35.6269 31.6092C35.8195 32.9121 38.6205 39.8742 36.7332 42.0536C34.846 44.2331 29.1164 44.8042 27.0299 47.4989C24.9435 50.1937 30.9399 59.0058 37.4013 54.4769C43.8626 49.948 49.0237 53.765 51.15 54.198C53.2763 54.631 58.6353 55.8196 59.3299 48.8775C60.0246 41.9354 55.6776 44.4947 55.5249 46.3222C55.3721 48.1497 55.7905 51.482 52.2245 51.6838C48.6585 51.8857 46.1257 48.1178 41.2289 49.6053C36.3321 51.0928 35.5445 53.4569 33.3425 52.9495C31.1405 52.4422 28.4869 49.5575 30.4804 48.321C32.4739 47.0845 39.0017 46.4112 40.4985 41.4785C41.9953 36.5459 37.991 32.5389 39.0203 30.8323C40.0495 29.1256 43.5956 28.4828 46.2267 30.7898C48.7315 32.8659 51.6716 34.3516 54.8289 35.1367C57.618 35.9097 58.7442 40.7467 57.2435 45.5333C55.7427 50.3199 58.796 50.2096 60.164 45.864Z" fill="#EB9800"/>
<path d="M63.6012 48.2109C64.967 48.8449 66.5134 48.9739 67.9652 48.5748C69.4171 48.1757 70.6804 47.2744 71.5301 46.0314C74.5715 41.553 69.0226 31.0528 63.1457 33.5949C57.2687 36.1369 57.1452 34.7583 55.6378 33.3571C54.1304 31.9559 53.6562 28.9916 51.7716 27.0937C49.887 25.1958 46.6358 24.0031 43.504 27.9742C41.9378 29.8533 41.1022 32.2346 41.151 34.6804C41.1998 37.1262 42.1297 39.4722 43.7697 41.2874C47.2719 45.5294 49.9308 48.5628 44.1681 52.4848C38.4054 56.4067 33.9854 58.7495 34.5525 62.3687C35.1196 65.9878 36.5951 66.5177 37.8409 64.7261C39.0867 62.9345 37.0786 61.7684 38.8304 59.8851C40.5822 58.0018 43.6116 57.3099 47.3941 53.0957C51.1766 48.8816 49.636 44.6422 46.2254 40.9075C45.5489 40.2499 45.0112 39.4633 44.6441 38.5943C44.2769 37.7253 44.0877 36.7914 44.0877 35.848C44.0877 34.9046 44.2769 33.9708 44.6441 33.1017C45.0112 32.2327 45.5489 31.4461 46.2254 30.7885C48.4672 28.378 50.5843 28.5188 53.0984 35.6349C53.0984 35.6349 55.8197 40.4161 60.4788 38.4239C65.1379 36.4317 68.0797 37.202 68.9164 40.2288C69.7531 43.2556 67.8672 46.3515 63.0315 46.0341C58.1958 45.7167 63.6012 48.2109 63.6012 48.2109Z" fill="#D68B00"/>
<path d="M48.912 26.5424C48.912 26.5424 54.5632 23.7905 59.0137 28.0697C63.4642 32.3489 59.3072 38.1781 55.0652 41.6803C50.8232 45.1826 45.9835 44.1931 44.65 47.5905C43.3166 50.9878 46.9756 55.5141 47.3063 58.7786C47.637 62.0431 44.5504 71.1089 33.4938 63.2092C22.4371 55.3095 29.2743 41.1624 31.236 39.0493C33.1976 36.9363 35.6334 35.8326 36.9283 33.3822C38.2232 30.9318 39.6682 34.6665 38.7678 35.9375C37.3701 37.7769 35.7413 39.4285 33.9214 40.8516C31.7964 42.529 30.2903 49.1364 31.2453 53.397C32.2002 57.6577 35.8153 62.9861 40.9685 62.5824C46.1216 62.1786 42.7468 55.3826 41.6764 53.9655C40.6059 52.5484 39.7413 42.7521 47.8973 40.7825C56.0533 38.8129 57.5222 33.1538 56.1675 29.9264C54.8128 26.6991 48.73 29.4682 48.0407 30.6569C47.3514 31.8456 44.7709 36.8911 50.3145 41.2035L47.7565 42.8982C47.7565 42.8982 42.0296 39.5381 42.7096 34.2654C43.3896 28.9927 48.912 26.5424 48.912 26.5424Z" fill="#EBBA1D"/>
<path d="M49.3293 56.6856C49.3293 56.6856 56.0907 62.447 62.4259 54.9591C68.7611 47.4711 65.0091 37.3388 61.3634 37.5261C57.7177 37.7134 54.9884 40.9792 49.899 39.088C44.8097 37.1967 43.876 31.0608 36.7957 30.0567C29.7155 29.0527 24.3286 41.7562 32.1075 46.989C39.8863 52.2218 42.6501 45.625 43.1774 43.585C43.7047 41.545 41.7815 41.2329 40.5211 42.5889C39.2607 43.9449 37.0946 48.9931 32.2642 43.7617C27.4338 38.5302 33.2125 30.7328 37.8423 33.4594C42.4722 36.186 41.2078 37.4318 47.1179 40.8225C53.0281 44.2132 56.9115 41.3963 58.6979 40.9553C60.4842 40.5144 63.758 41.974 63.0315 46.0407C62.305 50.1074 57.6407 60.0976 49.0079 53.8581C49.0079 53.8581 47.5389 53.9656 49.3293 56.6856Z" fill="#FFCA1F"/>
<path d="M72.1662 52.5286C70.0726 51.7827 68.2407 50.4446 66.8935 48.677C64.0447 45.3952 60.3167 41.9261 52.7928 45.2558C45.269 48.5854 46.3448 57.1743 52.0438 60.7948C52.0438 60.7948 53.9177 61.2729 51.8685 58.9447C49.8192 56.6165 47.811 52.4303 51.7356 49.3397C55.6602 46.2492 59.371 46.115 62.6409 48.9413C65.9107 51.7675 67.45 55.1011 71.3029 55.9445C71.7592 54.8552 72.0502 53.7038 72.1662 52.5286Z" fill="#FFD03B"/>
<path d="M60.3591 67.26C60.3591 67.26 70.3134 64.7166 69.9216 52.227C69.9216 52.227 69.1924 45.6474 61.909 46.5652C54.6256 47.4829 51.9295 45.3977 49.6013 42.9168C47.2731 40.4359 42.6206 38.6376 38.1701 43.8757C33.7195 49.1138 38.2405 65.4405 49.661 62.6793C61.0816 59.9181 50.1843 69.5948 48.3754 69.3877C46.5665 69.1805 45.7869 68.7714 43.1386 66.5189C40.4903 64.2664 34.7781 57.2672 28.1932 57.8861C28.1932 57.8861 27.6115 58.3987 29.3713 60.2462C31.131 62.0936 33.1644 59.4493 39.5606 65.7194C45.9569 71.9895 48.1682 74.2526 55.3892 67.0568C62.6103 59.861 55.6549 59.2939 54.0253 59.5715C52.3956 59.8491 46.2929 61.6527 42.8225 57.7931C39.3521 53.9336 38.9019 47.5068 41.8158 45.0524C44.7297 42.598 46.5625 43.4587 48.9027 46.2703C51.2428 49.082 57.7413 50.592 61.9515 49.2387C66.1617 47.8853 69.3757 53.7198 65.3223 60.9102C61.2688 68.1007 51.0901 66.1218 49.0076 65.8748C47.2717 65.6649 41.1145 64.8561 38.3653 66.7048C38.1661 66.847 38.0035 67.0345 37.8911 67.252C37.7787 67.4694 37.7196 67.7105 37.7189 67.9552C37.7181 68.2 37.7756 68.4414 37.8866 68.6596C37.9976 68.8777 38.159 69.0663 38.3574 69.2097C38.8439 69.6518 39.4856 69.8834 40.1424 69.8538C41.2819 69.6041 40.3668 67.7288 53.8154 68.2707C55.3978 68.3327 56.981 68.1713 58.5183 67.7912C59.1292 67.6359 59.7654 67.4592 60.3591 67.26Z" fill="#FFD85E"/>
<path d="M49.1406 25.1188C49.1406 25.1188 55.0428 31.3119 48.0037 37.9724C40.9646 44.6329 32.6293 31.5403 36.0506 29.669C39.4718 27.7976 38.3721 29.4392 38.5103 31.2547C38.6484 33.0703 39.9712 39.3563 46.4219 36.6469C52.0173 34.2988 49.1857 27.3846 47.3516 26.1441C47.2228 26.0654 47.1139 25.958 47.0335 25.8303C46.953 25.7026 46.9031 25.5581 46.8877 25.408C46.8723 25.2578 46.8917 25.1062 46.9446 24.9648C46.9974 24.8234 47.0821 24.6961 47.1922 24.5929C47.5654 24.2887 48.1644 24.2741 49.1406 25.1188Z" fill="#FFD85E"/>
<path d="M37.4079 47.0552C37.4079 47.0552 38.906 41.7055 43.2078 41.3854C47.5096 41.0653 46.7791 41.9658 45.9623 42.0495C45.1455 42.1332 42.1293 41.7507 40.4028 43.8332C39.3545 44.888 38.5605 46.168 38.0812 47.5758C37.2232 49.5189 37.2578 47.443 37.4079 47.0552Z" fill="#FFE38A"/>
<path d="M64.6915 42.0827C64.6915 42.0827 64.3356 38.2736 61.7059 38.0412C59.0762 37.8088 60.6115 37.9708 61.6289 38.9178C62.6462 39.8647 64.4033 44.6593 64.6915 42.0827Z" fill="#FFD85E"/>
<path d="M28.4219 15.9878C28.4219 15.9878 29.6903 18.5033 34.0611 20.7691C38.432 23.0349 43.2398 26.2144 41.577 35.3784C39.9142 44.5425 30.1764 45.6448 24.6806 40.3337C24.6806 40.3337 23.6553 38.3986 26.7631 40.0362C29.8709 41.6738 35.0121 42.7681 37.3682 37.623C39.7243 32.4778 38.8862 28.3606 34.9018 25.5145C30.9175 22.6683 26.8428 21.8608 24.8904 17.8445C24.8931 17.8419 27.6968 15.9254 28.4219 15.9878Z" fill="#FFD03B"/>
<path d="M15.3503 32.9014C15.3503 32.9014 15.503 21.2683 29.3527 18.3836C29.3527 18.3836 36.7902 17.4354 37.7199 25.6963C38.6496 33.9572 41.6591 36.3691 45.0113 38.271C48.3635 40.1729 51.5776 44.8147 46.9955 51.1073C42.4135 57.4 23.242 56.7665 23.242 43.4626C23.242 30.1588 15.4924 44.7257 16.203 46.6621C16.9135 48.5985 17.5696 49.3475 20.7531 51.6625C23.9366 53.9774 33.1605 58.4027 34.2296 65.815C34.2296 65.815 33.8192 66.5906 31.3183 65.1509C28.8175 63.7112 31.1855 60.7681 22.5833 55.3932C13.981 50.0183 10.8958 48.1894 16.9002 38.3294C22.9047 28.4694 25.3737 35.972 25.5012 37.838C25.6287 39.704 25.2674 46.9011 30.4391 49.6942C35.6108 52.4872 42.8 51.2654 44.7244 47.4138C46.6489 43.5622 45.2132 41.7653 41.4984 39.9365C37.7837 38.1076 34.3983 31.3541 34.7622 26.3604C35.1261 21.3666 27.8559 19.3824 21.0201 25.7561C14.1842 32.1297 19.069 42.7986 19.9018 45.0232C20.5951 46.8826 23.1225 53.4382 21.8183 56.9564C21.7147 57.2134 21.5514 57.442 21.342 57.6234C21.1326 57.8048 20.883 57.9338 20.6139 57.9998C20.3448 58.0657 20.0639 58.0666 19.7943 58.0025C19.5248 57.9384 19.2744 57.8111 19.0637 57.6311C18.4482 57.2129 18.0229 56.5684 17.8804 55.8381C17.8525 54.5179 20.1568 55.0266 15.9851 40.3694C15.4971 38.6443 15.2539 36.8591 15.2626 35.0662C15.2653 34.3543 15.2879 33.6013 15.3503 32.9014Z" fill="#FFE38C"/>
<path d="M35.2695 20.2593C35.2695 20.2593 37.4941 21.4732 37.9497 27.4418C38.125 29.7218 38.8819 31.9187 40.1482 33.8228C41.4145 35.7269 43.1478 37.2745 45.1827 38.3178C46.1423 38.8198 46.9861 39.5173 47.6596 40.3653C48.3332 41.2134 48.8215 42.1932 49.0932 43.2416C49.3648 44.2899 49.4138 45.3836 49.2369 46.452C49.06 47.5205 48.6611 48.54 48.066 49.4448C48.066 49.4448 51.4554 42.2623 44.7776 38.6711C38.0998 35.0798 37.5964 30.1711 37.2923 27.3408C36.9881 24.5106 36.9377 22.5357 35.2695 20.2593Z" fill="#FFF4D1"/>
<path d="M60.3914 25.8906C59.6229 24.7328 58.4806 23.8736 57.155 23.4564C55.8295 23.0392 54.401 23.0893 53.1079 23.5983C53.1079 23.5983 51.6244 24.4748 53.5794 24.3407C54.7051 24.1336 55.8635 24.1905 56.9634 24.507C58.0634 24.8234 59.075 25.3907 59.9185 26.1642C61.9426 28.1843 60.661 26.228 60.3914 25.8906Z" fill="#FFD03B"/>
<path d="M46.7007 47.2028C46.7007 47.2028 48.3184 44.775 47.0991 42.7509C45.8799 40.7269 46.4497 40.3762 47.1124 40.8225C47.738 41.4084 48.2204 42.1303 48.5223 42.9324C48.8243 43.7346 48.9376 44.5954 48.8536 45.4484C48.754 47.9718 47.1669 51.5192 44.4708 52.3958C41.7747 53.2723 43.4627 50.7768 46.7007 47.2028Z" fill="#FFF0C2"/>
<path d="M18.8474 35.7372C18.8474 35.7372 21.2752 32.9721 22.8942 33.7145C23.5111 34.1131 24.0272 34.6495 24.4017 35.2814C24.7762 35.9134 24.9989 36.6236 25.0524 37.3562C25.1188 38.0309 25.318 41.0657 25.4508 41.8068C25.5836 42.5479 24.642 42.3473 24.5742 40.9979C24.5065 39.6486 24.5742 34.9284 22.6856 34.5911C22.0038 34.4777 21.3037 34.5637 20.6696 34.839C20.0355 35.1142 19.4945 35.5668 19.1117 36.1423C18.6455 36.817 18.5777 36.1423 18.8474 35.7372Z" fill="#FFF0C2"/>
<path opacity="0.51" d="M72.1333 40.0098C75.617 55.5077 60.0142 75.8691 43.3714 71.1384C28.098 66.7941 13.0317 60.5426 13.0317 44.6582C13.0317 28.7738 26.6955 12.6172 42.5825 12.6172C58.4696 12.6172 69.6431 28.9279 72.1333 40.0098Z" fill="#FFF276"/>
<path d="M57.8557 18.3453C57.8557 18.3453 56.0295 16.6015 54.9511 18.5113C53.8726 20.4211 55.9471 20.6695 56.9432 20.8355C56.9432 20.8355 55.7811 21.9976 57.3576 22.4957C58.9341 22.9937 61.2596 22.3297 63.9159 25.2343C66.5721 28.1389 70.6389 36.275 68.8964 40.8397C67.1539 45.4045 71.7186 49.3065 70.8886 52.2125C70.0585 55.1184 68.9787 59.4335 66.9042 61.0936C64.8296 62.7538 62.5041 65.244 64.912 64.912C64.912 64.912 71.8846 58.5211 72.6311 45.8202C73.2396 41.8781 72.6011 37.8443 70.8049 34.2828C68.9217 30.9607 66.814 27.7711 64.4963 24.7362C63.9159 23.7401 63.2518 21.0839 57.8557 18.3453Z" fill="#FFF2FF"/>
<path d="M27.143 65.1615C27.143 65.1615 25.1508 63.4177 27.3927 62.5052C29.6345 61.5928 31.211 64.4974 31.211 65.4099C31.211 66.3223 33.0372 67.6517 36.4398 68.4818C39.8425 69.3119 40.0922 68.0661 41.836 68.5641C43.5798 69.0622 46.3184 71.3864 49.057 70.8884C51.7956 70.3903 52.5434 71.3041 50.5512 71.6361C48.559 71.9681 36.5235 70.7224 27.143 65.1615Z" fill="#FFF2FF"/>
<path d="M50.1779 24.9022C51.1175 24.9022 51.8792 24.2148 51.8792 23.3669C51.8792 22.5189 51.1175 21.8315 50.1779 21.8315C49.2383 21.8315 48.4766 22.5189 48.4766 23.3669C48.4766 24.2148 49.2383 24.9022 50.1779 24.9022Z" fill="#FFF2FF"/>
<path d="M36.9312 34.7966C36.9784 36.2983 36.7161 37.7936 36.1606 39.1897C35.6052 40.5857 34.7685 41.8525 33.7026 42.9113C32.6366 43.9702 31.3643 44.7984 29.9646 45.3445C28.5649 45.8906 27.0678 46.1428 25.5664 46.0856C22.3713 46.0629 19.3117 44.7917 17.041 42.5437C14.7704 40.2956 13.4688 37.2489 13.4141 34.0541C13.4141 27.4879 19.0347 22.7266 25.6009 22.7266C32.1672 22.7266 36.9312 28.2356 36.9312 34.7966Z" fill="#965030"/>
<path d="M25.5666 44.7469C31.3891 44.7469 36.1092 40.0268 36.1092 34.2043C36.1092 28.3817 31.3891 23.6616 25.5666 23.6616C19.744 23.6616 15.0239 28.3817 15.0239 34.2043C15.0239 40.0268 19.744 44.7469 25.5666 44.7469Z" fill="#FFB95C"/>
<path d="M25.5665 44.0739C30.8367 44.0739 35.1091 39.8016 35.1091 34.5313C35.1091 29.2611 30.8367 24.9888 25.5665 24.9888C20.2963 24.9888 16.0239 29.2611 16.0239 34.5313C16.0239 39.8016 20.2963 44.0739 25.5665 44.0739Z" fill="#FFE9CC"/>
<path d="M25.5666 43.5263C30.2677 43.5263 34.0786 39.7154 34.0786 35.0144C34.0786 30.3134 30.2677 26.5024 25.5666 26.5024C20.8656 26.5024 17.0547 30.3134 17.0547 35.0144C17.0547 39.7154 20.8656 43.5263 25.5666 43.5263Z" fill="url(#paint0_linear_19_2605)"/>
<path opacity="0.47" d="M16.7065 39.8435C16.7065 39.8435 21.529 29.2451 28.8748 24.4784C28.8748 24.4784 30.1644 24.08 31.1738 25.7123C32.1832 27.3445 19.1171 35.9189 22.7628 37.2085C26.4085 38.4981 33.5857 28.7962 35.8847 32.7221C35.8847 32.7221 36.6138 34.4606 33.5857 36.9841C30.5576 39.5075 27.3594 43.7748 27.1921 44.6712C26.374 44.7713 25.5495 44.8091 24.7258 44.7841C27.0508 41.4003 29.7814 38.3138 32.8565 35.5935C35.2113 33.9679 33.7544 32.9014 30.7315 35.3691C27.7087 37.8367 21.1983 40.9777 20.9167 37.332C20.6351 33.6863 26.3009 28.8081 27.5347 27.9674C28.7686 27.1267 28.0394 26.6207 26.8614 27.6872C22.7421 31.3332 19.551 35.9083 17.5526 41.0335C17.2236 40.6724 16.9396 40.2728 16.7065 39.8435Z" fill="#FF9100"/>
<path d="M16.7065 39.8436C18.5348 36.1278 20.7935 32.6396 23.4361 29.451C26.9503 25.638 28.7818 24.2541 29.7168 24.5529C29.4755 24.424 29.2257 24.3118 28.9691 24.2169C28.5573 24.0668 25.828 25.7124 22.4267 29.6755C20.033 32.6662 17.9998 35.9284 16.3691 39.3947L16.7065 39.8436Z" fill="#FFE9CC"/>
<path d="M13.8273 37.157C13.1114 34.5601 13.3561 31.7922 14.5167 29.3613C15.6773 26.9303 17.6757 24.9996 20.1452 23.9236C22.6061 22.6307 25.4571 22.2895 28.1536 22.9651C30.8501 23.6408 33.2033 25.286 34.7639 27.5865C34.7639 27.5865 28.5947 19.7732 20.1452 24.148C17.7932 25.3025 15.8943 27.2095 14.7497 29.5663C13.6051 31.9231 13.2805 34.5947 13.8273 37.157Z" fill="#70270F"/>
<path d="M29.1762 14.0939C30.4503 13.2976 31.8746 12.7718 33.3606 12.5494C34.8465 12.327 36.3624 12.4126 37.8138 12.801C39.2653 13.1894 40.6213 13.8723 41.7976 14.8071C42.9739 15.7419 43.9453 16.9087 44.6515 18.235C46.2405 21.009 46.6814 24.2945 45.8801 27.3892C45.0787 30.484 43.0986 33.1426 40.363 34.7967C34.6879 38.0998 27.7458 35.6374 24.4414 29.9637C21.137 24.2899 23.5077 17.3983 29.1762 14.0939Z" fill="#965030"/>
<path d="M34.3786 34.7596C40.2011 34.7596 44.9213 30.0395 44.9213 24.217C44.9213 18.3944 40.2011 13.6743 34.3786 13.6743C28.556 13.6743 23.8359 18.3944 23.8359 24.217C23.8359 30.0395 28.556 34.7596 34.3786 34.7596Z" fill="#FFB95C"/>
<path d="M34.6612 33.5949C39.9314 33.5949 44.2038 29.3226 44.2038 24.0523C44.2038 18.7821 39.9314 14.5098 34.6612 14.5098C29.391 14.5098 25.1187 18.7821 25.1187 24.0523C25.1187 29.3226 29.391 33.5949 34.6612 33.5949Z" fill="#FFE9CC"/>
<path d="M35.0784 32.3213C39.7794 32.3213 43.5903 28.5103 43.5903 23.8093C43.5903 19.1083 39.7794 15.2974 35.0784 15.2974C30.3773 15.2974 26.5664 19.1083 26.5664 23.8093C26.5664 28.5103 30.3773 32.3213 35.0784 32.3213Z" fill="url(#paint1_linear_19_2605)"/>
<path opacity="0.47" d="M43.7154 29.0343C43.7154 29.0343 32.1288 30.199 24.3142 26.2452C24.0085 25.8837 23.8334 25.4299 23.8167 24.9568C23.8001 24.4838 23.943 24.0188 24.2225 23.6368C25.1203 21.9461 39.1095 28.9214 38.3896 25.1216C37.6698 21.3218 25.6755 20.0017 27.9107 16.0386C27.9107 16.0386 29.0463 14.5338 32.7504 15.8818C36.4545 17.2299 41.7458 17.8475 42.6064 17.5407C43.1045 18.1978 43.552 18.8917 43.9452 19.6165C39.849 19.3116 35.8057 18.5057 31.9057 17.2166C29.3159 16 29.1286 17.7957 32.7836 19.1716C36.4386 20.5475 42.4271 24.589 39.4176 26.6649C36.4081 28.7407 29.3424 26.301 27.9957 25.6582C26.649 25.0154 26.5786 25.8999 28.0913 26.3807C33.3148 28.1061 38.8744 28.5614 44.3091 27.7088C44.1657 28.1731 43.9663 28.6182 43.7154 29.0343Z" fill="#FF9100"/>
<path d="M43.7154 29.034C39.5841 29.3232 35.4332 29.1262 31.3479 28.4469C26.2838 27.3287 24.1667 26.4415 23.9556 25.4839C23.9642 25.7574 23.9926 26.0299 24.0406 26.2994C24.1176 26.7297 26.9133 28.261 32.0492 29.2066C35.8381 29.7703 39.6803 29.8857 43.4963 29.5506L43.7154 29.034Z" fill="#FFE9CC"/>
<path d="M42.8372 32.875C40.9533 34.7986 38.439 35.9784 35.7555 36.1979C33.072 36.4175 30.3994 35.6621 28.2278 34.0703C25.8718 32.5946 24.1421 30.3024 23.3693 27.6318C22.5966 24.9613 22.835 22.0996 24.0389 19.5938C24.0389 19.5938 20.3906 28.8561 28.4217 33.9561C30.6018 35.4069 33.2039 36.0885 35.8152 35.8926C38.4266 35.6968 40.8979 34.6348 42.8372 32.875Z" fill="#70270F"/>
<path d="M55.573 31.037C54.6108 32.1911 53.4215 33.1349 52.079 33.8097C50.7365 34.4845 49.2696 34.8758 47.7694 34.9594C46.2692 35.043 44.7678 34.817 43.3587 34.2956C41.9495 33.7741 40.6627 32.9683 39.5784 31.9282C37.2048 29.7881 35.7622 26.8046 35.559 23.6152C35.3557 20.4257 36.4079 17.2832 38.4906 14.8592C42.8522 9.95173 50.2166 10.1257 55.1254 14.4859C60.0341 18.8462 59.9345 26.1283 55.573 31.037Z" fill="#965030"/>
<path d="M47.4738 33.5843C53.2964 33.5843 58.0165 28.8642 58.0165 23.0417C58.0165 17.2191 53.2964 12.499 47.4738 12.499C41.6513 12.499 36.9312 17.2191 36.9312 23.0417C36.9312 28.8642 41.6513 33.5843 47.4738 33.5843Z" fill="#FFB95C"/>
<path d="M47.2574 32.8283C52.5276 32.8283 56.8 28.556 56.8 23.2857C56.8 18.0155 52.5276 13.7432 47.2574 13.7432C41.9872 13.7432 37.7148 18.0155 37.7148 23.2857C37.7148 28.556 41.9872 32.8283 47.2574 32.8283Z" fill="#FFE9CC"/>
<path d="M46.9358 32.1592C51.6368 32.1592 55.4477 28.3482 55.4477 23.6472C55.4477 18.9462 51.6368 15.1353 46.9358 15.1353C42.2348 15.1353 38.4238 18.9462 38.4238 23.6472C38.4238 28.3482 42.2348 32.1592 46.9358 32.1592Z" fill="url(#paint2_linear_19_2605)"/>
<path opacity="0.47" d="M37.1014 21.3828C37.1014 21.3828 47.7463 16.6626 56.4044 17.9788C56.8074 18.2268 57.1153 18.6032 57.2784 19.0475C57.4415 19.4917 57.4504 19.978 57.3035 20.4279C56.9781 22.3151 41.5108 20.0507 43.3795 23.4361C45.2481 26.8214 57.0592 24.3352 56.1693 28.7977C56.1693 28.7977 55.5597 30.5814 51.6192 30.4565C47.6786 30.3317 42.4551 31.3942 41.7379 31.9533C41.0594 31.4846 40.4178 30.9647 39.8188 30.3981C43.8057 29.4114 47.8984 28.9163 52.0056 28.9239C54.8465 29.2732 54.464 27.5081 50.562 27.3407C46.6599 27.1734 39.7099 25.2011 41.9212 22.2939C44.1325 19.3866 51.6072 19.5048 53.0881 19.6881C54.5689 19.8714 54.3591 19.0174 52.772 19.032C47.2706 19.0217 41.8459 20.3224 36.9474 22.8264C36.9407 22.3408 36.9924 21.8561 37.1014 21.3828Z" fill="#FF9100"/>
<path d="M37.1011 21.383C40.9359 19.8198 44.9411 18.7125 49.0343 18.0839C54.194 17.5673 56.4824 17.7492 56.9831 18.5939C56.8891 18.337 56.7768 18.0871 56.6471 17.8462C56.4386 17.461 53.3069 16.878 48.1312 17.5805C44.355 18.2261 40.6683 19.3152 37.1476 20.8252L37.1011 21.383Z" fill="#FFE9CC"/>
<path d="M36.7373 17.4526C37.9265 15.0354 39.9478 13.1284 42.43 12.0817C44.9122 11.0351 47.6888 10.9191 50.2496 11.755C52.9492 12.4212 55.3086 14.0591 56.8767 16.3553C58.4448 18.6516 59.1116 21.4452 58.7497 24.2022C58.7497 24.2022 59.3274 14.2638 50.1062 11.9223C47.5802 11.222 44.8927 11.3859 42.4705 12.3879C40.0483 13.3899 38.0304 15.1725 36.7373 17.4526Z" fill="#70270F"/>
<path d="M70.922 44.8216C69.8807 47.113 67.9825 48.9048 65.6349 49.8125C63.2874 50.7202 60.6775 50.6713 58.3656 49.6765C56.0536 48.6817 54.2238 46.8201 53.2688 44.4913C52.3139 42.1626 52.31 39.5523 53.2579 37.2207C56.4521 29.9824 62.1564 26.9689 67.0359 29.0687C71.9154 31.1684 73.7376 38.2712 70.922 44.8216Z" fill="#FFF0DB"/>
<path d="M61.6954 49.4113C65.8287 49.4113 69.1794 46.0606 69.1794 41.9273C69.1794 37.7941 65.8287 34.4434 61.6954 34.4434C57.5621 34.4434 54.2114 37.7941 54.2114 41.9273C54.2114 46.0606 57.5621 49.4113 61.6954 49.4113Z" fill="#FFBC00"/>
<path d="M55.028 33.9655C57.074 32.4333 59.426 31.3597 61.9241 30.8179C64.4222 30.2761 67.0076 30.2788 69.5046 30.8258L70.227 31.6147C70.227 31.6147 63.2571 29.9426 54.1567 35.4238L55.028 33.9655Z" fill="#FFF8F0"/>
<path opacity="0.24" d="M61.633 47.2318C64.6132 47.2318 67.0292 44.8158 67.0292 41.8356C67.0292 38.8554 64.6132 36.4395 61.633 36.4395C58.6528 36.4395 56.2368 38.8554 56.2368 41.8356C56.2368 44.8158 58.6528 47.2318 61.633 47.2318Z" fill="#FFF276"/>
<path d="M61.7713 64.8722C59.4018 65.8162 56.7543 65.7802 54.4113 64.7722C52.0683 63.7642 50.2217 61.8668 49.2776 59.4973C48.3336 57.1277 48.3696 54.4803 49.3776 52.1372C50.3856 49.7942 52.283 47.9476 54.6526 47.0036C62.0276 44.1441 68.1994 46.0473 70.1584 50.988C72.1174 55.9286 68.3987 62.2332 61.7713 64.8722Z" fill="#FFF8ED"/>
<path d="M57.294 63.7883C61.4273 63.7883 64.778 60.4376 64.778 56.3043C64.778 52.171 61.4273 48.8203 57.294 48.8203C53.1608 48.8203 49.8101 52.171 49.8101 56.3043C49.8101 60.4376 53.1608 63.7883 57.294 63.7883Z" fill="#FFBC00"/>
<path d="M58.2116 45.9531C60.7425 46.3164 63.1654 47.2207 65.3154 48.6045C67.4654 49.9883 69.2919 51.8191 70.6707 53.9723L70.6229 55.0348C70.6229 55.0348 66.8763 48.9255 56.5674 46.3648L58.2116 45.9531Z" fill="white"/>
<path d="M50.0276 70.4117C50.0276 70.4117 39.4319 60.387 41.9513 50.3729C44.4708 40.3589 47.9079 50.2467 45.7285 51.7369C43.549 53.2271 44.3672 57.2632 45.5957 59.7057C46.8242 62.1481 49.1112 65.2718 50.794 65.4498C52.4767 65.6278 56.2645 72.9471 50.0276 70.4117Z" fill="#351207"/>
<path d="M53.7321 68.5207C53.7321 68.5207 43.3488 62.1563 43.6822 53.5421C44.0155 44.9279 48.5258 52.4132 47.0025 54.0056C45.4791 55.5981 46.8431 58.755 48.2655 60.54C49.688 62.325 52.0958 64.4806 53.501 64.3358C54.9062 64.191 59.2637 69.5181 53.7321 68.5207Z" fill="#4A190A"/>
<path d="M47.0875 70.0796C47.0875 70.0796 39.0311 63.439 42.1588 57.8688C45.2866 52.2987 47.2495 58.2792 45.2467 58.9619C43.2439 59.6445 43.5454 62.0378 44.3516 63.5465C45.1577 65.0553 46.8059 67.0422 48.2231 67.2812C49.6402 67.5203 52.157 72.0479 47.0875 70.0796Z" fill="#6B240E"/>
<path d="M53.85 69.6577C53.85 69.6577 45.1813 60.9943 47.5294 52.643C49.8775 44.2918 52.5338 52.6736 50.6691 53.8742C48.8044 55.0748 49.3981 58.4841 50.3716 60.5653C51.3451 62.6465 53.1952 65.32 54.6057 65.5086C56.0161 65.6972 59.0283 71.9301 53.85 69.6577Z" fill="#6B240E"/>
<path d="M28.5547 41.6195C28.5547 41.6195 29.4844 40.0337 26.9981 40.5304C24.5119 41.0271 25.4469 42.0007 25.4469 42.0007C25.4469 42.0007 26.0313 39.711 24.5079 41.0271C23.5558 41.9986 23.0247 43.306 23.0297 44.6662C23.0297 44.6662 22.2687 41.8904 20.2646 44.0752C19.9848 44.3069 19.7584 44.5962 19.6008 44.9235C19.4432 45.2507 19.3581 45.6081 19.3513 45.9712C19.3444 46.3344 19.4161 46.6947 19.5614 47.0276C19.7066 47.3605 19.922 47.6582 20.1928 47.9002C20.1928 47.9002 19.5965 49.3877 18.9497 49.4275C18.3029 49.4674 18.9431 51.186 18.9431 51.186L18.6615 52.7266C18.6615 52.7266 18.9417 54.5793 20.3549 54.8011C21.768 55.0229 17.8633 55.2965 18.0001 56.282C18.1369 57.2674 20.3004 57.6685 20.3004 57.6685C20.3004 57.6685 18.2737 58.2516 20.2367 59.7351C20.8871 60.1731 21.6205 60.473 22.3915 60.6163C23.1625 60.7595 23.9547 60.743 24.7191 60.5678L23.7164 61.6609C23.7164 61.6609 25.3406 63.2427 25.8905 62.8642C26.4403 62.4857 26.7724 64.1471 27.6702 64.4752C28.568 64.8032 29.6624 63.2453 29.6624 63.2453C29.6624 63.2453 31.6931 65.2216 32.9588 65.296C34.2245 65.3703 34.4622 63.5415 34.4622 63.5415C34.4622 63.5415 35.1581 63.7859 36.2857 62.8774C37.4133 61.969 38.8185 63.5415 39.1996 60.7989C39.5808 58.0564 37.748 59.3114 37.748 59.3114C37.748 59.3114 40.2608 59.8161 40.1466 58.577C40.0324 57.3378 37.8356 56.5516 37.8356 56.5516C37.8356 56.5516 40.723 56.711 39.8438 54.6271C39.667 54.0715 39.3413 53.575 38.902 53.1917C38.4627 52.8084 37.9266 52.5529 37.3522 52.453C37.3522 52.453 37.5674 51.603 37.7028 50.911C37.8383 50.2191 35.8262 49.4687 35.8262 49.4687C35.8262 49.4687 36.3003 50.1713 35.4105 48.3677C34.7466 47.2183 33.6624 46.3717 32.3864 46.0063C32.3864 46.0063 33.6003 44.633 32.8459 43.5346C32.0915 42.4363 29.7261 43.1136 29.7261 43.1136C29.7261 43.1136 32.6148 40.4534 28.5547 41.6195Z" fill="#009C08"/>
<path d="M26.1732 42.8214C26.2011 42.9261 26.2079 43.0353 26.1935 43.1427C26.179 43.2501 26.1435 43.3536 26.089 43.4473C26.0344 43.5409 25.962 43.6229 25.8757 43.6885C25.7894 43.7541 25.691 43.802 25.5862 43.8294C25.4814 43.8571 25.3721 43.8638 25.2647 43.8492C25.1573 43.8345 25.0538 43.7989 24.9602 43.7442C24.8666 43.6896 24.7846 43.617 24.7191 43.5307C24.6535 43.4444 24.6056 43.3459 24.5781 43.2411L23.9486 40.8505C23.921 40.7457 23.9143 40.6366 23.9289 40.5292C23.9436 40.4219 23.9792 40.3185 24.0339 40.225C24.0886 40.1315 24.1611 40.0497 24.2474 39.9843C24.3338 39.9188 24.4322 39.8711 24.537 39.8437C24.6417 39.8161 24.7509 39.8093 24.8582 39.8239C24.9655 39.8384 25.069 39.8739 25.1626 39.9284C25.2562 39.983 25.3381 40.0554 25.4038 40.1416C25.4694 40.2278 25.5174 40.326 25.545 40.4308L26.1732 42.8214Z" fill="#00C40A"/>
<path d="M28.1468 43.3605C28.0233 43.5677 27.6063 43.5464 27.2171 43.3127C26.8266 43.0789 26.6088 42.7216 26.7323 42.5158L27.4044 41.3895C27.5279 41.1823 27.9463 41.2036 28.3341 41.4373C28.7325 41.6711 28.9423 42.0284 28.8188 42.2342L28.1468 43.3605Z" fill="#00C40A"/>
<path d="M25.739 43.1111C25.8976 43.2141 26.0107 43.3738 26.0552 43.5576C26.0996 43.7413 26.072 43.9352 25.9781 44.0992C25.8054 44.5216 25.4202 44.7633 25.1161 44.6384L23.4652 43.9611C23.3062 43.8586 23.1926 43.6988 23.1481 43.5148C23.1036 43.3309 23.1316 43.1369 23.2262 42.973C23.3975 42.5506 23.784 42.3089 24.0881 42.4338L25.739 43.1111Z" fill="#1CFF28"/>
<path d="M20.1001 51.7754C20.2946 51.8758 20.4413 52.0492 20.508 52.2576C20.5747 52.466 20.556 52.6924 20.456 52.887C20.4066 52.9834 20.3386 53.0691 20.256 53.1391C20.1734 53.2092 20.0778 53.2623 19.9747 53.2954C19.8716 53.3284 19.7629 53.3408 19.655 53.3318C19.5471 53.3228 19.442 53.2926 19.3457 53.243L17.145 52.1127C16.9504 52.0129 16.8034 51.8398 16.7364 51.6316C16.6694 51.4233 16.6879 51.197 16.7877 51.0024C16.8876 50.8078 17.0607 50.6608 17.2689 50.5938C17.4771 50.5268 17.7034 50.5453 17.898 50.6452L20.1001 51.7754Z" fill="#00C40A"/>
<path d="M21.8182 50.6678C21.89 50.8989 21.5951 51.199 21.1542 51.3319C20.7199 51.4647 20.3095 51.3903 20.2378 51.1592L19.8486 49.9081C19.7769 49.677 20.0718 49.3768 20.5127 49.244C20.9483 49.1112 21.3587 49.1869 21.4304 49.4167L21.8182 50.6678Z" fill="#00C40A"/>
<path d="M20.024 52.2933C20.3202 52.1499 20.72 52.3664 20.9192 52.7754C21.0241 52.9329 21.0644 53.1248 21.0318 53.3112C20.9992 53.4976 20.8961 53.6643 20.7439 53.7768L19.1395 54.5551C18.8447 54.6986 18.4436 54.4834 18.2457 54.073C18.1409 53.9156 18.1006 53.7239 18.133 53.5376C18.1653 53.3513 18.268 53.1845 18.4197 53.0716L20.024 52.2933Z" fill="#1CFF28"/>
<path d="M25.5346 55.3973C25.5623 55.5021 25.569 55.6113 25.5543 55.7188C25.5397 55.8262 25.5041 55.9296 25.4494 56.0233C25.3948 56.1169 25.3222 56.1988 25.2359 56.2644C25.1495 56.3299 25.0511 56.3778 24.9463 56.4053C24.7346 56.4608 24.5095 56.4299 24.3205 56.3196C24.1316 56.2093 23.9941 56.0285 23.9382 55.817L23.31 53.4263C23.2824 53.3217 23.2756 53.2126 23.2902 53.1054C23.3047 52.9981 23.3403 52.8948 23.3948 52.8013C23.4493 52.7078 23.5218 52.6259 23.6079 52.5604C23.6941 52.495 23.7924 52.4471 23.897 52.4196C24.1086 52.3641 24.3334 52.3948 24.5224 52.5048C24.7113 52.6148 24.849 52.7953 24.9051 53.0066L25.5346 55.3973Z" fill="#00C40A"/>
<path d="M27.5069 55.9364C27.3834 56.1436 26.9664 56.1224 26.5772 55.8886C26.1868 55.6549 25.9703 55.2976 26.0938 55.0917L26.7658 53.9668C26.8894 53.7596 27.3064 53.7809 27.6955 54.0133C28.0873 54.247 28.3038 54.6043 28.1803 54.8102L27.5069 55.9364Z" fill="#00C40A"/>
<path d="M25.1013 55.6884C25.2604 55.7909 25.374 55.9507 25.4185 56.1347C25.463 56.3186 25.435 56.5126 25.3404 56.6765C25.1677 57.0976 24.7826 57.3406 24.4784 57.2158L22.8276 56.5411C22.6688 56.4383 22.5554 56.2786 22.5109 56.0947C22.4665 55.9108 22.4942 55.7169 22.5885 55.5529C22.7612 55.1319 23.1463 54.8889 23.4505 55.0137L25.1013 55.6884Z" fill="#1CFF28"/>
<path d="M24.5211 47.0941C24.5766 47.3056 24.546 47.5305 24.4359 47.7194C24.3259 47.9084 24.1454 48.046 23.9341 48.1021C23.8292 48.1298 23.72 48.1365 23.6126 48.1218C23.5052 48.1072 23.4017 48.0716 23.3081 48.0169C23.2144 47.9623 23.1325 47.8897 23.067 47.8034C23.0014 47.717 22.9535 47.6186 22.926 47.5138L22.2965 45.1232C22.241 44.9115 22.2719 44.6864 22.3822 44.4974C22.4925 44.3084 22.6733 44.1709 22.8848 44.1151C22.9896 44.0875 23.0987 44.0808 23.2061 44.0954C23.3134 44.1101 23.4168 44.1457 23.5103 44.2004C23.6038 44.2551 23.6856 44.3276 23.751 44.4139C23.8165 44.5003 23.8642 44.5987 23.8916 44.7035L24.5211 47.0941Z" fill="#00C40A"/>
<path d="M26.4946 47.6329C26.3711 47.8401 25.9527 47.8189 25.5649 47.5851C25.1731 47.3514 24.9566 46.9941 25.0801 46.7882L25.7522 45.662C25.8757 45.4548 26.2927 45.4761 26.6818 45.7098C27.0803 45.9436 27.2901 46.3008 27.1666 46.5067L26.4946 47.6329Z" fill="#00C40A"/>
<path d="M24.0871 47.3835C24.2456 47.4864 24.3588 47.6462 24.4032 47.83C24.4477 48.0137 24.4201 48.2075 24.3261 48.3716C24.1535 48.794 23.767 49.0357 23.4642 48.9108L21.812 48.2375C21.6534 48.1345 21.5403 47.9746 21.4961 47.7908C21.4518 47.607 21.4798 47.4132 21.5742 47.2493C21.7456 46.827 22.1321 46.5853 22.4362 46.7101L24.0871 47.3835Z" fill="#1CFF28"/>
<path d="M35.052 48.3104C34.9157 48.4816 34.7171 48.5917 34.4997 48.6166C34.2824 48.6415 34.064 48.5791 33.8925 48.4432C33.8077 48.376 33.7369 48.2927 33.6843 48.198C33.6317 48.1034 33.5983 47.9993 33.5859 47.8917C33.5736 47.7841 33.5826 47.6752 33.6124 47.5711C33.6422 47.467 33.6923 47.3698 33.7597 47.2851L35.2897 45.3407C35.4258 45.1697 35.6242 45.0596 35.8413 45.0347C36.0585 45.0098 36.2766 45.0721 36.4479 45.2079C36.6189 45.344 36.729 45.5424 36.7539 45.7595C36.7788 45.9767 36.7165 46.1948 36.5807 46.366L35.052 48.3104Z" fill="#00C40A"/>
<path d="M35.8101 50.2029C35.5698 50.2294 35.336 49.8841 35.2869 49.4312C35.2364 48.9783 35.3918 48.5892 35.6308 48.564L36.9351 48.4218C37.1741 48.3953 37.4092 48.7406 37.4583 49.1935C37.5075 49.6464 37.3534 50.0355 37.1144 50.0608L35.8101 50.2029Z" fill="#00C40A"/>
<path d="M34.5576 48.138C34.6426 48.4554 34.3531 48.8021 33.9135 48.9243C33.7387 48.9968 33.5427 48.9995 33.366 48.9318C33.1893 48.8641 33.0454 48.7311 32.9639 48.5604L32.5057 46.8338C32.422 46.5177 32.7102 46.1697 33.1511 46.0489C33.3257 45.9762 33.5216 45.9733 33.6982 46.0408C33.8749 46.1082 34.019 46.2409 34.1007 46.4114L34.5576 48.138Z" fill="#1CFF28"/>
<path d="M32.1794 55.5542C32.1205 55.6452 32.0443 55.7237 31.9552 55.7852C31.866 55.8467 31.7655 55.8901 31.6596 55.9128C31.5536 55.9354 31.4443 55.937 31.3377 55.9174C31.2311 55.8979 31.1295 55.8575 31.0385 55.7986C30.9476 55.7396 30.8693 55.6633 30.8079 55.5741C30.7465 55.4849 30.7033 55.3844 30.6807 55.2785C30.6581 55.1725 30.6567 55.0632 30.6763 54.9567C30.696 54.8502 30.7365 54.7486 30.7955 54.6577L32.1409 52.5805C32.1998 52.4896 32.2761 52.4113 32.3653 52.3499C32.4546 52.2885 32.555 52.2453 32.661 52.2227C32.7669 52.2001 32.8762 52.1986 32.9828 52.2183C33.0893 52.238 33.1909 52.2785 33.2817 52.3375C33.3727 52.3962 33.4511 52.4723 33.5126 52.5613C33.5741 52.6504 33.6175 52.7507 33.6402 52.8566C33.6629 52.9624 33.6645 53.0717 33.6449 53.1781C33.6253 53.2846 33.585 53.3862 33.5261 53.477L32.1794 55.5542Z" fill="#00C40A"/>
<path d="M33.1102 57.3748C32.8738 57.4226 32.6081 57.0999 32.5178 56.6536C32.4262 56.2074 32.5444 55.8063 32.7835 55.7571L34.0691 55.4915C34.3055 55.4437 34.5711 55.7664 34.6614 56.2127C34.7531 56.6589 34.6349 57.06 34.3958 57.1078L33.1102 57.3748Z" fill="#00C40A"/>
<path d="M31.6718 55.4277C31.786 55.7358 31.5311 56.113 31.1034 56.2711C30.9358 56.3591 30.7409 56.3796 30.5586 56.3285C30.3764 56.2774 30.2206 56.1585 30.1232 55.9961L29.5096 54.3227C29.3968 54.0146 29.6518 53.6374 30.0794 53.4807C30.2466 53.3923 30.4413 53.3714 30.6234 53.4223C30.8055 53.4732 30.9611 53.592 31.0582 53.7543L31.6718 55.4277Z" fill="#1CFF28"/>
<path d="M34.1846 62.0911C34.2123 62.1959 34.219 62.305 34.2045 62.4124C34.19 62.5197 34.1544 62.6231 34.0999 62.7167C34.0454 62.8104 33.973 62.8923 33.8868 62.9579C33.8006 63.0235 33.7023 63.0715 33.5976 63.0992C33.4928 63.1268 33.3835 63.1335 33.2761 63.1189C33.1687 63.1043 33.0652 63.0686 32.9716 63.014C32.878 62.9593 32.7961 62.8868 32.7305 62.8004C32.6649 62.7141 32.6171 62.6157 32.5896 62.5108L31.96 60.1202C31.9046 59.9087 31.9355 59.6838 32.0458 59.495C32.1561 59.3062 32.3369 59.169 32.5484 59.1135C32.7599 59.058 32.9848 59.0886 33.1737 59.1987C33.3627 59.3087 33.5003 59.4892 33.5564 59.7005L34.1846 62.0911Z" fill="#00C40A"/>
<path d="M36.1581 62.6303C36.0346 62.8375 35.6176 62.8162 35.2285 62.5825C34.8367 62.3487 34.6202 61.9914 34.7437 61.7856L35.4157 60.6607C35.5392 60.4535 35.9576 60.4747 36.3454 60.7071C36.7439 60.9409 36.9537 61.2982 36.8302 61.504L36.1581 62.6303Z" fill="#00C40A"/>
<path d="M33.7502 62.3818C33.9091 62.4845 34.0224 62.6443 34.0669 62.8281C34.1114 63.012 34.0836 63.2059 33.9893 63.3699C33.8166 63.7909 33.4315 64.034 33.1273 63.9091L31.4765 63.2344C31.3174 63.1319 31.2038 62.9721 31.1593 62.7882C31.1148 62.6042 31.1428 62.4102 31.2374 62.2463C31.4087 61.8253 31.7952 61.5822 32.0994 61.7071L33.7502 62.3818Z" fill="#1CFF28"/>
<path d="M27.588 61.2038C27.524 61.2913 27.4434 61.3652 27.3508 61.4214C27.2582 61.4776 27.1554 61.515 27.0483 61.5314C26.9412 61.5478 26.8319 61.5429 26.7267 61.517C26.6215 61.4911 26.5225 61.4447 26.4352 61.3805C26.3478 61.3165 26.2739 61.2359 26.2177 61.1433C26.1614 61.0506 26.1241 60.9478 26.1076 60.8407C26.0912 60.7336 26.0961 60.6244 26.122 60.5192C26.1479 60.414 26.1943 60.3149 26.2586 60.2277L27.7195 58.2355C27.849 58.0592 28.0432 57.9416 28.2594 57.9084C28.4755 57.8753 28.696 57.9294 28.8723 58.0588C29.0486 58.1883 29.1663 58.3825 29.1994 58.5987C29.2325 58.8149 29.1784 59.0353 29.049 59.2117L27.588 61.2038Z" fill="#00C40A"/>
<path d="M28.4114 63.0764C28.1724 63.1109 27.9253 62.7722 27.8616 62.322C27.7965 61.8704 27.9373 61.4773 28.1764 61.4428L29.4739 61.2568C29.713 61.2223 29.96 61.5596 30.0238 62.0112C30.0889 62.4614 29.9481 62.8559 29.709 62.8891L28.4114 63.0764Z" fill="#00C40A"/>
<path d="M27.0939 61.0487C27.1895 61.3622 26.9132 61.7248 26.4763 61.8562C26.3042 61.9348 26.1084 61.9443 25.9295 61.8828C25.7506 61.8212 25.6021 61.6934 25.5147 61.5255L24.9994 59.8189C24.9051 59.5041 25.1814 59.1429 25.617 59.0114C25.7891 58.9325 25.9849 58.9228 26.1639 58.9844C26.3429 59.046 26.4914 59.1741 26.5786 59.3421L27.0939 61.0487Z" fill="#1CFF28"/>
<path d="M20.6854 58.9539C20.7934 58.9459 20.902 58.9593 21.0048 58.9933C21.1077 59.0273 21.2029 59.0813 21.2849 59.1521C21.3669 59.2229 21.4342 59.3091 21.4829 59.4059C21.5315 59.5027 21.5607 59.6082 21.5686 59.7162C21.5765 59.8243 21.5631 59.9329 21.5291 60.0357C21.4951 60.1386 21.4412 60.2338 21.3704 60.3158C21.2996 60.3978 21.2133 60.4651 21.1165 60.5137C21.0197 60.5624 20.9143 60.5915 20.8062 60.5994L18.3386 60.7801C18.2305 60.788 18.1219 60.7746 18.0191 60.7406C17.9162 60.7066 17.821 60.6527 17.739 60.5819C17.657 60.5111 17.5897 60.4248 17.5411 60.328C17.4924 60.2312 17.4633 60.1258 17.4554 60.0177C17.4474 59.9097 17.4608 59.8012 17.4948 59.6984C17.5288 59.5957 17.5828 59.5006 17.6536 59.4187C17.7244 59.3368 17.8107 59.2696 17.9075 59.2211C18.0043 59.1725 18.1097 59.1436 18.2177 59.1358L20.6854 58.9539Z" fill="#00C40A"/>
<path d="M21.5767 57.1095C21.7573 57.2688 21.6603 57.6753 21.3589 58.0166C21.0574 58.3592 20.6669 58.5067 20.4863 58.3473L19.5021 57.4813C19.3202 57.322 19.4185 56.9142 19.7186 56.5729C20.0201 56.2316 20.4106 56.0828 20.5925 56.2422L21.5767 57.1095Z" fill="#00C40A"/>
<path d="M20.8915 59.4347C21.0215 59.2974 21.1992 59.2153 21.388 59.2052C21.5768 59.195 21.7622 59.2577 21.9062 59.3802C22.0777 59.46 22.212 59.6026 22.2814 59.7786C22.3509 59.9545 22.3501 60.1504 22.2794 60.3258L21.3152 61.8266C21.1852 61.9639 21.0075 62.046 20.8187 62.0561C20.6299 62.0663 20.4444 62.0036 20.3005 61.8811C20.128 61.8019 19.9924 61.6595 19.922 61.4832C19.8515 61.307 19.8515 61.1104 19.922 60.9341L20.8915 59.4347Z" fill="#1CFF28"/>
<path d="M37.696 53.7796C37.5456 53.9383 37.3384 54.031 37.1198 54.0372C36.9012 54.0434 36.6891 53.9627 36.5299 53.8128C36.3712 53.6624 36.2785 53.4552 36.2723 53.2366C36.2661 53.018 36.3468 52.8059 36.4967 52.6467L38.1967 50.8484C38.271 50.7695 38.3601 50.706 38.459 50.6616C38.5579 50.6172 38.6645 50.5928 38.7729 50.5897C38.8812 50.5866 38.9891 50.6049 39.0903 50.6436C39.1916 50.6823 39.2842 50.7406 39.3628 50.8152C39.5216 50.9656 39.6142 51.1728 39.6204 51.3914C39.6266 51.61 39.5459 51.8221 39.396 51.9813L37.696 53.7796Z" fill="#00C40A"/>
<path d="M38.2817 55.7389C38.04 55.7389 37.8382 55.3789 37.8289 54.9234C37.8209 54.4679 38.0095 54.0946 38.2512 54.0907L39.5621 54.0654C39.8025 54.0654 40.0057 54.4267 40.0136 54.8822C40.0229 55.3378 39.8343 55.711 39.5926 55.715L38.2817 55.7389Z" fill="#00C40A"/>
<path d="M37.2207 53.563C37.2765 53.8871 36.9551 54.2111 36.5075 54.2882C36.0586 54.3652 35.6496 54.1647 35.5951 53.8419L35.2936 52.0835C35.2392 51.7594 35.5593 51.4354 36.0068 51.3583C36.4557 51.2826 36.8648 51.4819 36.9206 51.8059L37.2207 53.563Z" fill="#1CFF28"/>
<path d="M38.582 59.2225C38.6096 59.3273 38.6163 59.4365 38.6017 59.5439C38.5871 59.6514 38.5514 59.7548 38.4968 59.8485C38.4421 59.9421 38.3696 60.024 38.2832 60.0896C38.1969 60.1551 38.0985 60.203 37.9936 60.2305C37.7819 60.286 37.5569 60.2551 37.3679 60.1448C37.1789 60.0345 37.0414 59.8537 36.9856 59.6422L36.3574 57.2515C36.3297 57.1469 36.323 57.0378 36.3376 56.9306C36.3521 56.8233 36.3877 56.72 36.4422 56.6265C36.4967 56.533 36.5691 56.4511 36.6553 56.3856C36.7415 56.3202 36.8397 56.2723 36.9444 56.2448C37.1559 56.1893 37.3808 56.22 37.5698 56.33C37.7587 56.44 37.8963 56.6205 37.9525 56.8318L38.582 59.2225Z" fill="#00C40A"/>
<path d="M40.5543 59.7655C40.4308 59.9727 40.0138 59.9515 39.6246 59.7177C39.2341 59.484 39.0163 59.1267 39.1412 58.9208L39.8132 57.7959C39.9367 57.5887 40.3538 57.61 40.7429 57.8424C41.1413 58.0761 41.3512 58.4334 41.2277 58.6393L40.5543 59.7655Z" fill="#00C40A"/>
<path d="M38.1462 59.5131C38.3053 59.6156 38.4189 59.7754 38.4634 59.9594C38.5079 60.1433 38.4799 60.3373 38.3853 60.5012C38.2126 60.9223 37.8275 61.1653 37.5233 61.0405L35.8725 60.3658C35.7134 60.2633 35.5998 60.1035 35.5553 59.9195C35.5108 59.7356 35.5388 59.5416 35.6334 59.3777C35.8061 58.9566 36.1912 58.7136 36.4954 58.8384L38.1462 59.5131Z" fill="#1CFF28"/>
<path d="M27.9253 51.5909C27.8843 51.691 27.8241 51.7821 27.7479 51.8589C27.6717 51.9358 27.5811 51.9968 27.4814 52.0386C27.3816 52.0804 27.2745 52.1022 27.1663 52.1026C27.0582 52.103 26.9509 52.0821 26.8508 52.0411C26.7505 52.0001 26.6593 51.9398 26.5823 51.8636C26.5053 51.7873 26.4441 51.6967 26.4022 51.5968C26.3602 51.4969 26.3384 51.3897 26.3379 51.2813C26.3374 51.173 26.3583 51.0656 26.3993 50.9653L27.3356 48.6756C27.4186 48.4733 27.5785 48.3121 27.7801 48.2275C27.9818 48.1428 28.2088 48.1416 28.4114 48.2241C28.5117 48.265 28.6029 48.3254 28.6799 48.4016C28.7569 48.4778 28.8181 48.5685 28.8601 48.6684C28.902 48.7683 28.9238 48.8755 28.9243 48.9838C28.9248 49.0922 28.904 49.1996 28.8629 49.2998L27.9253 51.5909Z" fill="#00C40A"/>
<path d="M29.1774 53.2072C28.9543 53.2989 28.6342 53.0306 28.4616 52.6096C28.2889 52.1872 28.3287 51.7715 28.5545 51.6799L29.7684 51.1845C29.9916 51.0942 30.313 51.3625 30.4843 51.7835C30.6569 52.2058 30.6171 52.6215 30.3913 52.7132L29.1774 53.2072Z" fill="#00C40A"/>
<path d="M27.4047 51.5603C27.4684 51.7369 27.4627 51.9311 27.3888 52.1037C27.3148 52.2763 27.1781 52.4143 27.0063 52.49C26.8581 52.6076 26.6704 52.6639 26.4819 52.6473C26.2934 52.6308 26.1184 52.5426 25.9929 52.401L25.0792 50.8697C24.9105 50.5881 25.0925 50.1711 25.4776 49.94C25.6257 49.8223 25.8133 49.7657 26.0018 49.7821C26.1902 49.7984 26.3653 49.8863 26.491 50.0277L27.4047 51.5603Z" fill="#1CFF28"/>
<path d="M29.9731 46.0303C29.8926 46.1026 29.7985 46.1584 29.6964 46.1945C29.5942 46.2305 29.486 46.2461 29.3778 46.2403C29.2697 46.2345 29.1637 46.2075 29.066 46.1607C28.9683 46.114 28.8808 46.0484 28.8084 45.9678C28.736 45.8873 28.6802 45.7932 28.6442 45.6911C28.6081 45.5889 28.5926 45.4807 28.5983 45.3725C28.6041 45.2644 28.6312 45.1584 28.6779 45.0607C28.7247 44.963 28.7902 44.8755 28.8708 44.8031L30.7116 43.1482C30.7922 43.0758 30.8862 43.02 30.9884 42.984C31.0905 42.948 31.1987 42.9324 31.3069 42.9382C31.4151 42.944 31.521 42.971 31.6187 43.0178C31.7164 43.0645 31.804 43.1301 31.8764 43.2106C31.9487 43.2912 32.0045 43.3853 32.0406 43.4874C32.0766 43.5896 32.0922 43.6978 32.0864 43.806C32.0806 43.9141 32.0535 44.0201 32.0068 44.1178C31.96 44.2155 31.8945 44.303 31.8139 44.3754L29.9731 46.0303Z" fill="#00C40A"/>
<path d="M30.3968 48.0301C30.1564 48.0155 29.9838 47.6317 30.013 47.1801C30.0422 46.7246 30.26 46.3686 30.5004 46.3832L31.8099 46.4656C32.0503 46.4802 32.223 46.864 32.1938 47.3156C32.1646 47.7711 31.9467 48.1271 31.705 48.1125L30.3968 48.0301Z" fill="#00C40A"/>
<path d="M29.5176 45.7749C29.5455 46.1016 29.2015 46.3991 28.7473 46.439C28.2931 46.4788 27.9026 46.2464 27.8734 45.9197L27.718 44.1426C27.6888 43.8159 28.0341 43.5184 28.487 43.4786C28.9412 43.4387 29.333 43.6711 29.3609 43.9992L29.5176 45.7749Z" fill="#1CFF28"/>
<path d="M34.9948 71.2073C34.9948 71.2073 34.1142 72.6298 36.388 72.2287C38.6617 71.8276 37.829 70.9231 37.829 70.9231C37.829 70.9231 37.2513 72.9923 38.6631 71.8276C39.5485 70.9634 40.058 69.7854 40.0815 68.5484C40.0815 68.5484 40.7164 71.0878 42.5837 69.1408C42.843 68.936 43.0549 68.6776 43.205 68.3833C43.355 68.089 43.4397 67.7657 43.4532 67.4356C43.4667 67.1055 43.4087 66.7764 43.2832 66.4708C43.1576 66.1652 42.9675 65.8903 42.7258 65.6651C42.7258 65.6651 43.2969 64.3237 43.8866 64.3011C44.4763 64.2785 43.9278 62.7073 43.9278 62.7073L44.2199 61.3075C44.2199 61.3075 44.0035 59.6181 42.7232 59.3884C41.4428 59.1586 44.9969 58.9899 44.8933 58.0895C44.7897 57.189 42.8294 56.7812 42.8294 56.7812C42.8294 56.7812 44.6888 56.2925 42.929 54.9033C42.3462 54.4923 41.6854 54.2052 40.9874 54.0594C40.2893 53.9137 39.5688 53.9125 38.8703 54.0559L39.7999 53.0824C39.7999 53.0824 38.3549 51.6122 37.8476 51.9442C37.3403 52.2763 37.072 50.7595 36.2618 50.4448C35.4517 50.13 34.4303 51.5232 34.4303 51.5232C34.4303 51.5232 32.6228 49.6851 31.4739 49.5908C30.3251 49.4965 30.0714 51.1566 30.0714 51.1566C30.0714 51.1566 29.4446 50.9189 28.3993 51.7238C27.3541 52.5286 26.1096 51.0597 25.7085 53.5539C25.3074 56.0481 26.9982 54.9365 26.9982 54.9365C26.9982 54.9365 24.7244 54.4265 24.8028 55.5554C24.8811 56.6843 26.8627 57.444 26.8627 57.444C26.8627 57.444 24.237 57.2448 25.0033 59.1559C25.1531 59.6644 25.4397 60.1219 25.8318 60.4786C26.2238 60.8353 26.7063 61.0774 27.2266 61.1787C27.2266 61.1787 27.0141 61.949 26.876 62.5745C26.7378 63.2001 28.5547 63.9239 28.5547 63.9239C28.5547 63.9239 28.139 63.2758 28.9107 64.9333C29.4898 65.9913 30.4575 66.7829 31.6094 67.1406C31.6094 67.1406 30.4765 68.3652 31.1419 69.3798C31.8073 70.3945 33.9695 69.8248 33.9695 69.8248C33.9695 69.8248 31.2853 72.1848 34.9948 71.2073Z" fill="#009C08"/>
<path d="M37.1873 70.1621C37.1414 69.9686 37.174 69.7647 37.2781 69.5952C37.3821 69.4257 37.5491 69.3043 37.7425 69.2576C37.936 69.2117 38.1399 69.2443 38.3094 69.3484C38.4789 69.4524 38.6003 69.6194 38.6469 69.8128L39.1702 72.0016C39.2166 72.1949 39.1843 72.3988 39.0805 72.5684C38.9766 72.738 38.8097 72.8594 38.6164 72.906C38.4229 72.952 38.219 72.9193 38.0495 72.8153C37.8799 72.7112 37.7586 72.5442 37.7119 72.3509L37.1873 70.1621Z" fill="#00C40A"/>
<path d="M35.4063 69.6323C35.5232 69.4464 35.9017 69.4743 36.2523 69.6948C36.6042 69.9152 36.7942 70.2446 36.6773 70.4305L36.0438 71.4399C35.9269 71.6259 35.5484 71.598 35.1964 71.3788C34.8458 71.1584 34.6559 70.829 34.7728 70.643L35.4063 69.6323Z" fill="#00C40A"/>
<path d="M37.5859 69.9073C37.442 69.812 37.3409 69.6644 37.304 69.4958C37.267 69.3272 37.2972 69.1509 37.388 69.0042C37.5527 68.6243 37.9086 68.4118 38.1849 68.5314L39.6724 69.1768C39.8149 69.2732 39.915 69.4207 39.9518 69.5888C39.9886 69.7569 39.9594 69.9328 39.8703 70.0799C39.7056 70.4611 39.3496 70.6723 39.0734 70.5528L37.5859 69.9073Z" fill="#1CFF28"/>
<path d="M42.8987 62.143C42.7238 62.048 42.5938 61.8875 42.5373 61.6967C42.4807 61.506 42.5023 61.3005 42.5972 61.1256C42.6441 61.0391 42.7076 60.9627 42.784 60.9007C42.8605 60.8387 42.9484 60.7923 43.0427 60.7643C43.1371 60.7363 43.236 60.7272 43.3339 60.7375C43.4318 60.7477 43.5267 60.7772 43.6132 60.8242L45.5921 61.896C45.767 61.9909 45.897 62.1514 45.9535 62.3422C46.0101 62.533 45.9885 62.7384 45.8936 62.9133C45.8467 62.9998 45.7832 63.0763 45.7068 63.1383C45.6303 63.2003 45.5424 63.2466 45.4481 63.2746C45.3537 63.3026 45.2548 63.3117 45.1569 63.3015C45.059 63.2912 44.9641 63.2617 44.8776 63.2148L42.8987 62.143Z" fill="#00C40A"/>
<path d="M41.3046 63.1165C41.2448 62.9053 41.5184 62.641 41.9168 62.5268C42.3153 62.4126 42.6872 62.4923 42.7469 62.7034L43.0763 63.8496C43.1361 64.0608 42.8625 64.3237 42.464 64.438C42.0656 64.5522 41.6937 64.4738 41.634 64.2627L41.3046 63.1165Z" fill="#00C40A"/>
<path d="M42.9716 61.6739C42.7059 61.7988 42.3407 61.5943 42.1747 61.2171C42.0825 61.0717 42.0497 60.8965 42.083 60.7277C42.1164 60.5588 42.2134 60.4093 42.354 60.31L43.8282 59.6353C44.0938 59.5104 44.4591 59.715 44.6317 60.0921C44.7239 60.2375 44.7568 60.4127 44.7234 60.5815C44.69 60.7504 44.593 60.8999 44.4524 60.9993L42.9716 61.6739Z" fill="#1CFF28"/>
<path d="M38.0256 58.7402C37.9792 58.5469 38.0115 58.343 38.1153 58.1734C38.2192 58.0038 38.3861 57.8824 38.5794 57.8358C38.7729 57.7898 38.9768 57.8224 39.1463 57.9265C39.3158 58.0305 39.4372 58.1976 39.4838 58.3909L40.0085 60.5797C40.0544 60.7732 40.0218 60.9771 39.9177 61.1466C39.8137 61.3161 39.6467 61.4375 39.4533 61.4841C39.2598 61.5301 39.0559 61.4975 38.8864 61.3934C38.7169 61.2894 38.5955 61.1223 38.5488 60.929L38.0256 58.7402Z" fill="#00C40A"/>
<path d="M36.2417 58.2105C36.3586 58.0245 36.7371 58.0524 37.0877 58.2729C37.4397 58.4934 37.6296 58.8227 37.5127 59.0087L36.8792 60.018C36.7623 60.204 36.3838 60.1761 36.0319 59.957C35.6813 59.7365 35.4913 59.4071 35.6082 59.2212L36.2417 58.2105Z" fill="#00C40A"/>
<path d="M38.4267 58.4854C38.2828 58.3901 38.1817 58.2425 38.1448 58.0739C38.1078 57.9054 38.138 57.729 38.2288 57.5823C38.3935 57.2024 38.7494 56.9913 39.0257 57.1095L40.5145 57.7549C40.6567 57.852 40.7563 57.9998 40.7928 58.168C40.8294 58.3363 40.8001 58.5121 40.7111 58.6594C40.5464 59.0392 40.1905 59.2504 39.9142 59.1322L38.4267 58.4854Z" fill="#1CFF28"/>
<path d="M38.7814 66.3103C38.7351 66.1169 38.7673 65.9131 38.8712 65.7435C38.975 65.5739 39.1419 65.4525 39.3353 65.4059C39.4311 65.3829 39.5305 65.3791 39.6278 65.3946C39.7252 65.4101 39.8185 65.4446 39.9025 65.4961C39.9864 65.5477 40.0595 65.6153 40.1173 65.695C40.1752 65.7748 40.2168 65.8652 40.2397 65.961L40.7643 68.1498C40.8103 68.3433 40.7777 68.5472 40.6736 68.7167C40.5695 68.8862 40.4025 69.0076 40.2092 69.0542C40.0156 69.1002 39.8118 69.0676 39.6422 68.9635C39.4727 68.8594 39.3513 68.6924 39.3047 68.4991L38.7814 66.3103Z" fill="#00C40A"/>
<path d="M36.9951 65.7818C37.112 65.5959 37.4905 65.6225 37.8425 65.8429C38.1931 66.0634 38.383 66.3928 38.2661 66.5787L37.6326 67.5881C37.5158 67.774 37.1372 67.7461 36.7866 67.527C36.4347 67.3065 36.2447 66.9771 36.3616 66.7912L36.9951 65.7818Z" fill="#00C40A"/>
<path d="M39.1798 66.0557C39.0375 65.9591 38.9376 65.8116 38.9008 65.6436C38.864 65.4756 38.893 65.2999 38.9819 65.1526C39.1479 64.7728 39.5025 64.5616 39.7787 64.6798L41.2662 65.3266C41.4083 65.4234 41.5079 65.571 41.5444 65.739C41.581 65.907 41.5518 66.0826 41.4628 66.2297C41.2981 66.6095 40.9422 66.8207 40.6659 66.7025L39.1798 66.0557Z" fill="#1CFF28"/>
<path d="M29.2278 64.9932C29.2907 64.9164 29.3681 64.8527 29.4556 64.806C29.5431 64.7592 29.639 64.7303 29.7378 64.7207C29.8366 64.7112 29.9363 64.7214 30.0311 64.7506C30.1259 64.7798 30.214 64.8275 30.2903 64.8909C30.3672 64.9537 30.4309 65.0312 30.4776 65.1187C30.5244 65.2063 30.5533 65.3023 30.5627 65.4011C30.572 65.4999 30.5617 65.5996 30.5323 65.6944C30.5029 65.7892 30.455 65.8773 30.3913 65.9534L28.9529 67.684C28.8264 67.8375 28.6442 67.9345 28.4462 67.9537C28.2482 67.9728 28.0507 67.9126 27.8971 67.7862C27.8201 67.7235 27.7563 67.6462 27.7095 67.5587C27.6626 67.4711 27.6336 67.3752 27.6241 67.2763C27.6145 67.1775 27.6247 67.0778 27.654 66.9829C27.6834 66.8881 27.7312 66.8 27.7948 66.7237L29.2278 64.9932Z" fill="#00C40A"/>
<path d="M28.5774 63.2508C28.7953 63.2322 29.0024 63.5509 29.0383 63.964C29.0742 64.377 28.9254 64.7263 28.7063 64.7462L27.5189 64.8485C27.2998 64.8671 27.0939 64.5484 27.0581 64.1353C27.0222 63.7236 27.171 63.373 27.3888 63.3544L28.5774 63.2508Z" fill="#00C40A"/>
<path d="M29.6743 65.159C29.6039 64.8694 29.8735 64.5547 30.2759 64.4577C30.4363 64.3955 30.6144 64.397 30.7737 64.4619C30.933 64.5269 31.0614 64.6504 31.1325 64.807L31.5124 66.3835C31.5828 66.673 31.3132 66.9878 30.9107 67.0847C30.7504 67.1476 30.572 67.1464 30.4126 67.0814C30.2531 67.0164 30.1247 66.8925 30.0541 66.7354L29.6743 65.159Z" fill="#1CFF28"/>
<path d="M31.9854 58.4642C32.0974 58.2997 32.2701 58.1864 32.4655 58.1491C32.6609 58.1118 32.8632 58.1534 33.028 58.2649C33.1924 58.377 33.3057 58.5496 33.343 58.7451C33.3804 58.9405 33.3387 59.1428 33.2272 59.3075L31.9628 61.1669C31.8508 61.3313 31.6781 61.4446 31.4827 61.482C31.2873 61.5193 31.085 61.4777 30.9202 61.3661C30.7558 61.2541 30.6425 61.0814 30.6052 60.886C30.5678 60.6906 30.6095 60.4883 30.721 60.3235L31.9854 58.4642Z" fill="#00C40A"/>
<path d="M31.1763 56.7894C31.3914 56.7509 31.6265 57.0551 31.7009 57.4535C31.7739 57.8612 31.6584 58.2225 31.4432 58.2623L30.2692 58.4735C30.054 58.5133 29.8189 58.2079 29.7446 57.8094C29.6715 57.4017 29.7871 57.0391 30.0022 57.0006L31.1763 56.7894Z" fill="#00C40A"/>
<path d="M32.4449 58.5888C32.348 58.3059 32.587 57.9685 32.9762 57.8344C33.1298 57.7572 33.3072 57.7417 33.4719 57.7911C33.6366 57.8405 33.7762 57.951 33.862 58.1L34.3866 59.6353C34.4823 59.9169 34.2432 60.2556 33.8554 60.3897C33.7019 60.4668 33.5248 60.4823 33.3603 60.4329C33.1958 60.3835 33.0564 60.273 32.9709 60.1241L32.4449 58.5888Z" fill="#1CFF28"/>
<path d="M30.2945 52.4795C30.2716 52.3836 30.2678 52.2842 30.2832 52.1869C30.2987 52.0896 30.3332 51.9962 30.3848 51.9122C30.4363 51.8283 30.5039 51.7552 30.5837 51.6974C30.6635 51.6395 30.7539 51.5979 30.8497 51.575C31.0431 51.5291 31.2467 51.5617 31.4161 51.6658C31.5854 51.7699 31.7065 51.9369 31.7528 52.1302L32.2734 54.3202C32.3194 54.5138 32.2868 54.7176 32.1827 54.8872C32.0787 55.0567 31.9117 55.1781 31.7183 55.2247C31.5248 55.2706 31.3209 55.238 31.1514 55.134C30.9818 55.0299 30.8605 54.8629 30.8138 54.6695L30.2945 52.4795Z" fill="#00C40A"/>
<path d="M28.5108 51.9508C28.6276 51.7648 29.0061 51.7914 29.3581 52.0119C29.7087 52.2323 29.8986 52.5617 29.7818 52.7476L29.1483 53.757C29.0314 53.943 28.6529 53.9164 28.3022 53.6959C27.9503 53.4755 27.7604 53.1461 27.8772 52.9601L28.5108 51.9508Z" fill="#00C40A"/>
<path d="M30.6959 52.2247C30.5536 52.128 30.4538 51.9806 30.4169 51.8125C30.3801 51.6445 30.4091 51.4688 30.498 51.3215C30.664 50.9417 31.0186 50.7305 31.2949 50.8487L32.7824 51.4955C32.9244 51.5923 33.024 51.7399 33.0605 51.9079C33.0971 52.0759 33.0679 52.2515 32.9789 52.3986C32.8142 52.7785 32.4583 52.9897 32.182 52.8715L30.6959 52.2247Z" fill="#1CFF28"/>
<path d="M36.2753 53.4198C36.3972 53.2628 36.5765 53.1607 36.7737 53.1358C36.9709 53.1109 37.17 53.1653 37.3271 53.287C37.4841 53.4089 37.5862 53.5882 37.6111 53.7854C37.636 53.9826 37.5816 54.1817 37.4599 54.3388L36.0893 56.1238C35.9673 56.2808 35.7881 56.3829 35.5909 56.4078C35.3936 56.4327 35.1946 56.3783 35.0374 56.2566C34.8805 56.1347 34.7784 55.9554 34.7535 55.7582C34.7286 55.561 34.7829 55.3619 34.9046 55.2048L36.2753 53.4198Z" fill="#00C40A"/>
<path d="M35.5643 51.7013C35.7821 51.6747 35.9986 51.9868 36.0491 52.3985C36.0982 52.8089 35.9614 53.1635 35.7436 53.1954L34.5603 53.3389C34.3424 53.3654 34.126 53.0533 34.0755 52.6416C34.0264 52.2312 34.1618 51.8766 34.3796 51.8447L35.5643 51.7013Z" fill="#00C40A"/>
<path d="M36.7253 53.5714C36.6457 53.2845 36.9046 52.9604 37.3031 52.8502C37.4609 52.7804 37.6397 52.7748 37.8015 52.8345C37.9634 52.8943 38.0957 53.0147 38.1703 53.1703L38.6046 54.7321C38.6843 55.0203 38.4267 55.3431 38.0269 55.4546C37.8688 55.5224 37.6908 55.5269 37.5295 55.4674C37.3682 55.4079 37.2358 55.2887 37.1596 55.1346L36.7253 53.5714Z" fill="#1CFF28"/>
<path d="M42.5 55.6044C42.3014 55.6145 42.1069 55.5454 41.9592 55.4121C41.8115 55.2789 41.7228 55.0925 41.7125 54.8938C41.7073 54.7954 41.7216 54.697 41.7545 54.6041C41.7874 54.5112 41.8383 54.4258 41.9043 54.3526C41.9703 54.2795 42.0501 54.22 42.1391 54.1778C42.2281 54.1355 42.3246 54.1112 42.423 54.1063L44.6702 53.9907C44.7687 53.9857 44.8672 54.0001 44.96 54.0332C45.0529 54.0663 45.1384 54.1173 45.2115 54.1835C45.2846 54.2496 45.344 54.3294 45.3863 54.4185C45.4286 54.5076 45.4528 54.6041 45.4578 54.7026C45.4628 54.8009 45.4484 54.8992 45.4154 54.9919C45.3824 55.0846 45.3314 55.1699 45.2654 55.243C45.1994 55.316 45.1197 55.3753 45.0308 55.4175C44.9419 55.4597 44.8455 55.4839 44.7472 55.4888L42.5 55.6044Z" fill="#00C40A"/>
<path d="M41.658 57.2608C41.4973 57.112 41.5929 56.7442 41.8744 56.44C42.1547 56.1345 42.5133 56.0084 42.6713 56.1571L43.5492 56.9646C43.7099 57.1134 43.6143 57.4813 43.3327 57.7854C43.0525 58.0909 42.6939 58.2171 42.5359 58.0683L41.658 57.2608Z" fill="#00C40A"/>
<path d="M42.3275 55.1638C42.2061 55.2873 42.0417 55.3593 41.8685 55.3647C41.6954 55.3702 41.5268 55.3087 41.3978 55.193C41.2438 55.1164 41.1249 54.9837 41.0656 54.8221C41.0064 54.6606 41.0112 54.4825 41.0791 54.3244L41.9862 52.9804C42.107 52.8582 42.2701 52.787 42.4419 52.7816C42.6136 52.7761 42.7809 52.8368 42.9092 52.9511C43.0637 53.0273 43.1831 53.1599 43.2427 53.3215C43.3022 53.4832 43.2974 53.6615 43.2293 53.8197L42.3275 55.1638Z" fill="#1CFF28"/>
<path d="M26.9346 59.966C27.0038 59.8956 27.0862 59.8395 27.1771 59.801C27.2681 59.7625 27.3657 59.7423 27.4645 59.7417C27.5632 59.7411 27.6611 59.76 27.7525 59.7974C27.8439 59.8347 27.9271 59.8898 27.9971 59.9594C28.0671 60.029 28.1227 60.1118 28.1606 60.2029C28.1986 60.2941 28.2181 60.3919 28.2181 60.4906C28.2181 60.5894 28.1986 60.6871 28.1606 60.7783C28.1227 60.8695 28.0671 60.9523 27.9971 61.0219L26.4166 62.6236C26.2757 62.7644 26.0846 62.8435 25.8854 62.8435C25.6862 62.8435 25.4951 62.7644 25.3541 62.6236C25.2838 62.5543 25.2279 62.4719 25.1895 62.381C25.1511 62.29 25.131 62.1924 25.1304 62.0937C25.1298 61.995 25.1486 61.8972 25.1859 61.8058C25.2231 61.7144 25.2781 61.6312 25.3475 61.5611L26.9346 59.966Z" fill="#00C40A"/>
<path d="M26.4419 58.1719C26.661 58.1719 26.8403 58.5092 26.8403 58.9236C26.8403 59.3366 26.6597 59.6727 26.4419 59.6713H25.2466C25.0274 59.6713 24.8481 59.334 24.8481 58.9196C24.8481 58.5052 25.0288 58.1706 25.2466 58.1719H26.4419Z" fill="#00C40A"/>
<path d="M27.3593 60.172C27.3154 59.8772 27.6129 59.589 28.0233 59.5279C28.4337 59.4668 28.8016 59.6607 28.8454 59.9529L29.0832 61.5572C29.127 61.8521 28.8295 62.1403 28.4191 62.2014C28.0087 62.2625 27.6408 62.0686 27.597 61.7764L27.3593 60.172Z" fill="#1CFF28"/>
<path d="M26.2386 54.9988C26.1926 54.8054 26.2253 54.6017 26.3294 54.4324C26.4335 54.2631 26.6005 54.142 26.7937 54.0957C26.8895 54.0725 26.9889 54.0685 27.0862 54.0838C27.1835 54.0991 27.2768 54.1335 27.3608 54.185C27.4449 54.2364 27.5179 54.3039 27.5758 54.3836C27.6337 54.4633 27.6753 54.5537 27.6982 54.6495L28.2215 56.8382C28.2446 56.934 28.2486 57.0334 28.2333 57.1307C28.218 57.228 28.1836 57.3213 28.1322 57.4054C28.0807 57.4894 28.0132 57.5624 27.9335 57.6203C27.8538 57.6782 27.7634 57.7198 27.6676 57.7427C27.5718 57.7658 27.4723 57.7698 27.3749 57.7544C27.2776 57.739 27.1842 57.7045 27.1001 57.6529C27.0161 57.6013 26.9431 57.5337 26.8853 57.4538C26.8274 57.374 26.786 57.2835 26.7632 57.1875L26.2386 54.9988Z" fill="#00C40A"/>
<path d="M24.4561 54.4704C24.573 54.2844 24.9515 54.3123 25.3021 54.5314C25.654 54.7519 25.844 55.0813 25.7271 55.2672L25.0936 56.2766C24.9767 56.4625 24.5969 56.436 24.2462 56.2155C23.8956 55.995 23.7057 55.6657 23.8226 55.4797L24.4561 54.4704Z" fill="#00C40A"/>
<path d="M26.6394 54.745C26.4972 54.648 26.3976 54.5001 26.3611 54.3319C26.3245 54.1637 26.3538 53.9879 26.4428 53.8406C26.6075 53.4607 26.9634 53.2496 27.2397 53.3678L28.7272 54.0146C28.8711 54.1099 28.9722 54.2575 29.0091 54.426C29.0461 54.5946 29.0159 54.771 28.9251 54.9177C28.7604 55.2975 28.4045 55.5087 28.1282 55.3905L26.6394 54.745Z" fill="#1CFF28"/>
<path d="M35.773 62.1561C35.8124 62.0657 35.8692 61.984 35.9402 61.9156C36.0112 61.8472 36.0949 61.7935 36.1867 61.7574C36.2785 61.7214 36.3764 61.7038 36.475 61.7057C36.5735 61.7076 36.6708 61.7288 36.7611 61.7683C36.8514 61.8075 36.9331 61.8642 37.0015 61.9351C37.0699 62.0059 37.1236 62.0896 37.1597 62.1812C37.1957 62.2729 37.2133 62.3708 37.2114 62.4692C37.2096 62.5677 37.1883 62.6648 37.1489 62.7551L36.2578 64.8123C36.2185 64.9026 36.1618 64.9843 36.0909 65.0527C36.0201 65.1211 35.9364 65.1748 35.8448 65.2109C35.7531 65.2469 35.6553 65.2645 35.5568 65.2626C35.4583 65.2608 35.3612 65.2396 35.271 65.2001C35.0886 65.1208 34.9451 64.9723 34.8721 64.7873C34.7992 64.6022 34.8027 64.3958 34.8818 64.2133L35.773 62.1561Z" fill="#00C40A"/>
<path d="M34.6639 60.6579C34.8684 60.5796 35.1553 60.8293 35.3027 61.2171C35.4501 61.6036 35.4037 61.9807 35.1991 62.0591L34.0848 62.4854C33.8803 62.5638 33.5948 62.3128 33.446 61.9263C33.2986 61.5398 33.3451 61.1626 33.5496 61.0843L34.6639 60.6579Z" fill="#00C40A"/>
<path d="M36.247 62.1923C36.0996 61.9266 36.2722 61.5561 36.6335 61.3516C36.7704 61.2473 36.9421 61.1996 37.1132 61.2184C37.2842 61.2372 37.4415 61.321 37.5525 61.4525L38.3494 62.863C38.4968 63.1286 38.3242 63.4991 37.9629 63.7023C37.8262 63.8068 37.6546 63.8547 37.4835 63.8362C37.3124 63.8176 37.155 63.7341 37.0439 63.6027L36.247 62.1923Z" fill="#1CFF28"/>
<path d="M33.7995 67.1684C33.8744 67.1035 33.9613 67.0541 34.0553 67.0229C34.1494 66.9918 34.2486 66.9796 34.3474 66.987C34.4462 66.9944 34.5425 67.0213 34.6308 67.0661C34.7192 67.1109 34.7977 67.1728 34.862 67.2481C34.9271 67.3229 34.9767 67.4098 35.008 67.5038C35.0392 67.5979 35.0515 67.6972 35.0441 67.796C35.0367 67.8948 35.0097 67.9912 34.9648 68.0795C34.9199 68.1679 34.8579 68.2464 34.7824 68.3106L33.0757 69.7716C33.0011 69.8368 32.9142 69.8865 32.8201 69.9179C32.726 69.9492 32.6267 69.9616 32.5278 69.9541C32.4289 69.9467 32.3325 69.9197 32.2442 69.8747C32.1558 69.8297 32.0773 69.7675 32.0132 69.6919C31.9481 69.6171 31.8985 69.5302 31.8673 69.4362C31.8361 69.3421 31.8238 69.2428 31.8312 69.144C31.8386 69.0451 31.8656 68.9488 31.9105 68.8604C31.9554 68.7721 32.0174 68.6936 32.0929 68.6294L33.7995 67.1684Z" fill="#00C40A"/>
<path d="M33.454 65.3438C33.6731 65.3624 33.8219 65.7116 33.7873 66.1247C33.7515 66.5377 33.5456 66.8565 33.3265 66.8379L32.1391 66.737C31.92 66.7184 31.7712 66.3691 31.8071 65.956C31.8416 65.543 32.0475 65.2229 32.2666 65.2415L33.454 65.3438Z" fill="#00C40A"/>
<path d="M34.2099 67.4089C34.1899 67.1114 34.5087 66.8471 34.9231 66.8205C35.3361 66.794 35.6867 67.0131 35.7067 67.3106L35.8129 68.9296C35.8315 69.2271 35.5128 69.4901 35.0997 69.518C34.6853 69.5445 34.3347 69.3254 34.3148 69.0279L34.2099 67.4089Z" fill="#1CFF28"/>
<path d="M41.5224 37.7626L40.3271 38.5595C40.1707 38.6647 40.0446 38.8091 39.9614 38.9782C39.8781 39.1474 39.8407 39.3354 39.8528 39.5235C39.8649 39.7116 39.9261 39.8933 40.0303 40.0504C40.1345 40.2075 40.278 40.3346 40.4466 40.4189L40.4798 40.4361C40.6492 40.5205 40.8378 40.5588 41.0267 40.5473C41.2155 40.5359 41.3981 40.4749 41.556 40.3707C41.7139 40.2664 41.8416 40.1225 41.9264 39.9534C42.0112 39.7842 42.0501 39.5957 42.0391 39.4068L41.9567 37.9725C41.9526 37.924 41.936 37.8774 41.9084 37.8373C41.8808 37.7971 41.8432 37.7649 41.7994 37.7437C41.7556 37.7226 41.707 37.7132 41.6584 37.7165C41.6098 37.7198 41.563 37.7357 41.5224 37.7626Z" fill="white"/>
<path d="M40.7736 42.6738L39.5783 43.4707C39.4222 43.5762 39.2964 43.7206 39.2134 43.8897C39.1305 44.0588 39.0932 44.2467 39.1053 44.4346C39.1173 44.6226 39.1784 44.8041 39.2823 44.9612C39.3863 45.1183 39.5295 45.2455 39.6978 45.3301L39.7323 45.3473C39.9015 45.4317 40.0899 45.4701 40.2786 45.4587C40.4673 45.4473 40.6498 45.3865 40.8076 45.2824C40.9654 45.1783 41.093 45.0345 41.1777 44.8655C41.2624 44.6964 41.3012 44.5081 41.2902 44.3194L41.2079 42.8837C41.2042 42.835 41.1877 42.7881 41.1602 42.7478C41.1327 42.7074 41.0951 42.675 41.0511 42.6538C41.0071 42.6325 40.9584 42.6232 40.9097 42.6267C40.861 42.6302 40.814 42.6465 40.7736 42.6738Z" fill="white"/>
<path d="M47.2735 41.3471L46.8923 42.7323C46.8432 42.9143 46.8425 43.106 46.8904 43.2884C46.9384 43.4707 47.0332 43.6373 47.1655 43.7716C47.2978 43.906 47.4629 44.0033 47.6445 44.054C47.8261 44.1046 48.0178 44.1069 48.2005 44.0605L48.2377 44.0512C48.421 44.0044 48.5887 43.9102 48.724 43.7781C48.8594 43.646 48.9576 43.4806 49.0089 43.2986C49.0601 43.1166 49.0626 42.9242 49.0161 42.7409C48.9696 42.5576 48.8756 42.3898 48.7438 42.2542L47.7437 41.2223C47.7092 41.1867 47.6658 41.161 47.6181 41.1478C47.5703 41.1346 47.5199 41.1343 47.472 41.147C47.4242 41.1597 47.3805 41.185 47.3456 41.2201C47.3108 41.2553 47.2859 41.2991 47.2735 41.3471Z" fill="white"/>
<path d="M38.6765 38.6483L38.0377 39.9366C37.9539 40.106 37.9161 40.2944 37.9279 40.483C37.9398 40.6716 38.0009 40.8538 38.1052 41.0113C38.2096 41.1689 38.3534 41.2963 38.5224 41.3809C38.6914 41.4654 38.8796 41.5042 39.0683 41.4932H39.1055C39.2943 41.4823 39.4769 41.422 39.635 41.3183C39.7932 41.2145 39.9213 41.071 40.0064 40.9022C40.0916 40.7333 40.1309 40.545 40.1203 40.3562C40.1097 40.1674 40.0497 39.9847 39.9462 39.8264L39.1612 38.6218C39.1344 38.5806 39.0971 38.5471 39.0532 38.5249C39.0093 38.5026 38.9603 38.4924 38.9112 38.495C38.8621 38.4977 38.8145 38.5133 38.7733 38.5402C38.7321 38.5671 38.6987 38.6044 38.6765 38.6483Z" fill="white"/>
<path d="M43.2107 37.157L42.2159 36.1197C42.0853 35.983 41.921 35.883 41.7395 35.8297C41.5581 35.7765 41.3658 35.7719 41.182 35.8165C40.9983 35.861 40.8294 35.9531 40.6924 36.0835C40.5555 36.2138 40.4552 36.378 40.4017 36.5593L40.391 36.5952C40.3374 36.7765 40.3323 36.9688 40.3763 37.1527C40.4203 37.3366 40.5118 37.5058 40.6417 37.6432C40.7716 37.7807 40.9354 37.8816 41.1165 37.9359C41.2977 37.9901 41.4899 37.9959 41.674 37.9525L43.0725 37.6231C43.1205 37.6118 43.1647 37.5879 43.2005 37.554C43.2364 37.5201 43.2626 37.4774 43.2766 37.4301C43.2906 37.3828 43.2919 37.3326 43.2803 37.2847C43.2688 37.2367 43.2447 37.1927 43.2107 37.157Z" fill="white"/>
<path d="M44.1059 45.4216L45.5244 45.1852C45.7111 45.1547 45.8866 45.0757 46.0332 44.956C46.1798 44.8363 46.2924 44.6802 46.3596 44.5033C46.4269 44.3264 46.4465 44.135 46.4164 43.9481C46.3864 43.7613 46.3077 43.5856 46.1884 43.4387L46.1645 43.4095C46.045 43.2632 45.8892 43.1507 45.7126 43.0835C45.5361 43.0162 45.345 42.9964 45.1584 43.0261C44.9718 43.0558 44.7963 43.134 44.6493 43.2528C44.5024 43.3715 44.3892 43.5268 44.3211 43.703L43.8031 45.0444C43.7857 45.0901 43.7805 45.1396 43.7881 45.1879C43.7957 45.2362 43.8158 45.2817 43.8464 45.3198C43.877 45.358 43.9171 45.3874 43.9626 45.4053C44.0081 45.4232 44.0575 45.4288 44.1059 45.4216Z" fill="white"/>
<path d="M45.5546 38.1611L46.1921 39.4493C46.2758 39.6183 46.4023 39.7624 46.5591 39.8673C46.7158 39.9721 46.8973 40.034 47.0855 40.0467C47.2737 40.0595 47.4619 40.0227 47.6314 39.94C47.8008 39.8573 47.9457 39.7317 48.0514 39.5755L48.0727 39.545C48.1783 39.3881 48.241 39.2063 48.2543 39.0177C48.2676 38.8291 48.2311 38.6403 48.1486 38.4702C48.066 38.3001 47.9402 38.1546 47.7838 38.0484C47.6274 37.9422 47.4458 37.8789 47.2572 37.8649L45.8202 37.7586C45.7716 37.7563 45.7232 37.7666 45.6798 37.7886C45.6364 37.8106 45.5995 37.8436 45.5727 37.8842C45.5459 37.9248 45.5302 37.9717 45.527 38.0202C45.5238 38.0688 45.5333 38.1173 45.5546 38.1611Z" fill="white"/>
<path d="M43.5507 39.8437L42.3554 40.6406C42.199 40.7458 42.0729 40.8901 41.9897 41.0593C41.9065 41.2284 41.869 41.4165 41.8811 41.6046C41.8932 41.7927 41.9544 41.9744 42.0586 42.1315C42.1628 42.2886 42.3064 42.4156 42.475 42.4999L42.5082 42.5172C42.6776 42.6015 42.8661 42.6399 43.055 42.6284C43.2439 42.6169 43.4264 42.556 43.5843 42.4517C43.7422 42.3475 43.87 42.2036 43.9548 42.0344C44.0395 41.8653 44.0784 41.6768 44.0674 41.4879L43.985 40.0535C43.9809 40.005 43.9643 39.9584 43.9367 39.9183C43.9091 39.8782 43.8716 39.846 43.8277 39.8248C43.7839 39.8036 43.7353 39.7942 43.6867 39.7975C43.6382 39.8008 43.5913 39.8167 43.5507 39.8437Z" fill="white"/>
<path d="M44.686 35.4848L43.4907 36.2817C43.3343 36.3869 43.2082 36.5313 43.1249 36.7005C43.0417 36.8696 43.0043 37.0576 43.0164 37.2457C43.0285 37.4339 43.0897 37.6155 43.1939 37.7726C43.2981 37.9297 43.4416 38.0568 43.6102 38.1411L43.6434 38.157C43.8127 38.2413 44.0011 38.2796 44.1899 38.2682C44.3786 38.2568 44.5611 38.196 44.7189 38.0919C44.8768 37.9878 45.0046 37.8441 45.0895 37.6751C45.1744 37.5062 45.2134 37.3179 45.2026 37.1291L45.1203 35.6934C45.1156 35.6451 45.0986 35.599 45.0708 35.5592C45.0431 35.5195 45.0056 35.4877 44.9619 35.4667C44.9182 35.4457 44.8699 35.4364 44.8216 35.4396C44.7732 35.4427 44.7265 35.4583 44.686 35.4848Z" fill="white"/>
<path opacity="0.24" d="M57.1096 61.9252C60.0898 61.9252 62.5057 59.5092 62.5057 56.529C62.5057 53.5488 60.0898 51.1328 57.1096 51.1328C54.1293 51.1328 51.7134 53.5488 51.7134 56.529C51.7134 59.5092 54.1293 61.9252 57.1096 61.9252Z" fill="#FFF276"/>
<path d="M108.434 35.6367V41.8828H114.867V43.3242H108.434V51H106.922V34.1953H116.379V35.6367H108.434ZM129.916 47.707C129.916 48.1914 129.823 48.6484 129.635 49.0781C129.455 49.5078 129.205 49.8828 128.885 50.2031C128.565 50.5234 128.19 50.7773 127.76 50.9648C127.33 51.1445 126.873 51.2344 126.389 51.2344H125.428C124.944 51.2344 124.487 51.1445 124.057 50.9648C123.627 50.7773 123.252 50.5234 122.932 50.2031C122.612 49.8828 122.358 49.5078 122.17 49.0781C121.991 48.6484 121.901 48.1914 121.901 47.707V42.293C121.901 41.8086 121.991 41.3516 122.17 40.9219C122.358 40.4922 122.612 40.1172 122.932 39.7969C123.252 39.4766 123.627 39.2266 124.057 39.0469C124.487 38.8594 124.944 38.7656 125.428 38.7656H126.389C126.873 38.7656 127.33 38.8594 127.76 39.0469C128.19 39.2266 128.565 39.4766 128.885 39.7969C129.205 40.1172 129.455 40.4922 129.635 40.9219C129.823 41.3516 129.916 41.8086 129.916 42.293V47.707ZM128.475 42.2109C128.475 41.9219 128.42 41.6523 128.311 41.4023C128.202 41.1445 128.053 40.9219 127.866 40.7344C127.678 40.5469 127.455 40.3984 127.198 40.2891C126.948 40.1797 126.678 40.125 126.389 40.125H125.428C125.139 40.125 124.866 40.1797 124.608 40.2891C124.358 40.3984 124.139 40.5469 123.952 40.7344C123.764 40.9219 123.616 41.1445 123.506 41.4023C123.397 41.6523 123.342 41.9219 123.342 42.2109V47.7891C123.342 48.0781 123.397 48.3516 123.506 48.6094C123.616 48.8594 123.764 49.0781 123.952 49.2656C124.139 49.4531 124.358 49.6016 124.608 49.7109C124.866 49.8203 125.139 49.875 125.428 49.875H126.389C126.678 49.875 126.948 49.8203 127.198 49.7109C127.455 49.6016 127.678 49.4531 127.866 49.2656C128.053 49.0781 128.202 48.8594 128.311 48.6094C128.42 48.3516 128.475 48.0781 128.475 47.7891V42.2109ZM144.415 47.707C144.415 48.1914 144.321 48.6484 144.134 49.0781C143.954 49.5078 143.704 49.8828 143.384 50.2031C143.063 50.5234 142.688 50.7773 142.259 50.9648C141.829 51.1445 141.372 51.2344 140.888 51.2344H139.927C139.442 51.2344 138.985 51.1445 138.555 50.9648C138.126 50.7773 137.751 50.5234 137.43 50.2031C137.11 49.8828 136.856 49.5078 136.669 49.0781C136.489 48.6484 136.399 48.1914 136.399 47.707V42.293C136.399 41.8086 136.489 41.3516 136.669 40.9219C136.856 40.4922 137.11 40.1172 137.43 39.7969C137.751 39.4766 138.126 39.2266 138.555 39.0469C138.985 38.8594 139.442 38.7656 139.927 38.7656H140.888C141.372 38.7656 141.829 38.8594 142.259 39.0469C142.688 39.2266 143.063 39.4766 143.384 39.7969C143.704 40.1172 143.954 40.4922 144.134 40.9219C144.321 41.3516 144.415 41.8086 144.415 42.293V47.707ZM142.973 42.2109C142.973 41.9219 142.919 41.6523 142.809 41.4023C142.7 41.1445 142.552 40.9219 142.364 40.7344C142.177 40.5469 141.954 40.3984 141.696 40.2891C141.446 40.1797 141.177 40.125 140.888 40.125H139.927C139.638 40.125 139.364 40.1797 139.106 40.2891C138.856 40.3984 138.638 40.5469 138.45 40.7344C138.263 40.9219 138.114 41.1445 138.005 41.4023C137.895 41.6523 137.841 41.9219 137.841 42.2109V47.7891C137.841 48.0781 137.895 48.3516 138.005 48.6094C138.114 48.8594 138.263 49.0781 138.45 49.2656C138.638 49.4531 138.856 49.6016 139.106 49.7109C139.364 49.8203 139.638 49.875 139.927 49.875H140.888C141.177 49.875 141.446 49.8203 141.696 49.7109C141.954 49.6016 142.177 49.4531 142.364 49.2656C142.552 49.0781 142.7 48.8594 142.809 48.6094C142.919 48.3516 142.973 48.0781 142.973 47.7891V42.2109ZM158.433 51L157.636 49.7812C157.308 50.2266 156.898 50.582 156.405 50.8477C155.913 51.1055 155.374 51.2344 154.788 51.2344H154.425C153.941 51.2344 153.484 51.1445 153.054 50.9648C152.624 50.7773 152.249 50.5234 151.929 50.2031C151.609 49.8828 151.355 49.5078 151.167 49.0781C150.987 48.6484 150.898 48.1914 150.898 47.707V42.293C150.898 41.8086 150.987 41.3516 151.167 40.9219C151.355 40.4922 151.609 40.1172 151.929 39.7969C152.249 39.4766 152.624 39.2266 153.054 39.0469C153.484 38.8594 153.941 38.7656 154.425 38.7656H154.788C155.327 38.7656 155.827 38.875 156.288 39.0938C156.749 39.3125 157.144 39.6172 157.472 40.0078V34.1953H158.913V51H158.433ZM157.472 42.2109C157.472 41.9219 157.417 41.6523 157.308 41.4023C157.198 41.1445 157.05 40.9219 156.862 40.7344C156.675 40.5469 156.452 40.3984 156.195 40.2891C155.945 40.1797 155.675 40.125 155.386 40.125H154.425C154.136 40.125 153.862 40.1797 153.605 40.2891C153.355 40.3984 153.136 40.5469 152.948 40.7344C152.761 40.9219 152.612 41.1445 152.503 41.4023C152.394 41.6523 152.339 41.9219 152.339 42.2109V47.7891C152.339 48.0781 152.394 48.3516 152.503 48.6094C152.612 48.8594 152.761 49.0781 152.948 49.2656C153.136 49.4531 153.355 49.6016 153.605 49.7109C153.862 49.8203 154.136 49.875 154.425 49.875H155.386C155.675 49.875 155.945 49.8203 156.195 49.7109C156.452 49.6016 156.675 49.4531 156.862 49.2656C157.05 49.0781 157.198 48.8594 157.308 48.6094C157.417 48.3516 157.472 48.0781 157.472 47.7891V42.2109ZM167.341 55.8047H165.947L168.08 49.9688L164.189 39H165.63L168.759 48.0938L168.806 48.7148L168.853 48.0938L171.97 39H173.412L167.341 55.8047ZM197.287 51H196.807L195.928 49.6523C195.561 50.1367 195.116 50.5234 194.592 50.8125C194.069 51.0938 193.487 51.2344 192.846 51.2344H191.967C191.397 51.2344 190.858 51.1289 190.35 50.918C189.85 50.6992 189.412 50.4023 189.037 50.0273C188.662 49.6523 188.366 49.2148 188.147 48.7148C187.936 48.2148 187.83 47.6797 187.83 47.1094V38.0859C187.83 37.5156 187.936 36.9805 188.147 36.4805C188.366 35.9805 188.662 35.543 189.037 35.168C189.412 34.793 189.85 34.5 190.35 34.2891C190.858 34.0703 191.397 33.9609 191.967 33.9609H193.162C193.733 33.9609 194.268 34.0703 194.768 34.2891C195.268 34.5 195.705 34.793 196.08 35.168C196.455 35.543 196.748 35.9805 196.959 36.4805C197.178 36.9805 197.287 37.5156 197.287 38.0859V38.7656L195.776 39V38.0859C195.776 37.7109 195.705 37.3633 195.565 37.043C195.424 36.7148 195.233 36.4297 194.991 36.1875C194.748 35.9453 194.463 35.7539 194.135 35.6133C193.815 35.4727 193.467 35.4023 193.092 35.4023H192.037C191.662 35.4023 191.311 35.4727 190.983 35.6133C190.662 35.7539 190.377 35.9453 190.127 36.1875C189.885 36.4297 189.694 36.7148 189.553 37.043C189.412 37.3633 189.342 37.7109 189.342 38.0859V47.1094C189.342 47.4844 189.412 47.8359 189.553 48.1641C189.694 48.4844 189.885 48.7695 190.127 49.0195C190.377 49.2617 190.662 49.4531 190.983 49.5938C191.311 49.7344 191.662 49.8047 192.037 49.8047H193.092C193.467 49.8047 193.815 49.7344 194.135 49.5938C194.463 49.4531 194.748 49.2617 194.991 49.0195C195.233 48.7695 195.424 48.4844 195.565 48.1641C195.705 47.8359 195.776 47.4844 195.776 47.1094V43.6055H193.092V42.1641H197.287V51ZM213.708 47.1094C213.708 47.6797 213.598 48.2148 213.38 48.7148C213.169 49.2148 212.876 49.6523 212.501 50.0273C212.126 50.4023 211.688 50.6992 211.188 50.918C210.688 51.1289 210.153 51.2344 209.583 51.2344H208.387C207.817 51.2344 207.278 51.1289 206.77 50.918C206.27 50.6992 205.833 50.4023 205.458 50.0273C205.083 49.6523 204.786 49.2148 204.567 48.7148C204.356 48.2148 204.251 47.6797 204.251 47.1094V38.0859C204.251 37.5156 204.356 36.9805 204.567 36.4805C204.786 35.9805 205.083 35.543 205.458 35.168C205.833 34.793 206.27 34.5 206.77 34.2891C207.278 34.0703 207.817 33.9609 208.387 33.9609H209.583C210.153 33.9609 210.688 34.0703 211.188 34.2891C211.688 34.5 212.126 34.793 212.501 35.168C212.876 35.543 213.169 35.9805 213.38 36.4805C213.598 36.9805 213.708 37.5156 213.708 38.0859V47.1094ZM212.196 38.0859C212.196 37.7109 212.126 37.3633 211.985 37.043C211.845 36.7148 211.653 36.4297 211.411 36.1875C211.169 35.9453 210.884 35.7539 210.555 35.6133C210.235 35.4727 209.887 35.4023 209.512 35.4023H208.458C208.083 35.4023 207.731 35.4727 207.403 35.6133C207.083 35.7539 206.798 35.9453 206.548 36.1875C206.305 36.4297 206.114 36.7148 205.973 37.043C205.833 37.3633 205.762 37.7109 205.762 38.0859V47.1094C205.762 47.4844 205.833 47.8359 205.973 48.1641C206.114 48.4844 206.305 48.7695 206.548 49.0195C206.798 49.2617 207.083 49.4531 207.403 49.5938C207.731 49.7344 208.083 49.8047 208.458 49.8047H209.512C209.887 49.8047 210.235 49.7344 210.555 49.5938C210.884 49.4531 211.169 49.2617 211.411 49.0195C211.653 48.7695 211.845 48.4844 211.985 48.1641C212.126 47.8359 212.196 47.4844 212.196 47.1094V38.0859Z" fill="black"/>
<defs>
<linearGradient id="paint0_linear_19_2605" x1="20.7469" y1="27.8624" x2="30.0185" y2="41.6205" gradientUnits="userSpaceOnUse">
<stop offset="0.102" stop-color="#FFD59E"/>
<stop offset="0.301" stop-color="#FFB76C"/>
</linearGradient>
<linearGradient id="paint1_linear_19_2605" x1="31.3247" y1="31.5833" x2="38.548" y2="16.6523" gradientUnits="userSpaceOnUse">
<stop offset="0.102" stop-color="#FFD59E"/>
<stop offset="0.301" stop-color="#FFB76C"/>
</linearGradient>
<linearGradient id="paint2_linear_19_2605" x1="48.082" y1="15.0989" x2="45.8752" y2="31.5421" gradientUnits="userSpaceOnUse">
<stop offset="0.102" stop-color="#FFD59E"/>
<stop offset="0.301" stop-color="#FFB76C"/>
</linearGradient>
</defs>
</svg>
