<svg width="55" height="55" viewBox="0 0 55 55" fill="none" xmlns="http://www.w3.org/2000/svg">
<circle cx="27.5" cy="27.5" r="27.5" fill="black"/>
<path d="M37.2993 35.5757L32.7051 30.9814C33.8112 29.509 34.4083 27.7166 34.4062 25.875C34.4062 21.1709 30.5791 17.3438 25.875 17.3438C21.1709 17.3438 17.3438 21.1709 17.3438 25.875C17.3438 30.5791 21.1709 34.4062 25.875 34.4062C27.7166 34.4083 29.509 33.8112 30.9814 32.7051L35.5757 37.2993C35.8082 37.5072 36.1116 37.6182 36.4234 37.6094C36.7352 37.6007 37.0318 37.473 37.2524 37.2524C37.473 37.0318 37.6007 36.7352 37.6094 36.4234C37.6182 36.1116 37.5072 35.8082 37.2993 35.5757ZM19.7812 25.875C19.7812 24.6698 20.1386 23.4916 20.8082 22.4895C21.4778 21.4874 22.4295 20.7063 23.543 20.2451C24.6565 19.7839 25.8818 19.6632 27.0638 19.8983C28.2459 20.1335 29.3317 20.7138 30.1839 21.5661C31.0362 22.4183 31.6165 23.5041 31.8517 24.6862C32.0868 25.8682 31.9661 27.0935 31.5049 28.207C31.0437 29.3205 30.2626 30.2722 29.2605 30.9418C28.2584 31.6114 27.0802 31.9687 25.875 31.9687C24.2594 31.9668 22.7106 31.3242 21.5682 30.1818C20.4258 29.0394 19.7832 27.4906 19.7812 25.875Z" fill="white"/>
</svg>
