<svg width="92" height="92" viewBox="0 0 92 92" fill="none" xmlns="http://www.w3.org/2000/svg">
<g clip-path="url(#clip0_14_2535)">
<path d="M75.9828 0H56.7333H35.2667H16.0172L0 25.6266V92H35.2667H56.7333H92V25.6266L75.9828 0ZM74.2839 3.06667L87.7005 24.5333H56.7333V3.06667H74.2839ZM46 3.06667H53.6667V24.5333H46H38.3333V3.06667H46ZM38.3333 27.6H39.8667C39.8667 28.4464 40.5536 29.1333 41.4 29.1333C42.2464 29.1333 42.9333 28.4464 42.9333 27.6H49.0667C49.0667 28.4464 49.7536 29.1333 50.6 29.1333C51.4464 29.1333 52.1333 28.4464 52.1333 27.6H53.6667V33.0985L52.1333 31.5652L46 37.6985L39.8667 31.5652L38.3333 33.0985V27.6ZM17.7161 3.06667H35.2667V24.5333H4.29947L17.7161 3.06667ZM38.3333 88.9333V84.9681L39.8667 86.5015L46 80.3681L52.1333 86.5015L53.6667 84.9681V88.9333H38.3333ZM56.7333 88.9333V77.5652L52.1333 82.1652L46 76.0319L39.8667 82.1652L35.2667 77.5652V88.9333H3.06667V27.6H35.2667V40.5015L39.8667 35.9015L46 42.0348L52.1333 35.9015L56.7333 40.5015V27.6H88.9333V88.9333H56.7333Z" fill="black"/>
<path d="M30.6665 73.6H61.3332V46H30.6665V73.6ZM33.7332 49.0667H58.2665V70.5333H33.7332V49.0667Z" fill="black"/>
<path d="M47.5331 64.4H38.3331C37.4867 64.4 36.7998 65.0854 36.7998 65.9334C36.7998 66.7813 37.4867 67.4667 38.3331 67.4667H47.5331C48.3795 67.4667 49.0665 66.7813 49.0665 65.9334C49.0665 65.0854 48.3795 64.4 47.5331 64.4Z" fill="black"/>
<path d="M53.6668 64.4H52.1334C51.287 64.4 50.6001 65.0854 50.6001 65.9334C50.6001 66.7813 51.287 67.4667 52.1334 67.4667H53.6668C54.5132 67.4667 55.2001 66.7813 55.2001 65.9334C55.2001 65.0854 54.5132 64.4 53.6668 64.4Z" fill="black"/>
<path d="M53.6664 52.1333H44.4664C43.62 52.1333 42.9331 52.8187 42.9331 53.6666C42.9331 54.5146 43.62 55.2 44.4664 55.2H53.6664C54.5128 55.2 55.1998 54.5146 55.1998 53.6666C55.1998 52.8187 54.5128 52.1333 53.6664 52.1333Z" fill="black"/>
<path d="M53.6669 58.2667H50.6002C49.7538 58.2667 49.0669 58.9521 49.0669 59.8001C49.0669 60.648 49.7538 61.3334 50.6002 61.3334H53.6669C54.5133 61.3334 55.2002 60.648 55.2002 59.8001C55.2002 58.9521 54.5133 58.2667 53.6669 58.2667Z" fill="black"/>
<path d="M38.3331 61.3334H41.3998C42.2462 61.3334 42.9331 60.648 42.9331 59.8001C42.9331 58.9521 42.2462 58.2667 41.3998 58.2667H38.3331C37.4867 58.2667 36.7998 58.9521 36.7998 59.8001C36.7998 60.648 37.4867 61.3334 38.3331 61.3334Z" fill="black"/>
<path d="M38.3331 55.2H39.8665C40.7129 55.2 41.3998 54.5146 41.3998 53.6666C41.3998 52.8187 40.7129 52.1333 39.8665 52.1333H38.3331C37.4867 52.1333 36.7998 52.8187 36.7998 53.6666C36.7998 54.5146 37.4867 55.2 38.3331 55.2Z" fill="black"/>
<path d="M47.0888 60.8887C47.3648 60.5974 47.5335 60.1987 47.5335 59.8001C47.5335 59.4014 47.3648 59.0012 47.0888 58.7114C46.5061 58.1441 45.4788 58.1441 44.9115 58.7114C44.6355 59.0012 44.4668 59.3845 44.4668 59.8001C44.4668 60.2141 44.6355 60.5974 44.9115 60.8887C45.2028 61.1647 45.6015 61.3334 46.0001 61.3334C46.3988 61.3334 46.7975 61.1647 47.0888 60.8887Z" fill="black"/>
<path d="M46.0001 6.13332C46.847 6.13332 47.5335 5.44682 47.5335 4.59998C47.5335 3.75315 46.847 3.06665 46.0001 3.06665C45.1533 3.06665 44.4668 3.75315 44.4668 4.59998C44.4668 5.44682 45.1533 6.13332 46.0001 6.13332Z" fill="black"/>
<path d="M41.4 10.7333C42.2469 10.7333 42.9334 10.0468 42.9334 9.19996C42.9334 8.35312 42.2469 7.66663 41.4 7.66663C40.5532 7.66663 39.8667 8.35312 39.8667 9.19996C39.8667 10.0468 40.5532 10.7333 41.4 10.7333Z" fill="black"/>
<path d="M41.4 19.9334C42.2469 19.9334 42.9334 19.2469 42.9334 18.4C42.9334 17.5532 42.2469 16.8667 41.4 16.8667C40.5532 16.8667 39.8667 17.5532 39.8667 18.4C39.8667 19.2469 40.5532 19.9334 41.4 19.9334Z" fill="black"/>
<path d="M46.0001 15.3334C46.847 15.3334 47.5335 14.6469 47.5335 13.8001C47.5335 12.9532 46.847 12.2667 46.0001 12.2667C45.1533 12.2667 44.4668 12.9532 44.4668 13.8001C44.4668 14.6469 45.1533 15.3334 46.0001 15.3334Z" fill="black"/>
<path d="M50.6002 10.7333C51.4471 10.7333 52.1336 10.0468 52.1336 9.19996C52.1336 8.35312 51.4471 7.66663 50.6002 7.66663C49.7534 7.66663 49.0669 8.35312 49.0669 9.19996C49.0669 10.0468 49.7534 10.7333 50.6002 10.7333Z" fill="black"/>
<path d="M50.6002 19.9334C51.4471 19.9334 52.1336 19.2469 52.1336 18.4C52.1336 17.5532 51.4471 16.8667 50.6002 16.8667C49.7534 16.8667 49.0669 17.5532 49.0669 18.4C49.0669 19.2469 49.7534 19.9334 50.6002 19.9334Z" fill="black"/>
<path d="M46.0001 24.5333C46.847 24.5333 47.5335 23.8468 47.5335 23C47.5335 22.1532 46.847 21.4667 46.0001 21.4667C45.1533 21.4667 44.4668 22.1532 44.4668 23C44.4668 23.8468 45.1533 24.5333 46.0001 24.5333Z" fill="black"/>
<path d="M46.0001 33.7333C46.847 33.7333 47.5335 33.0468 47.5335 32.2C47.5335 31.3531 46.847 30.6666 46.0001 30.6666C45.1533 30.6666 44.4668 31.3531 44.4668 32.2C44.4668 33.0468 45.1533 33.7333 46.0001 33.7333Z" fill="black"/>
</g>
<defs>
<clipPath id="clip0_14_2535">
<rect width="92" height="92" fill="white"/>
</clipPath>
</defs>
</svg>
