<svg width="87" height="87" viewBox="0 0 87 87" fill="none" xmlns="http://www.w3.org/2000/svg">
<path d="M25.1017 67.5625C24.62 67.7542 24.0818 67.7466 23.6056 67.5415C23.1295 67.3364 22.7543 66.9505 22.5626 66.4688C22.371 65.987 22.3785 65.4489 22.5837 64.9727C22.7888 64.4965 23.1746 64.1213 23.6564 63.9297C24.8966 63.4337 26.0452 62.7339 27.0548 61.8594C27.1909 61.7628 27.3098 61.6439 27.4064 61.5078C29.1075 59.778 30.2739 57.5945 30.7658 55.2188C29.8354 54.8885 28.9227 54.5104 28.0314 54.0859C25.8804 53.0738 23.9645 51.6236 22.4064 49.8281C22.213 49.6353 22.0621 49.404 21.9637 49.1493C21.8652 48.8945 21.8212 48.622 21.8346 48.3492C21.848 48.0764 21.9185 47.8094 22.0415 47.5655C22.1644 47.3217 22.3372 47.1063 22.5486 46.9334C22.76 46.7604 23.0053 46.6337 23.2687 46.5615C23.5321 46.4892 23.8077 46.473 24.0777 46.5139C24.3478 46.5548 24.6063 46.6518 24.8365 46.7988C25.0667 46.9458 25.2635 47.1394 25.4142 47.3672C26.6184 48.7277 28.0958 49.8191 29.7501 50.5703C31.0076 51.1858 32.3142 51.6954 33.6564 52.0938C36.8351 53.1288 40.1571 53.6561 43.5001 53.6562V0.53125C40.7505 0.534355 38.037 1.15766 35.5617 2.35475C33.0864 3.55184 30.9129 5.29188 29.2033 7.44531C26.8676 6.67802 24.3839 6.47269 21.954 6.846C19.524 7.21931 17.2165 8.16074 15.2189 9.59375C13.0687 11.0587 11.3439 13.0658 10.2189 15.4118C9.09391 17.7578 8.60879 20.3594 8.81263 22.9531C6.33371 25.1737 4.32543 27.8689 2.90664 30.8794C1.48786 33.8899 0.687396 37.1544 0.552635 40.4797C0.417875 43.805 0.951552 47.1236 2.12208 50.239C3.29262 53.3544 5.07621 56.2033 7.36732 58.6172C7.54665 62.8537 9.2857 66.8744 12.2501 69.9062C13.6476 71.3403 15.318 72.48 17.163 73.2582C19.0079 74.0365 20.99 74.4374 22.9923 74.4375C26.0429 74.3005 29.0335 73.5429 31.7814 72.2109C31.2637 69.8079 30.0554 67.6085 28.3048 65.8828C27.3057 66.5648 26.2308 67.1285 25.1017 67.5625Z" fill="#00963E"/>
<path d="M78.1875 22.8751C78.4036 20.2798 77.9239 17.6739 76.7979 15.3257C75.6719 12.9775 73.9402 10.972 71.7812 9.51567C69.7837 8.08266 67.4761 7.14124 65.0462 6.76792C62.6162 6.39461 60.1325 6.59994 57.7969 7.36724C56.0794 5.22812 53.9026 3.50295 51.4276 2.3196C48.9527 1.13624 46.2433 0.52504 43.5 0.531298V53.6563C46.8498 53.6982 50.1853 53.2104 53.3828 52.211C54.7266 51.8174 56.0336 51.3077 57.2891 50.6876C58.9446 49.9036 60.4207 48.7866 61.625 47.4063C61.7842 47.2055 61.9822 47.0387 62.2071 46.9158C62.432 46.7929 62.6793 46.7165 62.9343 46.691C63.1893 46.6655 63.4469 46.6914 63.6917 46.7674C63.9365 46.8433 64.1635 46.9676 64.3594 47.1329C64.7559 47.4607 65.0071 47.9318 65.0583 48.4438C65.1095 48.9558 64.9566 49.4673 64.6328 49.8672C63.1081 51.6692 61.2346 53.1441 59.125 54.2032C58.2266 54.6329 57.2891 54.9844 56.3516 55.336C56.8815 57.8429 58.1784 60.1228 60.0625 61.8594C61.0783 62.7255 62.2254 63.4243 63.4609 63.9297C63.7174 63.9785 63.9618 64.0772 64.1801 64.2204C64.3984 64.3636 64.5864 64.5484 64.7333 64.7642C64.8802 64.98 64.9832 65.2227 65.0363 65.4783C65.0894 65.7339 65.0917 65.9975 65.043 66.254C64.9942 66.5104 64.8955 66.7548 64.7523 66.9731C64.6091 67.1914 64.4243 67.3794 64.2085 67.5263C63.9927 67.6732 63.75 67.7762 63.4944 67.8293C63.2388 67.8825 62.9752 67.8847 62.7188 67.836C62.4876 67.8908 62.2468 67.8908 62.0156 67.836C60.9271 67.3939 59.8919 66.8304 58.9297 66.1563C57.1234 67.781 55.8332 69.8996 55.2188 72.2501C57.936 73.5462 60.8837 74.2898 63.8906 74.4375C65.9127 74.4532 67.917 74.0599 69.7832 73.2812C71.6493 72.5025 73.3388 71.3546 74.75 69.9063C77.7321 66.8547 79.4726 62.8029 79.6328 58.5391C81.9239 56.1253 83.7075 53.2763 84.8781 50.1609C86.0486 47.0455 86.5823 43.7269 86.4475 40.4016C86.3127 37.0763 85.5123 33.8118 84.0935 30.8013C82.6747 27.7909 80.6664 25.0956 78.1875 22.8751Z" fill="#00C853"/>
<path d="M64.6328 49.9455C64.9566 49.5456 65.1095 49.0341 65.0583 48.5221C65.0071 48.0101 64.7559 47.539 64.3594 47.2112C64.1635 47.0458 63.9365 46.9216 63.6917 46.8456C63.4469 46.7697 63.1893 46.7438 62.9343 46.7693C62.6793 46.7948 62.432 46.8712 62.2071 46.9941C61.9822 47.117 61.7842 47.2838 61.625 47.4846C60.4131 48.8367 58.9376 49.9267 57.2891 50.6877C56.0336 51.3079 54.7266 51.8176 53.3828 52.2112C50.1853 53.2105 46.8498 53.6983 43.5 53.6565V86.469H53.2656C53.7836 86.469 54.2804 86.2632 54.6467 85.8969C55.013 85.5306 55.2188 85.0338 55.2188 84.5158V72.9924C55.1999 72.7454 55.1999 72.4973 55.2188 72.2502C55.7182 69.8292 56.9287 67.6122 58.6953 65.883C59.6575 66.5572 60.6927 67.1206 61.7813 67.5627C62.0124 67.6175 62.2532 67.6175 62.4844 67.5627C62.7409 67.6114 63.0044 67.6092 63.2601 67.5561C63.5157 67.5029 63.7583 67.4 63.9741 67.2531C64.19 67.1062 64.3747 66.9182 64.5179 66.6999C64.6611 66.4816 64.7599 66.2372 64.8086 65.9807C64.8573 65.7242 64.8551 65.4606 64.8019 65.205C64.7488 64.9494 64.6458 64.7067 64.4989 64.4909C64.352 64.2751 64.1641 64.0903 63.9457 63.9472C63.7274 63.804 63.483 63.7052 63.2266 63.6565C61.9911 63.1511 60.8439 62.4522 59.8281 61.5862C58.0147 59.8754 56.7618 57.6556 56.2344 55.219C57.1719 54.8674 58.1094 54.5158 59.0078 54.0862C61.142 53.0979 63.0551 51.6897 64.6328 49.9455Z" fill="#76FF03"/>
<path d="M33.6171 52.2108C32.2749 51.8124 30.9683 51.3028 29.7108 50.6873C28.0633 49.9086 26.599 48.7904 25.414 47.4061C25.2633 47.1783 25.0664 46.9847 24.8362 46.8377C24.606 46.6907 24.3476 46.5937 24.0775 46.5528C23.8075 46.5119 23.5318 46.5281 23.2685 46.6003C23.0051 46.6726 22.7597 46.7993 22.5484 46.9723C22.337 47.1452 22.1642 47.3606 22.0412 47.6044C21.9182 47.8483 21.8478 48.1153 21.8344 48.3881C21.821 48.6608 21.8649 48.9334 21.9634 49.1882C22.0619 49.4429 22.2127 49.6742 22.4062 49.867C23.911 51.6735 25.7728 53.1497 27.8749 54.203C28.7662 54.6274 29.6789 55.0056 30.6093 55.3358C30.1049 57.6332 28.9684 59.7438 27.328 61.4295C27.2314 61.5656 27.1126 61.6845 26.9765 61.7811C25.9669 62.6556 24.8182 63.3554 23.578 63.8514C23.0963 64.0431 22.7104 64.4182 22.5053 64.8944C22.3002 65.3706 22.2926 65.9087 22.4843 66.3905C22.6759 66.8722 23.0511 67.2581 23.5273 67.4632C24.0035 67.6683 24.5416 67.6759 25.0233 67.4842C26.1119 67.0421 27.1471 66.4787 28.1093 65.8045C29.9447 67.526 31.2234 69.757 31.7812 72.2108C31.8029 72.4707 31.8029 72.7321 31.7812 72.992V84.5155C31.7812 85.0335 31.9869 85.5302 32.3532 85.8965C32.7195 86.2628 33.2163 86.4686 33.7343 86.4686H43.4999V53.6561C40.1501 53.6979 36.8147 53.2102 33.6171 52.2108Z" fill="#64DD17"/>
</svg>
