<svg width="120" height="120" viewBox="0 0 120 120" fill="none" xmlns="http://www.w3.org/2000/svg">
<path d="M7.6875 55.5L11.8125 54.9375" stroke="black" stroke-width="2" stroke-miterlimit="10" stroke-linecap="round" stroke-linejoin="round"/>
<path d="M15.75 51.375L19.3125 44.4375L24.1875 54.75L35.4375 56.4375L27.1875 64.3125L29.0625 75.5625L19.125 70.125L8.8125 75.375L10.875 64.125L4.6875 57.9375" stroke="black" stroke-width="2" stroke-miterlimit="10" stroke-linecap="round" stroke-linejoin="round"/>
<path d="M45.75 58.125L43.6875 56.0625L54.9375 54.5625L60.1875 44.4375L65.0625 54.75L76.3125 56.4375L68.0625 64.3125L69.9375 75.5625L59.8125 70.125L49.6875 75.375L51.75 64.125L49.875 62.25" stroke="black" stroke-width="2" stroke-miterlimit="10" stroke-linecap="round" stroke-linejoin="round"/>
<path d="M90.5625 75.375L92.625 64.125L84.5625 56.0625L95.8125 54.5625L100.875 44.4375L105.938 54.75L117.188 56.4375L115.5 57.9375" stroke="black" stroke-width="2" stroke-miterlimit="10" stroke-linecap="round" stroke-linejoin="round"/>
<path d="M111 62.25L108.937 64.3125L110.812 75.5625L100.688 70.125L98.8125 71.25" stroke="black" stroke-width="2" stroke-miterlimit="10" stroke-linecap="round" stroke-linejoin="round"/>
</svg>
