<svg width="45" height="45" viewBox="0 0 45 45" fill="none" xmlns="http://www.w3.org/2000/svg">
<g clip-path="url(#clip0_19_3170)">
<path d="M22.5 0C10.0736 0 0 10.0736 0 22.5C0 34.9264 10.0736 45 22.5 45C34.9264 45 45 34.9264 45 22.5C45 10.0736 34.9264 0 22.5 0ZM33.8924 20.4242C31.5032 20.4242 29.1785 19.6488 27.3885 18.3368L27.3742 27.2577C27.3728 28.9107 26.8672 30.5239 25.925 31.8821C24.9828 33.2403 23.6488 34.2789 22.1011 34.8592C20.5533 35.4396 18.8653 35.5341 17.2624 35.1302C15.6595 34.7262 14.218 33.8431 13.13 32.5985C12.0421 31.354 11.3596 29.8073 11.1736 28.1648C10.9876 26.5223 11.307 24.8621 12.089 23.4058C12.8711 21.9495 14.0787 20.7664 15.5507 20.0142C17.0226 19.2621 18.689 18.9767 20.3273 19.1963V23.5772C19.5545 23.3489 18.7294 23.3697 17.969 23.6367C17.2087 23.9036 16.5517 24.4032 16.0912 25.0646C15.6308 25.726 15.3902 26.5155 15.4037 27.3213C15.4172 28.127 15.6841 28.9081 16.1664 29.5536C16.6487 30.1992 17.3221 30.6765 18.091 30.9179C18.8598 31.1593 19.6852 31.1524 20.45 30.8984C21.2147 30.6443 21.8801 30.1559 22.3517 29.5024C22.8233 28.8489 23.0771 28.0636 23.0773 27.2577V9.60935H27.5839C27.5839 10.4378 27.747 11.2581 28.064 12.0234C28.3811 12.7887 28.8457 13.4842 29.4315 14.0699C30.0173 14.6557 30.7127 15.1204 31.4781 15.4374C32.2434 15.7544 33.0637 15.9175 33.8921 15.9175L33.8924 20.4242Z" fill="black"/>
</g>
<defs>
<clipPath id="clip0_19_3170">
<rect width="45" height="45" fill="white"/>
</clipPath>
</defs>
</svg>
