<svg width="45" height="45" viewBox="0 0 45 45" fill="none" xmlns="http://www.w3.org/2000/svg">
<g clip-path="url(#clip0_19_3176)">
<path d="M22.5 0C10.0736 0 0 10.0736 0 22.5C0 34.9264 10.0736 45 22.5 45C34.9264 45 45 34.9264 45 22.5C45 10.0736 34.9264 0 22.5 0ZM32.3363 17.4591C32.3626 19.137 32.1405 27.5266 24.1779 31.1621C16.2153 34.7975 10.1953 30.2672 10.1953 30.2672C14.6493 30.6867 17.5707 28.1698 17.5707 28.1698C13.9631 28.016 12.9144 24.6602 12.9144 24.6602C14.2008 24.8839 15.091 24.525 15.091 24.525C11.0641 23.4439 11.1666 19.5286 11.1666 19.5286C12.3131 20.209 13.3199 20.0878 13.3199 20.0878C9.59124 17.4032 11.8732 13.4042 11.8732 13.4042C16.068 18.5778 22.3516 18.7221 22.3516 18.7221C22.2624 18.3071 22.2184 17.8836 22.2203 17.4591C22.2203 14.1034 25.1771 12.4254 27.2541 12.4254C29.331 12.4254 30.8681 13.9915 30.8681 13.9915C32.4482 13.9212 34.1401 12.8449 34.1401 12.8449C33.4688 14.8864 32.0571 15.6415 32.0571 15.6415C33.3365 15.5016 34.8051 14.8583 34.8051 14.8583C34.3088 15.9491 32.3363 17.4591 32.3363 17.4591Z" fill="black"/>
</g>
<defs>
<clipPath id="clip0_19_3176">
<rect width="45" height="45" fill="white"/>
</clipPath>
</defs>
</svg>
